G04 #@! TF.GenerationSoftware,KiCad,Pcbnew,(5.0.1)-4*
G04 #@! TF.CreationDate,2019-03-10T19:19:02+01:00*
G04 #@! TF.ProjectId,wii_hdmi_pcb,7769695F68646D695F7063622E6B6963,rev?*
G04 #@! TF.SameCoordinates,Original*
G04 #@! TF.FileFunction,Legend,Top*
G04 #@! TF.FilePolarity,Positive*
%FSLAX46Y46*%
G04 Gerber Fmt 4.6, Leading zero omitted, Abs format (unit mm)*
G04 Created by KiCad (PCBNEW (5.0.1)-4) date 10.03.2019 19:19:02*
%MOMM*%
%LPD*%
G01*
G04 APERTURE LIST*
%ADD10C,0.120000*%
%ADD11C,0.150000*%
G04 APERTURE END LIST*
D10*
G04 #@! TO.C,J1*
X131152000Y-68928000D02*
X131152000Y-67728000D01*
X140462000Y-74728000D02*
X140462000Y-72988000D01*
X129662000Y-74728000D02*
X140462000Y-74728000D01*
X129662000Y-72988000D02*
X129662000Y-74728000D01*
X140462000Y-68928000D02*
X140462000Y-70268000D01*
X138972000Y-68928000D02*
X140462000Y-68928000D01*
X129662000Y-68928000D02*
X129662000Y-70268000D01*
X131152000Y-68928000D02*
X129662000Y-68928000D01*
D11*
G04 #@! TO.C,J2*
X140644000Y-51848000D02*
X129794000Y-51848000D01*
X140644000Y-51848000D02*
X140644000Y-59248000D01*
X129794000Y-51848000D02*
X129794000Y-59248000D01*
G04 #@! TO.C,U1*
X131318000Y-65024000D02*
X131318000Y-65532000D01*
X131318000Y-65532000D02*
X131826000Y-65532000D01*
G04 #@! TO.C,U2*
X134358000Y-65024000D02*
X134358000Y-65532000D01*
X134358000Y-65532000D02*
X134866000Y-65532000D01*
G04 #@! TO.C,U3*
X137414000Y-65024000D02*
X137414000Y-65532000D01*
X137414000Y-65532000D02*
X137922000Y-65532000D01*
G04 #@! TO.C,J1*
X134728666Y-70572380D02*
X134728666Y-71286666D01*
X134681047Y-71429523D01*
X134585809Y-71524761D01*
X134442952Y-71572380D01*
X134347714Y-71572380D01*
X135728666Y-71572380D02*
X135157238Y-71572380D01*
X135442952Y-71572380D02*
X135442952Y-70572380D01*
X135347714Y-70715238D01*
X135252476Y-70810476D01*
X135157238Y-70858095D01*
G04 #@! TO.C,J2*
X134910666Y-55000380D02*
X134910666Y-55714666D01*
X134863047Y-55857523D01*
X134767809Y-55952761D01*
X134624952Y-56000380D01*
X134529714Y-56000380D01*
X135339238Y-55095619D02*
X135386857Y-55048000D01*
X135482095Y-55000380D01*
X135720190Y-55000380D01*
X135815428Y-55048000D01*
X135863047Y-55095619D01*
X135910666Y-55190857D01*
X135910666Y-55286095D01*
X135863047Y-55428952D01*
X135291619Y-56000380D01*
X135910666Y-56000380D01*
G04 #@! TO.C,R1*
X145640380Y-66968666D02*
X145164190Y-67302000D01*
X145640380Y-67540095D02*
X144640380Y-67540095D01*
X144640380Y-67159142D01*
X144688000Y-67063904D01*
X144735619Y-67016285D01*
X144830857Y-66968666D01*
X144973714Y-66968666D01*
X145068952Y-67016285D01*
X145116571Y-67063904D01*
X145164190Y-67159142D01*
X145164190Y-67540095D01*
X145640380Y-66016285D02*
X145640380Y-66587714D01*
X145640380Y-66302000D02*
X144640380Y-66302000D01*
X144783238Y-66397238D01*
X144878476Y-66492476D01*
X144926095Y-66587714D01*
G04 #@! TO.C,R2*
X141776380Y-65698666D02*
X141300190Y-66032000D01*
X141776380Y-66270095D02*
X140776380Y-66270095D01*
X140776380Y-65889142D01*
X140824000Y-65793904D01*
X140871619Y-65746285D01*
X140966857Y-65698666D01*
X141109714Y-65698666D01*
X141204952Y-65746285D01*
X141252571Y-65793904D01*
X141300190Y-65889142D01*
X141300190Y-66270095D01*
X140871619Y-65317714D02*
X140824000Y-65270095D01*
X140776380Y-65174857D01*
X140776380Y-64936761D01*
X140824000Y-64841523D01*
X140871619Y-64793904D01*
X140966857Y-64746285D01*
X141062095Y-64746285D01*
X141204952Y-64793904D01*
X141776380Y-65365333D01*
X141776380Y-64746285D01*
G04 #@! TO.C,R3*
X138517333Y-67000380D02*
X138184000Y-66524190D01*
X137945904Y-67000380D02*
X137945904Y-66000380D01*
X138326857Y-66000380D01*
X138422095Y-66048000D01*
X138469714Y-66095619D01*
X138517333Y-66190857D01*
X138517333Y-66333714D01*
X138469714Y-66428952D01*
X138422095Y-66476571D01*
X138326857Y-66524190D01*
X137945904Y-66524190D01*
X138850666Y-66000380D02*
X139469714Y-66000380D01*
X139136380Y-66381333D01*
X139279238Y-66381333D01*
X139374476Y-66428952D01*
X139422095Y-66476571D01*
X139469714Y-66571809D01*
X139469714Y-66809904D01*
X139422095Y-66905142D01*
X139374476Y-66952761D01*
X139279238Y-67000380D01*
X138993523Y-67000380D01*
X138898285Y-66952761D01*
X138850666Y-66905142D01*
G04 #@! TD*
M02*
