G04 #@! TF.GenerationSoftware,KiCad,Pcbnew,(5.0.1)-4*
G04 #@! TF.CreationDate,2019-03-10T19:19:02+01:00*
G04 #@! TF.ProjectId,wii_hdmi_pcb,7769695F68646D695F7063622E6B6963,rev?*
G04 #@! TF.SameCoordinates,Original*
G04 #@! TF.FileFunction,Copper,L1,Top,Signal*
G04 #@! TF.FilePolarity,Positive*
%FSLAX46Y46*%
G04 Gerber Fmt 4.6, Leading zero omitted, Abs format (unit mm)*
G04 Created by KiCad (PCBNEW (5.0.1)-4) date 10.03.2019 19:19:02*
%MOMM*%
%LPD*%
G01*
G04 APERTURE LIST*
G04 #@! TA.AperFunction,SMDPad,CuDef*
%ADD10R,0.300000X1.300000*%
G04 #@! TD*
G04 #@! TA.AperFunction,SMDPad,CuDef*
%ADD11R,1.800000X2.200000*%
G04 #@! TD*
G04 #@! TA.AperFunction,SMDPad,CuDef*
%ADD12R,0.230000X1.400000*%
G04 #@! TD*
G04 #@! TA.AperFunction,ComponentPad*
%ADD13C,1.400000*%
G04 #@! TD*
G04 #@! TA.AperFunction,ComponentPad*
%ADD14O,1.250000X2.000000*%
G04 #@! TD*
G04 #@! TA.AperFunction,ComponentPad*
%ADD15C,1.500000*%
G04 #@! TD*
G04 #@! TA.AperFunction,ComponentPad*
%ADD16C,3.400000*%
G04 #@! TD*
G04 #@! TA.AperFunction,SMDPad,CuDef*
%ADD17R,0.300000X0.550000*%
G04 #@! TD*
G04 #@! TA.AperFunction,SMDPad,CuDef*
%ADD18R,0.400000X0.550000*%
G04 #@! TD*
G04 #@! TA.AperFunction,Conductor*
%ADD19C,0.100000*%
G04 #@! TD*
G04 #@! TA.AperFunction,SMDPad,CuDef*
%ADD20C,0.590000*%
G04 #@! TD*
G04 #@! TA.AperFunction,ViaPad*
%ADD21C,0.600000*%
G04 #@! TD*
G04 #@! TA.AperFunction,Conductor*
%ADD22C,0.150000*%
G04 #@! TD*
G04 #@! TA.AperFunction,Conductor*
%ADD23C,0.250000*%
G04 #@! TD*
G04 #@! TA.AperFunction,Conductor*
%ADD24C,0.200000*%
G04 #@! TD*
G04 APERTURE END LIST*
D10*
G04 #@! TO.P,J1,15*
G04 #@! TO.N,GND*
X138562000Y-68378000D03*
G04 #@! TO.P,J1,14*
G04 #@! TO.N,+5V*
X138062000Y-68378000D03*
G04 #@! TO.P,J1,13*
G04 #@! TO.N,GND*
X137562000Y-68378000D03*
G04 #@! TO.P,J1,12*
G04 #@! TO.N,TMDS_CLOCK_-*
X137062000Y-68378000D03*
G04 #@! TO.P,J1,11*
G04 #@! TO.N,TMDS_CLOCK_+*
X136562000Y-68378000D03*
G04 #@! TO.P,J1,10*
G04 #@! TO.N,GND*
X136062000Y-68378000D03*
G04 #@! TO.P,J1,9*
G04 #@! TO.N,TMDS_DATA0_-*
X135562000Y-68378000D03*
G04 #@! TO.P,J1,8*
G04 #@! TO.N,TMDS_DATA0_+*
X135062000Y-68378000D03*
G04 #@! TO.P,J1,7*
G04 #@! TO.N,GND*
X134562000Y-68378000D03*
G04 #@! TO.P,J1,6*
G04 #@! TO.N,TMDS_DATA1_-*
X134062000Y-68378000D03*
G04 #@! TO.P,J1,5*
G04 #@! TO.N,TMDS_DATA1_+*
X133562000Y-68378000D03*
G04 #@! TO.P,J1,4*
G04 #@! TO.N,GND*
X133062000Y-68378000D03*
G04 #@! TO.P,J1,3*
G04 #@! TO.N,TMDS_DATA2_-*
X132562000Y-68378000D03*
G04 #@! TO.P,J1,2*
G04 #@! TO.N,TMDS_DATA2_+*
X132062000Y-68378000D03*
G04 #@! TO.P,J1,1*
G04 #@! TO.N,GND*
X131562000Y-68378000D03*
D11*
G04 #@! TO.P,J1,MP*
X129662000Y-71628000D03*
X140462000Y-71628000D03*
G04 #@! TD*
D12*
G04 #@! TO.P,J2,16*
G04 #@! TO.N,SDA*
X137619000Y-59542000D03*
G04 #@! TO.P,J2,17*
G04 #@! TO.N,Net-(J2-Pad17)*
X138019000Y-59542000D03*
G04 #@! TO.P,J2,18*
G04 #@! TO.N,POWER_EDID*
X138419000Y-59542000D03*
G04 #@! TO.P,J2,19*
G04 #@! TO.N,Net-(J2-Pad19)*
X138819000Y-59542000D03*
D13*
G04 #@! TO.P,J2,SH*
G04 #@! TO.N,GND*
X131366000Y-57486000D03*
X138866000Y-57486000D03*
D14*
X129794000Y-53848000D03*
X140644000Y-53848000D03*
X129794000Y-58348000D03*
X140644000Y-58348000D03*
D12*
G04 #@! TO.P,J2,12*
G04 #@! TO.N,TMDS_CLOCK_-*
X136019000Y-59542000D03*
G04 #@! TO.P,J2,14*
G04 #@! TO.N,Net-(J2-Pad14)*
X136819000Y-59542000D03*
G04 #@! TO.P,J2,15*
G04 #@! TO.N,SCL*
X137219000Y-59542000D03*
G04 #@! TO.P,J2,13*
G04 #@! TO.N,GND*
X136419000Y-59542000D03*
G04 #@! TO.P,J2,6*
G04 #@! TO.N,TMDS_DATA1_-*
X133619000Y-59542000D03*
G04 #@! TO.P,J2,4*
G04 #@! TO.N,GND*
X132819000Y-59542000D03*
G04 #@! TO.P,J2,9*
G04 #@! TO.N,TMDS_DATA0_-*
X134819000Y-59542000D03*
G04 #@! TO.P,J2,10*
G04 #@! TO.N,GND*
X135219000Y-59542000D03*
G04 #@! TO.P,J2,11*
G04 #@! TO.N,TMDS_CLOCK_+*
X135619000Y-59542000D03*
G04 #@! TO.P,J2,5*
G04 #@! TO.N,TMDS_DATA1_+*
X133219000Y-59542000D03*
G04 #@! TO.P,J2,8*
G04 #@! TO.N,TMDS_DATA0_+*
X134419000Y-59542000D03*
G04 #@! TO.P,J2,7*
G04 #@! TO.N,GND*
X134019000Y-59542000D03*
G04 #@! TO.P,J2,2*
G04 #@! TO.N,TMDS_DATA2_+*
X132019000Y-59542000D03*
G04 #@! TO.P,J2,3*
G04 #@! TO.N,TMDS_DATA2_-*
X132419000Y-59542000D03*
G04 #@! TO.P,J2,1*
G04 #@! TO.N,GND*
X131619000Y-59542000D03*
G04 #@! TD*
D15*
G04 #@! TO.P,J3,3*
G04 #@! TO.N,Net-(J3-Pad3)*
X148756000Y-65326000D03*
G04 #@! TO.P,J3,7*
G04 #@! TO.N,GND*
X153756000Y-65326000D03*
G04 #@! TO.P,J3,5*
G04 #@! TO.N,Net-(J3-Pad5)*
X151256000Y-65326000D03*
G04 #@! TO.P,J3,1*
G04 #@! TO.N,Net-(J3-Pad1)*
X146256000Y-65326000D03*
G04 #@! TO.P,J3,8*
G04 #@! TO.N,GND*
X153756000Y-68026000D03*
G04 #@! TO.P,J3,6*
G04 #@! TO.N,Net-(J3-Pad6)*
X151256000Y-68026000D03*
G04 #@! TO.P,J3,4*
G04 #@! TO.N,Net-(J3-Pad4)*
X148756000Y-68026000D03*
G04 #@! TO.P,J3,2*
G04 #@! TO.N,Net-(J3-Pad2)*
X146256000Y-68026000D03*
D16*
G04 #@! TO.P,J3,10*
G04 #@! TO.N,GND*
X143256000Y-69238000D03*
G04 #@! TO.P,J3,9*
X143256000Y-62738000D03*
G04 #@! TD*
D17*
G04 #@! TO.P,U1,2*
G04 #@! TO.N,TMDS_DATA2_-*
X132088000Y-65155000D03*
G04 #@! TO.P,U1,1*
G04 #@! TO.N,TMDS_DATA2_+*
X131588000Y-65155000D03*
G04 #@! TO.P,U1,10*
X131588000Y-64385000D03*
G04 #@! TO.P,U1,9*
G04 #@! TO.N,TMDS_DATA2_-*
X132088000Y-64385000D03*
G04 #@! TO.P,U1,4*
G04 #@! TO.N,TMDS_DATA1_+*
X133088000Y-65155000D03*
G04 #@! TO.P,U1,5*
G04 #@! TO.N,TMDS_DATA1_-*
X133588000Y-65155000D03*
G04 #@! TO.P,U1,6*
X133588000Y-64385000D03*
G04 #@! TO.P,U1,7*
G04 #@! TO.N,TMDS_DATA1_+*
X133088000Y-64385000D03*
D18*
G04 #@! TO.P,U1,8*
G04 #@! TO.N,GND*
X132588000Y-64385000D03*
G04 #@! TO.P,U1,3*
X132588000Y-65155000D03*
G04 #@! TD*
D17*
G04 #@! TO.P,U2,2*
G04 #@! TO.N,TMDS_DATA0_-*
X135128000Y-65155000D03*
G04 #@! TO.P,U2,1*
G04 #@! TO.N,TMDS_DATA0_+*
X134628000Y-65155000D03*
G04 #@! TO.P,U2,10*
X134628000Y-64385000D03*
G04 #@! TO.P,U2,9*
G04 #@! TO.N,TMDS_DATA0_-*
X135128000Y-64385000D03*
G04 #@! TO.P,U2,4*
G04 #@! TO.N,TMDS_CLOCK_+*
X136128000Y-65155000D03*
G04 #@! TO.P,U2,5*
G04 #@! TO.N,TMDS_CLOCK_-*
X136628000Y-65155000D03*
G04 #@! TO.P,U2,6*
X136628000Y-64385000D03*
G04 #@! TO.P,U2,7*
G04 #@! TO.N,TMDS_CLOCK_+*
X136128000Y-64385000D03*
D18*
G04 #@! TO.P,U2,8*
G04 #@! TO.N,GND*
X135628000Y-64385000D03*
G04 #@! TO.P,U2,3*
X135628000Y-65155000D03*
G04 #@! TD*
D17*
G04 #@! TO.P,U3,2*
G04 #@! TO.N,SDA*
X138184000Y-65155000D03*
G04 #@! TO.P,U3,1*
G04 #@! TO.N,SCL*
X137684000Y-65155000D03*
G04 #@! TO.P,U3,10*
X137684000Y-64385000D03*
G04 #@! TO.P,U3,9*
G04 #@! TO.N,SDA*
X138184000Y-64385000D03*
G04 #@! TO.P,U3,4*
G04 #@! TO.N,POWER_EDID*
X139184000Y-65155000D03*
G04 #@! TO.P,U3,5*
G04 #@! TO.N,Net-(U3-Pad5)*
X139684000Y-65155000D03*
G04 #@! TO.P,U3,6*
G04 #@! TO.N,Net-(U3-Pad6)*
X139684000Y-64385000D03*
G04 #@! TO.P,U3,7*
G04 #@! TO.N,POWER_EDID*
X139184000Y-64385000D03*
D18*
G04 #@! TO.P,U3,8*
G04 #@! TO.N,GND*
X138684000Y-64385000D03*
G04 #@! TO.P,U3,3*
X138684000Y-65155000D03*
G04 #@! TD*
D19*
G04 #@! TO.N,+5V*
G04 #@! TO.C,R1*
G36*
X144204958Y-66230710D02*
X144219276Y-66232834D01*
X144233317Y-66236351D01*
X144246946Y-66241228D01*
X144260031Y-66247417D01*
X144272447Y-66254858D01*
X144284073Y-66263481D01*
X144294798Y-66273202D01*
X144304519Y-66283927D01*
X144313142Y-66295553D01*
X144320583Y-66307969D01*
X144326772Y-66321054D01*
X144331649Y-66334683D01*
X144335166Y-66348724D01*
X144337290Y-66363042D01*
X144338000Y-66377500D01*
X144338000Y-66672500D01*
X144337290Y-66686958D01*
X144335166Y-66701276D01*
X144331649Y-66715317D01*
X144326772Y-66728946D01*
X144320583Y-66742031D01*
X144313142Y-66754447D01*
X144304519Y-66766073D01*
X144294798Y-66776798D01*
X144284073Y-66786519D01*
X144272447Y-66795142D01*
X144260031Y-66802583D01*
X144246946Y-66808772D01*
X144233317Y-66813649D01*
X144219276Y-66817166D01*
X144204958Y-66819290D01*
X144190500Y-66820000D01*
X143845500Y-66820000D01*
X143831042Y-66819290D01*
X143816724Y-66817166D01*
X143802683Y-66813649D01*
X143789054Y-66808772D01*
X143775969Y-66802583D01*
X143763553Y-66795142D01*
X143751927Y-66786519D01*
X143741202Y-66776798D01*
X143731481Y-66766073D01*
X143722858Y-66754447D01*
X143715417Y-66742031D01*
X143709228Y-66728946D01*
X143704351Y-66715317D01*
X143700834Y-66701276D01*
X143698710Y-66686958D01*
X143698000Y-66672500D01*
X143698000Y-66377500D01*
X143698710Y-66363042D01*
X143700834Y-66348724D01*
X143704351Y-66334683D01*
X143709228Y-66321054D01*
X143715417Y-66307969D01*
X143722858Y-66295553D01*
X143731481Y-66283927D01*
X143741202Y-66273202D01*
X143751927Y-66263481D01*
X143763553Y-66254858D01*
X143775969Y-66247417D01*
X143789054Y-66241228D01*
X143802683Y-66236351D01*
X143816724Y-66232834D01*
X143831042Y-66230710D01*
X143845500Y-66230000D01*
X144190500Y-66230000D01*
X144204958Y-66230710D01*
X144204958Y-66230710D01*
G37*
D20*
G04 #@! TD*
G04 #@! TO.P,R1,2*
G04 #@! TO.N,+5V*
X144018000Y-66525000D03*
D19*
G04 #@! TO.N,POWER_EDID*
G04 #@! TO.C,R1*
G36*
X144204958Y-65260710D02*
X144219276Y-65262834D01*
X144233317Y-65266351D01*
X144246946Y-65271228D01*
X144260031Y-65277417D01*
X144272447Y-65284858D01*
X144284073Y-65293481D01*
X144294798Y-65303202D01*
X144304519Y-65313927D01*
X144313142Y-65325553D01*
X144320583Y-65337969D01*
X144326772Y-65351054D01*
X144331649Y-65364683D01*
X144335166Y-65378724D01*
X144337290Y-65393042D01*
X144338000Y-65407500D01*
X144338000Y-65702500D01*
X144337290Y-65716958D01*
X144335166Y-65731276D01*
X144331649Y-65745317D01*
X144326772Y-65758946D01*
X144320583Y-65772031D01*
X144313142Y-65784447D01*
X144304519Y-65796073D01*
X144294798Y-65806798D01*
X144284073Y-65816519D01*
X144272447Y-65825142D01*
X144260031Y-65832583D01*
X144246946Y-65838772D01*
X144233317Y-65843649D01*
X144219276Y-65847166D01*
X144204958Y-65849290D01*
X144190500Y-65850000D01*
X143845500Y-65850000D01*
X143831042Y-65849290D01*
X143816724Y-65847166D01*
X143802683Y-65843649D01*
X143789054Y-65838772D01*
X143775969Y-65832583D01*
X143763553Y-65825142D01*
X143751927Y-65816519D01*
X143741202Y-65806798D01*
X143731481Y-65796073D01*
X143722858Y-65784447D01*
X143715417Y-65772031D01*
X143709228Y-65758946D01*
X143704351Y-65745317D01*
X143700834Y-65731276D01*
X143698710Y-65716958D01*
X143698000Y-65702500D01*
X143698000Y-65407500D01*
X143698710Y-65393042D01*
X143700834Y-65378724D01*
X143704351Y-65364683D01*
X143709228Y-65351054D01*
X143715417Y-65337969D01*
X143722858Y-65325553D01*
X143731481Y-65313927D01*
X143741202Y-65303202D01*
X143751927Y-65293481D01*
X143763553Y-65284858D01*
X143775969Y-65277417D01*
X143789054Y-65271228D01*
X143802683Y-65266351D01*
X143816724Y-65262834D01*
X143831042Y-65260710D01*
X143845500Y-65260000D01*
X144190500Y-65260000D01*
X144204958Y-65260710D01*
X144204958Y-65260710D01*
G37*
D20*
G04 #@! TD*
G04 #@! TO.P,R1,1*
G04 #@! TO.N,POWER_EDID*
X144018000Y-65555000D03*
D19*
G04 #@! TO.N,SDA*
G04 #@! TO.C,R2*
G36*
X142680958Y-65237710D02*
X142695276Y-65239834D01*
X142709317Y-65243351D01*
X142722946Y-65248228D01*
X142736031Y-65254417D01*
X142748447Y-65261858D01*
X142760073Y-65270481D01*
X142770798Y-65280202D01*
X142780519Y-65290927D01*
X142789142Y-65302553D01*
X142796583Y-65314969D01*
X142802772Y-65328054D01*
X142807649Y-65341683D01*
X142811166Y-65355724D01*
X142813290Y-65370042D01*
X142814000Y-65384500D01*
X142814000Y-65679500D01*
X142813290Y-65693958D01*
X142811166Y-65708276D01*
X142807649Y-65722317D01*
X142802772Y-65735946D01*
X142796583Y-65749031D01*
X142789142Y-65761447D01*
X142780519Y-65773073D01*
X142770798Y-65783798D01*
X142760073Y-65793519D01*
X142748447Y-65802142D01*
X142736031Y-65809583D01*
X142722946Y-65815772D01*
X142709317Y-65820649D01*
X142695276Y-65824166D01*
X142680958Y-65826290D01*
X142666500Y-65827000D01*
X142321500Y-65827000D01*
X142307042Y-65826290D01*
X142292724Y-65824166D01*
X142278683Y-65820649D01*
X142265054Y-65815772D01*
X142251969Y-65809583D01*
X142239553Y-65802142D01*
X142227927Y-65793519D01*
X142217202Y-65783798D01*
X142207481Y-65773073D01*
X142198858Y-65761447D01*
X142191417Y-65749031D01*
X142185228Y-65735946D01*
X142180351Y-65722317D01*
X142176834Y-65708276D01*
X142174710Y-65693958D01*
X142174000Y-65679500D01*
X142174000Y-65384500D01*
X142174710Y-65370042D01*
X142176834Y-65355724D01*
X142180351Y-65341683D01*
X142185228Y-65328054D01*
X142191417Y-65314969D01*
X142198858Y-65302553D01*
X142207481Y-65290927D01*
X142217202Y-65280202D01*
X142227927Y-65270481D01*
X142239553Y-65261858D01*
X142251969Y-65254417D01*
X142265054Y-65248228D01*
X142278683Y-65243351D01*
X142292724Y-65239834D01*
X142307042Y-65237710D01*
X142321500Y-65237000D01*
X142666500Y-65237000D01*
X142680958Y-65237710D01*
X142680958Y-65237710D01*
G37*
D20*
G04 #@! TD*
G04 #@! TO.P,R2,2*
G04 #@! TO.N,SDA*
X142494000Y-65532000D03*
D19*
G04 #@! TO.N,+5V*
G04 #@! TO.C,R2*
G36*
X142680958Y-66207710D02*
X142695276Y-66209834D01*
X142709317Y-66213351D01*
X142722946Y-66218228D01*
X142736031Y-66224417D01*
X142748447Y-66231858D01*
X142760073Y-66240481D01*
X142770798Y-66250202D01*
X142780519Y-66260927D01*
X142789142Y-66272553D01*
X142796583Y-66284969D01*
X142802772Y-66298054D01*
X142807649Y-66311683D01*
X142811166Y-66325724D01*
X142813290Y-66340042D01*
X142814000Y-66354500D01*
X142814000Y-66649500D01*
X142813290Y-66663958D01*
X142811166Y-66678276D01*
X142807649Y-66692317D01*
X142802772Y-66705946D01*
X142796583Y-66719031D01*
X142789142Y-66731447D01*
X142780519Y-66743073D01*
X142770798Y-66753798D01*
X142760073Y-66763519D01*
X142748447Y-66772142D01*
X142736031Y-66779583D01*
X142722946Y-66785772D01*
X142709317Y-66790649D01*
X142695276Y-66794166D01*
X142680958Y-66796290D01*
X142666500Y-66797000D01*
X142321500Y-66797000D01*
X142307042Y-66796290D01*
X142292724Y-66794166D01*
X142278683Y-66790649D01*
X142265054Y-66785772D01*
X142251969Y-66779583D01*
X142239553Y-66772142D01*
X142227927Y-66763519D01*
X142217202Y-66753798D01*
X142207481Y-66743073D01*
X142198858Y-66731447D01*
X142191417Y-66719031D01*
X142185228Y-66705946D01*
X142180351Y-66692317D01*
X142176834Y-66678276D01*
X142174710Y-66663958D01*
X142174000Y-66649500D01*
X142174000Y-66354500D01*
X142174710Y-66340042D01*
X142176834Y-66325724D01*
X142180351Y-66311683D01*
X142185228Y-66298054D01*
X142191417Y-66284969D01*
X142198858Y-66272553D01*
X142207481Y-66260927D01*
X142217202Y-66250202D01*
X142227927Y-66240481D01*
X142239553Y-66231858D01*
X142251969Y-66224417D01*
X142265054Y-66218228D01*
X142278683Y-66213351D01*
X142292724Y-66209834D01*
X142307042Y-66207710D01*
X142321500Y-66207000D01*
X142666500Y-66207000D01*
X142680958Y-66207710D01*
X142680958Y-66207710D01*
G37*
D20*
G04 #@! TD*
G04 #@! TO.P,R2,1*
G04 #@! TO.N,+5V*
X142494000Y-66502000D03*
D19*
G04 #@! TO.N,+5V*
G04 #@! TO.C,R3*
G36*
X141339958Y-66736710D02*
X141354276Y-66738834D01*
X141368317Y-66742351D01*
X141381946Y-66747228D01*
X141395031Y-66753417D01*
X141407447Y-66760858D01*
X141419073Y-66769481D01*
X141429798Y-66779202D01*
X141439519Y-66789927D01*
X141448142Y-66801553D01*
X141455583Y-66813969D01*
X141461772Y-66827054D01*
X141466649Y-66840683D01*
X141470166Y-66854724D01*
X141472290Y-66869042D01*
X141473000Y-66883500D01*
X141473000Y-67228500D01*
X141472290Y-67242958D01*
X141470166Y-67257276D01*
X141466649Y-67271317D01*
X141461772Y-67284946D01*
X141455583Y-67298031D01*
X141448142Y-67310447D01*
X141439519Y-67322073D01*
X141429798Y-67332798D01*
X141419073Y-67342519D01*
X141407447Y-67351142D01*
X141395031Y-67358583D01*
X141381946Y-67364772D01*
X141368317Y-67369649D01*
X141354276Y-67373166D01*
X141339958Y-67375290D01*
X141325500Y-67376000D01*
X141030500Y-67376000D01*
X141016042Y-67375290D01*
X141001724Y-67373166D01*
X140987683Y-67369649D01*
X140974054Y-67364772D01*
X140960969Y-67358583D01*
X140948553Y-67351142D01*
X140936927Y-67342519D01*
X140926202Y-67332798D01*
X140916481Y-67322073D01*
X140907858Y-67310447D01*
X140900417Y-67298031D01*
X140894228Y-67284946D01*
X140889351Y-67271317D01*
X140885834Y-67257276D01*
X140883710Y-67242958D01*
X140883000Y-67228500D01*
X140883000Y-66883500D01*
X140883710Y-66869042D01*
X140885834Y-66854724D01*
X140889351Y-66840683D01*
X140894228Y-66827054D01*
X140900417Y-66813969D01*
X140907858Y-66801553D01*
X140916481Y-66789927D01*
X140926202Y-66779202D01*
X140936927Y-66769481D01*
X140948553Y-66760858D01*
X140960969Y-66753417D01*
X140974054Y-66747228D01*
X140987683Y-66742351D01*
X141001724Y-66738834D01*
X141016042Y-66736710D01*
X141030500Y-66736000D01*
X141325500Y-66736000D01*
X141339958Y-66736710D01*
X141339958Y-66736710D01*
G37*
D20*
G04 #@! TD*
G04 #@! TO.P,R3,2*
G04 #@! TO.N,+5V*
X141178000Y-67056000D03*
D19*
G04 #@! TO.N,SCL*
G04 #@! TO.C,R3*
G36*
X140369958Y-66736710D02*
X140384276Y-66738834D01*
X140398317Y-66742351D01*
X140411946Y-66747228D01*
X140425031Y-66753417D01*
X140437447Y-66760858D01*
X140449073Y-66769481D01*
X140459798Y-66779202D01*
X140469519Y-66789927D01*
X140478142Y-66801553D01*
X140485583Y-66813969D01*
X140491772Y-66827054D01*
X140496649Y-66840683D01*
X140500166Y-66854724D01*
X140502290Y-66869042D01*
X140503000Y-66883500D01*
X140503000Y-67228500D01*
X140502290Y-67242958D01*
X140500166Y-67257276D01*
X140496649Y-67271317D01*
X140491772Y-67284946D01*
X140485583Y-67298031D01*
X140478142Y-67310447D01*
X140469519Y-67322073D01*
X140459798Y-67332798D01*
X140449073Y-67342519D01*
X140437447Y-67351142D01*
X140425031Y-67358583D01*
X140411946Y-67364772D01*
X140398317Y-67369649D01*
X140384276Y-67373166D01*
X140369958Y-67375290D01*
X140355500Y-67376000D01*
X140060500Y-67376000D01*
X140046042Y-67375290D01*
X140031724Y-67373166D01*
X140017683Y-67369649D01*
X140004054Y-67364772D01*
X139990969Y-67358583D01*
X139978553Y-67351142D01*
X139966927Y-67342519D01*
X139956202Y-67332798D01*
X139946481Y-67322073D01*
X139937858Y-67310447D01*
X139930417Y-67298031D01*
X139924228Y-67284946D01*
X139919351Y-67271317D01*
X139915834Y-67257276D01*
X139913710Y-67242958D01*
X139913000Y-67228500D01*
X139913000Y-66883500D01*
X139913710Y-66869042D01*
X139915834Y-66854724D01*
X139919351Y-66840683D01*
X139924228Y-66827054D01*
X139930417Y-66813969D01*
X139937858Y-66801553D01*
X139946481Y-66789927D01*
X139956202Y-66779202D01*
X139966927Y-66769481D01*
X139978553Y-66760858D01*
X139990969Y-66753417D01*
X140004054Y-66747228D01*
X140017683Y-66742351D01*
X140031724Y-66738834D01*
X140046042Y-66736710D01*
X140060500Y-66736000D01*
X140355500Y-66736000D01*
X140369958Y-66736710D01*
X140369958Y-66736710D01*
G37*
D20*
G04 #@! TD*
G04 #@! TO.P,R3,1*
G04 #@! TO.N,SCL*
X140208000Y-67056000D03*
D21*
G04 #@! TO.N,GND*
X138938000Y-66040000D03*
G04 #@! TD*
D22*
G04 #@! TO.N,GND*
X135628000Y-64385000D02*
X135628000Y-65155000D01*
X132588000Y-64385000D02*
X132588000Y-65155000D01*
X138684000Y-64385000D02*
X138684000Y-65155000D01*
X132588000Y-65585012D02*
X133096000Y-66093012D01*
X132588000Y-65155000D02*
X132588000Y-65585012D01*
X132588000Y-63960000D02*
X132588000Y-64385000D01*
X132588000Y-63954988D02*
X132588000Y-63960000D01*
X132819000Y-63723988D02*
X132588000Y-63954988D01*
X132819000Y-60282000D02*
X132819000Y-63723988D01*
X132819000Y-60282000D02*
X132819000Y-58951000D01*
X134019000Y-60282000D02*
X134019000Y-59089000D01*
X135219000Y-60282000D02*
X135219000Y-59019000D01*
X136419000Y-60282000D02*
X136419000Y-58949000D01*
X135219000Y-61032000D02*
X135219000Y-60282000D01*
X135219000Y-63500986D02*
X135219000Y-61032000D01*
X135628000Y-63909986D02*
X135219000Y-63500986D01*
X135628000Y-64385000D02*
X135628000Y-63909986D01*
X134019000Y-60282000D02*
X134019000Y-65216012D01*
X134019000Y-65521024D02*
X134620000Y-66122024D01*
X134019000Y-65216012D02*
X134019000Y-65521024D01*
X135628000Y-65590024D02*
X136144000Y-66106024D01*
X135628000Y-65155000D02*
X135628000Y-65590024D01*
X136419000Y-63216022D02*
X137160000Y-63957022D01*
X136419000Y-60282000D02*
X136419000Y-63216022D01*
X137160000Y-63957022D02*
X137160000Y-65278000D01*
X137562000Y-67293002D02*
X137262018Y-66993020D01*
X137562000Y-68378000D02*
X137562000Y-67293002D01*
X137262018Y-66993020D02*
X137262018Y-66637006D01*
X137160000Y-65622024D02*
X137262018Y-65724042D01*
X137160000Y-65278000D02*
X137160000Y-65622024D01*
X137262018Y-65724042D02*
X137262018Y-66802000D01*
D23*
X138684000Y-65786000D02*
X138684000Y-65155000D01*
X138938000Y-66040000D02*
X138684000Y-65786000D01*
D22*
X132819000Y-59542000D02*
X132819000Y-58189000D01*
X134019000Y-59542000D02*
X134019000Y-58259000D01*
X135219000Y-59542000D02*
X135219000Y-58329000D01*
X136419000Y-59542000D02*
X136419000Y-58399000D01*
G04 #@! TO.N,TMDS_DATA2_+*
X132019000Y-61032000D02*
X132019000Y-60282000D01*
X132019000Y-63529000D02*
X132019000Y-61032000D01*
X131588000Y-63960000D02*
X132019000Y-63529000D01*
X131588000Y-64385000D02*
X131588000Y-63960000D01*
X132062000Y-67578000D02*
X132062000Y-68378000D01*
X132062000Y-66054000D02*
X132062000Y-67578000D01*
X131588000Y-65580000D02*
X132062000Y-66054000D01*
X131588000Y-65155000D02*
X131588000Y-65580000D01*
X131588000Y-64385000D02*
X131588000Y-65155000D01*
G04 #@! TO.N,TMDS_DATA2_-*
X132419000Y-61032000D02*
X132419000Y-60282000D01*
X132419000Y-63629000D02*
X132419000Y-61032000D01*
X132088000Y-63960000D02*
X132419000Y-63629000D01*
X132088000Y-64385000D02*
X132088000Y-63960000D01*
X132562000Y-67578000D02*
X132562000Y-68378000D01*
X132562000Y-66054000D02*
X132562000Y-67578000D01*
X132088000Y-65580000D02*
X132562000Y-66054000D01*
X132088000Y-65155000D02*
X132088000Y-65580000D01*
X132088000Y-64385000D02*
X132088000Y-65155000D01*
G04 #@! TO.N,TMDS_DATA1_+*
X133219000Y-61032000D02*
X133219000Y-60282000D01*
X133219000Y-63829000D02*
X133219000Y-61032000D01*
X133088000Y-63960000D02*
X133219000Y-63829000D01*
X133088000Y-64385000D02*
X133088000Y-63960000D01*
X133562000Y-67578000D02*
X133562000Y-68378000D01*
X133562000Y-66054000D02*
X133562000Y-67578000D01*
X133088000Y-65580000D02*
X133562000Y-66054000D01*
X133088000Y-65155000D02*
X133088000Y-65580000D01*
X133088000Y-64385000D02*
X133088000Y-65155000D01*
G04 #@! TO.N,TMDS_DATA1_-*
X133619000Y-64354000D02*
X133588000Y-64385000D01*
X133619000Y-60282000D02*
X133619000Y-64354000D01*
X133588000Y-65155000D02*
X133588000Y-65280000D01*
X133588000Y-64385000D02*
X133588000Y-65155000D01*
X134062000Y-67578000D02*
X134062000Y-68378000D01*
X134062000Y-66059012D02*
X134062000Y-67578000D01*
X133588000Y-65585012D02*
X134062000Y-66059012D01*
X133588000Y-65155000D02*
X133588000Y-65585012D01*
G04 #@! TO.N,TMDS_DATA0_+*
X134419000Y-61032000D02*
X134419000Y-60282000D01*
X134419000Y-63751000D02*
X134419000Y-61032000D01*
X134628000Y-63960000D02*
X134419000Y-63751000D01*
X134628000Y-64385000D02*
X134628000Y-63960000D01*
X135062000Y-67578000D02*
X135062000Y-68378000D01*
X135062000Y-66014000D02*
X135062000Y-67578000D01*
X134628000Y-65580000D02*
X135062000Y-66014000D01*
X134628000Y-65155000D02*
X134628000Y-65580000D01*
X134628000Y-64385000D02*
X134628000Y-65155000D01*
G04 #@! TO.N,TMDS_DATA0_-*
X135128000Y-63964998D02*
X135128000Y-64385000D01*
X134819000Y-63655998D02*
X135128000Y-63964998D01*
X134819000Y-60282000D02*
X134819000Y-63655998D01*
X135562000Y-67578000D02*
X135562000Y-68378000D01*
X135562000Y-66019012D02*
X135562000Y-67578000D01*
X135128000Y-65585012D02*
X135562000Y-66019012D01*
X135128000Y-65155000D02*
X135128000Y-65585012D01*
X135128000Y-64385000D02*
X135128000Y-65155000D01*
G04 #@! TO.N,TMDS_CLOCK_+*
X136128000Y-63960000D02*
X136128000Y-64385000D01*
X136128000Y-63914998D02*
X136128000Y-63960000D01*
X135619000Y-63405998D02*
X136128000Y-63914998D01*
X135619000Y-60282000D02*
X135619000Y-63405998D01*
X136562000Y-67578000D02*
X136562000Y-68378000D01*
X136562000Y-66014000D02*
X136562000Y-67578000D01*
X136128000Y-65580000D02*
X136562000Y-66014000D01*
X136128000Y-65155000D02*
X136128000Y-65580000D01*
X136128000Y-64385000D02*
X136128000Y-65155000D01*
G04 #@! TO.N,TMDS_CLOCK_-*
X136628000Y-63960000D02*
X136628000Y-64385000D01*
X136628000Y-63920010D02*
X136628000Y-63960000D01*
X136019000Y-63311010D02*
X136628000Y-63920010D01*
X136019000Y-60282000D02*
X136019000Y-63311010D01*
X137062000Y-67578000D02*
X137062000Y-68378000D01*
X137062000Y-67466000D02*
X137062000Y-67578000D01*
X136912008Y-67316008D02*
X137062000Y-67466000D01*
X136912008Y-65869020D02*
X136912008Y-67316008D01*
X136628000Y-65585012D02*
X136912008Y-65869020D01*
X136628000Y-65155000D02*
X136628000Y-65585012D01*
X136628000Y-64385000D02*
X136628000Y-65155000D01*
D23*
G04 #@! TO.N,+5V*
X138137001Y-67402999D02*
X139030999Y-67402999D01*
X138062000Y-68378000D02*
X138062000Y-67478000D01*
X138062000Y-67478000D02*
X138137001Y-67402999D01*
X141178000Y-67476000D02*
X141178000Y-67056000D01*
X140952990Y-67701010D02*
X141178000Y-67476000D01*
X139329010Y-67701010D02*
X140952990Y-67701010D01*
X139030999Y-67402999D02*
X139329010Y-67701010D01*
X141266000Y-66548000D02*
X142494000Y-66548000D01*
X141178000Y-67056000D02*
X141178000Y-66636000D01*
X141178000Y-66636000D02*
X141266000Y-66548000D01*
X142494000Y-66525000D02*
X144018000Y-66525000D01*
D22*
G04 #@! TO.N,SDA*
X138176000Y-65163000D02*
X138184000Y-65155000D01*
X137619000Y-61032000D02*
X137619000Y-60282000D01*
X137619000Y-63197000D02*
X137619000Y-61032000D01*
X138184000Y-63762000D02*
X137619000Y-63197000D01*
X138184000Y-64385000D02*
X138184000Y-63762000D01*
X138184000Y-64385000D02*
X138184000Y-65155000D01*
X142494000Y-65532000D02*
X141716301Y-65532000D01*
X141716301Y-65532000D02*
X140954301Y-66294000D01*
X138184000Y-65580000D02*
X138184000Y-65155000D01*
X138184000Y-66137002D02*
X138184000Y-65580000D01*
X138661999Y-66615001D02*
X138184000Y-66137002D01*
X139214001Y-66615001D02*
X138661999Y-66615001D01*
X139535002Y-66294000D02*
X139214001Y-66615001D01*
X140954301Y-66294000D02*
X139535002Y-66294000D01*
D24*
G04 #@! TO.N,SCL*
X137668000Y-65171000D02*
X137684000Y-65155000D01*
D22*
X137219000Y-61032000D02*
X137219000Y-60282000D01*
X137219000Y-63495000D02*
X137219000Y-61032000D01*
X137684000Y-63960000D02*
X137219000Y-63495000D01*
X137684000Y-64385000D02*
X137684000Y-63960000D01*
X137684000Y-64385000D02*
X137684000Y-65155000D01*
X137684000Y-65580000D02*
X137684000Y-65155000D01*
X137684000Y-66564000D02*
X137684000Y-65580000D01*
X138122989Y-67002989D02*
X137684000Y-66564000D01*
X139759989Y-67002989D02*
X138122989Y-67002989D01*
X139813000Y-67056000D02*
X139759989Y-67002989D01*
X140208000Y-67056000D02*
X139813000Y-67056000D01*
G04 #@! TO.N,POWER_EDID*
X139184000Y-64385000D02*
X139184000Y-65155000D01*
X143424990Y-64961990D02*
X141286010Y-64961990D01*
X144018000Y-65555000D02*
X143424990Y-64961990D01*
X141286010Y-64961990D02*
X140304010Y-65943990D01*
X139184000Y-65580000D02*
X139184000Y-65155000D01*
X139547990Y-65943990D02*
X139184000Y-65580000D01*
X140304010Y-65943990D02*
X139547990Y-65943990D01*
X138409001Y-63185001D02*
X138409001Y-61102001D01*
X139184000Y-64385000D02*
X139184000Y-63960000D01*
X139184000Y-63960000D02*
X138409001Y-63185001D01*
X138409001Y-61102001D02*
X138409001Y-60198000D01*
G04 #@! TD*
G04 #@! TO.N,GND*
G36*
X139436000Y-53294000D02*
X139436000Y-53669000D01*
X140465000Y-53669000D01*
X140465000Y-53649000D01*
X140823000Y-53649000D01*
X140823000Y-53669000D01*
X140843000Y-53669000D01*
X140843000Y-54027000D01*
X140823000Y-54027000D01*
X140823000Y-55270060D01*
X141007683Y-55374954D01*
X141332000Y-55222391D01*
X141332001Y-56973609D01*
X141007683Y-56821046D01*
X140823000Y-56925940D01*
X140823000Y-58169000D01*
X140843000Y-58169000D01*
X140843000Y-58527000D01*
X140823000Y-58527000D01*
X140823000Y-59770060D01*
X141007683Y-59874954D01*
X141332001Y-59722391D01*
X141332001Y-60412601D01*
X141324164Y-60452000D01*
X141355209Y-60608072D01*
X141443616Y-60740384D01*
X141575928Y-60828791D01*
X141692606Y-60852000D01*
X141732000Y-60859836D01*
X141771394Y-60852000D01*
X141978379Y-60852000D01*
X141844882Y-61073738D01*
X143256000Y-62484856D01*
X144667118Y-61073738D01*
X144533621Y-60852000D01*
X145142000Y-60852000D01*
X145142000Y-61460379D01*
X144920262Y-61326882D01*
X143509144Y-62738000D01*
X144920262Y-64149118D01*
X145136356Y-64019019D01*
X145165209Y-64164072D01*
X145253616Y-64296384D01*
X145385928Y-64384791D01*
X145502606Y-64408000D01*
X145542000Y-64415836D01*
X145581394Y-64408000D01*
X145663138Y-64408000D01*
X145647062Y-64414659D01*
X145344659Y-64717062D01*
X145181000Y-65112169D01*
X145181000Y-65539831D01*
X145344659Y-65934938D01*
X145647062Y-66237341D01*
X146042169Y-66401000D01*
X146469831Y-66401000D01*
X146864938Y-66237341D01*
X147167341Y-65934938D01*
X147331000Y-65539831D01*
X147331000Y-65112169D01*
X147167341Y-64717062D01*
X146864938Y-64414659D01*
X146848862Y-64408000D01*
X148163138Y-64408000D01*
X148147062Y-64414659D01*
X147844659Y-64717062D01*
X147681000Y-65112169D01*
X147681000Y-65539831D01*
X147844659Y-65934938D01*
X148147062Y-66237341D01*
X148542169Y-66401000D01*
X148969831Y-66401000D01*
X149364938Y-66237341D01*
X149667341Y-65934938D01*
X149831000Y-65539831D01*
X149831000Y-65112169D01*
X149667341Y-64717062D01*
X149364938Y-64414659D01*
X149348862Y-64408000D01*
X150663138Y-64408000D01*
X150647062Y-64414659D01*
X150344659Y-64717062D01*
X150181000Y-65112169D01*
X150181000Y-65539831D01*
X150344659Y-65934938D01*
X150647062Y-66237341D01*
X151042169Y-66401000D01*
X151469831Y-66401000D01*
X151864938Y-66237341D01*
X152167341Y-65934938D01*
X152331000Y-65539831D01*
X152331000Y-65112169D01*
X152167341Y-64717062D01*
X151864938Y-64414659D01*
X151848862Y-64408000D01*
X152753999Y-64408000D01*
X152669426Y-64492573D01*
X152780835Y-64603982D01*
X152560817Y-64678905D01*
X152404162Y-65185540D01*
X152453313Y-65713557D01*
X152560817Y-65973095D01*
X152780837Y-66048019D01*
X153502856Y-65326000D01*
X153488714Y-65311858D01*
X153741858Y-65058714D01*
X153756000Y-65072856D01*
X153770143Y-65058714D01*
X154023287Y-65311858D01*
X154009144Y-65326000D01*
X154023287Y-65340143D01*
X153770143Y-65593287D01*
X153756000Y-65579144D01*
X153033981Y-66301163D01*
X153108905Y-66521183D01*
X153615540Y-66677838D01*
X154143557Y-66628687D01*
X154286000Y-66569685D01*
X154286000Y-66794611D01*
X153896460Y-66674162D01*
X153368443Y-66723313D01*
X153108905Y-66830817D01*
X153033981Y-67050837D01*
X153756000Y-67772856D01*
X153770143Y-67758714D01*
X154023287Y-68011858D01*
X154009144Y-68026000D01*
X154023287Y-68040143D01*
X153770143Y-68293287D01*
X153756000Y-68279144D01*
X153033981Y-69001163D01*
X153108905Y-69221183D01*
X153615540Y-69377838D01*
X154143557Y-69328687D01*
X154286001Y-69269685D01*
X154286001Y-69450000D01*
X145827334Y-69450000D01*
X145779699Y-69442490D01*
X145710120Y-69459247D01*
X145639928Y-69473209D01*
X145633043Y-69477809D01*
X145624993Y-69479748D01*
X145567122Y-69521856D01*
X145551720Y-69532147D01*
X145524665Y-68814944D01*
X145647062Y-68937341D01*
X146042169Y-69101000D01*
X146469831Y-69101000D01*
X146864938Y-68937341D01*
X147167341Y-68634938D01*
X147331000Y-68239831D01*
X147331000Y-67812169D01*
X147681000Y-67812169D01*
X147681000Y-68239831D01*
X147844659Y-68634938D01*
X148147062Y-68937341D01*
X148542169Y-69101000D01*
X148969831Y-69101000D01*
X149364938Y-68937341D01*
X149667341Y-68634938D01*
X149831000Y-68239831D01*
X149831000Y-67812169D01*
X150181000Y-67812169D01*
X150181000Y-68239831D01*
X150344659Y-68634938D01*
X150647062Y-68937341D01*
X151042169Y-69101000D01*
X151469831Y-69101000D01*
X151864938Y-68937341D01*
X152167341Y-68634938D01*
X152331000Y-68239831D01*
X152331000Y-67885540D01*
X152404162Y-67885540D01*
X152453313Y-68413557D01*
X152560817Y-68673095D01*
X152780837Y-68748019D01*
X153502856Y-68026000D01*
X152780837Y-67303981D01*
X152560817Y-67378905D01*
X152404162Y-67885540D01*
X152331000Y-67885540D01*
X152331000Y-67812169D01*
X152167341Y-67417062D01*
X151864938Y-67114659D01*
X151469831Y-66951000D01*
X151042169Y-66951000D01*
X150647062Y-67114659D01*
X150344659Y-67417062D01*
X150181000Y-67812169D01*
X149831000Y-67812169D01*
X149667341Y-67417062D01*
X149364938Y-67114659D01*
X148969831Y-66951000D01*
X148542169Y-66951000D01*
X148147062Y-67114659D01*
X147844659Y-67417062D01*
X147681000Y-67812169D01*
X147331000Y-67812169D01*
X147167341Y-67417062D01*
X146864938Y-67114659D01*
X146469831Y-66951000D01*
X146042169Y-66951000D01*
X145647062Y-67114659D01*
X145344659Y-67417062D01*
X145181000Y-67812169D01*
X145181000Y-67983859D01*
X144920262Y-67826882D01*
X143509144Y-69238000D01*
X143523287Y-69252143D01*
X143270143Y-69505287D01*
X143256000Y-69491144D01*
X143241858Y-69505287D01*
X142988714Y-69252143D01*
X143002856Y-69238000D01*
X142988714Y-69223858D01*
X143241858Y-68970714D01*
X143256000Y-68984856D01*
X144667118Y-67573738D01*
X144475338Y-67255192D01*
X144193597Y-67150751D01*
X144373754Y-67114915D01*
X144529110Y-67011110D01*
X144632915Y-66855754D01*
X144669367Y-66672500D01*
X144669367Y-66377500D01*
X144632915Y-66194246D01*
X144529852Y-66040000D01*
X144632915Y-65885754D01*
X144669367Y-65702500D01*
X144669367Y-65407500D01*
X144632915Y-65224246D01*
X144529110Y-65068890D01*
X144373754Y-64965085D01*
X144190500Y-64928633D01*
X143973604Y-64928633D01*
X144475338Y-64720808D01*
X144667118Y-64402262D01*
X143256000Y-62991144D01*
X141844882Y-64402262D01*
X141941046Y-64561990D01*
X141325404Y-64561990D01*
X141286010Y-64554154D01*
X141246616Y-64561990D01*
X141129938Y-64585199D01*
X140997626Y-64673606D01*
X140975309Y-64707006D01*
X140143777Y-65538539D01*
X140165367Y-65430000D01*
X140165367Y-64880000D01*
X140143487Y-64770000D01*
X140165367Y-64660000D01*
X140165367Y-64110000D01*
X140140143Y-63983191D01*
X140068312Y-63875688D01*
X139960809Y-63803857D01*
X139834000Y-63778633D01*
X139543890Y-63778633D01*
X139472384Y-63671616D01*
X139438987Y-63649301D01*
X138809001Y-63019317D01*
X138809001Y-62370266D01*
X140957504Y-62370266D01*
X140991741Y-63277855D01*
X141273192Y-63957338D01*
X141591738Y-64149118D01*
X143002856Y-62738000D01*
X141591738Y-61326882D01*
X141273192Y-61518662D01*
X140957504Y-62370266D01*
X138809001Y-62370266D01*
X138809001Y-60573367D01*
X138934000Y-60573367D01*
X139060809Y-60548143D01*
X139168312Y-60476312D01*
X139240143Y-60368809D01*
X139265367Y-60242000D01*
X139265367Y-58842000D01*
X139244671Y-58737956D01*
X139245509Y-58737874D01*
X139436000Y-58658970D01*
X139436000Y-58902000D01*
X139596454Y-59350656D01*
X139916387Y-59703757D01*
X140280317Y-59874954D01*
X140465000Y-59770060D01*
X140465000Y-58527000D01*
X140445000Y-58527000D01*
X140445000Y-58169000D01*
X140465000Y-58169000D01*
X140465000Y-56925940D01*
X140280317Y-56821046D01*
X140045411Y-56931549D01*
X140019562Y-56869145D01*
X139804698Y-56800446D01*
X139119144Y-57486000D01*
X139436000Y-57802856D01*
X139436000Y-58309144D01*
X138866000Y-57739144D01*
X138180446Y-58424698D01*
X138212943Y-58526336D01*
X138134000Y-58510633D01*
X137904000Y-58510633D01*
X137819000Y-58527541D01*
X137734000Y-58510633D01*
X137504000Y-58510633D01*
X137419000Y-58527541D01*
X137334000Y-58510633D01*
X137104000Y-58510633D01*
X137033580Y-58524640D01*
X137028244Y-58511757D01*
X136864243Y-58347756D01*
X136649966Y-58259000D01*
X136622250Y-58259000D01*
X136476500Y-58404750D01*
X136476500Y-58603136D01*
X136469688Y-58607688D01*
X136419000Y-58683548D01*
X136368312Y-58607688D01*
X136361500Y-58603136D01*
X136361500Y-58404750D01*
X136215750Y-58259000D01*
X136188034Y-58259000D01*
X135973757Y-58347756D01*
X135819000Y-58502513D01*
X135664243Y-58347756D01*
X135449966Y-58259000D01*
X135422250Y-58259000D01*
X135276500Y-58404750D01*
X135276500Y-58603136D01*
X135269688Y-58607688D01*
X135219000Y-58683548D01*
X135168312Y-58607688D01*
X135161500Y-58603136D01*
X135161500Y-58404750D01*
X135015750Y-58259000D01*
X134988034Y-58259000D01*
X134773757Y-58347756D01*
X134619000Y-58502513D01*
X134464243Y-58347756D01*
X134249966Y-58259000D01*
X134222250Y-58259000D01*
X134076500Y-58404750D01*
X134076500Y-58603136D01*
X134069688Y-58607688D01*
X134019000Y-58683548D01*
X133968312Y-58607688D01*
X133961500Y-58603136D01*
X133961500Y-58404750D01*
X133815750Y-58259000D01*
X133788034Y-58259000D01*
X133573757Y-58347756D01*
X133419000Y-58502513D01*
X133264243Y-58347756D01*
X133049966Y-58259000D01*
X133022250Y-58259000D01*
X132876500Y-58404750D01*
X132876500Y-58603136D01*
X132869688Y-58607688D01*
X132819000Y-58683548D01*
X132768312Y-58607688D01*
X132761500Y-58603136D01*
X132761500Y-58404750D01*
X132615750Y-58259000D01*
X132588034Y-58259000D01*
X132373757Y-58347756D01*
X132219000Y-58502513D01*
X132064243Y-58347756D01*
X131911234Y-58284378D01*
X131366000Y-57739144D01*
X131002000Y-58103144D01*
X131002000Y-57794000D01*
X130950068Y-57648788D01*
X131112856Y-57486000D01*
X131619144Y-57486000D01*
X132304698Y-58171554D01*
X132519562Y-58102855D01*
X132667813Y-57614451D01*
X132642557Y-57357549D01*
X137564187Y-57357549D01*
X137614126Y-57865509D01*
X137712438Y-58102855D01*
X137927302Y-58171554D01*
X138612856Y-57486000D01*
X137927302Y-56800446D01*
X137712438Y-56869145D01*
X137564187Y-57357549D01*
X132642557Y-57357549D01*
X132617874Y-57106491D01*
X132519562Y-56869145D01*
X132304698Y-56800446D01*
X131619144Y-57486000D01*
X131112856Y-57486000D01*
X130427302Y-56800446D01*
X130240713Y-56860104D01*
X130157683Y-56821046D01*
X129973000Y-56925940D01*
X129973000Y-58169000D01*
X129993000Y-58169000D01*
X129993000Y-58527000D01*
X129973000Y-58527000D01*
X129973000Y-59770060D01*
X130157683Y-59874954D01*
X130175123Y-59866750D01*
X130921000Y-59866750D01*
X130921000Y-60357966D01*
X131009756Y-60572243D01*
X131173757Y-60736244D01*
X131388034Y-60825000D01*
X131415750Y-60825000D01*
X131561500Y-60679250D01*
X131561500Y-59721000D01*
X131066750Y-59721000D01*
X130921000Y-59866750D01*
X130175123Y-59866750D01*
X130521613Y-59703757D01*
X130841546Y-59350656D01*
X130921000Y-59128489D01*
X130921000Y-59217250D01*
X131066750Y-59363000D01*
X131561500Y-59363000D01*
X131561500Y-59343000D01*
X131572633Y-59343000D01*
X131572633Y-60242000D01*
X131597857Y-60368809D01*
X131619001Y-60400453D01*
X131619000Y-61071393D01*
X131619001Y-61071398D01*
X131619000Y-63363315D01*
X131333016Y-63649300D01*
X131299617Y-63671616D01*
X131235674Y-63767315D01*
X131211209Y-63803929D01*
X131194072Y-63890079D01*
X131131857Y-63983191D01*
X131106633Y-64110000D01*
X131106633Y-64660000D01*
X131128513Y-64770000D01*
X131106633Y-64880000D01*
X131106633Y-65430000D01*
X131131857Y-65556809D01*
X131194072Y-65649921D01*
X131211209Y-65736071D01*
X131227339Y-65760211D01*
X131299617Y-65868384D01*
X131333016Y-65890700D01*
X131662000Y-66219686D01*
X131662001Y-67265749D01*
X131637000Y-67290750D01*
X131637000Y-67554582D01*
X131605857Y-67601191D01*
X131580633Y-67728000D01*
X131580633Y-69028000D01*
X131605857Y-69154809D01*
X131637000Y-69201418D01*
X131637000Y-69465250D01*
X131782750Y-69611000D01*
X131827966Y-69611000D01*
X132042243Y-69522244D01*
X132205120Y-69359367D01*
X132212000Y-69359367D01*
X132312000Y-69339476D01*
X132412000Y-69359367D01*
X132418880Y-69359367D01*
X132581757Y-69522244D01*
X132796034Y-69611000D01*
X132841250Y-69611000D01*
X132987000Y-69465250D01*
X132987000Y-69201418D01*
X133018143Y-69154809D01*
X133043367Y-69028000D01*
X133043367Y-67728000D01*
X133018143Y-67601191D01*
X132987000Y-67554582D01*
X132987000Y-67290750D01*
X132962000Y-67265750D01*
X132962000Y-66093392D01*
X132969836Y-66053999D01*
X132963261Y-66020946D01*
X133162000Y-66219686D01*
X133162001Y-67265749D01*
X133137000Y-67290750D01*
X133137000Y-67554582D01*
X133105857Y-67601191D01*
X133080633Y-67728000D01*
X133080633Y-69028000D01*
X133105857Y-69154809D01*
X133137000Y-69201418D01*
X133137000Y-69465250D01*
X133282750Y-69611000D01*
X133327966Y-69611000D01*
X133542243Y-69522244D01*
X133705120Y-69359367D01*
X133712000Y-69359367D01*
X133812000Y-69339476D01*
X133912000Y-69359367D01*
X133918880Y-69359367D01*
X134081757Y-69522244D01*
X134296034Y-69611000D01*
X134341250Y-69611000D01*
X134487000Y-69465250D01*
X134487000Y-69201418D01*
X134518143Y-69154809D01*
X134543367Y-69028000D01*
X134543367Y-67728000D01*
X134518143Y-67601191D01*
X134487000Y-67554582D01*
X134487000Y-67290750D01*
X134462000Y-67265750D01*
X134462000Y-66098404D01*
X134469836Y-66059011D01*
X134460882Y-66014000D01*
X134452084Y-65969768D01*
X134662000Y-66179685D01*
X134662001Y-67265749D01*
X134637000Y-67290750D01*
X134637000Y-67554582D01*
X134605857Y-67601191D01*
X134580633Y-67728000D01*
X134580633Y-69028000D01*
X134605857Y-69154809D01*
X134637000Y-69201418D01*
X134637000Y-69465250D01*
X134782750Y-69611000D01*
X134827966Y-69611000D01*
X135042243Y-69522244D01*
X135205120Y-69359367D01*
X135212000Y-69359367D01*
X135312000Y-69339476D01*
X135412000Y-69359367D01*
X135418880Y-69359367D01*
X135581757Y-69522244D01*
X135796034Y-69611000D01*
X135841250Y-69611000D01*
X135987000Y-69465250D01*
X135987000Y-69201418D01*
X136018143Y-69154809D01*
X136043367Y-69028000D01*
X136043367Y-67728000D01*
X136018143Y-67601191D01*
X135987000Y-67554582D01*
X135987000Y-67290750D01*
X135962000Y-67265750D01*
X135962000Y-66058406D01*
X135969836Y-66019012D01*
X135966762Y-66003558D01*
X135980276Y-65997960D01*
X136162000Y-66179685D01*
X136162001Y-67265749D01*
X136137000Y-67290750D01*
X136137000Y-67554582D01*
X136105857Y-67601191D01*
X136080633Y-67728000D01*
X136080633Y-69028000D01*
X136105857Y-69154809D01*
X136137000Y-69201418D01*
X136137000Y-69465250D01*
X136282750Y-69611000D01*
X136327966Y-69611000D01*
X136542243Y-69522244D01*
X136705120Y-69359367D01*
X136712000Y-69359367D01*
X136812000Y-69339476D01*
X136912000Y-69359367D01*
X136918880Y-69359367D01*
X137081757Y-69522244D01*
X137296034Y-69611000D01*
X137341250Y-69611000D01*
X137487000Y-69465250D01*
X137487000Y-69201418D01*
X137518143Y-69154809D01*
X137543367Y-69028000D01*
X137543367Y-67728000D01*
X137518143Y-67601191D01*
X137487000Y-67554582D01*
X137487000Y-67290750D01*
X137341250Y-67145000D01*
X137312008Y-67145000D01*
X137312008Y-66727253D01*
X137395616Y-66852384D01*
X137429018Y-66874702D01*
X137725678Y-67171364D01*
X137712463Y-67191142D01*
X137663843Y-67263907D01*
X137637000Y-67290750D01*
X137637000Y-67307999D01*
X137603184Y-67478000D01*
X137612001Y-67522325D01*
X137612001Y-67591996D01*
X137605857Y-67601191D01*
X137580633Y-67728000D01*
X137580633Y-69028000D01*
X137605857Y-69154809D01*
X137637000Y-69201418D01*
X137637000Y-69465250D01*
X137782750Y-69611000D01*
X137827966Y-69611000D01*
X138042243Y-69522244D01*
X138062000Y-69502487D01*
X138081757Y-69522244D01*
X138296034Y-69611000D01*
X138341250Y-69611000D01*
X138487000Y-69465250D01*
X138487000Y-69201418D01*
X138518143Y-69154809D01*
X138543367Y-69028000D01*
X138543367Y-68557000D01*
X138637000Y-68557000D01*
X138637000Y-69465250D01*
X138782750Y-69611000D01*
X138827966Y-69611000D01*
X139042243Y-69522244D01*
X139206244Y-69358243D01*
X139295000Y-69143966D01*
X139295000Y-68702750D01*
X139149250Y-68557000D01*
X138637000Y-68557000D01*
X138543367Y-68557000D01*
X138543367Y-68179000D01*
X138637000Y-68179000D01*
X138637000Y-68199000D01*
X139149250Y-68199000D01*
X139211749Y-68136501D01*
X139284689Y-68151010D01*
X139284693Y-68151010D01*
X139329009Y-68159825D01*
X139373326Y-68151010D01*
X140908670Y-68151010D01*
X140952990Y-68159826D01*
X140997310Y-68151010D01*
X140997311Y-68151010D01*
X141128571Y-68124901D01*
X141268458Y-68031431D01*
X140957504Y-68870266D01*
X140991741Y-69777855D01*
X141060975Y-69945000D01*
X140786750Y-69945000D01*
X140641000Y-70090750D01*
X140641000Y-71449000D01*
X141799250Y-71449000D01*
X141945000Y-71303250D01*
X141945000Y-71068558D01*
X142036662Y-71220808D01*
X142888266Y-71536496D01*
X143723972Y-71504971D01*
X142572868Y-72752000D01*
X141945000Y-72752000D01*
X141945000Y-71952750D01*
X141799250Y-71807000D01*
X140641000Y-71807000D01*
X140641000Y-71827000D01*
X140283000Y-71827000D01*
X140283000Y-71807000D01*
X139124750Y-71807000D01*
X138979000Y-71952750D01*
X138979000Y-72752000D01*
X131145000Y-72752000D01*
X131145000Y-71952750D01*
X130999250Y-71807000D01*
X129841000Y-71807000D01*
X129841000Y-71827000D01*
X129483000Y-71827000D01*
X129483000Y-71807000D01*
X129463000Y-71807000D01*
X129463000Y-71449000D01*
X129483000Y-71449000D01*
X129483000Y-70090750D01*
X129841000Y-70090750D01*
X129841000Y-71449000D01*
X130999250Y-71449000D01*
X131145000Y-71303250D01*
X131145000Y-70412034D01*
X138979000Y-70412034D01*
X138979000Y-71303250D01*
X139124750Y-71449000D01*
X140283000Y-71449000D01*
X140283000Y-70090750D01*
X140137250Y-69945000D01*
X139446034Y-69945000D01*
X139231757Y-70033756D01*
X139067756Y-70197757D01*
X138979000Y-70412034D01*
X131145000Y-70412034D01*
X131056244Y-70197757D01*
X130892243Y-70033756D01*
X130677966Y-69945000D01*
X129986750Y-69945000D01*
X129841000Y-70090750D01*
X129483000Y-70090750D01*
X129337250Y-69945000D01*
X128924000Y-69945000D01*
X128924000Y-68702750D01*
X130829000Y-68702750D01*
X130829000Y-69143966D01*
X130917756Y-69358243D01*
X131081757Y-69522244D01*
X131296034Y-69611000D01*
X131341250Y-69611000D01*
X131487000Y-69465250D01*
X131487000Y-68557000D01*
X130974750Y-68557000D01*
X130829000Y-68702750D01*
X128924000Y-68702750D01*
X128924000Y-67612034D01*
X130829000Y-67612034D01*
X130829000Y-68053250D01*
X130974750Y-68199000D01*
X131487000Y-68199000D01*
X131487000Y-67290750D01*
X131341250Y-67145000D01*
X131296034Y-67145000D01*
X131081757Y-67233756D01*
X130917756Y-67397757D01*
X130829000Y-67612034D01*
X128924000Y-67612034D01*
X128924000Y-59546608D01*
X129066387Y-59703757D01*
X129430317Y-59874954D01*
X129615000Y-59770060D01*
X129615000Y-58527000D01*
X129595000Y-58527000D01*
X129595000Y-58169000D01*
X129615000Y-58169000D01*
X129615000Y-56925940D01*
X129430317Y-56821046D01*
X129066387Y-56992243D01*
X128924000Y-57149392D01*
X128924000Y-56547302D01*
X130680446Y-56547302D01*
X131366000Y-57232856D01*
X132051554Y-56547302D01*
X138180446Y-56547302D01*
X138866000Y-57232856D01*
X139551554Y-56547302D01*
X139482855Y-56332438D01*
X138994451Y-56184187D01*
X138486491Y-56234126D01*
X138249145Y-56332438D01*
X138180446Y-56547302D01*
X132051554Y-56547302D01*
X131982855Y-56332438D01*
X131494451Y-56184187D01*
X130986491Y-56234126D01*
X130749145Y-56332438D01*
X130680446Y-56547302D01*
X128924000Y-56547302D01*
X128924000Y-55046608D01*
X129066387Y-55203757D01*
X129430317Y-55374954D01*
X129615000Y-55270060D01*
X129615000Y-54027000D01*
X129973000Y-54027000D01*
X129973000Y-55270060D01*
X130157683Y-55374954D01*
X130521613Y-55203757D01*
X130841546Y-54850656D01*
X131002000Y-54402000D01*
X131002000Y-54027000D01*
X139436000Y-54027000D01*
X139436000Y-54402000D01*
X139596454Y-54850656D01*
X139916387Y-55203757D01*
X140280317Y-55374954D01*
X140465000Y-55270060D01*
X140465000Y-54027000D01*
X139436000Y-54027000D01*
X131002000Y-54027000D01*
X129973000Y-54027000D01*
X129615000Y-54027000D01*
X129595000Y-54027000D01*
X129595000Y-53669000D01*
X129615000Y-53669000D01*
X129615000Y-53649000D01*
X129973000Y-53649000D01*
X129973000Y-53669000D01*
X131002000Y-53669000D01*
X131002000Y-53294000D01*
X130888988Y-52978000D01*
X139549012Y-52978000D01*
X139436000Y-53294000D01*
X139436000Y-53294000D01*
G37*
X139436000Y-53294000D02*
X139436000Y-53669000D01*
X140465000Y-53669000D01*
X140465000Y-53649000D01*
X140823000Y-53649000D01*
X140823000Y-53669000D01*
X140843000Y-53669000D01*
X140843000Y-54027000D01*
X140823000Y-54027000D01*
X140823000Y-55270060D01*
X141007683Y-55374954D01*
X141332000Y-55222391D01*
X141332001Y-56973609D01*
X141007683Y-56821046D01*
X140823000Y-56925940D01*
X140823000Y-58169000D01*
X140843000Y-58169000D01*
X140843000Y-58527000D01*
X140823000Y-58527000D01*
X140823000Y-59770060D01*
X141007683Y-59874954D01*
X141332001Y-59722391D01*
X141332001Y-60412601D01*
X141324164Y-60452000D01*
X141355209Y-60608072D01*
X141443616Y-60740384D01*
X141575928Y-60828791D01*
X141692606Y-60852000D01*
X141732000Y-60859836D01*
X141771394Y-60852000D01*
X141978379Y-60852000D01*
X141844882Y-61073738D01*
X143256000Y-62484856D01*
X144667118Y-61073738D01*
X144533621Y-60852000D01*
X145142000Y-60852000D01*
X145142000Y-61460379D01*
X144920262Y-61326882D01*
X143509144Y-62738000D01*
X144920262Y-64149118D01*
X145136356Y-64019019D01*
X145165209Y-64164072D01*
X145253616Y-64296384D01*
X145385928Y-64384791D01*
X145502606Y-64408000D01*
X145542000Y-64415836D01*
X145581394Y-64408000D01*
X145663138Y-64408000D01*
X145647062Y-64414659D01*
X145344659Y-64717062D01*
X145181000Y-65112169D01*
X145181000Y-65539831D01*
X145344659Y-65934938D01*
X145647062Y-66237341D01*
X146042169Y-66401000D01*
X146469831Y-66401000D01*
X146864938Y-66237341D01*
X147167341Y-65934938D01*
X147331000Y-65539831D01*
X147331000Y-65112169D01*
X147167341Y-64717062D01*
X146864938Y-64414659D01*
X146848862Y-64408000D01*
X148163138Y-64408000D01*
X148147062Y-64414659D01*
X147844659Y-64717062D01*
X147681000Y-65112169D01*
X147681000Y-65539831D01*
X147844659Y-65934938D01*
X148147062Y-66237341D01*
X148542169Y-66401000D01*
X148969831Y-66401000D01*
X149364938Y-66237341D01*
X149667341Y-65934938D01*
X149831000Y-65539831D01*
X149831000Y-65112169D01*
X149667341Y-64717062D01*
X149364938Y-64414659D01*
X149348862Y-64408000D01*
X150663138Y-64408000D01*
X150647062Y-64414659D01*
X150344659Y-64717062D01*
X150181000Y-65112169D01*
X150181000Y-65539831D01*
X150344659Y-65934938D01*
X150647062Y-66237341D01*
X151042169Y-66401000D01*
X151469831Y-66401000D01*
X151864938Y-66237341D01*
X152167341Y-65934938D01*
X152331000Y-65539831D01*
X152331000Y-65112169D01*
X152167341Y-64717062D01*
X151864938Y-64414659D01*
X151848862Y-64408000D01*
X152753999Y-64408000D01*
X152669426Y-64492573D01*
X152780835Y-64603982D01*
X152560817Y-64678905D01*
X152404162Y-65185540D01*
X152453313Y-65713557D01*
X152560817Y-65973095D01*
X152780837Y-66048019D01*
X153502856Y-65326000D01*
X153488714Y-65311858D01*
X153741858Y-65058714D01*
X153756000Y-65072856D01*
X153770143Y-65058714D01*
X154023287Y-65311858D01*
X154009144Y-65326000D01*
X154023287Y-65340143D01*
X153770143Y-65593287D01*
X153756000Y-65579144D01*
X153033981Y-66301163D01*
X153108905Y-66521183D01*
X153615540Y-66677838D01*
X154143557Y-66628687D01*
X154286000Y-66569685D01*
X154286000Y-66794611D01*
X153896460Y-66674162D01*
X153368443Y-66723313D01*
X153108905Y-66830817D01*
X153033981Y-67050837D01*
X153756000Y-67772856D01*
X153770143Y-67758714D01*
X154023287Y-68011858D01*
X154009144Y-68026000D01*
X154023287Y-68040143D01*
X153770143Y-68293287D01*
X153756000Y-68279144D01*
X153033981Y-69001163D01*
X153108905Y-69221183D01*
X153615540Y-69377838D01*
X154143557Y-69328687D01*
X154286001Y-69269685D01*
X154286001Y-69450000D01*
X145827334Y-69450000D01*
X145779699Y-69442490D01*
X145710120Y-69459247D01*
X145639928Y-69473209D01*
X145633043Y-69477809D01*
X145624993Y-69479748D01*
X145567122Y-69521856D01*
X145551720Y-69532147D01*
X145524665Y-68814944D01*
X145647062Y-68937341D01*
X146042169Y-69101000D01*
X146469831Y-69101000D01*
X146864938Y-68937341D01*
X147167341Y-68634938D01*
X147331000Y-68239831D01*
X147331000Y-67812169D01*
X147681000Y-67812169D01*
X147681000Y-68239831D01*
X147844659Y-68634938D01*
X148147062Y-68937341D01*
X148542169Y-69101000D01*
X148969831Y-69101000D01*
X149364938Y-68937341D01*
X149667341Y-68634938D01*
X149831000Y-68239831D01*
X149831000Y-67812169D01*
X150181000Y-67812169D01*
X150181000Y-68239831D01*
X150344659Y-68634938D01*
X150647062Y-68937341D01*
X151042169Y-69101000D01*
X151469831Y-69101000D01*
X151864938Y-68937341D01*
X152167341Y-68634938D01*
X152331000Y-68239831D01*
X152331000Y-67885540D01*
X152404162Y-67885540D01*
X152453313Y-68413557D01*
X152560817Y-68673095D01*
X152780837Y-68748019D01*
X153502856Y-68026000D01*
X152780837Y-67303981D01*
X152560817Y-67378905D01*
X152404162Y-67885540D01*
X152331000Y-67885540D01*
X152331000Y-67812169D01*
X152167341Y-67417062D01*
X151864938Y-67114659D01*
X151469831Y-66951000D01*
X151042169Y-66951000D01*
X150647062Y-67114659D01*
X150344659Y-67417062D01*
X150181000Y-67812169D01*
X149831000Y-67812169D01*
X149667341Y-67417062D01*
X149364938Y-67114659D01*
X148969831Y-66951000D01*
X148542169Y-66951000D01*
X148147062Y-67114659D01*
X147844659Y-67417062D01*
X147681000Y-67812169D01*
X147331000Y-67812169D01*
X147167341Y-67417062D01*
X146864938Y-67114659D01*
X146469831Y-66951000D01*
X146042169Y-66951000D01*
X145647062Y-67114659D01*
X145344659Y-67417062D01*
X145181000Y-67812169D01*
X145181000Y-67983859D01*
X144920262Y-67826882D01*
X143509144Y-69238000D01*
X143523287Y-69252143D01*
X143270143Y-69505287D01*
X143256000Y-69491144D01*
X143241858Y-69505287D01*
X142988714Y-69252143D01*
X143002856Y-69238000D01*
X142988714Y-69223858D01*
X143241858Y-68970714D01*
X143256000Y-68984856D01*
X144667118Y-67573738D01*
X144475338Y-67255192D01*
X144193597Y-67150751D01*
X144373754Y-67114915D01*
X144529110Y-67011110D01*
X144632915Y-66855754D01*
X144669367Y-66672500D01*
X144669367Y-66377500D01*
X144632915Y-66194246D01*
X144529852Y-66040000D01*
X144632915Y-65885754D01*
X144669367Y-65702500D01*
X144669367Y-65407500D01*
X144632915Y-65224246D01*
X144529110Y-65068890D01*
X144373754Y-64965085D01*
X144190500Y-64928633D01*
X143973604Y-64928633D01*
X144475338Y-64720808D01*
X144667118Y-64402262D01*
X143256000Y-62991144D01*
X141844882Y-64402262D01*
X141941046Y-64561990D01*
X141325404Y-64561990D01*
X141286010Y-64554154D01*
X141246616Y-64561990D01*
X141129938Y-64585199D01*
X140997626Y-64673606D01*
X140975309Y-64707006D01*
X140143777Y-65538539D01*
X140165367Y-65430000D01*
X140165367Y-64880000D01*
X140143487Y-64770000D01*
X140165367Y-64660000D01*
X140165367Y-64110000D01*
X140140143Y-63983191D01*
X140068312Y-63875688D01*
X139960809Y-63803857D01*
X139834000Y-63778633D01*
X139543890Y-63778633D01*
X139472384Y-63671616D01*
X139438987Y-63649301D01*
X138809001Y-63019317D01*
X138809001Y-62370266D01*
X140957504Y-62370266D01*
X140991741Y-63277855D01*
X141273192Y-63957338D01*
X141591738Y-64149118D01*
X143002856Y-62738000D01*
X141591738Y-61326882D01*
X141273192Y-61518662D01*
X140957504Y-62370266D01*
X138809001Y-62370266D01*
X138809001Y-60573367D01*
X138934000Y-60573367D01*
X139060809Y-60548143D01*
X139168312Y-60476312D01*
X139240143Y-60368809D01*
X139265367Y-60242000D01*
X139265367Y-58842000D01*
X139244671Y-58737956D01*
X139245509Y-58737874D01*
X139436000Y-58658970D01*
X139436000Y-58902000D01*
X139596454Y-59350656D01*
X139916387Y-59703757D01*
X140280317Y-59874954D01*
X140465000Y-59770060D01*
X140465000Y-58527000D01*
X140445000Y-58527000D01*
X140445000Y-58169000D01*
X140465000Y-58169000D01*
X140465000Y-56925940D01*
X140280317Y-56821046D01*
X140045411Y-56931549D01*
X140019562Y-56869145D01*
X139804698Y-56800446D01*
X139119144Y-57486000D01*
X139436000Y-57802856D01*
X139436000Y-58309144D01*
X138866000Y-57739144D01*
X138180446Y-58424698D01*
X138212943Y-58526336D01*
X138134000Y-58510633D01*
X137904000Y-58510633D01*
X137819000Y-58527541D01*
X137734000Y-58510633D01*
X137504000Y-58510633D01*
X137419000Y-58527541D01*
X137334000Y-58510633D01*
X137104000Y-58510633D01*
X137033580Y-58524640D01*
X137028244Y-58511757D01*
X136864243Y-58347756D01*
X136649966Y-58259000D01*
X136622250Y-58259000D01*
X136476500Y-58404750D01*
X136476500Y-58603136D01*
X136469688Y-58607688D01*
X136419000Y-58683548D01*
X136368312Y-58607688D01*
X136361500Y-58603136D01*
X136361500Y-58404750D01*
X136215750Y-58259000D01*
X136188034Y-58259000D01*
X135973757Y-58347756D01*
X135819000Y-58502513D01*
X135664243Y-58347756D01*
X135449966Y-58259000D01*
X135422250Y-58259000D01*
X135276500Y-58404750D01*
X135276500Y-58603136D01*
X135269688Y-58607688D01*
X135219000Y-58683548D01*
X135168312Y-58607688D01*
X135161500Y-58603136D01*
X135161500Y-58404750D01*
X135015750Y-58259000D01*
X134988034Y-58259000D01*
X134773757Y-58347756D01*
X134619000Y-58502513D01*
X134464243Y-58347756D01*
X134249966Y-58259000D01*
X134222250Y-58259000D01*
X134076500Y-58404750D01*
X134076500Y-58603136D01*
X134069688Y-58607688D01*
X134019000Y-58683548D01*
X133968312Y-58607688D01*
X133961500Y-58603136D01*
X133961500Y-58404750D01*
X133815750Y-58259000D01*
X133788034Y-58259000D01*
X133573757Y-58347756D01*
X133419000Y-58502513D01*
X133264243Y-58347756D01*
X133049966Y-58259000D01*
X133022250Y-58259000D01*
X132876500Y-58404750D01*
X132876500Y-58603136D01*
X132869688Y-58607688D01*
X132819000Y-58683548D01*
X132768312Y-58607688D01*
X132761500Y-58603136D01*
X132761500Y-58404750D01*
X132615750Y-58259000D01*
X132588034Y-58259000D01*
X132373757Y-58347756D01*
X132219000Y-58502513D01*
X132064243Y-58347756D01*
X131911234Y-58284378D01*
X131366000Y-57739144D01*
X131002000Y-58103144D01*
X131002000Y-57794000D01*
X130950068Y-57648788D01*
X131112856Y-57486000D01*
X131619144Y-57486000D01*
X132304698Y-58171554D01*
X132519562Y-58102855D01*
X132667813Y-57614451D01*
X132642557Y-57357549D01*
X137564187Y-57357549D01*
X137614126Y-57865509D01*
X137712438Y-58102855D01*
X137927302Y-58171554D01*
X138612856Y-57486000D01*
X137927302Y-56800446D01*
X137712438Y-56869145D01*
X137564187Y-57357549D01*
X132642557Y-57357549D01*
X132617874Y-57106491D01*
X132519562Y-56869145D01*
X132304698Y-56800446D01*
X131619144Y-57486000D01*
X131112856Y-57486000D01*
X130427302Y-56800446D01*
X130240713Y-56860104D01*
X130157683Y-56821046D01*
X129973000Y-56925940D01*
X129973000Y-58169000D01*
X129993000Y-58169000D01*
X129993000Y-58527000D01*
X129973000Y-58527000D01*
X129973000Y-59770060D01*
X130157683Y-59874954D01*
X130175123Y-59866750D01*
X130921000Y-59866750D01*
X130921000Y-60357966D01*
X131009756Y-60572243D01*
X131173757Y-60736244D01*
X131388034Y-60825000D01*
X131415750Y-60825000D01*
X131561500Y-60679250D01*
X131561500Y-59721000D01*
X131066750Y-59721000D01*
X130921000Y-59866750D01*
X130175123Y-59866750D01*
X130521613Y-59703757D01*
X130841546Y-59350656D01*
X130921000Y-59128489D01*
X130921000Y-59217250D01*
X131066750Y-59363000D01*
X131561500Y-59363000D01*
X131561500Y-59343000D01*
X131572633Y-59343000D01*
X131572633Y-60242000D01*
X131597857Y-60368809D01*
X131619001Y-60400453D01*
X131619000Y-61071393D01*
X131619001Y-61071398D01*
X131619000Y-63363315D01*
X131333016Y-63649300D01*
X131299617Y-63671616D01*
X131235674Y-63767315D01*
X131211209Y-63803929D01*
X131194072Y-63890079D01*
X131131857Y-63983191D01*
X131106633Y-64110000D01*
X131106633Y-64660000D01*
X131128513Y-64770000D01*
X131106633Y-64880000D01*
X131106633Y-65430000D01*
X131131857Y-65556809D01*
X131194072Y-65649921D01*
X131211209Y-65736071D01*
X131227339Y-65760211D01*
X131299617Y-65868384D01*
X131333016Y-65890700D01*
X131662000Y-66219686D01*
X131662001Y-67265749D01*
X131637000Y-67290750D01*
X131637000Y-67554582D01*
X131605857Y-67601191D01*
X131580633Y-67728000D01*
X131580633Y-69028000D01*
X131605857Y-69154809D01*
X131637000Y-69201418D01*
X131637000Y-69465250D01*
X131782750Y-69611000D01*
X131827966Y-69611000D01*
X132042243Y-69522244D01*
X132205120Y-69359367D01*
X132212000Y-69359367D01*
X132312000Y-69339476D01*
X132412000Y-69359367D01*
X132418880Y-69359367D01*
X132581757Y-69522244D01*
X132796034Y-69611000D01*
X132841250Y-69611000D01*
X132987000Y-69465250D01*
X132987000Y-69201418D01*
X133018143Y-69154809D01*
X133043367Y-69028000D01*
X133043367Y-67728000D01*
X133018143Y-67601191D01*
X132987000Y-67554582D01*
X132987000Y-67290750D01*
X132962000Y-67265750D01*
X132962000Y-66093392D01*
X132969836Y-66053999D01*
X132963261Y-66020946D01*
X133162000Y-66219686D01*
X133162001Y-67265749D01*
X133137000Y-67290750D01*
X133137000Y-67554582D01*
X133105857Y-67601191D01*
X133080633Y-67728000D01*
X133080633Y-69028000D01*
X133105857Y-69154809D01*
X133137000Y-69201418D01*
X133137000Y-69465250D01*
X133282750Y-69611000D01*
X133327966Y-69611000D01*
X133542243Y-69522244D01*
X133705120Y-69359367D01*
X133712000Y-69359367D01*
X133812000Y-69339476D01*
X133912000Y-69359367D01*
X133918880Y-69359367D01*
X134081757Y-69522244D01*
X134296034Y-69611000D01*
X134341250Y-69611000D01*
X134487000Y-69465250D01*
X134487000Y-69201418D01*
X134518143Y-69154809D01*
X134543367Y-69028000D01*
X134543367Y-67728000D01*
X134518143Y-67601191D01*
X134487000Y-67554582D01*
X134487000Y-67290750D01*
X134462000Y-67265750D01*
X134462000Y-66098404D01*
X134469836Y-66059011D01*
X134460882Y-66014000D01*
X134452084Y-65969768D01*
X134662000Y-66179685D01*
X134662001Y-67265749D01*
X134637000Y-67290750D01*
X134637000Y-67554582D01*
X134605857Y-67601191D01*
X134580633Y-67728000D01*
X134580633Y-69028000D01*
X134605857Y-69154809D01*
X134637000Y-69201418D01*
X134637000Y-69465250D01*
X134782750Y-69611000D01*
X134827966Y-69611000D01*
X135042243Y-69522244D01*
X135205120Y-69359367D01*
X135212000Y-69359367D01*
X135312000Y-69339476D01*
X135412000Y-69359367D01*
X135418880Y-69359367D01*
X135581757Y-69522244D01*
X135796034Y-69611000D01*
X135841250Y-69611000D01*
X135987000Y-69465250D01*
X135987000Y-69201418D01*
X136018143Y-69154809D01*
X136043367Y-69028000D01*
X136043367Y-67728000D01*
X136018143Y-67601191D01*
X135987000Y-67554582D01*
X135987000Y-67290750D01*
X135962000Y-67265750D01*
X135962000Y-66058406D01*
X135969836Y-66019012D01*
X135966762Y-66003558D01*
X135980276Y-65997960D01*
X136162000Y-66179685D01*
X136162001Y-67265749D01*
X136137000Y-67290750D01*
X136137000Y-67554582D01*
X136105857Y-67601191D01*
X136080633Y-67728000D01*
X136080633Y-69028000D01*
X136105857Y-69154809D01*
X136137000Y-69201418D01*
X136137000Y-69465250D01*
X136282750Y-69611000D01*
X136327966Y-69611000D01*
X136542243Y-69522244D01*
X136705120Y-69359367D01*
X136712000Y-69359367D01*
X136812000Y-69339476D01*
X136912000Y-69359367D01*
X136918880Y-69359367D01*
X137081757Y-69522244D01*
X137296034Y-69611000D01*
X137341250Y-69611000D01*
X137487000Y-69465250D01*
X137487000Y-69201418D01*
X137518143Y-69154809D01*
X137543367Y-69028000D01*
X137543367Y-67728000D01*
X137518143Y-67601191D01*
X137487000Y-67554582D01*
X137487000Y-67290750D01*
X137341250Y-67145000D01*
X137312008Y-67145000D01*
X137312008Y-66727253D01*
X137395616Y-66852384D01*
X137429018Y-66874702D01*
X137725678Y-67171364D01*
X137712463Y-67191142D01*
X137663843Y-67263907D01*
X137637000Y-67290750D01*
X137637000Y-67307999D01*
X137603184Y-67478000D01*
X137612001Y-67522325D01*
X137612001Y-67591996D01*
X137605857Y-67601191D01*
X137580633Y-67728000D01*
X137580633Y-69028000D01*
X137605857Y-69154809D01*
X137637000Y-69201418D01*
X137637000Y-69465250D01*
X137782750Y-69611000D01*
X137827966Y-69611000D01*
X138042243Y-69522244D01*
X138062000Y-69502487D01*
X138081757Y-69522244D01*
X138296034Y-69611000D01*
X138341250Y-69611000D01*
X138487000Y-69465250D01*
X138487000Y-69201418D01*
X138518143Y-69154809D01*
X138543367Y-69028000D01*
X138543367Y-68557000D01*
X138637000Y-68557000D01*
X138637000Y-69465250D01*
X138782750Y-69611000D01*
X138827966Y-69611000D01*
X139042243Y-69522244D01*
X139206244Y-69358243D01*
X139295000Y-69143966D01*
X139295000Y-68702750D01*
X139149250Y-68557000D01*
X138637000Y-68557000D01*
X138543367Y-68557000D01*
X138543367Y-68179000D01*
X138637000Y-68179000D01*
X138637000Y-68199000D01*
X139149250Y-68199000D01*
X139211749Y-68136501D01*
X139284689Y-68151010D01*
X139284693Y-68151010D01*
X139329009Y-68159825D01*
X139373326Y-68151010D01*
X140908670Y-68151010D01*
X140952990Y-68159826D01*
X140997310Y-68151010D01*
X140997311Y-68151010D01*
X141128571Y-68124901D01*
X141268458Y-68031431D01*
X140957504Y-68870266D01*
X140991741Y-69777855D01*
X141060975Y-69945000D01*
X140786750Y-69945000D01*
X140641000Y-70090750D01*
X140641000Y-71449000D01*
X141799250Y-71449000D01*
X141945000Y-71303250D01*
X141945000Y-71068558D01*
X142036662Y-71220808D01*
X142888266Y-71536496D01*
X143723972Y-71504971D01*
X142572868Y-72752000D01*
X141945000Y-72752000D01*
X141945000Y-71952750D01*
X141799250Y-71807000D01*
X140641000Y-71807000D01*
X140641000Y-71827000D01*
X140283000Y-71827000D01*
X140283000Y-71807000D01*
X139124750Y-71807000D01*
X138979000Y-71952750D01*
X138979000Y-72752000D01*
X131145000Y-72752000D01*
X131145000Y-71952750D01*
X130999250Y-71807000D01*
X129841000Y-71807000D01*
X129841000Y-71827000D01*
X129483000Y-71827000D01*
X129483000Y-71807000D01*
X129463000Y-71807000D01*
X129463000Y-71449000D01*
X129483000Y-71449000D01*
X129483000Y-70090750D01*
X129841000Y-70090750D01*
X129841000Y-71449000D01*
X130999250Y-71449000D01*
X131145000Y-71303250D01*
X131145000Y-70412034D01*
X138979000Y-70412034D01*
X138979000Y-71303250D01*
X139124750Y-71449000D01*
X140283000Y-71449000D01*
X140283000Y-70090750D01*
X140137250Y-69945000D01*
X139446034Y-69945000D01*
X139231757Y-70033756D01*
X139067756Y-70197757D01*
X138979000Y-70412034D01*
X131145000Y-70412034D01*
X131056244Y-70197757D01*
X130892243Y-70033756D01*
X130677966Y-69945000D01*
X129986750Y-69945000D01*
X129841000Y-70090750D01*
X129483000Y-70090750D01*
X129337250Y-69945000D01*
X128924000Y-69945000D01*
X128924000Y-68702750D01*
X130829000Y-68702750D01*
X130829000Y-69143966D01*
X130917756Y-69358243D01*
X131081757Y-69522244D01*
X131296034Y-69611000D01*
X131341250Y-69611000D01*
X131487000Y-69465250D01*
X131487000Y-68557000D01*
X130974750Y-68557000D01*
X130829000Y-68702750D01*
X128924000Y-68702750D01*
X128924000Y-67612034D01*
X130829000Y-67612034D01*
X130829000Y-68053250D01*
X130974750Y-68199000D01*
X131487000Y-68199000D01*
X131487000Y-67290750D01*
X131341250Y-67145000D01*
X131296034Y-67145000D01*
X131081757Y-67233756D01*
X130917756Y-67397757D01*
X130829000Y-67612034D01*
X128924000Y-67612034D01*
X128924000Y-59546608D01*
X129066387Y-59703757D01*
X129430317Y-59874954D01*
X129615000Y-59770060D01*
X129615000Y-58527000D01*
X129595000Y-58527000D01*
X129595000Y-58169000D01*
X129615000Y-58169000D01*
X129615000Y-56925940D01*
X129430317Y-56821046D01*
X129066387Y-56992243D01*
X128924000Y-57149392D01*
X128924000Y-56547302D01*
X130680446Y-56547302D01*
X131366000Y-57232856D01*
X132051554Y-56547302D01*
X138180446Y-56547302D01*
X138866000Y-57232856D01*
X139551554Y-56547302D01*
X139482855Y-56332438D01*
X138994451Y-56184187D01*
X138486491Y-56234126D01*
X138249145Y-56332438D01*
X138180446Y-56547302D01*
X132051554Y-56547302D01*
X131982855Y-56332438D01*
X131494451Y-56184187D01*
X130986491Y-56234126D01*
X130749145Y-56332438D01*
X130680446Y-56547302D01*
X128924000Y-56547302D01*
X128924000Y-55046608D01*
X129066387Y-55203757D01*
X129430317Y-55374954D01*
X129615000Y-55270060D01*
X129615000Y-54027000D01*
X129973000Y-54027000D01*
X129973000Y-55270060D01*
X130157683Y-55374954D01*
X130521613Y-55203757D01*
X130841546Y-54850656D01*
X131002000Y-54402000D01*
X131002000Y-54027000D01*
X139436000Y-54027000D01*
X139436000Y-54402000D01*
X139596454Y-54850656D01*
X139916387Y-55203757D01*
X140280317Y-55374954D01*
X140465000Y-55270060D01*
X140465000Y-54027000D01*
X139436000Y-54027000D01*
X131002000Y-54027000D01*
X129973000Y-54027000D01*
X129615000Y-54027000D01*
X129595000Y-54027000D01*
X129595000Y-53669000D01*
X129615000Y-53669000D01*
X129615000Y-53649000D01*
X129973000Y-53649000D01*
X129973000Y-53669000D01*
X131002000Y-53669000D01*
X131002000Y-53294000D01*
X130888988Y-52978000D01*
X139549012Y-52978000D01*
X139436000Y-53294000D01*
G36*
X138702633Y-64660000D02*
X138724513Y-64770000D01*
X138702633Y-64880000D01*
X138702633Y-65430000D01*
X138727857Y-65556809D01*
X138784000Y-65640833D01*
X138784000Y-65867250D01*
X138929750Y-66013000D01*
X138999966Y-66013000D01*
X139036276Y-65997960D01*
X139150816Y-66112501D01*
X139048317Y-66215001D01*
X138827684Y-66215001D01*
X138584000Y-65971318D01*
X138584000Y-65640833D01*
X138640143Y-65556809D01*
X138665367Y-65430000D01*
X138665367Y-64880000D01*
X138643487Y-64770000D01*
X138665367Y-64660000D01*
X138665367Y-64186000D01*
X138702633Y-64186000D01*
X138702633Y-64660000D01*
X138702633Y-64660000D01*
G37*
X138702633Y-64660000D02*
X138724513Y-64770000D01*
X138702633Y-64880000D01*
X138702633Y-65430000D01*
X138727857Y-65556809D01*
X138784000Y-65640833D01*
X138784000Y-65867250D01*
X138929750Y-66013000D01*
X138999966Y-66013000D01*
X139036276Y-65997960D01*
X139150816Y-66112501D01*
X139048317Y-66215001D01*
X138827684Y-66215001D01*
X138584000Y-65971318D01*
X138584000Y-65640833D01*
X138640143Y-65556809D01*
X138665367Y-65430000D01*
X138665367Y-64880000D01*
X138643487Y-64770000D01*
X138665367Y-64660000D01*
X138665367Y-64186000D01*
X138702633Y-64186000D01*
X138702633Y-64660000D01*
G36*
X137213530Y-64055216D02*
X137202633Y-64110000D01*
X137202633Y-64660000D01*
X137224513Y-64770000D01*
X137202633Y-64880000D01*
X137202633Y-65430000D01*
X137227857Y-65556809D01*
X137284001Y-65640835D01*
X137284001Y-65705767D01*
X137200392Y-65580636D01*
X137166992Y-65558319D01*
X137097638Y-65488965D01*
X137109367Y-65430000D01*
X137109367Y-64880000D01*
X137087487Y-64770000D01*
X137109367Y-64660000D01*
X137109367Y-64110000D01*
X137084143Y-63983191D01*
X137033254Y-63907030D01*
X137027003Y-63875604D01*
X137025286Y-63866970D01*
X137213530Y-64055216D01*
X137213530Y-64055216D01*
G37*
X137213530Y-64055216D02*
X137202633Y-64110000D01*
X137202633Y-64660000D01*
X137224513Y-64770000D01*
X137202633Y-64880000D01*
X137202633Y-65430000D01*
X137227857Y-65556809D01*
X137284001Y-65640835D01*
X137284001Y-65705767D01*
X137200392Y-65580636D01*
X137166992Y-65558319D01*
X137097638Y-65488965D01*
X137109367Y-65430000D01*
X137109367Y-64880000D01*
X137087487Y-64770000D01*
X137109367Y-64660000D01*
X137109367Y-64110000D01*
X137084143Y-63983191D01*
X137033254Y-63907030D01*
X137027003Y-63875604D01*
X137025286Y-63866970D01*
X137213530Y-64055216D01*
G36*
X134031240Y-63851928D02*
X134042209Y-63907071D01*
X134130616Y-64039384D01*
X134157153Y-64057115D01*
X134146633Y-64110000D01*
X134146633Y-64660000D01*
X134168513Y-64770000D01*
X134146633Y-64880000D01*
X134146633Y-65430000D01*
X134171857Y-65556809D01*
X134234072Y-65649921D01*
X134237916Y-65669242D01*
X134057638Y-65488965D01*
X134069367Y-65430000D01*
X134069367Y-64880000D01*
X134047487Y-64770000D01*
X134069367Y-64660000D01*
X134069367Y-64110000D01*
X134044143Y-63983191D01*
X134019000Y-63945562D01*
X134019000Y-63790393D01*
X134031240Y-63851928D01*
X134031240Y-63851928D01*
G37*
X134031240Y-63851928D02*
X134042209Y-63907071D01*
X134130616Y-64039384D01*
X134157153Y-64057115D01*
X134146633Y-64110000D01*
X134146633Y-64660000D01*
X134168513Y-64770000D01*
X134146633Y-64880000D01*
X134146633Y-65430000D01*
X134171857Y-65556809D01*
X134234072Y-65649921D01*
X134237916Y-65669242D01*
X134057638Y-65488965D01*
X134069367Y-65430000D01*
X134069367Y-64880000D01*
X134047487Y-64770000D01*
X134069367Y-64660000D01*
X134069367Y-64110000D01*
X134044143Y-63983191D01*
X134019000Y-63945562D01*
X134019000Y-63790393D01*
X134031240Y-63851928D01*
G36*
X132606633Y-64660000D02*
X132628513Y-64770000D01*
X132606633Y-64880000D01*
X132606633Y-65354000D01*
X132569367Y-65354000D01*
X132569367Y-64880000D01*
X132547487Y-64770000D01*
X132569367Y-64660000D01*
X132569367Y-64186000D01*
X132606633Y-64186000D01*
X132606633Y-64660000D01*
X132606633Y-64660000D01*
G37*
X132606633Y-64660000D02*
X132628513Y-64770000D01*
X132606633Y-64880000D01*
X132606633Y-65354000D01*
X132569367Y-65354000D01*
X132569367Y-64880000D01*
X132547487Y-64770000D01*
X132569367Y-64660000D01*
X132569367Y-64186000D01*
X132606633Y-64186000D01*
X132606633Y-64660000D01*
G36*
X135646633Y-64660000D02*
X135668513Y-64770000D01*
X135646633Y-64880000D01*
X135646633Y-65354000D01*
X135609367Y-65354000D01*
X135609367Y-64880000D01*
X135587487Y-64770000D01*
X135609367Y-64660000D01*
X135609367Y-64186000D01*
X135646633Y-64186000D01*
X135646633Y-64660000D01*
X135646633Y-64660000D01*
G37*
X135646633Y-64660000D02*
X135668513Y-64770000D01*
X135646633Y-64880000D01*
X135646633Y-65354000D01*
X135609367Y-65354000D01*
X135609367Y-64880000D01*
X135587487Y-64770000D01*
X135609367Y-64660000D01*
X135609367Y-64186000D01*
X135646633Y-64186000D01*
X135646633Y-64660000D01*
G36*
X136469688Y-60476312D02*
X136476500Y-60480864D01*
X136476500Y-60679250D01*
X136622250Y-60825000D01*
X136649966Y-60825000D01*
X136819000Y-60754984D01*
X136819000Y-61071393D01*
X136819001Y-61071398D01*
X136819000Y-63455606D01*
X136811164Y-63495000D01*
X136821714Y-63548040D01*
X136419000Y-63145326D01*
X136419000Y-60400452D01*
X136469688Y-60476312D01*
X136469688Y-60476312D01*
G37*
X136469688Y-60476312D02*
X136476500Y-60480864D01*
X136476500Y-60679250D01*
X136622250Y-60825000D01*
X136649966Y-60825000D01*
X136819000Y-60754984D01*
X136819000Y-61071393D01*
X136819001Y-61071398D01*
X136819000Y-63455606D01*
X136811164Y-63495000D01*
X136821714Y-63548040D01*
X136419000Y-63145326D01*
X136419000Y-60400452D01*
X136469688Y-60476312D01*
G36*
X135230155Y-63501468D02*
X135219000Y-63490314D01*
X135219000Y-63445392D01*
X135230155Y-63501468D01*
X135230155Y-63501468D01*
G37*
X135230155Y-63501468D02*
X135219000Y-63490314D01*
X135219000Y-63445392D01*
X135230155Y-63501468D01*
G36*
X135219001Y-63366600D02*
X135219000Y-63366604D01*
X135219000Y-62370266D01*
X135219001Y-63366600D01*
X135219001Y-63366600D01*
G37*
X135219001Y-63366600D02*
X135219000Y-63366604D01*
X135219000Y-62370266D01*
X135219001Y-63366600D01*
G04 #@! TD*
M02*
