G04 #@! TF.GenerationSoftware,KiCad,Pcbnew,(5.0.1)-4*
G04 #@! TF.CreationDate,2019-03-10T19:19:02+01:00*
G04 #@! TF.ProjectId,wii_hdmi_pcb,7769695F68646D695F7063622E6B6963,rev?*
G04 #@! TF.SameCoordinates,Original*
G04 #@! TF.FileFunction,Paste,Top*
G04 #@! TF.FilePolarity,Positive*
%FSLAX46Y46*%
G04 Gerber Fmt 4.6, Leading zero omitted, Abs format (unit mm)*
G04 Created by KiCad (PCBNEW (5.0.1)-4) date 10.03.2019 19:19:02*
%MOMM*%
%LPD*%
G01*
G04 APERTURE LIST*
%ADD10R,0.300000X1.300000*%
%ADD11R,1.800000X2.200000*%
%ADD12R,0.230000X1.400000*%
%ADD13R,0.300000X0.550000*%
%ADD14R,0.400000X0.550000*%
%ADD15C,0.100000*%
%ADD16C,0.590000*%
G04 APERTURE END LIST*
D10*
G04 #@! TO.C,J1*
X138562000Y-68378000D03*
X138062000Y-68378000D03*
X137562000Y-68378000D03*
X137062000Y-68378000D03*
X136562000Y-68378000D03*
X136062000Y-68378000D03*
X135562000Y-68378000D03*
X135062000Y-68378000D03*
X134562000Y-68378000D03*
X134062000Y-68378000D03*
X133562000Y-68378000D03*
X133062000Y-68378000D03*
X132562000Y-68378000D03*
X132062000Y-68378000D03*
X131562000Y-68378000D03*
D11*
X129662000Y-71628000D03*
X140462000Y-71628000D03*
G04 #@! TD*
D12*
G04 #@! TO.C,J2*
X137619000Y-59542000D03*
X138019000Y-59542000D03*
X138419000Y-59542000D03*
X138819000Y-59542000D03*
X136019000Y-59542000D03*
X136819000Y-59542000D03*
X137219000Y-59542000D03*
X136419000Y-59542000D03*
X133619000Y-59542000D03*
X132819000Y-59542000D03*
X134819000Y-59542000D03*
X135219000Y-59542000D03*
X135619000Y-59542000D03*
X133219000Y-59542000D03*
X134419000Y-59542000D03*
X134019000Y-59542000D03*
X132019000Y-59542000D03*
X132419000Y-59542000D03*
X131619000Y-59542000D03*
G04 #@! TD*
D13*
G04 #@! TO.C,U1*
X132088000Y-65155000D03*
X131588000Y-65155000D03*
X131588000Y-64385000D03*
X132088000Y-64385000D03*
X133088000Y-65155000D03*
X133588000Y-65155000D03*
X133588000Y-64385000D03*
X133088000Y-64385000D03*
D14*
X132588000Y-64385000D03*
X132588000Y-65155000D03*
G04 #@! TD*
D13*
G04 #@! TO.C,U2*
X135128000Y-65155000D03*
X134628000Y-65155000D03*
X134628000Y-64385000D03*
X135128000Y-64385000D03*
X136128000Y-65155000D03*
X136628000Y-65155000D03*
X136628000Y-64385000D03*
X136128000Y-64385000D03*
D14*
X135628000Y-64385000D03*
X135628000Y-65155000D03*
G04 #@! TD*
D13*
G04 #@! TO.C,U3*
X138184000Y-65155000D03*
X137684000Y-65155000D03*
X137684000Y-64385000D03*
X138184000Y-64385000D03*
X139184000Y-65155000D03*
X139684000Y-65155000D03*
X139684000Y-64385000D03*
X139184000Y-64385000D03*
D14*
X138684000Y-64385000D03*
X138684000Y-65155000D03*
G04 #@! TD*
D15*
G04 #@! TO.C,R1*
G36*
X144204958Y-66230710D02*
X144219276Y-66232834D01*
X144233317Y-66236351D01*
X144246946Y-66241228D01*
X144260031Y-66247417D01*
X144272447Y-66254858D01*
X144284073Y-66263481D01*
X144294798Y-66273202D01*
X144304519Y-66283927D01*
X144313142Y-66295553D01*
X144320583Y-66307969D01*
X144326772Y-66321054D01*
X144331649Y-66334683D01*
X144335166Y-66348724D01*
X144337290Y-66363042D01*
X144338000Y-66377500D01*
X144338000Y-66672500D01*
X144337290Y-66686958D01*
X144335166Y-66701276D01*
X144331649Y-66715317D01*
X144326772Y-66728946D01*
X144320583Y-66742031D01*
X144313142Y-66754447D01*
X144304519Y-66766073D01*
X144294798Y-66776798D01*
X144284073Y-66786519D01*
X144272447Y-66795142D01*
X144260031Y-66802583D01*
X144246946Y-66808772D01*
X144233317Y-66813649D01*
X144219276Y-66817166D01*
X144204958Y-66819290D01*
X144190500Y-66820000D01*
X143845500Y-66820000D01*
X143831042Y-66819290D01*
X143816724Y-66817166D01*
X143802683Y-66813649D01*
X143789054Y-66808772D01*
X143775969Y-66802583D01*
X143763553Y-66795142D01*
X143751927Y-66786519D01*
X143741202Y-66776798D01*
X143731481Y-66766073D01*
X143722858Y-66754447D01*
X143715417Y-66742031D01*
X143709228Y-66728946D01*
X143704351Y-66715317D01*
X143700834Y-66701276D01*
X143698710Y-66686958D01*
X143698000Y-66672500D01*
X143698000Y-66377500D01*
X143698710Y-66363042D01*
X143700834Y-66348724D01*
X143704351Y-66334683D01*
X143709228Y-66321054D01*
X143715417Y-66307969D01*
X143722858Y-66295553D01*
X143731481Y-66283927D01*
X143741202Y-66273202D01*
X143751927Y-66263481D01*
X143763553Y-66254858D01*
X143775969Y-66247417D01*
X143789054Y-66241228D01*
X143802683Y-66236351D01*
X143816724Y-66232834D01*
X143831042Y-66230710D01*
X143845500Y-66230000D01*
X144190500Y-66230000D01*
X144204958Y-66230710D01*
X144204958Y-66230710D01*
G37*
D16*
X144018000Y-66525000D03*
D15*
G36*
X144204958Y-65260710D02*
X144219276Y-65262834D01*
X144233317Y-65266351D01*
X144246946Y-65271228D01*
X144260031Y-65277417D01*
X144272447Y-65284858D01*
X144284073Y-65293481D01*
X144294798Y-65303202D01*
X144304519Y-65313927D01*
X144313142Y-65325553D01*
X144320583Y-65337969D01*
X144326772Y-65351054D01*
X144331649Y-65364683D01*
X144335166Y-65378724D01*
X144337290Y-65393042D01*
X144338000Y-65407500D01*
X144338000Y-65702500D01*
X144337290Y-65716958D01*
X144335166Y-65731276D01*
X144331649Y-65745317D01*
X144326772Y-65758946D01*
X144320583Y-65772031D01*
X144313142Y-65784447D01*
X144304519Y-65796073D01*
X144294798Y-65806798D01*
X144284073Y-65816519D01*
X144272447Y-65825142D01*
X144260031Y-65832583D01*
X144246946Y-65838772D01*
X144233317Y-65843649D01*
X144219276Y-65847166D01*
X144204958Y-65849290D01*
X144190500Y-65850000D01*
X143845500Y-65850000D01*
X143831042Y-65849290D01*
X143816724Y-65847166D01*
X143802683Y-65843649D01*
X143789054Y-65838772D01*
X143775969Y-65832583D01*
X143763553Y-65825142D01*
X143751927Y-65816519D01*
X143741202Y-65806798D01*
X143731481Y-65796073D01*
X143722858Y-65784447D01*
X143715417Y-65772031D01*
X143709228Y-65758946D01*
X143704351Y-65745317D01*
X143700834Y-65731276D01*
X143698710Y-65716958D01*
X143698000Y-65702500D01*
X143698000Y-65407500D01*
X143698710Y-65393042D01*
X143700834Y-65378724D01*
X143704351Y-65364683D01*
X143709228Y-65351054D01*
X143715417Y-65337969D01*
X143722858Y-65325553D01*
X143731481Y-65313927D01*
X143741202Y-65303202D01*
X143751927Y-65293481D01*
X143763553Y-65284858D01*
X143775969Y-65277417D01*
X143789054Y-65271228D01*
X143802683Y-65266351D01*
X143816724Y-65262834D01*
X143831042Y-65260710D01*
X143845500Y-65260000D01*
X144190500Y-65260000D01*
X144204958Y-65260710D01*
X144204958Y-65260710D01*
G37*
D16*
X144018000Y-65555000D03*
G04 #@! TD*
D15*
G04 #@! TO.C,R2*
G36*
X142680958Y-65237710D02*
X142695276Y-65239834D01*
X142709317Y-65243351D01*
X142722946Y-65248228D01*
X142736031Y-65254417D01*
X142748447Y-65261858D01*
X142760073Y-65270481D01*
X142770798Y-65280202D01*
X142780519Y-65290927D01*
X142789142Y-65302553D01*
X142796583Y-65314969D01*
X142802772Y-65328054D01*
X142807649Y-65341683D01*
X142811166Y-65355724D01*
X142813290Y-65370042D01*
X142814000Y-65384500D01*
X142814000Y-65679500D01*
X142813290Y-65693958D01*
X142811166Y-65708276D01*
X142807649Y-65722317D01*
X142802772Y-65735946D01*
X142796583Y-65749031D01*
X142789142Y-65761447D01*
X142780519Y-65773073D01*
X142770798Y-65783798D01*
X142760073Y-65793519D01*
X142748447Y-65802142D01*
X142736031Y-65809583D01*
X142722946Y-65815772D01*
X142709317Y-65820649D01*
X142695276Y-65824166D01*
X142680958Y-65826290D01*
X142666500Y-65827000D01*
X142321500Y-65827000D01*
X142307042Y-65826290D01*
X142292724Y-65824166D01*
X142278683Y-65820649D01*
X142265054Y-65815772D01*
X142251969Y-65809583D01*
X142239553Y-65802142D01*
X142227927Y-65793519D01*
X142217202Y-65783798D01*
X142207481Y-65773073D01*
X142198858Y-65761447D01*
X142191417Y-65749031D01*
X142185228Y-65735946D01*
X142180351Y-65722317D01*
X142176834Y-65708276D01*
X142174710Y-65693958D01*
X142174000Y-65679500D01*
X142174000Y-65384500D01*
X142174710Y-65370042D01*
X142176834Y-65355724D01*
X142180351Y-65341683D01*
X142185228Y-65328054D01*
X142191417Y-65314969D01*
X142198858Y-65302553D01*
X142207481Y-65290927D01*
X142217202Y-65280202D01*
X142227927Y-65270481D01*
X142239553Y-65261858D01*
X142251969Y-65254417D01*
X142265054Y-65248228D01*
X142278683Y-65243351D01*
X142292724Y-65239834D01*
X142307042Y-65237710D01*
X142321500Y-65237000D01*
X142666500Y-65237000D01*
X142680958Y-65237710D01*
X142680958Y-65237710D01*
G37*
D16*
X142494000Y-65532000D03*
D15*
G36*
X142680958Y-66207710D02*
X142695276Y-66209834D01*
X142709317Y-66213351D01*
X142722946Y-66218228D01*
X142736031Y-66224417D01*
X142748447Y-66231858D01*
X142760073Y-66240481D01*
X142770798Y-66250202D01*
X142780519Y-66260927D01*
X142789142Y-66272553D01*
X142796583Y-66284969D01*
X142802772Y-66298054D01*
X142807649Y-66311683D01*
X142811166Y-66325724D01*
X142813290Y-66340042D01*
X142814000Y-66354500D01*
X142814000Y-66649500D01*
X142813290Y-66663958D01*
X142811166Y-66678276D01*
X142807649Y-66692317D01*
X142802772Y-66705946D01*
X142796583Y-66719031D01*
X142789142Y-66731447D01*
X142780519Y-66743073D01*
X142770798Y-66753798D01*
X142760073Y-66763519D01*
X142748447Y-66772142D01*
X142736031Y-66779583D01*
X142722946Y-66785772D01*
X142709317Y-66790649D01*
X142695276Y-66794166D01*
X142680958Y-66796290D01*
X142666500Y-66797000D01*
X142321500Y-66797000D01*
X142307042Y-66796290D01*
X142292724Y-66794166D01*
X142278683Y-66790649D01*
X142265054Y-66785772D01*
X142251969Y-66779583D01*
X142239553Y-66772142D01*
X142227927Y-66763519D01*
X142217202Y-66753798D01*
X142207481Y-66743073D01*
X142198858Y-66731447D01*
X142191417Y-66719031D01*
X142185228Y-66705946D01*
X142180351Y-66692317D01*
X142176834Y-66678276D01*
X142174710Y-66663958D01*
X142174000Y-66649500D01*
X142174000Y-66354500D01*
X142174710Y-66340042D01*
X142176834Y-66325724D01*
X142180351Y-66311683D01*
X142185228Y-66298054D01*
X142191417Y-66284969D01*
X142198858Y-66272553D01*
X142207481Y-66260927D01*
X142217202Y-66250202D01*
X142227927Y-66240481D01*
X142239553Y-66231858D01*
X142251969Y-66224417D01*
X142265054Y-66218228D01*
X142278683Y-66213351D01*
X142292724Y-66209834D01*
X142307042Y-66207710D01*
X142321500Y-66207000D01*
X142666500Y-66207000D01*
X142680958Y-66207710D01*
X142680958Y-66207710D01*
G37*
D16*
X142494000Y-66502000D03*
G04 #@! TD*
D15*
G04 #@! TO.C,R3*
G36*
X141339958Y-66736710D02*
X141354276Y-66738834D01*
X141368317Y-66742351D01*
X141381946Y-66747228D01*
X141395031Y-66753417D01*
X141407447Y-66760858D01*
X141419073Y-66769481D01*
X141429798Y-66779202D01*
X141439519Y-66789927D01*
X141448142Y-66801553D01*
X141455583Y-66813969D01*
X141461772Y-66827054D01*
X141466649Y-66840683D01*
X141470166Y-66854724D01*
X141472290Y-66869042D01*
X141473000Y-66883500D01*
X141473000Y-67228500D01*
X141472290Y-67242958D01*
X141470166Y-67257276D01*
X141466649Y-67271317D01*
X141461772Y-67284946D01*
X141455583Y-67298031D01*
X141448142Y-67310447D01*
X141439519Y-67322073D01*
X141429798Y-67332798D01*
X141419073Y-67342519D01*
X141407447Y-67351142D01*
X141395031Y-67358583D01*
X141381946Y-67364772D01*
X141368317Y-67369649D01*
X141354276Y-67373166D01*
X141339958Y-67375290D01*
X141325500Y-67376000D01*
X141030500Y-67376000D01*
X141016042Y-67375290D01*
X141001724Y-67373166D01*
X140987683Y-67369649D01*
X140974054Y-67364772D01*
X140960969Y-67358583D01*
X140948553Y-67351142D01*
X140936927Y-67342519D01*
X140926202Y-67332798D01*
X140916481Y-67322073D01*
X140907858Y-67310447D01*
X140900417Y-67298031D01*
X140894228Y-67284946D01*
X140889351Y-67271317D01*
X140885834Y-67257276D01*
X140883710Y-67242958D01*
X140883000Y-67228500D01*
X140883000Y-66883500D01*
X140883710Y-66869042D01*
X140885834Y-66854724D01*
X140889351Y-66840683D01*
X140894228Y-66827054D01*
X140900417Y-66813969D01*
X140907858Y-66801553D01*
X140916481Y-66789927D01*
X140926202Y-66779202D01*
X140936927Y-66769481D01*
X140948553Y-66760858D01*
X140960969Y-66753417D01*
X140974054Y-66747228D01*
X140987683Y-66742351D01*
X141001724Y-66738834D01*
X141016042Y-66736710D01*
X141030500Y-66736000D01*
X141325500Y-66736000D01*
X141339958Y-66736710D01*
X141339958Y-66736710D01*
G37*
D16*
X141178000Y-67056000D03*
D15*
G36*
X140369958Y-66736710D02*
X140384276Y-66738834D01*
X140398317Y-66742351D01*
X140411946Y-66747228D01*
X140425031Y-66753417D01*
X140437447Y-66760858D01*
X140449073Y-66769481D01*
X140459798Y-66779202D01*
X140469519Y-66789927D01*
X140478142Y-66801553D01*
X140485583Y-66813969D01*
X140491772Y-66827054D01*
X140496649Y-66840683D01*
X140500166Y-66854724D01*
X140502290Y-66869042D01*
X140503000Y-66883500D01*
X140503000Y-67228500D01*
X140502290Y-67242958D01*
X140500166Y-67257276D01*
X140496649Y-67271317D01*
X140491772Y-67284946D01*
X140485583Y-67298031D01*
X140478142Y-67310447D01*
X140469519Y-67322073D01*
X140459798Y-67332798D01*
X140449073Y-67342519D01*
X140437447Y-67351142D01*
X140425031Y-67358583D01*
X140411946Y-67364772D01*
X140398317Y-67369649D01*
X140384276Y-67373166D01*
X140369958Y-67375290D01*
X140355500Y-67376000D01*
X140060500Y-67376000D01*
X140046042Y-67375290D01*
X140031724Y-67373166D01*
X140017683Y-67369649D01*
X140004054Y-67364772D01*
X139990969Y-67358583D01*
X139978553Y-67351142D01*
X139966927Y-67342519D01*
X139956202Y-67332798D01*
X139946481Y-67322073D01*
X139937858Y-67310447D01*
X139930417Y-67298031D01*
X139924228Y-67284946D01*
X139919351Y-67271317D01*
X139915834Y-67257276D01*
X139913710Y-67242958D01*
X139913000Y-67228500D01*
X139913000Y-66883500D01*
X139913710Y-66869042D01*
X139915834Y-66854724D01*
X139919351Y-66840683D01*
X139924228Y-66827054D01*
X139930417Y-66813969D01*
X139937858Y-66801553D01*
X139946481Y-66789927D01*
X139956202Y-66779202D01*
X139966927Y-66769481D01*
X139978553Y-66760858D01*
X139990969Y-66753417D01*
X140004054Y-66747228D01*
X140017683Y-66742351D01*
X140031724Y-66738834D01*
X140046042Y-66736710D01*
X140060500Y-66736000D01*
X140355500Y-66736000D01*
X140369958Y-66736710D01*
X140369958Y-66736710D01*
G37*
D16*
X140208000Y-67056000D03*
G04 #@! TD*
M02*
