G04 #@! TF.GenerationSoftware,KiCad,Pcbnew,(5.0.1)-4*
G04 #@! TF.CreationDate,2019-04-22T09:15:48+02:00*
G04 #@! TF.ProjectId,wiihdmi_wmi,77696968646D695F776D692E6B696361,rev?*
G04 #@! TF.SameCoordinates,Original*
G04 #@! TF.FileFunction,Paste,Top*
G04 #@! TF.FilePolarity,Positive*
%FSLAX46Y46*%
G04 Gerber Fmt 4.6, Leading zero omitted, Abs format (unit mm)*
G04 Created by KiCad (PCBNEW (5.0.1)-4) date 22.04.2019 09:15:48*
%MOMM*%
%LPD*%
G01*
G04 APERTURE LIST*
%ADD10R,1.597660X0.299720*%
%ADD11R,0.299720X1.597660*%
%ADD12C,0.100000*%
%ADD13C,1.150000*%
%ADD14R,2.200000X1.800000*%
%ADD15R,1.300000X0.300000*%
%ADD16R,1.650000X1.050000*%
%ADD17R,0.600000X1.550000*%
%ADD18R,0.450000X1.450000*%
%ADD19R,0.700000X1.200000*%
%ADD20R,3.000000X1.400000*%
%ADD21C,0.950000*%
G04 APERTURE END LIST*
D10*
G04 #@! TO.C,U1*
X103329740Y-81503520D03*
X103329740Y-82003900D03*
X103329740Y-82504280D03*
X103329740Y-83004660D03*
X103329740Y-83505040D03*
X103329740Y-84005420D03*
X103329740Y-84503260D03*
X103329740Y-85003640D03*
X103329740Y-85504020D03*
X103329740Y-86004400D03*
X103329740Y-86504780D03*
X103329740Y-87005160D03*
X103329740Y-87503000D03*
X103329740Y-88000840D03*
X103329740Y-88501220D03*
X103329740Y-89001600D03*
X103329740Y-89501980D03*
X103329740Y-90002360D03*
X103329740Y-90502740D03*
X103329740Y-91000580D03*
X103329740Y-91500960D03*
X103329740Y-92001340D03*
X103329740Y-92501720D03*
X103329740Y-93002100D03*
X103329740Y-93502480D03*
D11*
X101630480Y-95201740D03*
X101130100Y-95201740D03*
X100629720Y-95201740D03*
X100129340Y-95201740D03*
X99628960Y-95201740D03*
X99128580Y-95201740D03*
X98630740Y-95201740D03*
X98130360Y-95201740D03*
X97629980Y-95201740D03*
X97129600Y-95201740D03*
X96629220Y-95201740D03*
X96128840Y-95201740D03*
X95631000Y-95201740D03*
X95133160Y-95201740D03*
X94632780Y-95201740D03*
X94132400Y-95201740D03*
X93632020Y-95201740D03*
X93131640Y-95201740D03*
X92631260Y-95201740D03*
X92133420Y-95201740D03*
X91633040Y-95201740D03*
X91132660Y-95201740D03*
X90632280Y-95201740D03*
X90131900Y-95201740D03*
X89631520Y-95201740D03*
D10*
X87932260Y-93502480D03*
X87932260Y-93002100D03*
X87932260Y-92501720D03*
X87932260Y-92001340D03*
X87932260Y-91500960D03*
X87932260Y-91000580D03*
X87932260Y-90502740D03*
X87932260Y-90002360D03*
X87932260Y-89501980D03*
X87932260Y-89001600D03*
X87932260Y-88501220D03*
X87932260Y-88000840D03*
X87932260Y-87503000D03*
X87932260Y-87005160D03*
X87932260Y-86504780D03*
X87932260Y-86004400D03*
X87932260Y-85504020D03*
X87932260Y-85003640D03*
X87932260Y-84503260D03*
X87932260Y-84005420D03*
X87932260Y-83505040D03*
X87932260Y-83004660D03*
X87932260Y-82504280D03*
X87932260Y-82003900D03*
X87932260Y-81503520D03*
D11*
X89631520Y-79804260D03*
X90131900Y-79804260D03*
X90632280Y-79804260D03*
X91132660Y-79804260D03*
X91633040Y-79804260D03*
X92133420Y-79804260D03*
X92631260Y-79804260D03*
X93131640Y-79804260D03*
X93632020Y-79804260D03*
X94132400Y-79804260D03*
X94632780Y-79804260D03*
X95133160Y-79804260D03*
X95631000Y-79804260D03*
X96128840Y-79804260D03*
X96629220Y-79804260D03*
X97129600Y-79804260D03*
X97629980Y-79804260D03*
X98130360Y-79804260D03*
X98630740Y-79804260D03*
X99128580Y-79804260D03*
X99628960Y-79804260D03*
X100129340Y-79804260D03*
X100629720Y-79804260D03*
X101130100Y-79804260D03*
X101630480Y-79804260D03*
G04 #@! TD*
D12*
G04 #@! TO.C,C1*
G36*
X65355505Y-68262204D02*
X65379773Y-68265804D01*
X65403572Y-68271765D01*
X65426671Y-68280030D01*
X65448850Y-68290520D01*
X65469893Y-68303132D01*
X65489599Y-68317747D01*
X65507777Y-68334223D01*
X65524253Y-68352401D01*
X65538868Y-68372107D01*
X65551480Y-68393150D01*
X65561970Y-68415329D01*
X65570235Y-68438428D01*
X65576196Y-68462227D01*
X65579796Y-68486495D01*
X65581000Y-68510999D01*
X65581000Y-69411001D01*
X65579796Y-69435505D01*
X65576196Y-69459773D01*
X65570235Y-69483572D01*
X65561970Y-69506671D01*
X65551480Y-69528850D01*
X65538868Y-69549893D01*
X65524253Y-69569599D01*
X65507777Y-69587777D01*
X65489599Y-69604253D01*
X65469893Y-69618868D01*
X65448850Y-69631480D01*
X65426671Y-69641970D01*
X65403572Y-69650235D01*
X65379773Y-69656196D01*
X65355505Y-69659796D01*
X65331001Y-69661000D01*
X64680999Y-69661000D01*
X64656495Y-69659796D01*
X64632227Y-69656196D01*
X64608428Y-69650235D01*
X64585329Y-69641970D01*
X64563150Y-69631480D01*
X64542107Y-69618868D01*
X64522401Y-69604253D01*
X64504223Y-69587777D01*
X64487747Y-69569599D01*
X64473132Y-69549893D01*
X64460520Y-69528850D01*
X64450030Y-69506671D01*
X64441765Y-69483572D01*
X64435804Y-69459773D01*
X64432204Y-69435505D01*
X64431000Y-69411001D01*
X64431000Y-68510999D01*
X64432204Y-68486495D01*
X64435804Y-68462227D01*
X64441765Y-68438428D01*
X64450030Y-68415329D01*
X64460520Y-68393150D01*
X64473132Y-68372107D01*
X64487747Y-68352401D01*
X64504223Y-68334223D01*
X64522401Y-68317747D01*
X64542107Y-68303132D01*
X64563150Y-68290520D01*
X64585329Y-68280030D01*
X64608428Y-68271765D01*
X64632227Y-68265804D01*
X64656495Y-68262204D01*
X64680999Y-68261000D01*
X65331001Y-68261000D01*
X65355505Y-68262204D01*
X65355505Y-68262204D01*
G37*
D13*
X65006000Y-68961000D03*
D12*
G36*
X67405505Y-68262204D02*
X67429773Y-68265804D01*
X67453572Y-68271765D01*
X67476671Y-68280030D01*
X67498850Y-68290520D01*
X67519893Y-68303132D01*
X67539599Y-68317747D01*
X67557777Y-68334223D01*
X67574253Y-68352401D01*
X67588868Y-68372107D01*
X67601480Y-68393150D01*
X67611970Y-68415329D01*
X67620235Y-68438428D01*
X67626196Y-68462227D01*
X67629796Y-68486495D01*
X67631000Y-68510999D01*
X67631000Y-69411001D01*
X67629796Y-69435505D01*
X67626196Y-69459773D01*
X67620235Y-69483572D01*
X67611970Y-69506671D01*
X67601480Y-69528850D01*
X67588868Y-69549893D01*
X67574253Y-69569599D01*
X67557777Y-69587777D01*
X67539599Y-69604253D01*
X67519893Y-69618868D01*
X67498850Y-69631480D01*
X67476671Y-69641970D01*
X67453572Y-69650235D01*
X67429773Y-69656196D01*
X67405505Y-69659796D01*
X67381001Y-69661000D01*
X66730999Y-69661000D01*
X66706495Y-69659796D01*
X66682227Y-69656196D01*
X66658428Y-69650235D01*
X66635329Y-69641970D01*
X66613150Y-69631480D01*
X66592107Y-69618868D01*
X66572401Y-69604253D01*
X66554223Y-69587777D01*
X66537747Y-69569599D01*
X66523132Y-69549893D01*
X66510520Y-69528850D01*
X66500030Y-69506671D01*
X66491765Y-69483572D01*
X66485804Y-69459773D01*
X66482204Y-69435505D01*
X66481000Y-69411001D01*
X66481000Y-68510999D01*
X66482204Y-68486495D01*
X66485804Y-68462227D01*
X66491765Y-68438428D01*
X66500030Y-68415329D01*
X66510520Y-68393150D01*
X66523132Y-68372107D01*
X66537747Y-68352401D01*
X66554223Y-68334223D01*
X66572401Y-68317747D01*
X66592107Y-68303132D01*
X66613150Y-68290520D01*
X66635329Y-68280030D01*
X66658428Y-68271765D01*
X66682227Y-68265804D01*
X66706495Y-68262204D01*
X66730999Y-68261000D01*
X67381001Y-68261000D01*
X67405505Y-68262204D01*
X67405505Y-68262204D01*
G37*
D13*
X67056000Y-68961000D03*
G04 #@! TD*
D12*
G04 #@! TO.C,C2*
G36*
X62579505Y-68262204D02*
X62603773Y-68265804D01*
X62627572Y-68271765D01*
X62650671Y-68280030D01*
X62672850Y-68290520D01*
X62693893Y-68303132D01*
X62713599Y-68317747D01*
X62731777Y-68334223D01*
X62748253Y-68352401D01*
X62762868Y-68372107D01*
X62775480Y-68393150D01*
X62785970Y-68415329D01*
X62794235Y-68438428D01*
X62800196Y-68462227D01*
X62803796Y-68486495D01*
X62805000Y-68510999D01*
X62805000Y-69411001D01*
X62803796Y-69435505D01*
X62800196Y-69459773D01*
X62794235Y-69483572D01*
X62785970Y-69506671D01*
X62775480Y-69528850D01*
X62762868Y-69549893D01*
X62748253Y-69569599D01*
X62731777Y-69587777D01*
X62713599Y-69604253D01*
X62693893Y-69618868D01*
X62672850Y-69631480D01*
X62650671Y-69641970D01*
X62627572Y-69650235D01*
X62603773Y-69656196D01*
X62579505Y-69659796D01*
X62555001Y-69661000D01*
X61904999Y-69661000D01*
X61880495Y-69659796D01*
X61856227Y-69656196D01*
X61832428Y-69650235D01*
X61809329Y-69641970D01*
X61787150Y-69631480D01*
X61766107Y-69618868D01*
X61746401Y-69604253D01*
X61728223Y-69587777D01*
X61711747Y-69569599D01*
X61697132Y-69549893D01*
X61684520Y-69528850D01*
X61674030Y-69506671D01*
X61665765Y-69483572D01*
X61659804Y-69459773D01*
X61656204Y-69435505D01*
X61655000Y-69411001D01*
X61655000Y-68510999D01*
X61656204Y-68486495D01*
X61659804Y-68462227D01*
X61665765Y-68438428D01*
X61674030Y-68415329D01*
X61684520Y-68393150D01*
X61697132Y-68372107D01*
X61711747Y-68352401D01*
X61728223Y-68334223D01*
X61746401Y-68317747D01*
X61766107Y-68303132D01*
X61787150Y-68290520D01*
X61809329Y-68280030D01*
X61832428Y-68271765D01*
X61856227Y-68265804D01*
X61880495Y-68262204D01*
X61904999Y-68261000D01*
X62555001Y-68261000D01*
X62579505Y-68262204D01*
X62579505Y-68262204D01*
G37*
D13*
X62230000Y-68961000D03*
D12*
G36*
X60529505Y-68262204D02*
X60553773Y-68265804D01*
X60577572Y-68271765D01*
X60600671Y-68280030D01*
X60622850Y-68290520D01*
X60643893Y-68303132D01*
X60663599Y-68317747D01*
X60681777Y-68334223D01*
X60698253Y-68352401D01*
X60712868Y-68372107D01*
X60725480Y-68393150D01*
X60735970Y-68415329D01*
X60744235Y-68438428D01*
X60750196Y-68462227D01*
X60753796Y-68486495D01*
X60755000Y-68510999D01*
X60755000Y-69411001D01*
X60753796Y-69435505D01*
X60750196Y-69459773D01*
X60744235Y-69483572D01*
X60735970Y-69506671D01*
X60725480Y-69528850D01*
X60712868Y-69549893D01*
X60698253Y-69569599D01*
X60681777Y-69587777D01*
X60663599Y-69604253D01*
X60643893Y-69618868D01*
X60622850Y-69631480D01*
X60600671Y-69641970D01*
X60577572Y-69650235D01*
X60553773Y-69656196D01*
X60529505Y-69659796D01*
X60505001Y-69661000D01*
X59854999Y-69661000D01*
X59830495Y-69659796D01*
X59806227Y-69656196D01*
X59782428Y-69650235D01*
X59759329Y-69641970D01*
X59737150Y-69631480D01*
X59716107Y-69618868D01*
X59696401Y-69604253D01*
X59678223Y-69587777D01*
X59661747Y-69569599D01*
X59647132Y-69549893D01*
X59634520Y-69528850D01*
X59624030Y-69506671D01*
X59615765Y-69483572D01*
X59609804Y-69459773D01*
X59606204Y-69435505D01*
X59605000Y-69411001D01*
X59605000Y-68510999D01*
X59606204Y-68486495D01*
X59609804Y-68462227D01*
X59615765Y-68438428D01*
X59624030Y-68415329D01*
X59634520Y-68393150D01*
X59647132Y-68372107D01*
X59661747Y-68352401D01*
X59678223Y-68334223D01*
X59696401Y-68317747D01*
X59716107Y-68303132D01*
X59737150Y-68290520D01*
X59759329Y-68280030D01*
X59782428Y-68271765D01*
X59806227Y-68265804D01*
X59830495Y-68262204D01*
X59854999Y-68261000D01*
X60505001Y-68261000D01*
X60529505Y-68262204D01*
X60529505Y-68262204D01*
G37*
D13*
X60180000Y-68961000D03*
G04 #@! TD*
D12*
G04 #@! TO.C,C3*
G36*
X68276505Y-80327204D02*
X68300773Y-80330804D01*
X68324572Y-80336765D01*
X68347671Y-80345030D01*
X68369850Y-80355520D01*
X68390893Y-80368132D01*
X68410599Y-80382747D01*
X68428777Y-80399223D01*
X68445253Y-80417401D01*
X68459868Y-80437107D01*
X68472480Y-80458150D01*
X68482970Y-80480329D01*
X68491235Y-80503428D01*
X68497196Y-80527227D01*
X68500796Y-80551495D01*
X68502000Y-80575999D01*
X68502000Y-81476001D01*
X68500796Y-81500505D01*
X68497196Y-81524773D01*
X68491235Y-81548572D01*
X68482970Y-81571671D01*
X68472480Y-81593850D01*
X68459868Y-81614893D01*
X68445253Y-81634599D01*
X68428777Y-81652777D01*
X68410599Y-81669253D01*
X68390893Y-81683868D01*
X68369850Y-81696480D01*
X68347671Y-81706970D01*
X68324572Y-81715235D01*
X68300773Y-81721196D01*
X68276505Y-81724796D01*
X68252001Y-81726000D01*
X67601999Y-81726000D01*
X67577495Y-81724796D01*
X67553227Y-81721196D01*
X67529428Y-81715235D01*
X67506329Y-81706970D01*
X67484150Y-81696480D01*
X67463107Y-81683868D01*
X67443401Y-81669253D01*
X67425223Y-81652777D01*
X67408747Y-81634599D01*
X67394132Y-81614893D01*
X67381520Y-81593850D01*
X67371030Y-81571671D01*
X67362765Y-81548572D01*
X67356804Y-81524773D01*
X67353204Y-81500505D01*
X67352000Y-81476001D01*
X67352000Y-80575999D01*
X67353204Y-80551495D01*
X67356804Y-80527227D01*
X67362765Y-80503428D01*
X67371030Y-80480329D01*
X67381520Y-80458150D01*
X67394132Y-80437107D01*
X67408747Y-80417401D01*
X67425223Y-80399223D01*
X67443401Y-80382747D01*
X67463107Y-80368132D01*
X67484150Y-80355520D01*
X67506329Y-80345030D01*
X67529428Y-80336765D01*
X67553227Y-80330804D01*
X67577495Y-80327204D01*
X67601999Y-80326000D01*
X68252001Y-80326000D01*
X68276505Y-80327204D01*
X68276505Y-80327204D01*
G37*
D13*
X67927000Y-81026000D03*
D12*
G36*
X70326505Y-80327204D02*
X70350773Y-80330804D01*
X70374572Y-80336765D01*
X70397671Y-80345030D01*
X70419850Y-80355520D01*
X70440893Y-80368132D01*
X70460599Y-80382747D01*
X70478777Y-80399223D01*
X70495253Y-80417401D01*
X70509868Y-80437107D01*
X70522480Y-80458150D01*
X70532970Y-80480329D01*
X70541235Y-80503428D01*
X70547196Y-80527227D01*
X70550796Y-80551495D01*
X70552000Y-80575999D01*
X70552000Y-81476001D01*
X70550796Y-81500505D01*
X70547196Y-81524773D01*
X70541235Y-81548572D01*
X70532970Y-81571671D01*
X70522480Y-81593850D01*
X70509868Y-81614893D01*
X70495253Y-81634599D01*
X70478777Y-81652777D01*
X70460599Y-81669253D01*
X70440893Y-81683868D01*
X70419850Y-81696480D01*
X70397671Y-81706970D01*
X70374572Y-81715235D01*
X70350773Y-81721196D01*
X70326505Y-81724796D01*
X70302001Y-81726000D01*
X69651999Y-81726000D01*
X69627495Y-81724796D01*
X69603227Y-81721196D01*
X69579428Y-81715235D01*
X69556329Y-81706970D01*
X69534150Y-81696480D01*
X69513107Y-81683868D01*
X69493401Y-81669253D01*
X69475223Y-81652777D01*
X69458747Y-81634599D01*
X69444132Y-81614893D01*
X69431520Y-81593850D01*
X69421030Y-81571671D01*
X69412765Y-81548572D01*
X69406804Y-81524773D01*
X69403204Y-81500505D01*
X69402000Y-81476001D01*
X69402000Y-80575999D01*
X69403204Y-80551495D01*
X69406804Y-80527227D01*
X69412765Y-80503428D01*
X69421030Y-80480329D01*
X69431520Y-80458150D01*
X69444132Y-80437107D01*
X69458747Y-80417401D01*
X69475223Y-80399223D01*
X69493401Y-80382747D01*
X69513107Y-80368132D01*
X69534150Y-80355520D01*
X69556329Y-80345030D01*
X69579428Y-80336765D01*
X69603227Y-80330804D01*
X69627495Y-80327204D01*
X69651999Y-80326000D01*
X70302001Y-80326000D01*
X70326505Y-80327204D01*
X70326505Y-80327204D01*
G37*
D13*
X69977000Y-81026000D03*
G04 #@! TD*
D14*
G04 #@! TO.C,J3*
X106247000Y-98121000D03*
X106247000Y-108921000D03*
D15*
X102997000Y-107021000D03*
X102997000Y-106521000D03*
X102997000Y-106021000D03*
X102997000Y-105521000D03*
X102997000Y-105021000D03*
X102997000Y-104521000D03*
X102997000Y-104021000D03*
X102997000Y-103521000D03*
X102997000Y-103021000D03*
X102997000Y-102521000D03*
X102997000Y-102021000D03*
X102997000Y-101521000D03*
X102997000Y-101021000D03*
X102997000Y-100521000D03*
X102997000Y-100021000D03*
G04 #@! TD*
D16*
G04 #@! TO.C,SW1*
X75605000Y-53266000D03*
X71755000Y-53266000D03*
X75605000Y-51816000D03*
X71755000Y-51816000D03*
G04 #@! TD*
D17*
G04 #@! TO.C,U2*
X73787000Y-86708000D03*
X72517000Y-86708000D03*
X71247000Y-86708000D03*
X69977000Y-86708000D03*
X69977000Y-92108000D03*
X71247000Y-92108000D03*
X72517000Y-92108000D03*
X73787000Y-92108000D03*
G04 #@! TD*
D18*
G04 #@! TO.C,U3*
X64938000Y-76368000D03*
X65588000Y-76368000D03*
X66238000Y-76368000D03*
X66888000Y-76368000D03*
X66888000Y-71968000D03*
X66238000Y-71968000D03*
X65588000Y-71968000D03*
X64938000Y-71968000D03*
G04 #@! TD*
D19*
G04 #@! TO.C,U4*
X79685000Y-54443000D03*
X81435000Y-54443000D03*
X83185000Y-54443000D03*
D20*
X83185000Y-51943000D03*
G04 #@! TD*
D12*
G04 #@! TO.C,C4*
G36*
X76968779Y-89110144D02*
X76991834Y-89113563D01*
X77014443Y-89119227D01*
X77036387Y-89127079D01*
X77057457Y-89137044D01*
X77077448Y-89149026D01*
X77096168Y-89162910D01*
X77113438Y-89178562D01*
X77129090Y-89195832D01*
X77142974Y-89214552D01*
X77154956Y-89234543D01*
X77164921Y-89255613D01*
X77172773Y-89277557D01*
X77178437Y-89300166D01*
X77181856Y-89323221D01*
X77183000Y-89346500D01*
X77183000Y-89921500D01*
X77181856Y-89944779D01*
X77178437Y-89967834D01*
X77172773Y-89990443D01*
X77164921Y-90012387D01*
X77154956Y-90033457D01*
X77142974Y-90053448D01*
X77129090Y-90072168D01*
X77113438Y-90089438D01*
X77096168Y-90105090D01*
X77077448Y-90118974D01*
X77057457Y-90130956D01*
X77036387Y-90140921D01*
X77014443Y-90148773D01*
X76991834Y-90154437D01*
X76968779Y-90157856D01*
X76945500Y-90159000D01*
X76470500Y-90159000D01*
X76447221Y-90157856D01*
X76424166Y-90154437D01*
X76401557Y-90148773D01*
X76379613Y-90140921D01*
X76358543Y-90130956D01*
X76338552Y-90118974D01*
X76319832Y-90105090D01*
X76302562Y-90089438D01*
X76286910Y-90072168D01*
X76273026Y-90053448D01*
X76261044Y-90033457D01*
X76251079Y-90012387D01*
X76243227Y-89990443D01*
X76237563Y-89967834D01*
X76234144Y-89944779D01*
X76233000Y-89921500D01*
X76233000Y-89346500D01*
X76234144Y-89323221D01*
X76237563Y-89300166D01*
X76243227Y-89277557D01*
X76251079Y-89255613D01*
X76261044Y-89234543D01*
X76273026Y-89214552D01*
X76286910Y-89195832D01*
X76302562Y-89178562D01*
X76319832Y-89162910D01*
X76338552Y-89149026D01*
X76358543Y-89137044D01*
X76379613Y-89127079D01*
X76401557Y-89119227D01*
X76424166Y-89113563D01*
X76447221Y-89110144D01*
X76470500Y-89109000D01*
X76945500Y-89109000D01*
X76968779Y-89110144D01*
X76968779Y-89110144D01*
G37*
D21*
X76708000Y-89634000D03*
D12*
G36*
X76968779Y-87360144D02*
X76991834Y-87363563D01*
X77014443Y-87369227D01*
X77036387Y-87377079D01*
X77057457Y-87387044D01*
X77077448Y-87399026D01*
X77096168Y-87412910D01*
X77113438Y-87428562D01*
X77129090Y-87445832D01*
X77142974Y-87464552D01*
X77154956Y-87484543D01*
X77164921Y-87505613D01*
X77172773Y-87527557D01*
X77178437Y-87550166D01*
X77181856Y-87573221D01*
X77183000Y-87596500D01*
X77183000Y-88171500D01*
X77181856Y-88194779D01*
X77178437Y-88217834D01*
X77172773Y-88240443D01*
X77164921Y-88262387D01*
X77154956Y-88283457D01*
X77142974Y-88303448D01*
X77129090Y-88322168D01*
X77113438Y-88339438D01*
X77096168Y-88355090D01*
X77077448Y-88368974D01*
X77057457Y-88380956D01*
X77036387Y-88390921D01*
X77014443Y-88398773D01*
X76991834Y-88404437D01*
X76968779Y-88407856D01*
X76945500Y-88409000D01*
X76470500Y-88409000D01*
X76447221Y-88407856D01*
X76424166Y-88404437D01*
X76401557Y-88398773D01*
X76379613Y-88390921D01*
X76358543Y-88380956D01*
X76338552Y-88368974D01*
X76319832Y-88355090D01*
X76302562Y-88339438D01*
X76286910Y-88322168D01*
X76273026Y-88303448D01*
X76261044Y-88283457D01*
X76251079Y-88262387D01*
X76243227Y-88240443D01*
X76237563Y-88217834D01*
X76234144Y-88194779D01*
X76233000Y-88171500D01*
X76233000Y-87596500D01*
X76234144Y-87573221D01*
X76237563Y-87550166D01*
X76243227Y-87527557D01*
X76251079Y-87505613D01*
X76261044Y-87484543D01*
X76273026Y-87464552D01*
X76286910Y-87445832D01*
X76302562Y-87428562D01*
X76319832Y-87412910D01*
X76338552Y-87399026D01*
X76358543Y-87387044D01*
X76379613Y-87377079D01*
X76401557Y-87369227D01*
X76424166Y-87363563D01*
X76447221Y-87360144D01*
X76470500Y-87359000D01*
X76945500Y-87359000D01*
X76968779Y-87360144D01*
X76968779Y-87360144D01*
G37*
D21*
X76708000Y-87884000D03*
G04 #@! TD*
D12*
G04 #@! TO.C,C5*
G36*
X84334779Y-80276144D02*
X84357834Y-80279563D01*
X84380443Y-80285227D01*
X84402387Y-80293079D01*
X84423457Y-80303044D01*
X84443448Y-80315026D01*
X84462168Y-80328910D01*
X84479438Y-80344562D01*
X84495090Y-80361832D01*
X84508974Y-80380552D01*
X84520956Y-80400543D01*
X84530921Y-80421613D01*
X84538773Y-80443557D01*
X84544437Y-80466166D01*
X84547856Y-80489221D01*
X84549000Y-80512500D01*
X84549000Y-81087500D01*
X84547856Y-81110779D01*
X84544437Y-81133834D01*
X84538773Y-81156443D01*
X84530921Y-81178387D01*
X84520956Y-81199457D01*
X84508974Y-81219448D01*
X84495090Y-81238168D01*
X84479438Y-81255438D01*
X84462168Y-81271090D01*
X84443448Y-81284974D01*
X84423457Y-81296956D01*
X84402387Y-81306921D01*
X84380443Y-81314773D01*
X84357834Y-81320437D01*
X84334779Y-81323856D01*
X84311500Y-81325000D01*
X83836500Y-81325000D01*
X83813221Y-81323856D01*
X83790166Y-81320437D01*
X83767557Y-81314773D01*
X83745613Y-81306921D01*
X83724543Y-81296956D01*
X83704552Y-81284974D01*
X83685832Y-81271090D01*
X83668562Y-81255438D01*
X83652910Y-81238168D01*
X83639026Y-81219448D01*
X83627044Y-81199457D01*
X83617079Y-81178387D01*
X83609227Y-81156443D01*
X83603563Y-81133834D01*
X83600144Y-81110779D01*
X83599000Y-81087500D01*
X83599000Y-80512500D01*
X83600144Y-80489221D01*
X83603563Y-80466166D01*
X83609227Y-80443557D01*
X83617079Y-80421613D01*
X83627044Y-80400543D01*
X83639026Y-80380552D01*
X83652910Y-80361832D01*
X83668562Y-80344562D01*
X83685832Y-80328910D01*
X83704552Y-80315026D01*
X83724543Y-80303044D01*
X83745613Y-80293079D01*
X83767557Y-80285227D01*
X83790166Y-80279563D01*
X83813221Y-80276144D01*
X83836500Y-80275000D01*
X84311500Y-80275000D01*
X84334779Y-80276144D01*
X84334779Y-80276144D01*
G37*
D21*
X84074000Y-80800000D03*
D12*
G36*
X84334779Y-82026144D02*
X84357834Y-82029563D01*
X84380443Y-82035227D01*
X84402387Y-82043079D01*
X84423457Y-82053044D01*
X84443448Y-82065026D01*
X84462168Y-82078910D01*
X84479438Y-82094562D01*
X84495090Y-82111832D01*
X84508974Y-82130552D01*
X84520956Y-82150543D01*
X84530921Y-82171613D01*
X84538773Y-82193557D01*
X84544437Y-82216166D01*
X84547856Y-82239221D01*
X84549000Y-82262500D01*
X84549000Y-82837500D01*
X84547856Y-82860779D01*
X84544437Y-82883834D01*
X84538773Y-82906443D01*
X84530921Y-82928387D01*
X84520956Y-82949457D01*
X84508974Y-82969448D01*
X84495090Y-82988168D01*
X84479438Y-83005438D01*
X84462168Y-83021090D01*
X84443448Y-83034974D01*
X84423457Y-83046956D01*
X84402387Y-83056921D01*
X84380443Y-83064773D01*
X84357834Y-83070437D01*
X84334779Y-83073856D01*
X84311500Y-83075000D01*
X83836500Y-83075000D01*
X83813221Y-83073856D01*
X83790166Y-83070437D01*
X83767557Y-83064773D01*
X83745613Y-83056921D01*
X83724543Y-83046956D01*
X83704552Y-83034974D01*
X83685832Y-83021090D01*
X83668562Y-83005438D01*
X83652910Y-82988168D01*
X83639026Y-82969448D01*
X83627044Y-82949457D01*
X83617079Y-82928387D01*
X83609227Y-82906443D01*
X83603563Y-82883834D01*
X83600144Y-82860779D01*
X83599000Y-82837500D01*
X83599000Y-82262500D01*
X83600144Y-82239221D01*
X83603563Y-82216166D01*
X83609227Y-82193557D01*
X83617079Y-82171613D01*
X83627044Y-82150543D01*
X83639026Y-82130552D01*
X83652910Y-82111832D01*
X83668562Y-82094562D01*
X83685832Y-82078910D01*
X83704552Y-82065026D01*
X83724543Y-82053044D01*
X83745613Y-82043079D01*
X83767557Y-82035227D01*
X83790166Y-82029563D01*
X83813221Y-82026144D01*
X83836500Y-82025000D01*
X84311500Y-82025000D01*
X84334779Y-82026144D01*
X84334779Y-82026144D01*
G37*
D21*
X84074000Y-82550000D03*
G04 #@! TD*
D12*
G04 #@! TO.C,C6*
G36*
X97542779Y-97675144D02*
X97565834Y-97678563D01*
X97588443Y-97684227D01*
X97610387Y-97692079D01*
X97631457Y-97702044D01*
X97651448Y-97714026D01*
X97670168Y-97727910D01*
X97687438Y-97743562D01*
X97703090Y-97760832D01*
X97716974Y-97779552D01*
X97728956Y-97799543D01*
X97738921Y-97820613D01*
X97746773Y-97842557D01*
X97752437Y-97865166D01*
X97755856Y-97888221D01*
X97757000Y-97911500D01*
X97757000Y-98486500D01*
X97755856Y-98509779D01*
X97752437Y-98532834D01*
X97746773Y-98555443D01*
X97738921Y-98577387D01*
X97728956Y-98598457D01*
X97716974Y-98618448D01*
X97703090Y-98637168D01*
X97687438Y-98654438D01*
X97670168Y-98670090D01*
X97651448Y-98683974D01*
X97631457Y-98695956D01*
X97610387Y-98705921D01*
X97588443Y-98713773D01*
X97565834Y-98719437D01*
X97542779Y-98722856D01*
X97519500Y-98724000D01*
X97044500Y-98724000D01*
X97021221Y-98722856D01*
X96998166Y-98719437D01*
X96975557Y-98713773D01*
X96953613Y-98705921D01*
X96932543Y-98695956D01*
X96912552Y-98683974D01*
X96893832Y-98670090D01*
X96876562Y-98654438D01*
X96860910Y-98637168D01*
X96847026Y-98618448D01*
X96835044Y-98598457D01*
X96825079Y-98577387D01*
X96817227Y-98555443D01*
X96811563Y-98532834D01*
X96808144Y-98509779D01*
X96807000Y-98486500D01*
X96807000Y-97911500D01*
X96808144Y-97888221D01*
X96811563Y-97865166D01*
X96817227Y-97842557D01*
X96825079Y-97820613D01*
X96835044Y-97799543D01*
X96847026Y-97779552D01*
X96860910Y-97760832D01*
X96876562Y-97743562D01*
X96893832Y-97727910D01*
X96912552Y-97714026D01*
X96932543Y-97702044D01*
X96953613Y-97692079D01*
X96975557Y-97684227D01*
X96998166Y-97678563D01*
X97021221Y-97675144D01*
X97044500Y-97674000D01*
X97519500Y-97674000D01*
X97542779Y-97675144D01*
X97542779Y-97675144D01*
G37*
D21*
X97282000Y-98199000D03*
D12*
G36*
X97542779Y-99425144D02*
X97565834Y-99428563D01*
X97588443Y-99434227D01*
X97610387Y-99442079D01*
X97631457Y-99452044D01*
X97651448Y-99464026D01*
X97670168Y-99477910D01*
X97687438Y-99493562D01*
X97703090Y-99510832D01*
X97716974Y-99529552D01*
X97728956Y-99549543D01*
X97738921Y-99570613D01*
X97746773Y-99592557D01*
X97752437Y-99615166D01*
X97755856Y-99638221D01*
X97757000Y-99661500D01*
X97757000Y-100236500D01*
X97755856Y-100259779D01*
X97752437Y-100282834D01*
X97746773Y-100305443D01*
X97738921Y-100327387D01*
X97728956Y-100348457D01*
X97716974Y-100368448D01*
X97703090Y-100387168D01*
X97687438Y-100404438D01*
X97670168Y-100420090D01*
X97651448Y-100433974D01*
X97631457Y-100445956D01*
X97610387Y-100455921D01*
X97588443Y-100463773D01*
X97565834Y-100469437D01*
X97542779Y-100472856D01*
X97519500Y-100474000D01*
X97044500Y-100474000D01*
X97021221Y-100472856D01*
X96998166Y-100469437D01*
X96975557Y-100463773D01*
X96953613Y-100455921D01*
X96932543Y-100445956D01*
X96912552Y-100433974D01*
X96893832Y-100420090D01*
X96876562Y-100404438D01*
X96860910Y-100387168D01*
X96847026Y-100368448D01*
X96835044Y-100348457D01*
X96825079Y-100327387D01*
X96817227Y-100305443D01*
X96811563Y-100282834D01*
X96808144Y-100259779D01*
X96807000Y-100236500D01*
X96807000Y-99661500D01*
X96808144Y-99638221D01*
X96811563Y-99615166D01*
X96817227Y-99592557D01*
X96825079Y-99570613D01*
X96835044Y-99549543D01*
X96847026Y-99529552D01*
X96860910Y-99510832D01*
X96876562Y-99493562D01*
X96893832Y-99477910D01*
X96912552Y-99464026D01*
X96932543Y-99452044D01*
X96953613Y-99442079D01*
X96975557Y-99434227D01*
X96998166Y-99428563D01*
X97021221Y-99425144D01*
X97044500Y-99424000D01*
X97519500Y-99424000D01*
X97542779Y-99425144D01*
X97542779Y-99425144D01*
G37*
D21*
X97282000Y-99949000D03*
G04 #@! TD*
D12*
G04 #@! TO.C,C7*
G36*
X76863779Y-56295144D02*
X76886834Y-56298563D01*
X76909443Y-56304227D01*
X76931387Y-56312079D01*
X76952457Y-56322044D01*
X76972448Y-56334026D01*
X76991168Y-56347910D01*
X77008438Y-56363562D01*
X77024090Y-56380832D01*
X77037974Y-56399552D01*
X77049956Y-56419543D01*
X77059921Y-56440613D01*
X77067773Y-56462557D01*
X77073437Y-56485166D01*
X77076856Y-56508221D01*
X77078000Y-56531500D01*
X77078000Y-57006500D01*
X77076856Y-57029779D01*
X77073437Y-57052834D01*
X77067773Y-57075443D01*
X77059921Y-57097387D01*
X77049956Y-57118457D01*
X77037974Y-57138448D01*
X77024090Y-57157168D01*
X77008438Y-57174438D01*
X76991168Y-57190090D01*
X76972448Y-57203974D01*
X76952457Y-57215956D01*
X76931387Y-57225921D01*
X76909443Y-57233773D01*
X76886834Y-57239437D01*
X76863779Y-57242856D01*
X76840500Y-57244000D01*
X76265500Y-57244000D01*
X76242221Y-57242856D01*
X76219166Y-57239437D01*
X76196557Y-57233773D01*
X76174613Y-57225921D01*
X76153543Y-57215956D01*
X76133552Y-57203974D01*
X76114832Y-57190090D01*
X76097562Y-57174438D01*
X76081910Y-57157168D01*
X76068026Y-57138448D01*
X76056044Y-57118457D01*
X76046079Y-57097387D01*
X76038227Y-57075443D01*
X76032563Y-57052834D01*
X76029144Y-57029779D01*
X76028000Y-57006500D01*
X76028000Y-56531500D01*
X76029144Y-56508221D01*
X76032563Y-56485166D01*
X76038227Y-56462557D01*
X76046079Y-56440613D01*
X76056044Y-56419543D01*
X76068026Y-56399552D01*
X76081910Y-56380832D01*
X76097562Y-56363562D01*
X76114832Y-56347910D01*
X76133552Y-56334026D01*
X76153543Y-56322044D01*
X76174613Y-56312079D01*
X76196557Y-56304227D01*
X76219166Y-56298563D01*
X76242221Y-56295144D01*
X76265500Y-56294000D01*
X76840500Y-56294000D01*
X76863779Y-56295144D01*
X76863779Y-56295144D01*
G37*
D21*
X76553000Y-56769000D03*
D12*
G36*
X75113779Y-56295144D02*
X75136834Y-56298563D01*
X75159443Y-56304227D01*
X75181387Y-56312079D01*
X75202457Y-56322044D01*
X75222448Y-56334026D01*
X75241168Y-56347910D01*
X75258438Y-56363562D01*
X75274090Y-56380832D01*
X75287974Y-56399552D01*
X75299956Y-56419543D01*
X75309921Y-56440613D01*
X75317773Y-56462557D01*
X75323437Y-56485166D01*
X75326856Y-56508221D01*
X75328000Y-56531500D01*
X75328000Y-57006500D01*
X75326856Y-57029779D01*
X75323437Y-57052834D01*
X75317773Y-57075443D01*
X75309921Y-57097387D01*
X75299956Y-57118457D01*
X75287974Y-57138448D01*
X75274090Y-57157168D01*
X75258438Y-57174438D01*
X75241168Y-57190090D01*
X75222448Y-57203974D01*
X75202457Y-57215956D01*
X75181387Y-57225921D01*
X75159443Y-57233773D01*
X75136834Y-57239437D01*
X75113779Y-57242856D01*
X75090500Y-57244000D01*
X74515500Y-57244000D01*
X74492221Y-57242856D01*
X74469166Y-57239437D01*
X74446557Y-57233773D01*
X74424613Y-57225921D01*
X74403543Y-57215956D01*
X74383552Y-57203974D01*
X74364832Y-57190090D01*
X74347562Y-57174438D01*
X74331910Y-57157168D01*
X74318026Y-57138448D01*
X74306044Y-57118457D01*
X74296079Y-57097387D01*
X74288227Y-57075443D01*
X74282563Y-57052834D01*
X74279144Y-57029779D01*
X74278000Y-57006500D01*
X74278000Y-56531500D01*
X74279144Y-56508221D01*
X74282563Y-56485166D01*
X74288227Y-56462557D01*
X74296079Y-56440613D01*
X74306044Y-56419543D01*
X74318026Y-56399552D01*
X74331910Y-56380832D01*
X74347562Y-56363562D01*
X74364832Y-56347910D01*
X74383552Y-56334026D01*
X74403543Y-56322044D01*
X74424613Y-56312079D01*
X74446557Y-56304227D01*
X74469166Y-56298563D01*
X74492221Y-56295144D01*
X74515500Y-56294000D01*
X75090500Y-56294000D01*
X75113779Y-56295144D01*
X75113779Y-56295144D01*
G37*
D21*
X74803000Y-56769000D03*
G04 #@! TD*
D12*
G04 #@! TO.C,C8*
G36*
X107067779Y-93809144D02*
X107090834Y-93812563D01*
X107113443Y-93818227D01*
X107135387Y-93826079D01*
X107156457Y-93836044D01*
X107176448Y-93848026D01*
X107195168Y-93861910D01*
X107212438Y-93877562D01*
X107228090Y-93894832D01*
X107241974Y-93913552D01*
X107253956Y-93933543D01*
X107263921Y-93954613D01*
X107271773Y-93976557D01*
X107277437Y-93999166D01*
X107280856Y-94022221D01*
X107282000Y-94045500D01*
X107282000Y-94620500D01*
X107280856Y-94643779D01*
X107277437Y-94666834D01*
X107271773Y-94689443D01*
X107263921Y-94711387D01*
X107253956Y-94732457D01*
X107241974Y-94752448D01*
X107228090Y-94771168D01*
X107212438Y-94788438D01*
X107195168Y-94804090D01*
X107176448Y-94817974D01*
X107156457Y-94829956D01*
X107135387Y-94839921D01*
X107113443Y-94847773D01*
X107090834Y-94853437D01*
X107067779Y-94856856D01*
X107044500Y-94858000D01*
X106569500Y-94858000D01*
X106546221Y-94856856D01*
X106523166Y-94853437D01*
X106500557Y-94847773D01*
X106478613Y-94839921D01*
X106457543Y-94829956D01*
X106437552Y-94817974D01*
X106418832Y-94804090D01*
X106401562Y-94788438D01*
X106385910Y-94771168D01*
X106372026Y-94752448D01*
X106360044Y-94732457D01*
X106350079Y-94711387D01*
X106342227Y-94689443D01*
X106336563Y-94666834D01*
X106333144Y-94643779D01*
X106332000Y-94620500D01*
X106332000Y-94045500D01*
X106333144Y-94022221D01*
X106336563Y-93999166D01*
X106342227Y-93976557D01*
X106350079Y-93954613D01*
X106360044Y-93933543D01*
X106372026Y-93913552D01*
X106385910Y-93894832D01*
X106401562Y-93877562D01*
X106418832Y-93861910D01*
X106437552Y-93848026D01*
X106457543Y-93836044D01*
X106478613Y-93826079D01*
X106500557Y-93818227D01*
X106523166Y-93812563D01*
X106546221Y-93809144D01*
X106569500Y-93808000D01*
X107044500Y-93808000D01*
X107067779Y-93809144D01*
X107067779Y-93809144D01*
G37*
D21*
X106807000Y-94333000D03*
D12*
G36*
X107067779Y-92059144D02*
X107090834Y-92062563D01*
X107113443Y-92068227D01*
X107135387Y-92076079D01*
X107156457Y-92086044D01*
X107176448Y-92098026D01*
X107195168Y-92111910D01*
X107212438Y-92127562D01*
X107228090Y-92144832D01*
X107241974Y-92163552D01*
X107253956Y-92183543D01*
X107263921Y-92204613D01*
X107271773Y-92226557D01*
X107277437Y-92249166D01*
X107280856Y-92272221D01*
X107282000Y-92295500D01*
X107282000Y-92870500D01*
X107280856Y-92893779D01*
X107277437Y-92916834D01*
X107271773Y-92939443D01*
X107263921Y-92961387D01*
X107253956Y-92982457D01*
X107241974Y-93002448D01*
X107228090Y-93021168D01*
X107212438Y-93038438D01*
X107195168Y-93054090D01*
X107176448Y-93067974D01*
X107156457Y-93079956D01*
X107135387Y-93089921D01*
X107113443Y-93097773D01*
X107090834Y-93103437D01*
X107067779Y-93106856D01*
X107044500Y-93108000D01*
X106569500Y-93108000D01*
X106546221Y-93106856D01*
X106523166Y-93103437D01*
X106500557Y-93097773D01*
X106478613Y-93089921D01*
X106457543Y-93079956D01*
X106437552Y-93067974D01*
X106418832Y-93054090D01*
X106401562Y-93038438D01*
X106385910Y-93021168D01*
X106372026Y-93002448D01*
X106360044Y-92982457D01*
X106350079Y-92961387D01*
X106342227Y-92939443D01*
X106336563Y-92916834D01*
X106333144Y-92893779D01*
X106332000Y-92870500D01*
X106332000Y-92295500D01*
X106333144Y-92272221D01*
X106336563Y-92249166D01*
X106342227Y-92226557D01*
X106350079Y-92204613D01*
X106360044Y-92183543D01*
X106372026Y-92163552D01*
X106385910Y-92144832D01*
X106401562Y-92127562D01*
X106418832Y-92111910D01*
X106437552Y-92098026D01*
X106457543Y-92086044D01*
X106478613Y-92076079D01*
X106500557Y-92068227D01*
X106523166Y-92062563D01*
X106546221Y-92059144D01*
X106569500Y-92058000D01*
X107044500Y-92058000D01*
X107067779Y-92059144D01*
X107067779Y-92059144D01*
G37*
D21*
X106807000Y-92583000D03*
G04 #@! TD*
D12*
G04 #@! TO.C,C9*
G36*
X89210779Y-76869144D02*
X89233834Y-76872563D01*
X89256443Y-76878227D01*
X89278387Y-76886079D01*
X89299457Y-76896044D01*
X89319448Y-76908026D01*
X89338168Y-76921910D01*
X89355438Y-76937562D01*
X89371090Y-76954832D01*
X89384974Y-76973552D01*
X89396956Y-76993543D01*
X89406921Y-77014613D01*
X89414773Y-77036557D01*
X89420437Y-77059166D01*
X89423856Y-77082221D01*
X89425000Y-77105500D01*
X89425000Y-77580500D01*
X89423856Y-77603779D01*
X89420437Y-77626834D01*
X89414773Y-77649443D01*
X89406921Y-77671387D01*
X89396956Y-77692457D01*
X89384974Y-77712448D01*
X89371090Y-77731168D01*
X89355438Y-77748438D01*
X89338168Y-77764090D01*
X89319448Y-77777974D01*
X89299457Y-77789956D01*
X89278387Y-77799921D01*
X89256443Y-77807773D01*
X89233834Y-77813437D01*
X89210779Y-77816856D01*
X89187500Y-77818000D01*
X88612500Y-77818000D01*
X88589221Y-77816856D01*
X88566166Y-77813437D01*
X88543557Y-77807773D01*
X88521613Y-77799921D01*
X88500543Y-77789956D01*
X88480552Y-77777974D01*
X88461832Y-77764090D01*
X88444562Y-77748438D01*
X88428910Y-77731168D01*
X88415026Y-77712448D01*
X88403044Y-77692457D01*
X88393079Y-77671387D01*
X88385227Y-77649443D01*
X88379563Y-77626834D01*
X88376144Y-77603779D01*
X88375000Y-77580500D01*
X88375000Y-77105500D01*
X88376144Y-77082221D01*
X88379563Y-77059166D01*
X88385227Y-77036557D01*
X88393079Y-77014613D01*
X88403044Y-76993543D01*
X88415026Y-76973552D01*
X88428910Y-76954832D01*
X88444562Y-76937562D01*
X88461832Y-76921910D01*
X88480552Y-76908026D01*
X88500543Y-76896044D01*
X88521613Y-76886079D01*
X88543557Y-76878227D01*
X88566166Y-76872563D01*
X88589221Y-76869144D01*
X88612500Y-76868000D01*
X89187500Y-76868000D01*
X89210779Y-76869144D01*
X89210779Y-76869144D01*
G37*
D21*
X88900000Y-77343000D03*
D12*
G36*
X87460779Y-76869144D02*
X87483834Y-76872563D01*
X87506443Y-76878227D01*
X87528387Y-76886079D01*
X87549457Y-76896044D01*
X87569448Y-76908026D01*
X87588168Y-76921910D01*
X87605438Y-76937562D01*
X87621090Y-76954832D01*
X87634974Y-76973552D01*
X87646956Y-76993543D01*
X87656921Y-77014613D01*
X87664773Y-77036557D01*
X87670437Y-77059166D01*
X87673856Y-77082221D01*
X87675000Y-77105500D01*
X87675000Y-77580500D01*
X87673856Y-77603779D01*
X87670437Y-77626834D01*
X87664773Y-77649443D01*
X87656921Y-77671387D01*
X87646956Y-77692457D01*
X87634974Y-77712448D01*
X87621090Y-77731168D01*
X87605438Y-77748438D01*
X87588168Y-77764090D01*
X87569448Y-77777974D01*
X87549457Y-77789956D01*
X87528387Y-77799921D01*
X87506443Y-77807773D01*
X87483834Y-77813437D01*
X87460779Y-77816856D01*
X87437500Y-77818000D01*
X86862500Y-77818000D01*
X86839221Y-77816856D01*
X86816166Y-77813437D01*
X86793557Y-77807773D01*
X86771613Y-77799921D01*
X86750543Y-77789956D01*
X86730552Y-77777974D01*
X86711832Y-77764090D01*
X86694562Y-77748438D01*
X86678910Y-77731168D01*
X86665026Y-77712448D01*
X86653044Y-77692457D01*
X86643079Y-77671387D01*
X86635227Y-77649443D01*
X86629563Y-77626834D01*
X86626144Y-77603779D01*
X86625000Y-77580500D01*
X86625000Y-77105500D01*
X86626144Y-77082221D01*
X86629563Y-77059166D01*
X86635227Y-77036557D01*
X86643079Y-77014613D01*
X86653044Y-76993543D01*
X86665026Y-76973552D01*
X86678910Y-76954832D01*
X86694562Y-76937562D01*
X86711832Y-76921910D01*
X86730552Y-76908026D01*
X86750543Y-76896044D01*
X86771613Y-76886079D01*
X86793557Y-76878227D01*
X86816166Y-76872563D01*
X86839221Y-76869144D01*
X86862500Y-76868000D01*
X87437500Y-76868000D01*
X87460779Y-76869144D01*
X87460779Y-76869144D01*
G37*
D21*
X87150000Y-77343000D03*
G04 #@! TD*
D12*
G04 #@! TO.C,C10*
G36*
X107067779Y-88376144D02*
X107090834Y-88379563D01*
X107113443Y-88385227D01*
X107135387Y-88393079D01*
X107156457Y-88403044D01*
X107176448Y-88415026D01*
X107195168Y-88428910D01*
X107212438Y-88444562D01*
X107228090Y-88461832D01*
X107241974Y-88480552D01*
X107253956Y-88500543D01*
X107263921Y-88521613D01*
X107271773Y-88543557D01*
X107277437Y-88566166D01*
X107280856Y-88589221D01*
X107282000Y-88612500D01*
X107282000Y-89187500D01*
X107280856Y-89210779D01*
X107277437Y-89233834D01*
X107271773Y-89256443D01*
X107263921Y-89278387D01*
X107253956Y-89299457D01*
X107241974Y-89319448D01*
X107228090Y-89338168D01*
X107212438Y-89355438D01*
X107195168Y-89371090D01*
X107176448Y-89384974D01*
X107156457Y-89396956D01*
X107135387Y-89406921D01*
X107113443Y-89414773D01*
X107090834Y-89420437D01*
X107067779Y-89423856D01*
X107044500Y-89425000D01*
X106569500Y-89425000D01*
X106546221Y-89423856D01*
X106523166Y-89420437D01*
X106500557Y-89414773D01*
X106478613Y-89406921D01*
X106457543Y-89396956D01*
X106437552Y-89384974D01*
X106418832Y-89371090D01*
X106401562Y-89355438D01*
X106385910Y-89338168D01*
X106372026Y-89319448D01*
X106360044Y-89299457D01*
X106350079Y-89278387D01*
X106342227Y-89256443D01*
X106336563Y-89233834D01*
X106333144Y-89210779D01*
X106332000Y-89187500D01*
X106332000Y-88612500D01*
X106333144Y-88589221D01*
X106336563Y-88566166D01*
X106342227Y-88543557D01*
X106350079Y-88521613D01*
X106360044Y-88500543D01*
X106372026Y-88480552D01*
X106385910Y-88461832D01*
X106401562Y-88444562D01*
X106418832Y-88428910D01*
X106437552Y-88415026D01*
X106457543Y-88403044D01*
X106478613Y-88393079D01*
X106500557Y-88385227D01*
X106523166Y-88379563D01*
X106546221Y-88376144D01*
X106569500Y-88375000D01*
X107044500Y-88375000D01*
X107067779Y-88376144D01*
X107067779Y-88376144D01*
G37*
D21*
X106807000Y-88900000D03*
D12*
G36*
X107067779Y-90126144D02*
X107090834Y-90129563D01*
X107113443Y-90135227D01*
X107135387Y-90143079D01*
X107156457Y-90153044D01*
X107176448Y-90165026D01*
X107195168Y-90178910D01*
X107212438Y-90194562D01*
X107228090Y-90211832D01*
X107241974Y-90230552D01*
X107253956Y-90250543D01*
X107263921Y-90271613D01*
X107271773Y-90293557D01*
X107277437Y-90316166D01*
X107280856Y-90339221D01*
X107282000Y-90362500D01*
X107282000Y-90937500D01*
X107280856Y-90960779D01*
X107277437Y-90983834D01*
X107271773Y-91006443D01*
X107263921Y-91028387D01*
X107253956Y-91049457D01*
X107241974Y-91069448D01*
X107228090Y-91088168D01*
X107212438Y-91105438D01*
X107195168Y-91121090D01*
X107176448Y-91134974D01*
X107156457Y-91146956D01*
X107135387Y-91156921D01*
X107113443Y-91164773D01*
X107090834Y-91170437D01*
X107067779Y-91173856D01*
X107044500Y-91175000D01*
X106569500Y-91175000D01*
X106546221Y-91173856D01*
X106523166Y-91170437D01*
X106500557Y-91164773D01*
X106478613Y-91156921D01*
X106457543Y-91146956D01*
X106437552Y-91134974D01*
X106418832Y-91121090D01*
X106401562Y-91105438D01*
X106385910Y-91088168D01*
X106372026Y-91069448D01*
X106360044Y-91049457D01*
X106350079Y-91028387D01*
X106342227Y-91006443D01*
X106336563Y-90983834D01*
X106333144Y-90960779D01*
X106332000Y-90937500D01*
X106332000Y-90362500D01*
X106333144Y-90339221D01*
X106336563Y-90316166D01*
X106342227Y-90293557D01*
X106350079Y-90271613D01*
X106360044Y-90250543D01*
X106372026Y-90230552D01*
X106385910Y-90211832D01*
X106401562Y-90194562D01*
X106418832Y-90178910D01*
X106437552Y-90165026D01*
X106457543Y-90153044D01*
X106478613Y-90143079D01*
X106500557Y-90135227D01*
X106523166Y-90129563D01*
X106546221Y-90126144D01*
X106569500Y-90125000D01*
X107044500Y-90125000D01*
X107067779Y-90126144D01*
X107067779Y-90126144D01*
G37*
D21*
X106807000Y-90650000D03*
G04 #@! TD*
D12*
G04 #@! TO.C,C11*
G36*
X91496779Y-76869144D02*
X91519834Y-76872563D01*
X91542443Y-76878227D01*
X91564387Y-76886079D01*
X91585457Y-76896044D01*
X91605448Y-76908026D01*
X91624168Y-76921910D01*
X91641438Y-76937562D01*
X91657090Y-76954832D01*
X91670974Y-76973552D01*
X91682956Y-76993543D01*
X91692921Y-77014613D01*
X91700773Y-77036557D01*
X91706437Y-77059166D01*
X91709856Y-77082221D01*
X91711000Y-77105500D01*
X91711000Y-77580500D01*
X91709856Y-77603779D01*
X91706437Y-77626834D01*
X91700773Y-77649443D01*
X91692921Y-77671387D01*
X91682956Y-77692457D01*
X91670974Y-77712448D01*
X91657090Y-77731168D01*
X91641438Y-77748438D01*
X91624168Y-77764090D01*
X91605448Y-77777974D01*
X91585457Y-77789956D01*
X91564387Y-77799921D01*
X91542443Y-77807773D01*
X91519834Y-77813437D01*
X91496779Y-77816856D01*
X91473500Y-77818000D01*
X90898500Y-77818000D01*
X90875221Y-77816856D01*
X90852166Y-77813437D01*
X90829557Y-77807773D01*
X90807613Y-77799921D01*
X90786543Y-77789956D01*
X90766552Y-77777974D01*
X90747832Y-77764090D01*
X90730562Y-77748438D01*
X90714910Y-77731168D01*
X90701026Y-77712448D01*
X90689044Y-77692457D01*
X90679079Y-77671387D01*
X90671227Y-77649443D01*
X90665563Y-77626834D01*
X90662144Y-77603779D01*
X90661000Y-77580500D01*
X90661000Y-77105500D01*
X90662144Y-77082221D01*
X90665563Y-77059166D01*
X90671227Y-77036557D01*
X90679079Y-77014613D01*
X90689044Y-76993543D01*
X90701026Y-76973552D01*
X90714910Y-76954832D01*
X90730562Y-76937562D01*
X90747832Y-76921910D01*
X90766552Y-76908026D01*
X90786543Y-76896044D01*
X90807613Y-76886079D01*
X90829557Y-76878227D01*
X90852166Y-76872563D01*
X90875221Y-76869144D01*
X90898500Y-76868000D01*
X91473500Y-76868000D01*
X91496779Y-76869144D01*
X91496779Y-76869144D01*
G37*
D21*
X91186000Y-77343000D03*
D12*
G36*
X93246779Y-76869144D02*
X93269834Y-76872563D01*
X93292443Y-76878227D01*
X93314387Y-76886079D01*
X93335457Y-76896044D01*
X93355448Y-76908026D01*
X93374168Y-76921910D01*
X93391438Y-76937562D01*
X93407090Y-76954832D01*
X93420974Y-76973552D01*
X93432956Y-76993543D01*
X93442921Y-77014613D01*
X93450773Y-77036557D01*
X93456437Y-77059166D01*
X93459856Y-77082221D01*
X93461000Y-77105500D01*
X93461000Y-77580500D01*
X93459856Y-77603779D01*
X93456437Y-77626834D01*
X93450773Y-77649443D01*
X93442921Y-77671387D01*
X93432956Y-77692457D01*
X93420974Y-77712448D01*
X93407090Y-77731168D01*
X93391438Y-77748438D01*
X93374168Y-77764090D01*
X93355448Y-77777974D01*
X93335457Y-77789956D01*
X93314387Y-77799921D01*
X93292443Y-77807773D01*
X93269834Y-77813437D01*
X93246779Y-77816856D01*
X93223500Y-77818000D01*
X92648500Y-77818000D01*
X92625221Y-77816856D01*
X92602166Y-77813437D01*
X92579557Y-77807773D01*
X92557613Y-77799921D01*
X92536543Y-77789956D01*
X92516552Y-77777974D01*
X92497832Y-77764090D01*
X92480562Y-77748438D01*
X92464910Y-77731168D01*
X92451026Y-77712448D01*
X92439044Y-77692457D01*
X92429079Y-77671387D01*
X92421227Y-77649443D01*
X92415563Y-77626834D01*
X92412144Y-77603779D01*
X92411000Y-77580500D01*
X92411000Y-77105500D01*
X92412144Y-77082221D01*
X92415563Y-77059166D01*
X92421227Y-77036557D01*
X92429079Y-77014613D01*
X92439044Y-76993543D01*
X92451026Y-76973552D01*
X92464910Y-76954832D01*
X92480562Y-76937562D01*
X92497832Y-76921910D01*
X92516552Y-76908026D01*
X92536543Y-76896044D01*
X92557613Y-76886079D01*
X92579557Y-76878227D01*
X92602166Y-76872563D01*
X92625221Y-76869144D01*
X92648500Y-76868000D01*
X93223500Y-76868000D01*
X93246779Y-76869144D01*
X93246779Y-76869144D01*
G37*
D21*
X92936000Y-77343000D03*
G04 #@! TD*
D12*
G04 #@! TO.C,C12*
G36*
X82048779Y-85074144D02*
X82071834Y-85077563D01*
X82094443Y-85083227D01*
X82116387Y-85091079D01*
X82137457Y-85101044D01*
X82157448Y-85113026D01*
X82176168Y-85126910D01*
X82193438Y-85142562D01*
X82209090Y-85159832D01*
X82222974Y-85178552D01*
X82234956Y-85198543D01*
X82244921Y-85219613D01*
X82252773Y-85241557D01*
X82258437Y-85264166D01*
X82261856Y-85287221D01*
X82263000Y-85310500D01*
X82263000Y-85885500D01*
X82261856Y-85908779D01*
X82258437Y-85931834D01*
X82252773Y-85954443D01*
X82244921Y-85976387D01*
X82234956Y-85997457D01*
X82222974Y-86017448D01*
X82209090Y-86036168D01*
X82193438Y-86053438D01*
X82176168Y-86069090D01*
X82157448Y-86082974D01*
X82137457Y-86094956D01*
X82116387Y-86104921D01*
X82094443Y-86112773D01*
X82071834Y-86118437D01*
X82048779Y-86121856D01*
X82025500Y-86123000D01*
X81550500Y-86123000D01*
X81527221Y-86121856D01*
X81504166Y-86118437D01*
X81481557Y-86112773D01*
X81459613Y-86104921D01*
X81438543Y-86094956D01*
X81418552Y-86082974D01*
X81399832Y-86069090D01*
X81382562Y-86053438D01*
X81366910Y-86036168D01*
X81353026Y-86017448D01*
X81341044Y-85997457D01*
X81331079Y-85976387D01*
X81323227Y-85954443D01*
X81317563Y-85931834D01*
X81314144Y-85908779D01*
X81313000Y-85885500D01*
X81313000Y-85310500D01*
X81314144Y-85287221D01*
X81317563Y-85264166D01*
X81323227Y-85241557D01*
X81331079Y-85219613D01*
X81341044Y-85198543D01*
X81353026Y-85178552D01*
X81366910Y-85159832D01*
X81382562Y-85142562D01*
X81399832Y-85126910D01*
X81418552Y-85113026D01*
X81438543Y-85101044D01*
X81459613Y-85091079D01*
X81481557Y-85083227D01*
X81504166Y-85077563D01*
X81527221Y-85074144D01*
X81550500Y-85073000D01*
X82025500Y-85073000D01*
X82048779Y-85074144D01*
X82048779Y-85074144D01*
G37*
D21*
X81788000Y-85598000D03*
D12*
G36*
X82048779Y-86824144D02*
X82071834Y-86827563D01*
X82094443Y-86833227D01*
X82116387Y-86841079D01*
X82137457Y-86851044D01*
X82157448Y-86863026D01*
X82176168Y-86876910D01*
X82193438Y-86892562D01*
X82209090Y-86909832D01*
X82222974Y-86928552D01*
X82234956Y-86948543D01*
X82244921Y-86969613D01*
X82252773Y-86991557D01*
X82258437Y-87014166D01*
X82261856Y-87037221D01*
X82263000Y-87060500D01*
X82263000Y-87635500D01*
X82261856Y-87658779D01*
X82258437Y-87681834D01*
X82252773Y-87704443D01*
X82244921Y-87726387D01*
X82234956Y-87747457D01*
X82222974Y-87767448D01*
X82209090Y-87786168D01*
X82193438Y-87803438D01*
X82176168Y-87819090D01*
X82157448Y-87832974D01*
X82137457Y-87844956D01*
X82116387Y-87854921D01*
X82094443Y-87862773D01*
X82071834Y-87868437D01*
X82048779Y-87871856D01*
X82025500Y-87873000D01*
X81550500Y-87873000D01*
X81527221Y-87871856D01*
X81504166Y-87868437D01*
X81481557Y-87862773D01*
X81459613Y-87854921D01*
X81438543Y-87844956D01*
X81418552Y-87832974D01*
X81399832Y-87819090D01*
X81382562Y-87803438D01*
X81366910Y-87786168D01*
X81353026Y-87767448D01*
X81341044Y-87747457D01*
X81331079Y-87726387D01*
X81323227Y-87704443D01*
X81317563Y-87681834D01*
X81314144Y-87658779D01*
X81313000Y-87635500D01*
X81313000Y-87060500D01*
X81314144Y-87037221D01*
X81317563Y-87014166D01*
X81323227Y-86991557D01*
X81331079Y-86969613D01*
X81341044Y-86948543D01*
X81353026Y-86928552D01*
X81366910Y-86909832D01*
X81382562Y-86892562D01*
X81399832Y-86876910D01*
X81418552Y-86863026D01*
X81438543Y-86851044D01*
X81459613Y-86841079D01*
X81481557Y-86833227D01*
X81504166Y-86827563D01*
X81527221Y-86824144D01*
X81550500Y-86823000D01*
X82025500Y-86823000D01*
X82048779Y-86824144D01*
X82048779Y-86824144D01*
G37*
D21*
X81788000Y-87348000D03*
G04 #@! TD*
D12*
G04 #@! TO.C,R1*
G36*
X84334779Y-89651144D02*
X84357834Y-89654563D01*
X84380443Y-89660227D01*
X84402387Y-89668079D01*
X84423457Y-89678044D01*
X84443448Y-89690026D01*
X84462168Y-89703910D01*
X84479438Y-89719562D01*
X84495090Y-89736832D01*
X84508974Y-89755552D01*
X84520956Y-89775543D01*
X84530921Y-89796613D01*
X84538773Y-89818557D01*
X84544437Y-89841166D01*
X84547856Y-89864221D01*
X84549000Y-89887500D01*
X84549000Y-90462500D01*
X84547856Y-90485779D01*
X84544437Y-90508834D01*
X84538773Y-90531443D01*
X84530921Y-90553387D01*
X84520956Y-90574457D01*
X84508974Y-90594448D01*
X84495090Y-90613168D01*
X84479438Y-90630438D01*
X84462168Y-90646090D01*
X84443448Y-90659974D01*
X84423457Y-90671956D01*
X84402387Y-90681921D01*
X84380443Y-90689773D01*
X84357834Y-90695437D01*
X84334779Y-90698856D01*
X84311500Y-90700000D01*
X83836500Y-90700000D01*
X83813221Y-90698856D01*
X83790166Y-90695437D01*
X83767557Y-90689773D01*
X83745613Y-90681921D01*
X83724543Y-90671956D01*
X83704552Y-90659974D01*
X83685832Y-90646090D01*
X83668562Y-90630438D01*
X83652910Y-90613168D01*
X83639026Y-90594448D01*
X83627044Y-90574457D01*
X83617079Y-90553387D01*
X83609227Y-90531443D01*
X83603563Y-90508834D01*
X83600144Y-90485779D01*
X83599000Y-90462500D01*
X83599000Y-89887500D01*
X83600144Y-89864221D01*
X83603563Y-89841166D01*
X83609227Y-89818557D01*
X83617079Y-89796613D01*
X83627044Y-89775543D01*
X83639026Y-89755552D01*
X83652910Y-89736832D01*
X83668562Y-89719562D01*
X83685832Y-89703910D01*
X83704552Y-89690026D01*
X83724543Y-89678044D01*
X83745613Y-89668079D01*
X83767557Y-89660227D01*
X83790166Y-89654563D01*
X83813221Y-89651144D01*
X83836500Y-89650000D01*
X84311500Y-89650000D01*
X84334779Y-89651144D01*
X84334779Y-89651144D01*
G37*
D21*
X84074000Y-90175000D03*
D12*
G36*
X84334779Y-91401144D02*
X84357834Y-91404563D01*
X84380443Y-91410227D01*
X84402387Y-91418079D01*
X84423457Y-91428044D01*
X84443448Y-91440026D01*
X84462168Y-91453910D01*
X84479438Y-91469562D01*
X84495090Y-91486832D01*
X84508974Y-91505552D01*
X84520956Y-91525543D01*
X84530921Y-91546613D01*
X84538773Y-91568557D01*
X84544437Y-91591166D01*
X84547856Y-91614221D01*
X84549000Y-91637500D01*
X84549000Y-92212500D01*
X84547856Y-92235779D01*
X84544437Y-92258834D01*
X84538773Y-92281443D01*
X84530921Y-92303387D01*
X84520956Y-92324457D01*
X84508974Y-92344448D01*
X84495090Y-92363168D01*
X84479438Y-92380438D01*
X84462168Y-92396090D01*
X84443448Y-92409974D01*
X84423457Y-92421956D01*
X84402387Y-92431921D01*
X84380443Y-92439773D01*
X84357834Y-92445437D01*
X84334779Y-92448856D01*
X84311500Y-92450000D01*
X83836500Y-92450000D01*
X83813221Y-92448856D01*
X83790166Y-92445437D01*
X83767557Y-92439773D01*
X83745613Y-92431921D01*
X83724543Y-92421956D01*
X83704552Y-92409974D01*
X83685832Y-92396090D01*
X83668562Y-92380438D01*
X83652910Y-92363168D01*
X83639026Y-92344448D01*
X83627044Y-92324457D01*
X83617079Y-92303387D01*
X83609227Y-92281443D01*
X83603563Y-92258834D01*
X83600144Y-92235779D01*
X83599000Y-92212500D01*
X83599000Y-91637500D01*
X83600144Y-91614221D01*
X83603563Y-91591166D01*
X83609227Y-91568557D01*
X83617079Y-91546613D01*
X83627044Y-91525543D01*
X83639026Y-91505552D01*
X83652910Y-91486832D01*
X83668562Y-91469562D01*
X83685832Y-91453910D01*
X83704552Y-91440026D01*
X83724543Y-91428044D01*
X83745613Y-91418079D01*
X83767557Y-91410227D01*
X83790166Y-91404563D01*
X83813221Y-91401144D01*
X83836500Y-91400000D01*
X84311500Y-91400000D01*
X84334779Y-91401144D01*
X84334779Y-91401144D01*
G37*
D21*
X84074000Y-91925000D03*
G04 #@! TD*
D12*
G04 #@! TO.C,R2*
G36*
X85668779Y-95284144D02*
X85691834Y-95287563D01*
X85714443Y-95293227D01*
X85736387Y-95301079D01*
X85757457Y-95311044D01*
X85777448Y-95323026D01*
X85796168Y-95336910D01*
X85813438Y-95352562D01*
X85829090Y-95369832D01*
X85842974Y-95388552D01*
X85854956Y-95408543D01*
X85864921Y-95429613D01*
X85872773Y-95451557D01*
X85878437Y-95474166D01*
X85881856Y-95497221D01*
X85883000Y-95520500D01*
X85883000Y-95995500D01*
X85881856Y-96018779D01*
X85878437Y-96041834D01*
X85872773Y-96064443D01*
X85864921Y-96086387D01*
X85854956Y-96107457D01*
X85842974Y-96127448D01*
X85829090Y-96146168D01*
X85813438Y-96163438D01*
X85796168Y-96179090D01*
X85777448Y-96192974D01*
X85757457Y-96204956D01*
X85736387Y-96214921D01*
X85714443Y-96222773D01*
X85691834Y-96228437D01*
X85668779Y-96231856D01*
X85645500Y-96233000D01*
X85070500Y-96233000D01*
X85047221Y-96231856D01*
X85024166Y-96228437D01*
X85001557Y-96222773D01*
X84979613Y-96214921D01*
X84958543Y-96204956D01*
X84938552Y-96192974D01*
X84919832Y-96179090D01*
X84902562Y-96163438D01*
X84886910Y-96146168D01*
X84873026Y-96127448D01*
X84861044Y-96107457D01*
X84851079Y-96086387D01*
X84843227Y-96064443D01*
X84837563Y-96041834D01*
X84834144Y-96018779D01*
X84833000Y-95995500D01*
X84833000Y-95520500D01*
X84834144Y-95497221D01*
X84837563Y-95474166D01*
X84843227Y-95451557D01*
X84851079Y-95429613D01*
X84861044Y-95408543D01*
X84873026Y-95388552D01*
X84886910Y-95369832D01*
X84902562Y-95352562D01*
X84919832Y-95336910D01*
X84938552Y-95323026D01*
X84958543Y-95311044D01*
X84979613Y-95301079D01*
X85001557Y-95293227D01*
X85024166Y-95287563D01*
X85047221Y-95284144D01*
X85070500Y-95283000D01*
X85645500Y-95283000D01*
X85668779Y-95284144D01*
X85668779Y-95284144D01*
G37*
D21*
X85358000Y-95758000D03*
D12*
G36*
X87418779Y-95284144D02*
X87441834Y-95287563D01*
X87464443Y-95293227D01*
X87486387Y-95301079D01*
X87507457Y-95311044D01*
X87527448Y-95323026D01*
X87546168Y-95336910D01*
X87563438Y-95352562D01*
X87579090Y-95369832D01*
X87592974Y-95388552D01*
X87604956Y-95408543D01*
X87614921Y-95429613D01*
X87622773Y-95451557D01*
X87628437Y-95474166D01*
X87631856Y-95497221D01*
X87633000Y-95520500D01*
X87633000Y-95995500D01*
X87631856Y-96018779D01*
X87628437Y-96041834D01*
X87622773Y-96064443D01*
X87614921Y-96086387D01*
X87604956Y-96107457D01*
X87592974Y-96127448D01*
X87579090Y-96146168D01*
X87563438Y-96163438D01*
X87546168Y-96179090D01*
X87527448Y-96192974D01*
X87507457Y-96204956D01*
X87486387Y-96214921D01*
X87464443Y-96222773D01*
X87441834Y-96228437D01*
X87418779Y-96231856D01*
X87395500Y-96233000D01*
X86820500Y-96233000D01*
X86797221Y-96231856D01*
X86774166Y-96228437D01*
X86751557Y-96222773D01*
X86729613Y-96214921D01*
X86708543Y-96204956D01*
X86688552Y-96192974D01*
X86669832Y-96179090D01*
X86652562Y-96163438D01*
X86636910Y-96146168D01*
X86623026Y-96127448D01*
X86611044Y-96107457D01*
X86601079Y-96086387D01*
X86593227Y-96064443D01*
X86587563Y-96041834D01*
X86584144Y-96018779D01*
X86583000Y-95995500D01*
X86583000Y-95520500D01*
X86584144Y-95497221D01*
X86587563Y-95474166D01*
X86593227Y-95451557D01*
X86601079Y-95429613D01*
X86611044Y-95408543D01*
X86623026Y-95388552D01*
X86636910Y-95369832D01*
X86652562Y-95352562D01*
X86669832Y-95336910D01*
X86688552Y-95323026D01*
X86708543Y-95311044D01*
X86729613Y-95301079D01*
X86751557Y-95293227D01*
X86774166Y-95287563D01*
X86797221Y-95284144D01*
X86820500Y-95283000D01*
X87395500Y-95283000D01*
X87418779Y-95284144D01*
X87418779Y-95284144D01*
G37*
D21*
X87108000Y-95758000D03*
G04 #@! TD*
D12*
G04 #@! TO.C,R3*
G36*
X104582779Y-79028144D02*
X104605834Y-79031563D01*
X104628443Y-79037227D01*
X104650387Y-79045079D01*
X104671457Y-79055044D01*
X104691448Y-79067026D01*
X104710168Y-79080910D01*
X104727438Y-79096562D01*
X104743090Y-79113832D01*
X104756974Y-79132552D01*
X104768956Y-79152543D01*
X104778921Y-79173613D01*
X104786773Y-79195557D01*
X104792437Y-79218166D01*
X104795856Y-79241221D01*
X104797000Y-79264500D01*
X104797000Y-79739500D01*
X104795856Y-79762779D01*
X104792437Y-79785834D01*
X104786773Y-79808443D01*
X104778921Y-79830387D01*
X104768956Y-79851457D01*
X104756974Y-79871448D01*
X104743090Y-79890168D01*
X104727438Y-79907438D01*
X104710168Y-79923090D01*
X104691448Y-79936974D01*
X104671457Y-79948956D01*
X104650387Y-79958921D01*
X104628443Y-79966773D01*
X104605834Y-79972437D01*
X104582779Y-79975856D01*
X104559500Y-79977000D01*
X103984500Y-79977000D01*
X103961221Y-79975856D01*
X103938166Y-79972437D01*
X103915557Y-79966773D01*
X103893613Y-79958921D01*
X103872543Y-79948956D01*
X103852552Y-79936974D01*
X103833832Y-79923090D01*
X103816562Y-79907438D01*
X103800910Y-79890168D01*
X103787026Y-79871448D01*
X103775044Y-79851457D01*
X103765079Y-79830387D01*
X103757227Y-79808443D01*
X103751563Y-79785834D01*
X103748144Y-79762779D01*
X103747000Y-79739500D01*
X103747000Y-79264500D01*
X103748144Y-79241221D01*
X103751563Y-79218166D01*
X103757227Y-79195557D01*
X103765079Y-79173613D01*
X103775044Y-79152543D01*
X103787026Y-79132552D01*
X103800910Y-79113832D01*
X103816562Y-79096562D01*
X103833832Y-79080910D01*
X103852552Y-79067026D01*
X103872543Y-79055044D01*
X103893613Y-79045079D01*
X103915557Y-79037227D01*
X103938166Y-79031563D01*
X103961221Y-79028144D01*
X103984500Y-79027000D01*
X104559500Y-79027000D01*
X104582779Y-79028144D01*
X104582779Y-79028144D01*
G37*
D21*
X104272000Y-79502000D03*
D12*
G36*
X106332779Y-79028144D02*
X106355834Y-79031563D01*
X106378443Y-79037227D01*
X106400387Y-79045079D01*
X106421457Y-79055044D01*
X106441448Y-79067026D01*
X106460168Y-79080910D01*
X106477438Y-79096562D01*
X106493090Y-79113832D01*
X106506974Y-79132552D01*
X106518956Y-79152543D01*
X106528921Y-79173613D01*
X106536773Y-79195557D01*
X106542437Y-79218166D01*
X106545856Y-79241221D01*
X106547000Y-79264500D01*
X106547000Y-79739500D01*
X106545856Y-79762779D01*
X106542437Y-79785834D01*
X106536773Y-79808443D01*
X106528921Y-79830387D01*
X106518956Y-79851457D01*
X106506974Y-79871448D01*
X106493090Y-79890168D01*
X106477438Y-79907438D01*
X106460168Y-79923090D01*
X106441448Y-79936974D01*
X106421457Y-79948956D01*
X106400387Y-79958921D01*
X106378443Y-79966773D01*
X106355834Y-79972437D01*
X106332779Y-79975856D01*
X106309500Y-79977000D01*
X105734500Y-79977000D01*
X105711221Y-79975856D01*
X105688166Y-79972437D01*
X105665557Y-79966773D01*
X105643613Y-79958921D01*
X105622543Y-79948956D01*
X105602552Y-79936974D01*
X105583832Y-79923090D01*
X105566562Y-79907438D01*
X105550910Y-79890168D01*
X105537026Y-79871448D01*
X105525044Y-79851457D01*
X105515079Y-79830387D01*
X105507227Y-79808443D01*
X105501563Y-79785834D01*
X105498144Y-79762779D01*
X105497000Y-79739500D01*
X105497000Y-79264500D01*
X105498144Y-79241221D01*
X105501563Y-79218166D01*
X105507227Y-79195557D01*
X105515079Y-79173613D01*
X105525044Y-79152543D01*
X105537026Y-79132552D01*
X105550910Y-79113832D01*
X105566562Y-79096562D01*
X105583832Y-79080910D01*
X105602552Y-79067026D01*
X105622543Y-79055044D01*
X105643613Y-79045079D01*
X105665557Y-79037227D01*
X105688166Y-79031563D01*
X105711221Y-79028144D01*
X105734500Y-79027000D01*
X106309500Y-79027000D01*
X106332779Y-79028144D01*
X106332779Y-79028144D01*
G37*
D21*
X106022000Y-79502000D03*
G04 #@! TD*
M02*
