G04 #@! TF.GenerationSoftware,KiCad,Pcbnew,(5.0.1)-4*
G04 #@! TF.CreationDate,2019-04-22T09:15:48+02:00*
G04 #@! TF.ProjectId,wiihdmi_wmi,77696968646D695F776D692E6B696361,rev?*
G04 #@! TF.SameCoordinates,Original*
G04 #@! TF.FileFunction,Copper,L2,Bot,Signal*
G04 #@! TF.FilePolarity,Positive*
%FSLAX46Y46*%
G04 Gerber Fmt 4.6, Leading zero omitted, Abs format (unit mm)*
G04 Created by KiCad (PCBNEW (5.0.1)-4) date 22.04.2019 09:15:48*
%MOMM*%
%LPD*%
G01*
G04 APERTURE LIST*
G04 #@! TA.AperFunction,ComponentPad*
%ADD10R,1.000000X1.000000*%
G04 #@! TD*
G04 #@! TA.AperFunction,ComponentPad*
%ADD11O,1.000000X1.000000*%
G04 #@! TD*
G04 #@! TA.AperFunction,ComponentPad*
%ADD12C,1.600000*%
G04 #@! TD*
G04 #@! TA.AperFunction,ComponentPad*
%ADD13O,2.000000X4.000000*%
G04 #@! TD*
G04 #@! TA.AperFunction,ComponentPad*
%ADD14C,2.000000*%
G04 #@! TD*
G04 #@! TA.AperFunction,ComponentPad*
%ADD15C,0.700000*%
G04 #@! TD*
G04 #@! TA.AperFunction,ViaPad*
%ADD16C,0.800000*%
G04 #@! TD*
G04 #@! TA.AperFunction,ViaPad*
%ADD17C,0.400000*%
G04 #@! TD*
G04 #@! TA.AperFunction,Conductor*
%ADD18C,0.500000*%
G04 #@! TD*
G04 #@! TA.AperFunction,Conductor*
%ADD19C,0.127000*%
G04 #@! TD*
G04 #@! TA.AperFunction,Conductor*
%ADD20C,0.200000*%
G04 #@! TD*
G04 APERTURE END LIST*
D10*
G04 #@! TO.P,J1,1*
G04 #@! TO.N,SI*
X65024000Y-88138000D03*
D11*
G04 #@! TO.P,J1,2*
G04 #@! TO.N,SO*
X63754000Y-88138000D03*
G04 #@! TO.P,J1,3*
G04 #@! TO.N,CS*
X62484000Y-88138000D03*
G04 #@! TO.P,J1,4*
G04 #@! TO.N,CLK*
X61214000Y-88138000D03*
G04 #@! TO.P,J1,5*
G04 #@! TO.N,GND*
X59944000Y-88138000D03*
G04 #@! TO.P,J1,6*
G04 #@! TO.N,+3V3*
X58674000Y-88138000D03*
G04 #@! TD*
D12*
G04 #@! TO.P,J2,18*
G04 #@! TO.N,Net-(J2-Pad18)*
X88644000Y-59436000D03*
G04 #@! TO.P,J2,16*
G04 #@! TO.N,Net-(J2-Pad16)*
X86644000Y-59436000D03*
G04 #@! TO.P,J2,14*
G04 #@! TO.N,Net-(J2-Pad14)*
X84644000Y-59436000D03*
G04 #@! TO.P,J2,12*
G04 #@! TO.N,GND*
X82644000Y-59436000D03*
G04 #@! TO.P,J2,10*
G04 #@! TO.N,+3V3*
X80644000Y-59436000D03*
G04 #@! TO.P,J2,8*
X78644000Y-59436000D03*
G04 #@! TO.P,J2,6*
G04 #@! TO.N,GND*
X76644000Y-59436000D03*
G04 #@! TO.P,J2,4*
G04 #@! TO.N,+5V*
X74644000Y-59436000D03*
G04 #@! TO.P,J2,2*
G04 #@! TO.N,Wii_Audio_Right*
X72644000Y-59436000D03*
G04 #@! TO.P,J2,17*
G04 #@! TO.N,Net-(J2-Pad17)*
X70644000Y-59436000D03*
G04 #@! TO.P,J2,15*
G04 #@! TO.N,Net-(J2-Pad15)*
X86644000Y-61936000D03*
G04 #@! TO.P,J2,9*
G04 #@! TO.N,Wii_Pb_Chroma_Green*
X80644000Y-61936000D03*
G04 #@! TO.P,J2,5*
G04 #@! TO.N,GND*
X76644000Y-61936000D03*
G04 #@! TO.P,J2,13*
G04 #@! TO.N,+12V*
X84644000Y-61936000D03*
G04 #@! TO.P,J2,7*
G04 #@! TO.N,Wii_Y_Luma_Red*
X78644000Y-61936000D03*
G04 #@! TO.P,J2,3*
G04 #@! TO.N,Wii_Composite_Video*
X74644000Y-61936000D03*
G04 #@! TO.P,J2,1*
G04 #@! TO.N,Wii_Audio_Left*
X72644000Y-61936000D03*
G04 #@! TO.P,J2,11*
G04 #@! TO.N,Wii_Pr_Blue*
X82644000Y-61936000D03*
D13*
G04 #@! TO.P,J2,19*
G04 #@! TO.N,GND*
X68644000Y-62474000D03*
X90644000Y-62474000D03*
D14*
X73620000Y-64936000D03*
X85620000Y-64936000D03*
G04 #@! TD*
D15*
G04 #@! TO.P,SW1,1*
G04 #@! TO.N,IR_Button*
X75705000Y-51716000D03*
X71655000Y-51716000D03*
G04 #@! TD*
D16*
G04 #@! TO.N,+3V3*
X66675000Y-66040000D03*
X82677000Y-84074000D03*
X72517000Y-89535000D03*
X71247000Y-84963000D03*
X86360000Y-80264000D03*
X93599000Y-87376000D03*
X95250000Y-89154000D03*
X98298000Y-92202000D03*
X100457000Y-93345000D03*
X101727000Y-92075000D03*
X100838000Y-89789000D03*
G04 #@! TO.N,GND*
X83947000Y-87376000D03*
X85471000Y-88773000D03*
X90678000Y-85725000D03*
X94742000Y-91948000D03*
X69088000Y-74168000D03*
X72898000Y-83820000D03*
X85090000Y-78994000D03*
X81534000Y-92964000D03*
X86360000Y-94234000D03*
X65024000Y-84328000D03*
X82042000Y-70612000D03*
X79502000Y-70612000D03*
X106426000Y-85090000D03*
X99060000Y-86360000D03*
X95758000Y-83820000D03*
X68072000Y-92202000D03*
X94488000Y-81534000D03*
X98806000Y-82296000D03*
D17*
X101854000Y-87884000D03*
X101854000Y-86614000D03*
D16*
X89916000Y-77470000D03*
X101600000Y-97028000D03*
X98806000Y-97028000D03*
X100838000Y-83820000D03*
X83312000Y-76962000D03*
X109474000Y-87884000D03*
X85090000Y-56007000D03*
X109474000Y-90551000D03*
X109474000Y-92837000D03*
X99695000Y-105791000D03*
X99695000Y-108204000D03*
G04 #@! TO.N,+1V2*
X83693000Y-85217000D03*
X85852000Y-75946000D03*
X95504000Y-85598000D03*
X97155000Y-87249000D03*
X104902000Y-88773000D03*
X97155000Y-96901000D03*
D17*
G04 #@! TO.N,SI*
X89154000Y-91440000D03*
X69977000Y-90932000D03*
G04 #@! TO.N,SO*
X89662000Y-93980000D03*
X74930000Y-92084510D03*
G04 #@! TO.N,CS*
X89154000Y-82042000D03*
X74930000Y-86106000D03*
G04 #@! TO.N,CLK*
X90678000Y-93980000D03*
X71247000Y-93345000D03*
G04 #@! TO.N,+5V*
X104140000Y-100584000D03*
X98425000Y-91313000D03*
G04 #@! TO.N,TMDS_DATA2_+*
X104648000Y-84562997D03*
X104140000Y-106572003D03*
G04 #@! TO.N,TMDS_DATA2_-*
X104648000Y-85090000D03*
X104140000Y-106045000D03*
G04 #@! TO.N,TMDS_DATA1_+*
X104648000Y-86995000D03*
X104140000Y-105048003D03*
G04 #@! TO.N,TMDS_DATA1_-*
X104648000Y-87630000D03*
X104140000Y-104521000D03*
G04 #@! TO.N,TMDS_DATA0_+*
X104648000Y-89515997D03*
X104140000Y-103524003D03*
G04 #@! TO.N,TMDS_DATA0_-*
X104648000Y-90043000D03*
X104140000Y-102997000D03*
G04 #@! TO.N,TMDS_CLOCK_+*
X104648000Y-92436997D03*
X104140000Y-102000003D03*
G04 #@! TO.N,TMDS_CLOCK_-*
X104648000Y-92964000D03*
X104140000Y-101473000D03*
G04 #@! TO.N,VData2*
X97663000Y-78486000D03*
X107442000Y-75819000D03*
G04 #@! TO.N,VData3*
X97135997Y-78486000D03*
X109474000Y-76835000D03*
G04 #@! TO.N,VData1*
X98679000Y-78486000D03*
X109474000Y-74803000D03*
G04 #@! TO.N,54MHz*
X89154000Y-90043000D03*
X104775000Y-81026000D03*
G04 #@! TO.N,CSel*
X99695000Y-81026000D03*
X107442000Y-79883000D03*
G04 #@! TO.N,VData5*
X95611997Y-78486000D03*
X109474000Y-78867000D03*
G04 #@! TO.N,VData4*
X96139000Y-78486000D03*
X107442000Y-77851000D03*
G04 #@! TO.N,VData6*
X94615000Y-78486000D03*
X107442000Y-81915000D03*
G04 #@! TO.N,VData7*
X94087997Y-78486000D03*
X109474000Y-82931000D03*
G04 #@! TO.N,LRCK*
X107442000Y-83947000D03*
X91313000Y-90433500D03*
G04 #@! TO.N,AData*
X109474000Y-84963000D03*
X90678000Y-90932000D03*
G04 #@! TO.N,BCLK*
X107442000Y-85979000D03*
X90043000Y-91440000D03*
G04 #@! TO.N,Net-(R1-Pad2)*
X84963000Y-92583000D03*
X86741000Y-92583000D03*
G04 #@! TD*
D18*
G04 #@! TO.N,+3V3*
X78644000Y-59436000D02*
X78644000Y-57435000D01*
X78644000Y-57435000D02*
X78232000Y-57023000D01*
X78232000Y-57023000D02*
X68072000Y-57023000D01*
X68072000Y-57023000D02*
X66675000Y-58420000D01*
X66675000Y-58420000D02*
X66675000Y-66040000D01*
X66275001Y-66439999D02*
X66275001Y-74911001D01*
X66675000Y-66040000D02*
X66275001Y-66439999D01*
X76456792Y-85092792D02*
X76835000Y-85471000D01*
X76835000Y-85471000D02*
X81280000Y-85471000D01*
X81280000Y-85471000D02*
X82677000Y-84074000D01*
X72517000Y-89535000D02*
X72517000Y-86233000D01*
X72517000Y-86233000D02*
X71247000Y-84963000D01*
X71247000Y-84397315D02*
X71247000Y-79883000D01*
X71247000Y-84963000D02*
X71247000Y-84397315D01*
X66275001Y-74911001D02*
X71247000Y-79883000D01*
X71247000Y-79883000D02*
X76456792Y-85092792D01*
X86360000Y-80264000D02*
X88773000Y-80264000D01*
X88773000Y-80264000D02*
X93599000Y-85090000D01*
X93599000Y-85090000D02*
X93599000Y-87376000D01*
X98298000Y-92202000D02*
X99441000Y-93345000D01*
X99441000Y-93345000D02*
X100457000Y-93345000D01*
X101727000Y-92075000D02*
X101327001Y-91675001D01*
X101327001Y-91675001D02*
X100838000Y-91186000D01*
X100838000Y-91186000D02*
X100838000Y-89789000D01*
G04 #@! TO.N,+1V2*
X83693000Y-85217000D02*
X83693000Y-78105000D01*
X83693000Y-78105000D02*
X85852000Y-75946000D01*
X85852000Y-75946000D02*
X95504000Y-85598000D01*
X97155000Y-87249000D02*
X98679000Y-88773000D01*
X98679000Y-88773000D02*
X104902000Y-88773000D01*
X97155000Y-87249000D02*
X97155000Y-96901000D01*
D19*
G04 #@! TO.N,SI*
X89154000Y-91440000D02*
X75946000Y-91440000D01*
X75946000Y-91440000D02*
X70485000Y-91440000D01*
X70485000Y-91440000D02*
X69977000Y-90932000D01*
X67818000Y-90932000D02*
X65024000Y-88138000D01*
X69977000Y-90932000D02*
X67818000Y-90932000D01*
G04 #@! TO.N,SO*
X89662000Y-93980000D02*
X87630020Y-91948020D01*
X87630020Y-91948020D02*
X84963000Y-91948020D01*
X84963000Y-91948020D02*
X75066490Y-91948020D01*
X75066490Y-91948020D02*
X74930000Y-92084510D01*
G04 #@! TO.N,CS*
X89154000Y-82042000D02*
X85090000Y-86106000D01*
X85090000Y-86106000D02*
X74930000Y-86106000D01*
X64262000Y-86360000D02*
X67691000Y-86360000D01*
X62484000Y-88138000D02*
X64262000Y-86360000D01*
X67691000Y-86360000D02*
X71882000Y-90551000D01*
X71882000Y-90551000D02*
X73152000Y-90551000D01*
X73152000Y-90551000D02*
X74930000Y-88773000D01*
X74930000Y-88773000D02*
X74930000Y-86106000D01*
G04 #@! TO.N,CLK*
X88392010Y-91694010D02*
X72517010Y-91694010D01*
X90678000Y-93980000D02*
X88392010Y-91694010D01*
X72517010Y-91694010D02*
X71247000Y-92964020D01*
X71247000Y-92964020D02*
X71247000Y-93345000D01*
G04 #@! TO.N,+5V*
X98425000Y-91313000D02*
X99695000Y-91313000D01*
X104140000Y-95758000D02*
X104140000Y-97155000D01*
X99695000Y-91313000D02*
X104140000Y-95758000D01*
X104140000Y-97028000D02*
X104140000Y-97155000D01*
X104140000Y-97155000D02*
X104140000Y-100584000D01*
G04 #@! TO.N,TMDS_DATA2_+*
X104190939Y-106572003D02*
X104140000Y-106572003D01*
X106562557Y-104200385D02*
X104190939Y-106572003D01*
X106562557Y-86194712D02*
X106562557Y-104200385D01*
X104648000Y-84562997D02*
X104930842Y-84562997D01*
X104930842Y-84562997D02*
X106562557Y-86194712D01*
G04 #@! TO.N,TMDS_DATA2_-*
X106308547Y-87033389D02*
X106308548Y-88296324D01*
X104648000Y-85090000D02*
X104648000Y-85372842D01*
X104648000Y-85372842D02*
X106308547Y-87033389D01*
X106308548Y-88296324D02*
X106308548Y-103876452D01*
X106308548Y-103876452D02*
X104140000Y-106045000D01*
G04 #@! TO.N,TMDS_DATA1_+*
X104190939Y-105048003D02*
X104140000Y-105048003D01*
X106054538Y-103184404D02*
X104190939Y-105048003D01*
X104648000Y-86995000D02*
X106054538Y-88401538D01*
X106054538Y-88401538D02*
X106054538Y-103184404D01*
G04 #@! TO.N,TMDS_DATA1_-*
X105800529Y-102860471D02*
X104140000Y-104521000D01*
X104648000Y-87630000D02*
X105800529Y-88782529D01*
X105800529Y-88782529D02*
X105800529Y-102860471D01*
G04 #@! TO.N,TMDS_DATA0_+*
X104190939Y-103524003D02*
X104140000Y-103524003D01*
X105546520Y-102168422D02*
X104190939Y-103524003D01*
X105546520Y-90131675D02*
X105546520Y-102168422D01*
X104648000Y-89515997D02*
X104930842Y-89515997D01*
X104930842Y-89515997D02*
X105546520Y-90131675D01*
G04 #@! TO.N,TMDS_DATA0_-*
X105292510Y-101844490D02*
X104140000Y-102997000D01*
X104648000Y-90043000D02*
X105292510Y-90687510D01*
X105292510Y-90687510D02*
X105292510Y-101844490D01*
G04 #@! TO.N,TMDS_CLOCK_+*
X104190939Y-102000003D02*
X104140000Y-102000003D01*
X105038501Y-101152441D02*
X104190939Y-102000003D01*
X105038501Y-92544656D02*
X105038501Y-101152441D01*
X104648000Y-92436997D02*
X104930842Y-92436997D01*
X104930842Y-92436997D02*
X105038501Y-92544656D01*
G04 #@! TO.N,TMDS_CLOCK_-*
X104648000Y-92964000D02*
X104648000Y-100965000D01*
X104648000Y-100965000D02*
X104140000Y-101473000D01*
G04 #@! TO.N,VData2*
X103102214Y-78370520D02*
X99429480Y-78370520D01*
X99429480Y-78370520D02*
X98806000Y-78994000D01*
X97663000Y-78740000D02*
X97663000Y-78486000D01*
X98806000Y-78994000D02*
X97917000Y-78994000D01*
X97917000Y-78994000D02*
X97663000Y-78740000D01*
X105249704Y-78370520D02*
X104902000Y-78370520D01*
X107442000Y-76178224D02*
X105249704Y-78370520D01*
X107442000Y-75819000D02*
X107442000Y-76178224D01*
X105117191Y-78370520D02*
X104902000Y-78370520D01*
X104902000Y-78370520D02*
X103102214Y-78370520D01*
G04 #@! TO.N,VData3*
X97135997Y-78572221D02*
X97135997Y-78486000D01*
X109474000Y-76835000D02*
X107144448Y-76835000D01*
X107144448Y-76835000D02*
X105354918Y-78624530D01*
X105354918Y-78624530D02*
X99534694Y-78624530D01*
X99534694Y-78624530D02*
X98911215Y-79248009D01*
X98911215Y-79248009D02*
X97811785Y-79248009D01*
X97811785Y-79248009D02*
X97135997Y-78572221D01*
G04 #@! TO.N,VData1*
X102997000Y-78116510D02*
X99048490Y-78116510D01*
X99048490Y-78116510D02*
X98679000Y-78486000D01*
X109474000Y-74803000D02*
X107442000Y-74803000D01*
X107442000Y-74803000D02*
X106172000Y-76073000D01*
X106172000Y-76073000D02*
X106172000Y-77089000D01*
X105144490Y-78116510D02*
X104902000Y-78116510D01*
X106172000Y-77089000D02*
X105144490Y-78116510D01*
X105011977Y-78116510D02*
X104902000Y-78116510D01*
X104902000Y-78116510D02*
X102997000Y-78116510D01*
G04 #@! TO.N,54MHz*
X92104477Y-90043000D02*
X101121477Y-81026000D01*
X89154000Y-90043000D02*
X92104477Y-90043000D01*
X101121477Y-81026000D02*
X104775000Y-81026000D01*
G04 #@! TO.N,CSel*
X100838000Y-79883000D02*
X99695000Y-81026000D01*
X107442000Y-79883000D02*
X100838000Y-79883000D01*
G04 #@! TO.N,VData5*
X95611997Y-78536939D02*
X95611997Y-78486000D01*
X96904067Y-79829009D02*
X95611997Y-78536939D01*
X99048663Y-79829009D02*
X96904067Y-79829009D01*
X99745122Y-79132550D02*
X99048663Y-79829009D01*
X109208450Y-79132550D02*
X99745122Y-79132550D01*
X109474000Y-78867000D02*
X109208450Y-79132550D01*
G04 #@! TO.N,VData4*
X107442000Y-77851000D02*
X106487672Y-77851000D01*
X106487672Y-77851000D02*
X105460132Y-78878540D01*
X105460132Y-78878540D02*
X99639908Y-78878540D01*
X99016429Y-79502019D02*
X97155019Y-79502019D01*
X99639908Y-78878540D02*
X99016429Y-79502019D01*
X97155019Y-79502019D02*
X96139000Y-78486000D01*
G04 #@! TO.N,VData6*
X97545501Y-81416501D02*
X94615000Y-78486000D01*
X101092000Y-80337029D02*
X100012528Y-81416501D01*
X100012528Y-81416501D02*
X97545501Y-81416501D01*
X106146871Y-80337029D02*
X101092000Y-80337029D01*
X107442000Y-81632158D02*
X106146871Y-80337029D01*
X107442000Y-81915000D02*
X107442000Y-81632158D01*
G04 #@! TO.N,VData7*
X101197214Y-80591039D02*
X100117742Y-81670511D01*
X100117742Y-81670511D02*
X98425000Y-81670511D01*
X94087997Y-78536939D02*
X94087997Y-78486000D01*
X98425000Y-81670511D02*
X97221569Y-81670511D01*
X97221569Y-81670511D02*
X94087997Y-78536939D01*
X105540097Y-80591039D02*
X101197214Y-80591039D01*
X107880058Y-82931000D02*
X105540097Y-80591039D01*
X109474000Y-82931000D02*
X107880058Y-82931000D01*
G04 #@! TO.N,LRCK*
X107442000Y-83947000D02*
X107442000Y-82931000D01*
X107442000Y-82931000D02*
X106172000Y-81661000D01*
X105927501Y-81416501D02*
X101090200Y-81416501D01*
X106172000Y-81661000D02*
X105927501Y-81416501D01*
X101090200Y-81416501D02*
X100587851Y-81918850D01*
X100587851Y-81918850D02*
X92073201Y-90433500D01*
X92073201Y-90433500D02*
X91313000Y-90433500D01*
G04 #@! TO.N,AData*
X107880058Y-84963000D02*
X106934000Y-84016942D01*
X109474000Y-84963000D02*
X107880058Y-84963000D01*
X106934000Y-84016942D02*
X106934000Y-83312000D01*
X106934000Y-83312000D02*
X106934000Y-82931000D01*
X106934000Y-82931000D02*
X105673511Y-81670511D01*
X105673511Y-81670511D02*
X102997000Y-81670511D01*
X101195414Y-81670511D02*
X100841860Y-82024065D01*
X102997000Y-81670511D02*
X101195414Y-81670511D01*
X100841860Y-82024065D02*
X95560463Y-87305462D01*
X95560463Y-87305462D02*
X91933925Y-90932000D01*
X91933925Y-90932000D02*
X90678000Y-90932000D01*
G04 #@! TO.N,BCLK*
X107242001Y-84684167D02*
X106680000Y-84122166D01*
X107442000Y-85979000D02*
X107242001Y-85779001D01*
X107242001Y-85779001D02*
X107242001Y-84684167D01*
X106680000Y-84122166D02*
X106680000Y-83058000D01*
X106680000Y-83058000D02*
X105546521Y-81924521D01*
X105546521Y-81924521D02*
X103102214Y-81924521D01*
X101300628Y-81924521D02*
X101095869Y-82129280D01*
X103102214Y-81924521D02*
X101300628Y-81924521D01*
X101095869Y-82129280D02*
X91785149Y-91440000D01*
X91785149Y-91440000D02*
X90043000Y-91440000D01*
G04 #@! TO.N,Net-(R1-Pad2)*
X84963000Y-92583000D02*
X86741000Y-92583000D01*
G04 #@! TD*
D20*
G04 #@! TO.N,GND*
G36*
X111360000Y-94317000D02*
X107864858Y-94317000D01*
X107823000Y-94308674D01*
X107781143Y-94317000D01*
X107781142Y-94317000D01*
X107657173Y-94341659D01*
X107516592Y-94435592D01*
X107422659Y-94576173D01*
X107389674Y-94742000D01*
X107398001Y-94783863D01*
X107398000Y-109938000D01*
X96056000Y-109938000D01*
X96056000Y-97450858D01*
X96064326Y-97409000D01*
X96031341Y-97243173D01*
X95937408Y-97102592D01*
X95796827Y-97008659D01*
X95672858Y-96984000D01*
X95672857Y-96984000D01*
X95631000Y-96975674D01*
X95589142Y-96984000D01*
X83991000Y-96984000D01*
X83991000Y-94275858D01*
X83999326Y-94234000D01*
X83966341Y-94068173D01*
X83872408Y-93927592D01*
X83731827Y-93833659D01*
X83607858Y-93809000D01*
X83607857Y-93809000D01*
X83566000Y-93800674D01*
X83524142Y-93809000D01*
X71560817Y-93809000D01*
X71713267Y-93656550D01*
X71797000Y-93454402D01*
X71797000Y-93235598D01*
X71727642Y-93068154D01*
X72688288Y-92107510D01*
X74380000Y-92107510D01*
X74380000Y-92193912D01*
X74463733Y-92396060D01*
X74618450Y-92550777D01*
X74820598Y-92634510D01*
X75039402Y-92634510D01*
X75241550Y-92550777D01*
X75396267Y-92396060D01*
X75410574Y-92361520D01*
X84459425Y-92361520D01*
X84413000Y-92473598D01*
X84413000Y-92692402D01*
X84496733Y-92894550D01*
X84651450Y-93049267D01*
X84853598Y-93133000D01*
X85072402Y-93133000D01*
X85274550Y-93049267D01*
X85327317Y-92996500D01*
X86376683Y-92996500D01*
X86429450Y-93049267D01*
X86631598Y-93133000D01*
X86850402Y-93133000D01*
X87052550Y-93049267D01*
X87207267Y-92894550D01*
X87291000Y-92692402D01*
X87291000Y-92473598D01*
X87244575Y-92361520D01*
X87458744Y-92361520D01*
X89112000Y-94014777D01*
X89112000Y-94089402D01*
X89195733Y-94291550D01*
X89350450Y-94446267D01*
X89552598Y-94530000D01*
X89771402Y-94530000D01*
X89973550Y-94446267D01*
X90128267Y-94291550D01*
X90170000Y-94190798D01*
X90211733Y-94291550D01*
X90366450Y-94446267D01*
X90568598Y-94530000D01*
X90787402Y-94530000D01*
X90989550Y-94446267D01*
X91144267Y-94291550D01*
X91228000Y-94089402D01*
X91228000Y-93870598D01*
X91144267Y-93668450D01*
X90989550Y-93513733D01*
X90787402Y-93430000D01*
X90712777Y-93430000D01*
X89270031Y-91987254D01*
X89465550Y-91906267D01*
X89598500Y-91773317D01*
X89731450Y-91906267D01*
X89933598Y-91990000D01*
X90152402Y-91990000D01*
X90354550Y-91906267D01*
X90407317Y-91853500D01*
X91744432Y-91853500D01*
X91785149Y-91861599D01*
X91825866Y-91853500D01*
X91825871Y-91853500D01*
X91946488Y-91829508D01*
X92083265Y-91738116D01*
X92106334Y-91703591D01*
X94501975Y-89307951D01*
X94614181Y-89578841D01*
X94825159Y-89789819D01*
X95100816Y-89904000D01*
X95399184Y-89904000D01*
X95674841Y-89789819D01*
X95885819Y-89578841D01*
X96000000Y-89303184D01*
X96000000Y-89004816D01*
X95885819Y-88729159D01*
X95674841Y-88518181D01*
X95403951Y-88405975D01*
X96406975Y-87402951D01*
X96519181Y-87673841D01*
X96555000Y-87709660D01*
X96555001Y-96440339D01*
X96519181Y-96476159D01*
X96405000Y-96751816D01*
X96405000Y-97050184D01*
X96519181Y-97325841D01*
X96730159Y-97536819D01*
X97005816Y-97651000D01*
X97304184Y-97651000D01*
X97579841Y-97536819D01*
X97790819Y-97325841D01*
X97905000Y-97050184D01*
X97905000Y-96751816D01*
X97790819Y-96476159D01*
X97755000Y-96440340D01*
X97755000Y-92719660D01*
X97873159Y-92837819D01*
X98148816Y-92952000D01*
X98199473Y-92952000D01*
X98974953Y-93727481D01*
X99008425Y-93777575D01*
X99206892Y-93910187D01*
X99381909Y-93945000D01*
X99381913Y-93945000D01*
X99440999Y-93956753D01*
X99500086Y-93945000D01*
X99996340Y-93945000D01*
X100032159Y-93980819D01*
X100307816Y-94095000D01*
X100606184Y-94095000D01*
X100881841Y-93980819D01*
X101092819Y-93769841D01*
X101207000Y-93494184D01*
X101207000Y-93409777D01*
X103726500Y-95929278D01*
X103726501Y-96987275D01*
X103726500Y-96987279D01*
X103726500Y-97114279D01*
X103726501Y-100219682D01*
X103673733Y-100272450D01*
X103590000Y-100474598D01*
X103590000Y-100693402D01*
X103673733Y-100895550D01*
X103806683Y-101028500D01*
X103673733Y-101161450D01*
X103590000Y-101363598D01*
X103590000Y-101582402D01*
X103653831Y-101736502D01*
X103590000Y-101890601D01*
X103590000Y-102109405D01*
X103673733Y-102311553D01*
X103828450Y-102466270D01*
X103906263Y-102498502D01*
X103828450Y-102530733D01*
X103673733Y-102685450D01*
X103590000Y-102887598D01*
X103590000Y-103106402D01*
X103653831Y-103260501D01*
X103590000Y-103414601D01*
X103590000Y-103633405D01*
X103673733Y-103835553D01*
X103828450Y-103990270D01*
X103906263Y-104022502D01*
X103828450Y-104054733D01*
X103673733Y-104209450D01*
X103590000Y-104411598D01*
X103590000Y-104630402D01*
X103653831Y-104784501D01*
X103590000Y-104938601D01*
X103590000Y-105157405D01*
X103673733Y-105359553D01*
X103828450Y-105514270D01*
X103906263Y-105546502D01*
X103828450Y-105578733D01*
X103673733Y-105733450D01*
X103590000Y-105935598D01*
X103590000Y-106154402D01*
X103653831Y-106308501D01*
X103590000Y-106462601D01*
X103590000Y-106681405D01*
X103673733Y-106883553D01*
X103828450Y-107038270D01*
X104030598Y-107122003D01*
X104249402Y-107122003D01*
X104451550Y-107038270D01*
X104606267Y-106883553D01*
X104690000Y-106681405D01*
X104690000Y-106657718D01*
X106826154Y-104521566D01*
X106860673Y-104498501D01*
X106883738Y-104463982D01*
X106883740Y-104463980D01*
X106952064Y-104361726D01*
X106952064Y-104361725D01*
X106952065Y-104361724D01*
X106976057Y-104241107D01*
X106976057Y-104241103D01*
X106984156Y-104200386D01*
X106976057Y-104159669D01*
X106976057Y-86290874D01*
X107130450Y-86445267D01*
X107332598Y-86529000D01*
X107551402Y-86529000D01*
X107753550Y-86445267D01*
X107908267Y-86290550D01*
X107992000Y-86088402D01*
X107992000Y-85869598D01*
X107908267Y-85667450D01*
X107753550Y-85512733D01*
X107655501Y-85472120D01*
X107655501Y-85310267D01*
X107718719Y-85352508D01*
X107839336Y-85376500D01*
X107839340Y-85376500D01*
X107880057Y-85384599D01*
X107920774Y-85376500D01*
X109109683Y-85376500D01*
X109162450Y-85429267D01*
X109364598Y-85513000D01*
X109583402Y-85513000D01*
X109785550Y-85429267D01*
X109940267Y-85274550D01*
X110024000Y-85072402D01*
X110024000Y-84853598D01*
X109940267Y-84651450D01*
X109785550Y-84496733D01*
X109583402Y-84413000D01*
X109364598Y-84413000D01*
X109162450Y-84496733D01*
X109109683Y-84549500D01*
X108051335Y-84549500D01*
X107834326Y-84332491D01*
X107908267Y-84258550D01*
X107992000Y-84056402D01*
X107992000Y-83837598D01*
X107908267Y-83635450D01*
X107855500Y-83582683D01*
X107855500Y-83347714D01*
X107880058Y-83352599D01*
X107920775Y-83344500D01*
X109109683Y-83344500D01*
X109162450Y-83397267D01*
X109364598Y-83481000D01*
X109583402Y-83481000D01*
X109785550Y-83397267D01*
X109940267Y-83242550D01*
X110024000Y-83040402D01*
X110024000Y-82821598D01*
X109940267Y-82619450D01*
X109785550Y-82464733D01*
X109583402Y-82381000D01*
X109364598Y-82381000D01*
X109162450Y-82464733D01*
X109109683Y-82517500D01*
X108051335Y-82517500D01*
X107834326Y-82300491D01*
X107908267Y-82226550D01*
X107992000Y-82024402D01*
X107992000Y-81805598D01*
X107908267Y-81603450D01*
X107845381Y-81540564D01*
X107831508Y-81470819D01*
X107740116Y-81334042D01*
X107705594Y-81310975D01*
X106691118Y-80296500D01*
X107077683Y-80296500D01*
X107130450Y-80349267D01*
X107332598Y-80433000D01*
X107551402Y-80433000D01*
X107753550Y-80349267D01*
X107908267Y-80194550D01*
X107992000Y-79992402D01*
X107992000Y-79773598D01*
X107908267Y-79571450D01*
X107882867Y-79546050D01*
X109167733Y-79546050D01*
X109208450Y-79554149D01*
X109249167Y-79546050D01*
X109249172Y-79546050D01*
X109369789Y-79522058D01*
X109506566Y-79430666D01*
X109515697Y-79417000D01*
X109583402Y-79417000D01*
X109785550Y-79333267D01*
X109940267Y-79178550D01*
X110024000Y-78976402D01*
X110024000Y-78757598D01*
X109940267Y-78555450D01*
X109785550Y-78400733D01*
X109583402Y-78317000D01*
X109364598Y-78317000D01*
X109162450Y-78400733D01*
X109007733Y-78555450D01*
X108939967Y-78719050D01*
X106204398Y-78719050D01*
X106658949Y-78264500D01*
X107077683Y-78264500D01*
X107130450Y-78317267D01*
X107332598Y-78401000D01*
X107551402Y-78401000D01*
X107753550Y-78317267D01*
X107908267Y-78162550D01*
X107992000Y-77960402D01*
X107992000Y-77741598D01*
X107908267Y-77539450D01*
X107753550Y-77384733D01*
X107551402Y-77301000D01*
X107332598Y-77301000D01*
X107214170Y-77350055D01*
X107315725Y-77248500D01*
X109109683Y-77248500D01*
X109162450Y-77301267D01*
X109364598Y-77385000D01*
X109583402Y-77385000D01*
X109785550Y-77301267D01*
X109940267Y-77146550D01*
X110024000Y-76944402D01*
X110024000Y-76725598D01*
X109940267Y-76523450D01*
X109785550Y-76368733D01*
X109583402Y-76285000D01*
X109364598Y-76285000D01*
X109162450Y-76368733D01*
X109109683Y-76421500D01*
X107776759Y-76421500D01*
X107831508Y-76339563D01*
X107855500Y-76218946D01*
X107855500Y-76218941D01*
X107863599Y-76178224D01*
X107863100Y-76175717D01*
X107908267Y-76130550D01*
X107992000Y-75928402D01*
X107992000Y-75709598D01*
X107908267Y-75507450D01*
X107753550Y-75352733D01*
X107558032Y-75271746D01*
X107613278Y-75216500D01*
X109109683Y-75216500D01*
X109162450Y-75269267D01*
X109364598Y-75353000D01*
X109583402Y-75353000D01*
X109785550Y-75269267D01*
X109940267Y-75114550D01*
X110024000Y-74912402D01*
X110024000Y-74693598D01*
X109940267Y-74491450D01*
X109785550Y-74336733D01*
X109583402Y-74253000D01*
X109364598Y-74253000D01*
X109162450Y-74336733D01*
X109109683Y-74389500D01*
X107482716Y-74389500D01*
X107441999Y-74381401D01*
X107401282Y-74389500D01*
X107401278Y-74389500D01*
X107280661Y-74413492D01*
X107280660Y-74413493D01*
X107280659Y-74413493D01*
X107178405Y-74481817D01*
X107178403Y-74481819D01*
X107143884Y-74504884D01*
X107120819Y-74539403D01*
X105908409Y-75751815D01*
X105873884Y-75774884D01*
X105782492Y-75911662D01*
X105758500Y-76032279D01*
X105758500Y-76032283D01*
X105750401Y-76073000D01*
X105758500Y-76113717D01*
X105758501Y-76917722D01*
X105302000Y-77374224D01*
X105302000Y-74060000D01*
X108037606Y-74060000D01*
X108077000Y-74067836D01*
X108116394Y-74060000D01*
X108233072Y-74036791D01*
X108365384Y-73948384D01*
X108453791Y-73816072D01*
X108484836Y-73660000D01*
X108477000Y-73620606D01*
X108477000Y-72028000D01*
X111360001Y-72028000D01*
X111360000Y-94317000D01*
X111360000Y-94317000D01*
G37*
X111360000Y-94317000D02*
X107864858Y-94317000D01*
X107823000Y-94308674D01*
X107781143Y-94317000D01*
X107781142Y-94317000D01*
X107657173Y-94341659D01*
X107516592Y-94435592D01*
X107422659Y-94576173D01*
X107389674Y-94742000D01*
X107398001Y-94783863D01*
X107398000Y-109938000D01*
X96056000Y-109938000D01*
X96056000Y-97450858D01*
X96064326Y-97409000D01*
X96031341Y-97243173D01*
X95937408Y-97102592D01*
X95796827Y-97008659D01*
X95672858Y-96984000D01*
X95672857Y-96984000D01*
X95631000Y-96975674D01*
X95589142Y-96984000D01*
X83991000Y-96984000D01*
X83991000Y-94275858D01*
X83999326Y-94234000D01*
X83966341Y-94068173D01*
X83872408Y-93927592D01*
X83731827Y-93833659D01*
X83607858Y-93809000D01*
X83607857Y-93809000D01*
X83566000Y-93800674D01*
X83524142Y-93809000D01*
X71560817Y-93809000D01*
X71713267Y-93656550D01*
X71797000Y-93454402D01*
X71797000Y-93235598D01*
X71727642Y-93068154D01*
X72688288Y-92107510D01*
X74380000Y-92107510D01*
X74380000Y-92193912D01*
X74463733Y-92396060D01*
X74618450Y-92550777D01*
X74820598Y-92634510D01*
X75039402Y-92634510D01*
X75241550Y-92550777D01*
X75396267Y-92396060D01*
X75410574Y-92361520D01*
X84459425Y-92361520D01*
X84413000Y-92473598D01*
X84413000Y-92692402D01*
X84496733Y-92894550D01*
X84651450Y-93049267D01*
X84853598Y-93133000D01*
X85072402Y-93133000D01*
X85274550Y-93049267D01*
X85327317Y-92996500D01*
X86376683Y-92996500D01*
X86429450Y-93049267D01*
X86631598Y-93133000D01*
X86850402Y-93133000D01*
X87052550Y-93049267D01*
X87207267Y-92894550D01*
X87291000Y-92692402D01*
X87291000Y-92473598D01*
X87244575Y-92361520D01*
X87458744Y-92361520D01*
X89112000Y-94014777D01*
X89112000Y-94089402D01*
X89195733Y-94291550D01*
X89350450Y-94446267D01*
X89552598Y-94530000D01*
X89771402Y-94530000D01*
X89973550Y-94446267D01*
X90128267Y-94291550D01*
X90170000Y-94190798D01*
X90211733Y-94291550D01*
X90366450Y-94446267D01*
X90568598Y-94530000D01*
X90787402Y-94530000D01*
X90989550Y-94446267D01*
X91144267Y-94291550D01*
X91228000Y-94089402D01*
X91228000Y-93870598D01*
X91144267Y-93668450D01*
X90989550Y-93513733D01*
X90787402Y-93430000D01*
X90712777Y-93430000D01*
X89270031Y-91987254D01*
X89465550Y-91906267D01*
X89598500Y-91773317D01*
X89731450Y-91906267D01*
X89933598Y-91990000D01*
X90152402Y-91990000D01*
X90354550Y-91906267D01*
X90407317Y-91853500D01*
X91744432Y-91853500D01*
X91785149Y-91861599D01*
X91825866Y-91853500D01*
X91825871Y-91853500D01*
X91946488Y-91829508D01*
X92083265Y-91738116D01*
X92106334Y-91703591D01*
X94501975Y-89307951D01*
X94614181Y-89578841D01*
X94825159Y-89789819D01*
X95100816Y-89904000D01*
X95399184Y-89904000D01*
X95674841Y-89789819D01*
X95885819Y-89578841D01*
X96000000Y-89303184D01*
X96000000Y-89004816D01*
X95885819Y-88729159D01*
X95674841Y-88518181D01*
X95403951Y-88405975D01*
X96406975Y-87402951D01*
X96519181Y-87673841D01*
X96555000Y-87709660D01*
X96555001Y-96440339D01*
X96519181Y-96476159D01*
X96405000Y-96751816D01*
X96405000Y-97050184D01*
X96519181Y-97325841D01*
X96730159Y-97536819D01*
X97005816Y-97651000D01*
X97304184Y-97651000D01*
X97579841Y-97536819D01*
X97790819Y-97325841D01*
X97905000Y-97050184D01*
X97905000Y-96751816D01*
X97790819Y-96476159D01*
X97755000Y-96440340D01*
X97755000Y-92719660D01*
X97873159Y-92837819D01*
X98148816Y-92952000D01*
X98199473Y-92952000D01*
X98974953Y-93727481D01*
X99008425Y-93777575D01*
X99206892Y-93910187D01*
X99381909Y-93945000D01*
X99381913Y-93945000D01*
X99440999Y-93956753D01*
X99500086Y-93945000D01*
X99996340Y-93945000D01*
X100032159Y-93980819D01*
X100307816Y-94095000D01*
X100606184Y-94095000D01*
X100881841Y-93980819D01*
X101092819Y-93769841D01*
X101207000Y-93494184D01*
X101207000Y-93409777D01*
X103726500Y-95929278D01*
X103726501Y-96987275D01*
X103726500Y-96987279D01*
X103726500Y-97114279D01*
X103726501Y-100219682D01*
X103673733Y-100272450D01*
X103590000Y-100474598D01*
X103590000Y-100693402D01*
X103673733Y-100895550D01*
X103806683Y-101028500D01*
X103673733Y-101161450D01*
X103590000Y-101363598D01*
X103590000Y-101582402D01*
X103653831Y-101736502D01*
X103590000Y-101890601D01*
X103590000Y-102109405D01*
X103673733Y-102311553D01*
X103828450Y-102466270D01*
X103906263Y-102498502D01*
X103828450Y-102530733D01*
X103673733Y-102685450D01*
X103590000Y-102887598D01*
X103590000Y-103106402D01*
X103653831Y-103260501D01*
X103590000Y-103414601D01*
X103590000Y-103633405D01*
X103673733Y-103835553D01*
X103828450Y-103990270D01*
X103906263Y-104022502D01*
X103828450Y-104054733D01*
X103673733Y-104209450D01*
X103590000Y-104411598D01*
X103590000Y-104630402D01*
X103653831Y-104784501D01*
X103590000Y-104938601D01*
X103590000Y-105157405D01*
X103673733Y-105359553D01*
X103828450Y-105514270D01*
X103906263Y-105546502D01*
X103828450Y-105578733D01*
X103673733Y-105733450D01*
X103590000Y-105935598D01*
X103590000Y-106154402D01*
X103653831Y-106308501D01*
X103590000Y-106462601D01*
X103590000Y-106681405D01*
X103673733Y-106883553D01*
X103828450Y-107038270D01*
X104030598Y-107122003D01*
X104249402Y-107122003D01*
X104451550Y-107038270D01*
X104606267Y-106883553D01*
X104690000Y-106681405D01*
X104690000Y-106657718D01*
X106826154Y-104521566D01*
X106860673Y-104498501D01*
X106883738Y-104463982D01*
X106883740Y-104463980D01*
X106952064Y-104361726D01*
X106952064Y-104361725D01*
X106952065Y-104361724D01*
X106976057Y-104241107D01*
X106976057Y-104241103D01*
X106984156Y-104200386D01*
X106976057Y-104159669D01*
X106976057Y-86290874D01*
X107130450Y-86445267D01*
X107332598Y-86529000D01*
X107551402Y-86529000D01*
X107753550Y-86445267D01*
X107908267Y-86290550D01*
X107992000Y-86088402D01*
X107992000Y-85869598D01*
X107908267Y-85667450D01*
X107753550Y-85512733D01*
X107655501Y-85472120D01*
X107655501Y-85310267D01*
X107718719Y-85352508D01*
X107839336Y-85376500D01*
X107839340Y-85376500D01*
X107880057Y-85384599D01*
X107920774Y-85376500D01*
X109109683Y-85376500D01*
X109162450Y-85429267D01*
X109364598Y-85513000D01*
X109583402Y-85513000D01*
X109785550Y-85429267D01*
X109940267Y-85274550D01*
X110024000Y-85072402D01*
X110024000Y-84853598D01*
X109940267Y-84651450D01*
X109785550Y-84496733D01*
X109583402Y-84413000D01*
X109364598Y-84413000D01*
X109162450Y-84496733D01*
X109109683Y-84549500D01*
X108051335Y-84549500D01*
X107834326Y-84332491D01*
X107908267Y-84258550D01*
X107992000Y-84056402D01*
X107992000Y-83837598D01*
X107908267Y-83635450D01*
X107855500Y-83582683D01*
X107855500Y-83347714D01*
X107880058Y-83352599D01*
X107920775Y-83344500D01*
X109109683Y-83344500D01*
X109162450Y-83397267D01*
X109364598Y-83481000D01*
X109583402Y-83481000D01*
X109785550Y-83397267D01*
X109940267Y-83242550D01*
X110024000Y-83040402D01*
X110024000Y-82821598D01*
X109940267Y-82619450D01*
X109785550Y-82464733D01*
X109583402Y-82381000D01*
X109364598Y-82381000D01*
X109162450Y-82464733D01*
X109109683Y-82517500D01*
X108051335Y-82517500D01*
X107834326Y-82300491D01*
X107908267Y-82226550D01*
X107992000Y-82024402D01*
X107992000Y-81805598D01*
X107908267Y-81603450D01*
X107845381Y-81540564D01*
X107831508Y-81470819D01*
X107740116Y-81334042D01*
X107705594Y-81310975D01*
X106691118Y-80296500D01*
X107077683Y-80296500D01*
X107130450Y-80349267D01*
X107332598Y-80433000D01*
X107551402Y-80433000D01*
X107753550Y-80349267D01*
X107908267Y-80194550D01*
X107992000Y-79992402D01*
X107992000Y-79773598D01*
X107908267Y-79571450D01*
X107882867Y-79546050D01*
X109167733Y-79546050D01*
X109208450Y-79554149D01*
X109249167Y-79546050D01*
X109249172Y-79546050D01*
X109369789Y-79522058D01*
X109506566Y-79430666D01*
X109515697Y-79417000D01*
X109583402Y-79417000D01*
X109785550Y-79333267D01*
X109940267Y-79178550D01*
X110024000Y-78976402D01*
X110024000Y-78757598D01*
X109940267Y-78555450D01*
X109785550Y-78400733D01*
X109583402Y-78317000D01*
X109364598Y-78317000D01*
X109162450Y-78400733D01*
X109007733Y-78555450D01*
X108939967Y-78719050D01*
X106204398Y-78719050D01*
X106658949Y-78264500D01*
X107077683Y-78264500D01*
X107130450Y-78317267D01*
X107332598Y-78401000D01*
X107551402Y-78401000D01*
X107753550Y-78317267D01*
X107908267Y-78162550D01*
X107992000Y-77960402D01*
X107992000Y-77741598D01*
X107908267Y-77539450D01*
X107753550Y-77384733D01*
X107551402Y-77301000D01*
X107332598Y-77301000D01*
X107214170Y-77350055D01*
X107315725Y-77248500D01*
X109109683Y-77248500D01*
X109162450Y-77301267D01*
X109364598Y-77385000D01*
X109583402Y-77385000D01*
X109785550Y-77301267D01*
X109940267Y-77146550D01*
X110024000Y-76944402D01*
X110024000Y-76725598D01*
X109940267Y-76523450D01*
X109785550Y-76368733D01*
X109583402Y-76285000D01*
X109364598Y-76285000D01*
X109162450Y-76368733D01*
X109109683Y-76421500D01*
X107776759Y-76421500D01*
X107831508Y-76339563D01*
X107855500Y-76218946D01*
X107855500Y-76218941D01*
X107863599Y-76178224D01*
X107863100Y-76175717D01*
X107908267Y-76130550D01*
X107992000Y-75928402D01*
X107992000Y-75709598D01*
X107908267Y-75507450D01*
X107753550Y-75352733D01*
X107558032Y-75271746D01*
X107613278Y-75216500D01*
X109109683Y-75216500D01*
X109162450Y-75269267D01*
X109364598Y-75353000D01*
X109583402Y-75353000D01*
X109785550Y-75269267D01*
X109940267Y-75114550D01*
X110024000Y-74912402D01*
X110024000Y-74693598D01*
X109940267Y-74491450D01*
X109785550Y-74336733D01*
X109583402Y-74253000D01*
X109364598Y-74253000D01*
X109162450Y-74336733D01*
X109109683Y-74389500D01*
X107482716Y-74389500D01*
X107441999Y-74381401D01*
X107401282Y-74389500D01*
X107401278Y-74389500D01*
X107280661Y-74413492D01*
X107280660Y-74413493D01*
X107280659Y-74413493D01*
X107178405Y-74481817D01*
X107178403Y-74481819D01*
X107143884Y-74504884D01*
X107120819Y-74539403D01*
X105908409Y-75751815D01*
X105873884Y-75774884D01*
X105782492Y-75911662D01*
X105758500Y-76032279D01*
X105758500Y-76032283D01*
X105750401Y-76073000D01*
X105758500Y-76113717D01*
X105758501Y-76917722D01*
X105302000Y-77374224D01*
X105302000Y-74060000D01*
X108037606Y-74060000D01*
X108077000Y-74067836D01*
X108116394Y-74060000D01*
X108233072Y-74036791D01*
X108365384Y-73948384D01*
X108453791Y-73816072D01*
X108484836Y-73660000D01*
X108477000Y-73620606D01*
X108477000Y-72028000D01*
X111360001Y-72028000D01*
X111360000Y-94317000D01*
G36*
X67496816Y-91195593D02*
X67519884Y-91230116D01*
X67656661Y-91321508D01*
X67777278Y-91345500D01*
X67777283Y-91345500D01*
X67818000Y-91353599D01*
X67858717Y-91345500D01*
X69612683Y-91345500D01*
X69665450Y-91398267D01*
X69867598Y-91482000D01*
X69942223Y-91482000D01*
X70163819Y-91703596D01*
X70186884Y-91738116D01*
X70221403Y-91761181D01*
X70221405Y-91761183D01*
X70323659Y-91829507D01*
X70323660Y-91829507D01*
X70323661Y-91829508D01*
X70444278Y-91853500D01*
X70444282Y-91853500D01*
X70484999Y-91861599D01*
X70525716Y-91853500D01*
X71772743Y-91853500D01*
X70983409Y-92642835D01*
X70948884Y-92665904D01*
X70857492Y-92802682D01*
X70833500Y-92923299D01*
X70833500Y-92923303D01*
X70825401Y-92964020D01*
X70829509Y-92984674D01*
X70780733Y-93033450D01*
X70697000Y-93235598D01*
X70697000Y-93454402D01*
X70780733Y-93656550D01*
X70933183Y-93809000D01*
X66973000Y-93809000D01*
X66973000Y-90671777D01*
X67496816Y-91195593D01*
X67496816Y-91195593D01*
G37*
X67496816Y-91195593D02*
X67519884Y-91230116D01*
X67656661Y-91321508D01*
X67777278Y-91345500D01*
X67777283Y-91345500D01*
X67818000Y-91353599D01*
X67858717Y-91345500D01*
X69612683Y-91345500D01*
X69665450Y-91398267D01*
X69867598Y-91482000D01*
X69942223Y-91482000D01*
X70163819Y-91703596D01*
X70186884Y-91738116D01*
X70221403Y-91761181D01*
X70221405Y-91761183D01*
X70323659Y-91829507D01*
X70323660Y-91829507D01*
X70323661Y-91829508D01*
X70444278Y-91853500D01*
X70444282Y-91853500D01*
X70484999Y-91861599D01*
X70525716Y-91853500D01*
X71772743Y-91853500D01*
X70983409Y-92642835D01*
X70948884Y-92665904D01*
X70857492Y-92802682D01*
X70833500Y-92923299D01*
X70833500Y-92923303D01*
X70825401Y-92964020D01*
X70829509Y-92984674D01*
X70780733Y-93033450D01*
X70697000Y-93235598D01*
X70697000Y-93454402D01*
X70780733Y-93656550D01*
X70933183Y-93809000D01*
X66973000Y-93809000D01*
X66973000Y-90671777D01*
X67496816Y-91195593D01*
G36*
X92999000Y-85338528D02*
X92999001Y-86915339D01*
X92963181Y-86951159D01*
X92849000Y-87226816D01*
X92849000Y-87525184D01*
X92963181Y-87800841D01*
X93174159Y-88011819D01*
X93440542Y-88122159D01*
X91933201Y-89629500D01*
X89518317Y-89629500D01*
X89465550Y-89576733D01*
X89263402Y-89493000D01*
X89044598Y-89493000D01*
X88842450Y-89576733D01*
X88687733Y-89731450D01*
X88604000Y-89933598D01*
X88604000Y-90152402D01*
X88687733Y-90354550D01*
X88842450Y-90509267D01*
X89044598Y-90593000D01*
X89263402Y-90593000D01*
X89465550Y-90509267D01*
X89518317Y-90456500D01*
X90388740Y-90456500D01*
X90366450Y-90465733D01*
X90211733Y-90620450D01*
X90128000Y-90822598D01*
X90128000Y-90890000D01*
X89933598Y-90890000D01*
X89731450Y-90973733D01*
X89598500Y-91106683D01*
X89465550Y-90973733D01*
X89263402Y-90890000D01*
X89044598Y-90890000D01*
X88842450Y-90973733D01*
X88789683Y-91026500D01*
X70656277Y-91026500D01*
X70527000Y-90897223D01*
X70527000Y-90822598D01*
X70443267Y-90620450D01*
X70288550Y-90465733D01*
X70086402Y-90382000D01*
X69867598Y-90382000D01*
X69665450Y-90465733D01*
X69612683Y-90518500D01*
X67989277Y-90518500D01*
X65880856Y-88410080D01*
X65880856Y-87638000D01*
X65853692Y-87501437D01*
X65776335Y-87385665D01*
X65660563Y-87308308D01*
X65524000Y-87281144D01*
X64524000Y-87281144D01*
X64387437Y-87308308D01*
X64271665Y-87385665D01*
X64236584Y-87438166D01*
X64085653Y-87337318D01*
X63905328Y-87301449D01*
X64433277Y-86773500D01*
X67519724Y-86773500D01*
X71560817Y-90814594D01*
X71583884Y-90849116D01*
X71720661Y-90940508D01*
X71841278Y-90964500D01*
X71841282Y-90964500D01*
X71881999Y-90972599D01*
X71922716Y-90964500D01*
X73111283Y-90964500D01*
X73152000Y-90972599D01*
X73192717Y-90964500D01*
X73192722Y-90964500D01*
X73313339Y-90940508D01*
X73450116Y-90849116D01*
X73473185Y-90814591D01*
X75193594Y-89094183D01*
X75228116Y-89071116D01*
X75319508Y-88934339D01*
X75343500Y-88813722D01*
X75343500Y-88813717D01*
X75351599Y-88773000D01*
X75343500Y-88732283D01*
X75343500Y-86519500D01*
X85049283Y-86519500D01*
X85090000Y-86527599D01*
X85130717Y-86519500D01*
X85130722Y-86519500D01*
X85251339Y-86495508D01*
X85388116Y-86404116D01*
X85411185Y-86369591D01*
X89188777Y-82592000D01*
X89263402Y-82592000D01*
X89465550Y-82508267D01*
X89620267Y-82353550D01*
X89704000Y-82151402D01*
X89704000Y-82043527D01*
X92999000Y-85338528D01*
X92999000Y-85338528D01*
G37*
X92999000Y-85338528D02*
X92999001Y-86915339D01*
X92963181Y-86951159D01*
X92849000Y-87226816D01*
X92849000Y-87525184D01*
X92963181Y-87800841D01*
X93174159Y-88011819D01*
X93440542Y-88122159D01*
X91933201Y-89629500D01*
X89518317Y-89629500D01*
X89465550Y-89576733D01*
X89263402Y-89493000D01*
X89044598Y-89493000D01*
X88842450Y-89576733D01*
X88687733Y-89731450D01*
X88604000Y-89933598D01*
X88604000Y-90152402D01*
X88687733Y-90354550D01*
X88842450Y-90509267D01*
X89044598Y-90593000D01*
X89263402Y-90593000D01*
X89465550Y-90509267D01*
X89518317Y-90456500D01*
X90388740Y-90456500D01*
X90366450Y-90465733D01*
X90211733Y-90620450D01*
X90128000Y-90822598D01*
X90128000Y-90890000D01*
X89933598Y-90890000D01*
X89731450Y-90973733D01*
X89598500Y-91106683D01*
X89465550Y-90973733D01*
X89263402Y-90890000D01*
X89044598Y-90890000D01*
X88842450Y-90973733D01*
X88789683Y-91026500D01*
X70656277Y-91026500D01*
X70527000Y-90897223D01*
X70527000Y-90822598D01*
X70443267Y-90620450D01*
X70288550Y-90465733D01*
X70086402Y-90382000D01*
X69867598Y-90382000D01*
X69665450Y-90465733D01*
X69612683Y-90518500D01*
X67989277Y-90518500D01*
X65880856Y-88410080D01*
X65880856Y-87638000D01*
X65853692Y-87501437D01*
X65776335Y-87385665D01*
X65660563Y-87308308D01*
X65524000Y-87281144D01*
X64524000Y-87281144D01*
X64387437Y-87308308D01*
X64271665Y-87385665D01*
X64236584Y-87438166D01*
X64085653Y-87337318D01*
X63905328Y-87301449D01*
X64433277Y-86773500D01*
X67519724Y-86773500D01*
X71560817Y-90814594D01*
X71583884Y-90849116D01*
X71720661Y-90940508D01*
X71841278Y-90964500D01*
X71841282Y-90964500D01*
X71881999Y-90972599D01*
X71922716Y-90964500D01*
X73111283Y-90964500D01*
X73152000Y-90972599D01*
X73192717Y-90964500D01*
X73192722Y-90964500D01*
X73313339Y-90940508D01*
X73450116Y-90849116D01*
X73473185Y-90814591D01*
X75193594Y-89094183D01*
X75228116Y-89071116D01*
X75319508Y-88934339D01*
X75343500Y-88813722D01*
X75343500Y-88813717D01*
X75351599Y-88773000D01*
X75343500Y-88732283D01*
X75343500Y-86519500D01*
X85049283Y-86519500D01*
X85090000Y-86527599D01*
X85130717Y-86519500D01*
X85130722Y-86519500D01*
X85251339Y-86495508D01*
X85388116Y-86404116D01*
X85411185Y-86369591D01*
X89188777Y-82592000D01*
X89263402Y-82592000D01*
X89465550Y-82508267D01*
X89620267Y-82353550D01*
X89704000Y-82151402D01*
X89704000Y-82043527D01*
X92999000Y-85338528D01*
G36*
X76074311Y-85558840D02*
X76074317Y-85558844D01*
X76207973Y-85692500D01*
X75294317Y-85692500D01*
X75241550Y-85639733D01*
X75039402Y-85556000D01*
X74820598Y-85556000D01*
X74618450Y-85639733D01*
X74463733Y-85794450D01*
X74380000Y-85996598D01*
X74380000Y-86215402D01*
X74463733Y-86417550D01*
X74516501Y-86470318D01*
X74516500Y-88601723D01*
X72980724Y-90137500D01*
X72975160Y-90137500D01*
X73152819Y-89959841D01*
X73267000Y-89684184D01*
X73267000Y-89385816D01*
X73152819Y-89110159D01*
X73117000Y-89074340D01*
X73117000Y-86292086D01*
X73128753Y-86232999D01*
X73117000Y-86173913D01*
X73117000Y-86173909D01*
X73082187Y-85998892D01*
X72949575Y-85800425D01*
X72899481Y-85766953D01*
X71997000Y-84864473D01*
X71997000Y-84813816D01*
X71882819Y-84538159D01*
X71847000Y-84502340D01*
X71847000Y-81331527D01*
X76074311Y-85558840D01*
X76074311Y-85558840D01*
G37*
X76074311Y-85558840D02*
X76074317Y-85558844D01*
X76207973Y-85692500D01*
X75294317Y-85692500D01*
X75241550Y-85639733D01*
X75039402Y-85556000D01*
X74820598Y-85556000D01*
X74618450Y-85639733D01*
X74463733Y-85794450D01*
X74380000Y-85996598D01*
X74380000Y-86215402D01*
X74463733Y-86417550D01*
X74516501Y-86470318D01*
X74516500Y-88601723D01*
X72980724Y-90137500D01*
X72975160Y-90137500D01*
X73152819Y-89959841D01*
X73267000Y-89684184D01*
X73267000Y-89385816D01*
X73152819Y-89110159D01*
X73117000Y-89074340D01*
X73117000Y-86292086D01*
X73128753Y-86232999D01*
X73117000Y-86173913D01*
X73117000Y-86173909D01*
X73082187Y-85998892D01*
X72949575Y-85800425D01*
X72899481Y-85766953D01*
X71997000Y-84864473D01*
X71997000Y-84813816D01*
X71882819Y-84538159D01*
X71847000Y-84502340D01*
X71847000Y-81331527D01*
X76074311Y-85558840D01*
G36*
X71258482Y-51122568D02*
X71061568Y-51319482D01*
X70955000Y-51576761D01*
X70955000Y-51855239D01*
X71061568Y-52112518D01*
X71258482Y-52309432D01*
X71515761Y-52416000D01*
X71794239Y-52416000D01*
X72051518Y-52309432D01*
X72248432Y-52112518D01*
X72355000Y-51855239D01*
X72355000Y-51576761D01*
X72248432Y-51319482D01*
X72051518Y-51122568D01*
X71992205Y-51098000D01*
X75367795Y-51098000D01*
X75308482Y-51122568D01*
X75111568Y-51319482D01*
X75005000Y-51576761D01*
X75005000Y-51855239D01*
X75111568Y-52112518D01*
X75308482Y-52309432D01*
X75565761Y-52416000D01*
X75844239Y-52416000D01*
X76101518Y-52309432D01*
X76298432Y-52112518D01*
X76405000Y-51855239D01*
X76405000Y-51576761D01*
X76298432Y-51319482D01*
X76101518Y-51122568D01*
X76042205Y-51098000D01*
X88983001Y-51098000D01*
X88983000Y-57362142D01*
X88974674Y-57404000D01*
X89007659Y-57569827D01*
X89019927Y-57588187D01*
X89101592Y-57710408D01*
X89242173Y-57804341D01*
X89408000Y-57837326D01*
X89449857Y-57829000D01*
X91904001Y-57829000D01*
X91904001Y-60512167D01*
X91672133Y-60228078D01*
X91117077Y-59929469D01*
X91046494Y-59917188D01*
X90798000Y-60026167D01*
X90798000Y-62320000D01*
X90818000Y-62320000D01*
X90818000Y-62628000D01*
X90798000Y-62628000D01*
X90798000Y-64921833D01*
X91046494Y-65030812D01*
X91117077Y-65018531D01*
X91672133Y-64719922D01*
X91904000Y-64435833D01*
X91904000Y-70060000D01*
X86909858Y-70060000D01*
X86868000Y-70051674D01*
X86826143Y-70060000D01*
X86826142Y-70060000D01*
X86702173Y-70084659D01*
X86561592Y-70178592D01*
X86467659Y-70319173D01*
X86434674Y-70485000D01*
X86443001Y-70526862D01*
X86443000Y-70949000D01*
X84877858Y-70949000D01*
X84836000Y-70940674D01*
X84794143Y-70949000D01*
X84794142Y-70949000D01*
X84670173Y-70973659D01*
X84529592Y-71067592D01*
X84435659Y-71208173D01*
X84402674Y-71374000D01*
X84411001Y-71415863D01*
X84411000Y-74888142D01*
X84402674Y-74930000D01*
X84435659Y-75095827D01*
X84529592Y-75236408D01*
X84670173Y-75330341D01*
X84784088Y-75353000D01*
X84836000Y-75363326D01*
X84877857Y-75355000D01*
X85382340Y-75355000D01*
X85216181Y-75521159D01*
X85102000Y-75796816D01*
X85102000Y-75847472D01*
X83310520Y-77638953D01*
X83260426Y-77672425D01*
X83226954Y-77722519D01*
X83226953Y-77722520D01*
X83127814Y-77870892D01*
X83081247Y-78105000D01*
X83093001Y-78164091D01*
X83093001Y-78640582D01*
X83046767Y-78485987D01*
X82626336Y-77680062D01*
X82061092Y-76968180D01*
X81371433Y-76376025D01*
X80582242Y-75924966D01*
X79721996Y-75631276D01*
X78821734Y-75505554D01*
X78022000Y-75546766D01*
X78022000Y-71034858D01*
X78030326Y-70993000D01*
X77997341Y-70827173D01*
X77903408Y-70686592D01*
X77762827Y-70592659D01*
X77638858Y-70568000D01*
X77597000Y-70559674D01*
X77555143Y-70568000D01*
X71288857Y-70568000D01*
X71247000Y-70559674D01*
X71205142Y-70568000D01*
X71081173Y-70592659D01*
X70940592Y-70686592D01*
X70846659Y-70827173D01*
X70813674Y-70993000D01*
X70822000Y-71034858D01*
X70822001Y-77174137D01*
X70813674Y-77216000D01*
X70846659Y-77381827D01*
X70940592Y-77522408D01*
X71081173Y-77616341D01*
X71205142Y-77641000D01*
X71205143Y-77641000D01*
X71247000Y-77649326D01*
X71288858Y-77641000D01*
X74650087Y-77641000D01*
X74353017Y-78106409D01*
X74017655Y-78951282D01*
X73848105Y-79844327D01*
X73850485Y-80753322D01*
X74024708Y-81645467D01*
X74137252Y-81924724D01*
X71713049Y-79500522D01*
X71679575Y-79450425D01*
X71629481Y-79416953D01*
X66875001Y-74662474D01*
X66875001Y-66768951D01*
X67099841Y-66675819D01*
X67310819Y-66464841D01*
X67425000Y-66189184D01*
X67425000Y-66091066D01*
X72682723Y-66091066D01*
X72785174Y-66347040D01*
X73388703Y-66559105D01*
X74027445Y-66524067D01*
X74454826Y-66347040D01*
X74557277Y-66091066D01*
X84682723Y-66091066D01*
X84785174Y-66347040D01*
X85388703Y-66559105D01*
X86027445Y-66524067D01*
X86454826Y-66347040D01*
X86557277Y-66091066D01*
X85620000Y-65153789D01*
X84682723Y-66091066D01*
X74557277Y-66091066D01*
X73620000Y-65153789D01*
X72682723Y-66091066D01*
X67425000Y-66091066D01*
X67425000Y-65890816D01*
X67310819Y-65615159D01*
X67275000Y-65579340D01*
X67275000Y-64302284D01*
X67615867Y-64719922D01*
X68170923Y-65018531D01*
X68241506Y-65030812D01*
X68490000Y-64921833D01*
X68490000Y-62628000D01*
X68798000Y-62628000D01*
X68798000Y-64921833D01*
X69046494Y-65030812D01*
X69117077Y-65018531D01*
X69672133Y-64719922D01*
X69684554Y-64704703D01*
X71996895Y-64704703D01*
X72031933Y-65343445D01*
X72208960Y-65770826D01*
X72464934Y-65873277D01*
X73402211Y-64936000D01*
X73837789Y-64936000D01*
X74775066Y-65873277D01*
X75031040Y-65770826D01*
X75243105Y-65167297D01*
X75217730Y-64704703D01*
X83996895Y-64704703D01*
X84031933Y-65343445D01*
X84208960Y-65770826D01*
X84464934Y-65873277D01*
X85402211Y-64936000D01*
X85837789Y-64936000D01*
X86775066Y-65873277D01*
X87031040Y-65770826D01*
X87243105Y-65167297D01*
X87208067Y-64528555D01*
X87031040Y-64101174D01*
X86775066Y-63998723D01*
X85837789Y-64936000D01*
X85402211Y-64936000D01*
X84464934Y-63998723D01*
X84208960Y-64101174D01*
X83996895Y-64704703D01*
X75217730Y-64704703D01*
X75208067Y-64528555D01*
X75031040Y-64101174D01*
X74775066Y-63998723D01*
X73837789Y-64936000D01*
X73402211Y-64936000D01*
X72464934Y-63998723D01*
X72208960Y-64101174D01*
X71996895Y-64704703D01*
X69684554Y-64704703D01*
X70070665Y-64231632D01*
X70206057Y-63780934D01*
X72682723Y-63780934D01*
X73620000Y-64718211D01*
X74557277Y-63780934D01*
X84682723Y-63780934D01*
X85620000Y-64718211D01*
X86557277Y-63780934D01*
X86454826Y-63524960D01*
X85851297Y-63312895D01*
X85212555Y-63347933D01*
X84785174Y-63524960D01*
X84682723Y-63780934D01*
X74557277Y-63780934D01*
X74454826Y-63524960D01*
X73851297Y-63312895D01*
X73212555Y-63347933D01*
X72785174Y-63524960D01*
X72682723Y-63780934D01*
X70206057Y-63780934D01*
X70252000Y-63628000D01*
X70252000Y-62628000D01*
X68798000Y-62628000D01*
X68490000Y-62628000D01*
X68470000Y-62628000D01*
X68470000Y-62320000D01*
X68490000Y-62320000D01*
X68490000Y-60026167D01*
X68798000Y-60026167D01*
X68798000Y-62320000D01*
X70252000Y-62320000D01*
X70252000Y-61707251D01*
X71494000Y-61707251D01*
X71494000Y-62164749D01*
X71669077Y-62587423D01*
X71992577Y-62910923D01*
X72415251Y-63086000D01*
X72872749Y-63086000D01*
X73295423Y-62910923D01*
X73618923Y-62587423D01*
X73644000Y-62526882D01*
X73669077Y-62587423D01*
X73992577Y-62910923D01*
X74415251Y-63086000D01*
X74872749Y-63086000D01*
X75210814Y-62945969D01*
X75851820Y-62945969D01*
X75929643Y-63181229D01*
X76460548Y-63359815D01*
X77019382Y-63321637D01*
X77358357Y-63181229D01*
X77436180Y-62945969D01*
X76644000Y-62153789D01*
X75851820Y-62945969D01*
X75210814Y-62945969D01*
X75295423Y-62910923D01*
X75516909Y-62689437D01*
X75634031Y-62728180D01*
X76426211Y-61936000D01*
X76861789Y-61936000D01*
X77653969Y-62728180D01*
X77771091Y-62689437D01*
X77992577Y-62910923D01*
X78415251Y-63086000D01*
X78872749Y-63086000D01*
X79295423Y-62910923D01*
X79618923Y-62587423D01*
X79644000Y-62526882D01*
X79669077Y-62587423D01*
X79992577Y-62910923D01*
X80415251Y-63086000D01*
X80872749Y-63086000D01*
X81295423Y-62910923D01*
X81618923Y-62587423D01*
X81644000Y-62526882D01*
X81669077Y-62587423D01*
X81992577Y-62910923D01*
X82415251Y-63086000D01*
X82872749Y-63086000D01*
X83295423Y-62910923D01*
X83618923Y-62587423D01*
X83644000Y-62526882D01*
X83669077Y-62587423D01*
X83992577Y-62910923D01*
X84415251Y-63086000D01*
X84872749Y-63086000D01*
X85295423Y-62910923D01*
X85618923Y-62587423D01*
X85644000Y-62526882D01*
X85669077Y-62587423D01*
X85992577Y-62910923D01*
X86415251Y-63086000D01*
X86872749Y-63086000D01*
X87295423Y-62910923D01*
X87578346Y-62628000D01*
X89036000Y-62628000D01*
X89036000Y-63628000D01*
X89217335Y-64231632D01*
X89615867Y-64719922D01*
X90170923Y-65018531D01*
X90241506Y-65030812D01*
X90490000Y-64921833D01*
X90490000Y-62628000D01*
X89036000Y-62628000D01*
X87578346Y-62628000D01*
X87618923Y-62587423D01*
X87794000Y-62164749D01*
X87794000Y-61707251D01*
X87633596Y-61320000D01*
X89036000Y-61320000D01*
X89036000Y-62320000D01*
X90490000Y-62320000D01*
X90490000Y-60026167D01*
X90241506Y-59917188D01*
X90170923Y-59929469D01*
X89615867Y-60228078D01*
X89217335Y-60716368D01*
X89036000Y-61320000D01*
X87633596Y-61320000D01*
X87618923Y-61284577D01*
X87295423Y-60961077D01*
X86872749Y-60786000D01*
X86415251Y-60786000D01*
X85992577Y-60961077D01*
X85669077Y-61284577D01*
X85644000Y-61345118D01*
X85618923Y-61284577D01*
X85295423Y-60961077D01*
X84872749Y-60786000D01*
X84415251Y-60786000D01*
X83992577Y-60961077D01*
X83669077Y-61284577D01*
X83644000Y-61345118D01*
X83618923Y-61284577D01*
X83295423Y-60961077D01*
X82967364Y-60825191D01*
X83019382Y-60821637D01*
X83358357Y-60681229D01*
X83436180Y-60445969D01*
X82644000Y-59653789D01*
X81851820Y-60445969D01*
X81929643Y-60681229D01*
X82337209Y-60818326D01*
X81992577Y-60961077D01*
X81669077Y-61284577D01*
X81644000Y-61345118D01*
X81618923Y-61284577D01*
X81295423Y-60961077D01*
X80872749Y-60786000D01*
X80415251Y-60786000D01*
X79992577Y-60961077D01*
X79669077Y-61284577D01*
X79644000Y-61345118D01*
X79618923Y-61284577D01*
X79295423Y-60961077D01*
X78872749Y-60786000D01*
X78415251Y-60786000D01*
X77992577Y-60961077D01*
X77771091Y-61182563D01*
X77653969Y-61143820D01*
X76861789Y-61936000D01*
X76426211Y-61936000D01*
X75634031Y-61143820D01*
X75516909Y-61182563D01*
X75295423Y-60961077D01*
X74872749Y-60786000D01*
X74415251Y-60786000D01*
X73992577Y-60961077D01*
X73669077Y-61284577D01*
X73644000Y-61345118D01*
X73618923Y-61284577D01*
X73295423Y-60961077D01*
X72872749Y-60786000D01*
X72415251Y-60786000D01*
X71992577Y-60961077D01*
X71669077Y-61284577D01*
X71494000Y-61707251D01*
X70252000Y-61707251D01*
X70252000Y-61320000D01*
X70070665Y-60716368D01*
X69672133Y-60228078D01*
X69117077Y-59929469D01*
X69046494Y-59917188D01*
X68798000Y-60026167D01*
X68490000Y-60026167D01*
X68241506Y-59917188D01*
X68170923Y-59929469D01*
X67615867Y-60228078D01*
X67275000Y-60645716D01*
X67275000Y-59207251D01*
X69494000Y-59207251D01*
X69494000Y-59664749D01*
X69669077Y-60087423D01*
X69992577Y-60410923D01*
X70415251Y-60586000D01*
X70872749Y-60586000D01*
X71295423Y-60410923D01*
X71618923Y-60087423D01*
X71644000Y-60026882D01*
X71669077Y-60087423D01*
X71992577Y-60410923D01*
X72415251Y-60586000D01*
X72872749Y-60586000D01*
X73295423Y-60410923D01*
X73618923Y-60087423D01*
X73644000Y-60026882D01*
X73669077Y-60087423D01*
X73992577Y-60410923D01*
X74415251Y-60586000D01*
X74872749Y-60586000D01*
X75210814Y-60445969D01*
X75851820Y-60445969D01*
X75929643Y-60681229D01*
X75942356Y-60685505D01*
X75929643Y-60690771D01*
X75851820Y-60926031D01*
X76644000Y-61718211D01*
X77436180Y-60926031D01*
X77358357Y-60690771D01*
X77345644Y-60686495D01*
X77358357Y-60681229D01*
X77436180Y-60445969D01*
X76644000Y-59653789D01*
X75851820Y-60445969D01*
X75210814Y-60445969D01*
X75295423Y-60410923D01*
X75516909Y-60189437D01*
X75634031Y-60228180D01*
X76426211Y-59436000D01*
X75634031Y-58643820D01*
X75516909Y-58682563D01*
X75295423Y-58461077D01*
X75210815Y-58426031D01*
X75851820Y-58426031D01*
X76644000Y-59218211D01*
X77436180Y-58426031D01*
X77358357Y-58190771D01*
X76827452Y-58012185D01*
X76268618Y-58050363D01*
X75929643Y-58190771D01*
X75851820Y-58426031D01*
X75210815Y-58426031D01*
X74872749Y-58286000D01*
X74415251Y-58286000D01*
X73992577Y-58461077D01*
X73669077Y-58784577D01*
X73644000Y-58845118D01*
X73618923Y-58784577D01*
X73295423Y-58461077D01*
X72872749Y-58286000D01*
X72415251Y-58286000D01*
X71992577Y-58461077D01*
X71669077Y-58784577D01*
X71644000Y-58845118D01*
X71618923Y-58784577D01*
X71295423Y-58461077D01*
X70872749Y-58286000D01*
X70415251Y-58286000D01*
X69992577Y-58461077D01*
X69669077Y-58784577D01*
X69494000Y-59207251D01*
X67275000Y-59207251D01*
X67275000Y-58668527D01*
X68320528Y-57623000D01*
X77983473Y-57623000D01*
X78044001Y-57683528D01*
X78044000Y-58439777D01*
X77992577Y-58461077D01*
X77771091Y-58682563D01*
X77653969Y-58643820D01*
X76861789Y-59436000D01*
X77653969Y-60228180D01*
X77771091Y-60189437D01*
X77992577Y-60410923D01*
X78415251Y-60586000D01*
X78872749Y-60586000D01*
X79295423Y-60410923D01*
X79618923Y-60087423D01*
X79644000Y-60026882D01*
X79669077Y-60087423D01*
X79992577Y-60410923D01*
X80415251Y-60586000D01*
X80872749Y-60586000D01*
X81295423Y-60410923D01*
X81516909Y-60189437D01*
X81634031Y-60228180D01*
X82426211Y-59436000D01*
X82861789Y-59436000D01*
X83653969Y-60228180D01*
X83771091Y-60189437D01*
X83992577Y-60410923D01*
X84415251Y-60586000D01*
X84872749Y-60586000D01*
X85295423Y-60410923D01*
X85618923Y-60087423D01*
X85644000Y-60026882D01*
X85669077Y-60087423D01*
X85992577Y-60410923D01*
X86415251Y-60586000D01*
X86872749Y-60586000D01*
X87295423Y-60410923D01*
X87618923Y-60087423D01*
X87644000Y-60026882D01*
X87669077Y-60087423D01*
X87992577Y-60410923D01*
X88415251Y-60586000D01*
X88872749Y-60586000D01*
X89295423Y-60410923D01*
X89618923Y-60087423D01*
X89794000Y-59664749D01*
X89794000Y-59207251D01*
X89618923Y-58784577D01*
X89295423Y-58461077D01*
X88872749Y-58286000D01*
X88415251Y-58286000D01*
X87992577Y-58461077D01*
X87669077Y-58784577D01*
X87644000Y-58845118D01*
X87618923Y-58784577D01*
X87295423Y-58461077D01*
X86872749Y-58286000D01*
X86415251Y-58286000D01*
X85992577Y-58461077D01*
X85669077Y-58784577D01*
X85644000Y-58845118D01*
X85618923Y-58784577D01*
X85295423Y-58461077D01*
X84872749Y-58286000D01*
X84415251Y-58286000D01*
X83992577Y-58461077D01*
X83771091Y-58682563D01*
X83653969Y-58643820D01*
X82861789Y-59436000D01*
X82426211Y-59436000D01*
X81634031Y-58643820D01*
X81516909Y-58682563D01*
X81295423Y-58461077D01*
X81210815Y-58426031D01*
X81851820Y-58426031D01*
X82644000Y-59218211D01*
X83436180Y-58426031D01*
X83358357Y-58190771D01*
X82827452Y-58012185D01*
X82268618Y-58050363D01*
X81929643Y-58190771D01*
X81851820Y-58426031D01*
X81210815Y-58426031D01*
X80872749Y-58286000D01*
X80415251Y-58286000D01*
X79992577Y-58461077D01*
X79669077Y-58784577D01*
X79644000Y-58845118D01*
X79618923Y-58784577D01*
X79295423Y-58461077D01*
X79244000Y-58439777D01*
X79244000Y-57494086D01*
X79255753Y-57435000D01*
X79244000Y-57375913D01*
X79244000Y-57375909D01*
X79209187Y-57200892D01*
X79076575Y-57002425D01*
X79026481Y-56968953D01*
X78698048Y-56640521D01*
X78664575Y-56590425D01*
X78466108Y-56457813D01*
X78291091Y-56423000D01*
X78291086Y-56423000D01*
X78232000Y-56411247D01*
X78172914Y-56423000D01*
X68131085Y-56423000D01*
X68071999Y-56411247D01*
X68012913Y-56423000D01*
X68012909Y-56423000D01*
X67837892Y-56457813D01*
X67639425Y-56590425D01*
X67605953Y-56640519D01*
X66292522Y-57953951D01*
X66242425Y-57987425D01*
X66109813Y-58185893D01*
X66075000Y-58360910D01*
X66075000Y-58360914D01*
X66063247Y-58420000D01*
X66075000Y-58479086D01*
X66075001Y-65579339D01*
X66039181Y-65615159D01*
X65925000Y-65890816D01*
X65925000Y-65941473D01*
X65892522Y-65973951D01*
X65842426Y-66007424D01*
X65709814Y-66205892D01*
X65675001Y-66380909D01*
X65675001Y-66380913D01*
X65663248Y-66439999D01*
X65675001Y-66499085D01*
X65675002Y-74851910D01*
X65663248Y-74911001D01*
X65709815Y-75145109D01*
X65792597Y-75269000D01*
X65842427Y-75343576D01*
X65892521Y-75377048D01*
X70647001Y-80131529D01*
X70647000Y-84338224D01*
X70647000Y-84502340D01*
X70611181Y-84538159D01*
X70497000Y-84813816D01*
X70497000Y-85112184D01*
X70611181Y-85387841D01*
X70822159Y-85598819D01*
X71097816Y-85713000D01*
X71148473Y-85713000D01*
X71917001Y-86481529D01*
X71917000Y-89074340D01*
X71881181Y-89110159D01*
X71767000Y-89385816D01*
X71767000Y-89684184D01*
X71881181Y-89959841D01*
X72058840Y-90137500D01*
X72053277Y-90137500D01*
X68012185Y-86096409D01*
X67989116Y-86061884D01*
X67852339Y-85970492D01*
X67731722Y-85946500D01*
X67731717Y-85946500D01*
X67691000Y-85938401D01*
X67650283Y-85946500D01*
X64302717Y-85946500D01*
X64262000Y-85938401D01*
X64221283Y-85946500D01*
X64221278Y-85946500D01*
X64100661Y-85970492D01*
X63963884Y-86061884D01*
X63940817Y-86096406D01*
X62719109Y-87318114D01*
X62567715Y-87288000D01*
X62400285Y-87288000D01*
X62152347Y-87337318D01*
X61871184Y-87525184D01*
X61849000Y-87558385D01*
X61826816Y-87525184D01*
X61545653Y-87337318D01*
X61297715Y-87288000D01*
X61130285Y-87288000D01*
X60882347Y-87337318D01*
X60771883Y-87411128D01*
X60464366Y-87159779D01*
X60267751Y-87078354D01*
X60098000Y-87194485D01*
X60098000Y-87984000D01*
X60118000Y-87984000D01*
X60118000Y-88292000D01*
X60098000Y-88292000D01*
X60098000Y-89081515D01*
X60267751Y-89197646D01*
X60464366Y-89116221D01*
X60771883Y-88864872D01*
X60882347Y-88938682D01*
X61130285Y-88988000D01*
X61297715Y-88988000D01*
X61545653Y-88938682D01*
X61826816Y-88750816D01*
X61849000Y-88717615D01*
X61871184Y-88750816D01*
X62152347Y-88938682D01*
X62400285Y-88988000D01*
X62567715Y-88988000D01*
X62815653Y-88938682D01*
X63096816Y-88750816D01*
X63119000Y-88717615D01*
X63141184Y-88750816D01*
X63422347Y-88938682D01*
X63670285Y-88988000D01*
X63837715Y-88988000D01*
X64085653Y-88938682D01*
X64236584Y-88837834D01*
X64271665Y-88890335D01*
X64387437Y-88967692D01*
X64524000Y-88994856D01*
X65296080Y-88994856D01*
X66071224Y-89770000D01*
X57296000Y-89770000D01*
X57296000Y-88138000D01*
X57807348Y-88138000D01*
X57873318Y-88469653D01*
X58061184Y-88750816D01*
X58342347Y-88938682D01*
X58590285Y-88988000D01*
X58757715Y-88988000D01*
X59005653Y-88938682D01*
X59116117Y-88864872D01*
X59423634Y-89116221D01*
X59620249Y-89197646D01*
X59790000Y-89081515D01*
X59790000Y-88292000D01*
X59770000Y-88292000D01*
X59770000Y-87984000D01*
X59790000Y-87984000D01*
X59790000Y-87194485D01*
X59620249Y-87078354D01*
X59423634Y-87159779D01*
X59116117Y-87411128D01*
X59005653Y-87337318D01*
X58757715Y-87288000D01*
X58590285Y-87288000D01*
X58342347Y-87337318D01*
X58061184Y-87525184D01*
X57873318Y-87806347D01*
X57807348Y-88138000D01*
X57296000Y-88138000D01*
X57296000Y-83458000D01*
X59523664Y-83458000D01*
X59524174Y-83458341D01*
X59690000Y-83491326D01*
X59855827Y-83458341D01*
X59996408Y-83364408D01*
X60090341Y-83223827D01*
X60115000Y-83099858D01*
X60115000Y-80603142D01*
X60090341Y-80479173D01*
X59996408Y-80338592D01*
X59855826Y-80244659D01*
X59690000Y-80211674D01*
X59524173Y-80244659D01*
X59523663Y-80245000D01*
X57296000Y-80245000D01*
X57296000Y-66821000D01*
X64095664Y-66821000D01*
X64096174Y-66821341D01*
X64262000Y-66854326D01*
X64427827Y-66821341D01*
X64568408Y-66727408D01*
X64662341Y-66586827D01*
X64687000Y-66462858D01*
X64687000Y-51098000D01*
X71317795Y-51098000D01*
X71258482Y-51122568D01*
X71258482Y-51122568D01*
G37*
X71258482Y-51122568D02*
X71061568Y-51319482D01*
X70955000Y-51576761D01*
X70955000Y-51855239D01*
X71061568Y-52112518D01*
X71258482Y-52309432D01*
X71515761Y-52416000D01*
X71794239Y-52416000D01*
X72051518Y-52309432D01*
X72248432Y-52112518D01*
X72355000Y-51855239D01*
X72355000Y-51576761D01*
X72248432Y-51319482D01*
X72051518Y-51122568D01*
X71992205Y-51098000D01*
X75367795Y-51098000D01*
X75308482Y-51122568D01*
X75111568Y-51319482D01*
X75005000Y-51576761D01*
X75005000Y-51855239D01*
X75111568Y-52112518D01*
X75308482Y-52309432D01*
X75565761Y-52416000D01*
X75844239Y-52416000D01*
X76101518Y-52309432D01*
X76298432Y-52112518D01*
X76405000Y-51855239D01*
X76405000Y-51576761D01*
X76298432Y-51319482D01*
X76101518Y-51122568D01*
X76042205Y-51098000D01*
X88983001Y-51098000D01*
X88983000Y-57362142D01*
X88974674Y-57404000D01*
X89007659Y-57569827D01*
X89019927Y-57588187D01*
X89101592Y-57710408D01*
X89242173Y-57804341D01*
X89408000Y-57837326D01*
X89449857Y-57829000D01*
X91904001Y-57829000D01*
X91904001Y-60512167D01*
X91672133Y-60228078D01*
X91117077Y-59929469D01*
X91046494Y-59917188D01*
X90798000Y-60026167D01*
X90798000Y-62320000D01*
X90818000Y-62320000D01*
X90818000Y-62628000D01*
X90798000Y-62628000D01*
X90798000Y-64921833D01*
X91046494Y-65030812D01*
X91117077Y-65018531D01*
X91672133Y-64719922D01*
X91904000Y-64435833D01*
X91904000Y-70060000D01*
X86909858Y-70060000D01*
X86868000Y-70051674D01*
X86826143Y-70060000D01*
X86826142Y-70060000D01*
X86702173Y-70084659D01*
X86561592Y-70178592D01*
X86467659Y-70319173D01*
X86434674Y-70485000D01*
X86443001Y-70526862D01*
X86443000Y-70949000D01*
X84877858Y-70949000D01*
X84836000Y-70940674D01*
X84794143Y-70949000D01*
X84794142Y-70949000D01*
X84670173Y-70973659D01*
X84529592Y-71067592D01*
X84435659Y-71208173D01*
X84402674Y-71374000D01*
X84411001Y-71415863D01*
X84411000Y-74888142D01*
X84402674Y-74930000D01*
X84435659Y-75095827D01*
X84529592Y-75236408D01*
X84670173Y-75330341D01*
X84784088Y-75353000D01*
X84836000Y-75363326D01*
X84877857Y-75355000D01*
X85382340Y-75355000D01*
X85216181Y-75521159D01*
X85102000Y-75796816D01*
X85102000Y-75847472D01*
X83310520Y-77638953D01*
X83260426Y-77672425D01*
X83226954Y-77722519D01*
X83226953Y-77722520D01*
X83127814Y-77870892D01*
X83081247Y-78105000D01*
X83093001Y-78164091D01*
X83093001Y-78640582D01*
X83046767Y-78485987D01*
X82626336Y-77680062D01*
X82061092Y-76968180D01*
X81371433Y-76376025D01*
X80582242Y-75924966D01*
X79721996Y-75631276D01*
X78821734Y-75505554D01*
X78022000Y-75546766D01*
X78022000Y-71034858D01*
X78030326Y-70993000D01*
X77997341Y-70827173D01*
X77903408Y-70686592D01*
X77762827Y-70592659D01*
X77638858Y-70568000D01*
X77597000Y-70559674D01*
X77555143Y-70568000D01*
X71288857Y-70568000D01*
X71247000Y-70559674D01*
X71205142Y-70568000D01*
X71081173Y-70592659D01*
X70940592Y-70686592D01*
X70846659Y-70827173D01*
X70813674Y-70993000D01*
X70822000Y-71034858D01*
X70822001Y-77174137D01*
X70813674Y-77216000D01*
X70846659Y-77381827D01*
X70940592Y-77522408D01*
X71081173Y-77616341D01*
X71205142Y-77641000D01*
X71205143Y-77641000D01*
X71247000Y-77649326D01*
X71288858Y-77641000D01*
X74650087Y-77641000D01*
X74353017Y-78106409D01*
X74017655Y-78951282D01*
X73848105Y-79844327D01*
X73850485Y-80753322D01*
X74024708Y-81645467D01*
X74137252Y-81924724D01*
X71713049Y-79500522D01*
X71679575Y-79450425D01*
X71629481Y-79416953D01*
X66875001Y-74662474D01*
X66875001Y-66768951D01*
X67099841Y-66675819D01*
X67310819Y-66464841D01*
X67425000Y-66189184D01*
X67425000Y-66091066D01*
X72682723Y-66091066D01*
X72785174Y-66347040D01*
X73388703Y-66559105D01*
X74027445Y-66524067D01*
X74454826Y-66347040D01*
X74557277Y-66091066D01*
X84682723Y-66091066D01*
X84785174Y-66347040D01*
X85388703Y-66559105D01*
X86027445Y-66524067D01*
X86454826Y-66347040D01*
X86557277Y-66091066D01*
X85620000Y-65153789D01*
X84682723Y-66091066D01*
X74557277Y-66091066D01*
X73620000Y-65153789D01*
X72682723Y-66091066D01*
X67425000Y-66091066D01*
X67425000Y-65890816D01*
X67310819Y-65615159D01*
X67275000Y-65579340D01*
X67275000Y-64302284D01*
X67615867Y-64719922D01*
X68170923Y-65018531D01*
X68241506Y-65030812D01*
X68490000Y-64921833D01*
X68490000Y-62628000D01*
X68798000Y-62628000D01*
X68798000Y-64921833D01*
X69046494Y-65030812D01*
X69117077Y-65018531D01*
X69672133Y-64719922D01*
X69684554Y-64704703D01*
X71996895Y-64704703D01*
X72031933Y-65343445D01*
X72208960Y-65770826D01*
X72464934Y-65873277D01*
X73402211Y-64936000D01*
X73837789Y-64936000D01*
X74775066Y-65873277D01*
X75031040Y-65770826D01*
X75243105Y-65167297D01*
X75217730Y-64704703D01*
X83996895Y-64704703D01*
X84031933Y-65343445D01*
X84208960Y-65770826D01*
X84464934Y-65873277D01*
X85402211Y-64936000D01*
X85837789Y-64936000D01*
X86775066Y-65873277D01*
X87031040Y-65770826D01*
X87243105Y-65167297D01*
X87208067Y-64528555D01*
X87031040Y-64101174D01*
X86775066Y-63998723D01*
X85837789Y-64936000D01*
X85402211Y-64936000D01*
X84464934Y-63998723D01*
X84208960Y-64101174D01*
X83996895Y-64704703D01*
X75217730Y-64704703D01*
X75208067Y-64528555D01*
X75031040Y-64101174D01*
X74775066Y-63998723D01*
X73837789Y-64936000D01*
X73402211Y-64936000D01*
X72464934Y-63998723D01*
X72208960Y-64101174D01*
X71996895Y-64704703D01*
X69684554Y-64704703D01*
X70070665Y-64231632D01*
X70206057Y-63780934D01*
X72682723Y-63780934D01*
X73620000Y-64718211D01*
X74557277Y-63780934D01*
X84682723Y-63780934D01*
X85620000Y-64718211D01*
X86557277Y-63780934D01*
X86454826Y-63524960D01*
X85851297Y-63312895D01*
X85212555Y-63347933D01*
X84785174Y-63524960D01*
X84682723Y-63780934D01*
X74557277Y-63780934D01*
X74454826Y-63524960D01*
X73851297Y-63312895D01*
X73212555Y-63347933D01*
X72785174Y-63524960D01*
X72682723Y-63780934D01*
X70206057Y-63780934D01*
X70252000Y-63628000D01*
X70252000Y-62628000D01*
X68798000Y-62628000D01*
X68490000Y-62628000D01*
X68470000Y-62628000D01*
X68470000Y-62320000D01*
X68490000Y-62320000D01*
X68490000Y-60026167D01*
X68798000Y-60026167D01*
X68798000Y-62320000D01*
X70252000Y-62320000D01*
X70252000Y-61707251D01*
X71494000Y-61707251D01*
X71494000Y-62164749D01*
X71669077Y-62587423D01*
X71992577Y-62910923D01*
X72415251Y-63086000D01*
X72872749Y-63086000D01*
X73295423Y-62910923D01*
X73618923Y-62587423D01*
X73644000Y-62526882D01*
X73669077Y-62587423D01*
X73992577Y-62910923D01*
X74415251Y-63086000D01*
X74872749Y-63086000D01*
X75210814Y-62945969D01*
X75851820Y-62945969D01*
X75929643Y-63181229D01*
X76460548Y-63359815D01*
X77019382Y-63321637D01*
X77358357Y-63181229D01*
X77436180Y-62945969D01*
X76644000Y-62153789D01*
X75851820Y-62945969D01*
X75210814Y-62945969D01*
X75295423Y-62910923D01*
X75516909Y-62689437D01*
X75634031Y-62728180D01*
X76426211Y-61936000D01*
X76861789Y-61936000D01*
X77653969Y-62728180D01*
X77771091Y-62689437D01*
X77992577Y-62910923D01*
X78415251Y-63086000D01*
X78872749Y-63086000D01*
X79295423Y-62910923D01*
X79618923Y-62587423D01*
X79644000Y-62526882D01*
X79669077Y-62587423D01*
X79992577Y-62910923D01*
X80415251Y-63086000D01*
X80872749Y-63086000D01*
X81295423Y-62910923D01*
X81618923Y-62587423D01*
X81644000Y-62526882D01*
X81669077Y-62587423D01*
X81992577Y-62910923D01*
X82415251Y-63086000D01*
X82872749Y-63086000D01*
X83295423Y-62910923D01*
X83618923Y-62587423D01*
X83644000Y-62526882D01*
X83669077Y-62587423D01*
X83992577Y-62910923D01*
X84415251Y-63086000D01*
X84872749Y-63086000D01*
X85295423Y-62910923D01*
X85618923Y-62587423D01*
X85644000Y-62526882D01*
X85669077Y-62587423D01*
X85992577Y-62910923D01*
X86415251Y-63086000D01*
X86872749Y-63086000D01*
X87295423Y-62910923D01*
X87578346Y-62628000D01*
X89036000Y-62628000D01*
X89036000Y-63628000D01*
X89217335Y-64231632D01*
X89615867Y-64719922D01*
X90170923Y-65018531D01*
X90241506Y-65030812D01*
X90490000Y-64921833D01*
X90490000Y-62628000D01*
X89036000Y-62628000D01*
X87578346Y-62628000D01*
X87618923Y-62587423D01*
X87794000Y-62164749D01*
X87794000Y-61707251D01*
X87633596Y-61320000D01*
X89036000Y-61320000D01*
X89036000Y-62320000D01*
X90490000Y-62320000D01*
X90490000Y-60026167D01*
X90241506Y-59917188D01*
X90170923Y-59929469D01*
X89615867Y-60228078D01*
X89217335Y-60716368D01*
X89036000Y-61320000D01*
X87633596Y-61320000D01*
X87618923Y-61284577D01*
X87295423Y-60961077D01*
X86872749Y-60786000D01*
X86415251Y-60786000D01*
X85992577Y-60961077D01*
X85669077Y-61284577D01*
X85644000Y-61345118D01*
X85618923Y-61284577D01*
X85295423Y-60961077D01*
X84872749Y-60786000D01*
X84415251Y-60786000D01*
X83992577Y-60961077D01*
X83669077Y-61284577D01*
X83644000Y-61345118D01*
X83618923Y-61284577D01*
X83295423Y-60961077D01*
X82967364Y-60825191D01*
X83019382Y-60821637D01*
X83358357Y-60681229D01*
X83436180Y-60445969D01*
X82644000Y-59653789D01*
X81851820Y-60445969D01*
X81929643Y-60681229D01*
X82337209Y-60818326D01*
X81992577Y-60961077D01*
X81669077Y-61284577D01*
X81644000Y-61345118D01*
X81618923Y-61284577D01*
X81295423Y-60961077D01*
X80872749Y-60786000D01*
X80415251Y-60786000D01*
X79992577Y-60961077D01*
X79669077Y-61284577D01*
X79644000Y-61345118D01*
X79618923Y-61284577D01*
X79295423Y-60961077D01*
X78872749Y-60786000D01*
X78415251Y-60786000D01*
X77992577Y-60961077D01*
X77771091Y-61182563D01*
X77653969Y-61143820D01*
X76861789Y-61936000D01*
X76426211Y-61936000D01*
X75634031Y-61143820D01*
X75516909Y-61182563D01*
X75295423Y-60961077D01*
X74872749Y-60786000D01*
X74415251Y-60786000D01*
X73992577Y-60961077D01*
X73669077Y-61284577D01*
X73644000Y-61345118D01*
X73618923Y-61284577D01*
X73295423Y-60961077D01*
X72872749Y-60786000D01*
X72415251Y-60786000D01*
X71992577Y-60961077D01*
X71669077Y-61284577D01*
X71494000Y-61707251D01*
X70252000Y-61707251D01*
X70252000Y-61320000D01*
X70070665Y-60716368D01*
X69672133Y-60228078D01*
X69117077Y-59929469D01*
X69046494Y-59917188D01*
X68798000Y-60026167D01*
X68490000Y-60026167D01*
X68241506Y-59917188D01*
X68170923Y-59929469D01*
X67615867Y-60228078D01*
X67275000Y-60645716D01*
X67275000Y-59207251D01*
X69494000Y-59207251D01*
X69494000Y-59664749D01*
X69669077Y-60087423D01*
X69992577Y-60410923D01*
X70415251Y-60586000D01*
X70872749Y-60586000D01*
X71295423Y-60410923D01*
X71618923Y-60087423D01*
X71644000Y-60026882D01*
X71669077Y-60087423D01*
X71992577Y-60410923D01*
X72415251Y-60586000D01*
X72872749Y-60586000D01*
X73295423Y-60410923D01*
X73618923Y-60087423D01*
X73644000Y-60026882D01*
X73669077Y-60087423D01*
X73992577Y-60410923D01*
X74415251Y-60586000D01*
X74872749Y-60586000D01*
X75210814Y-60445969D01*
X75851820Y-60445969D01*
X75929643Y-60681229D01*
X75942356Y-60685505D01*
X75929643Y-60690771D01*
X75851820Y-60926031D01*
X76644000Y-61718211D01*
X77436180Y-60926031D01*
X77358357Y-60690771D01*
X77345644Y-60686495D01*
X77358357Y-60681229D01*
X77436180Y-60445969D01*
X76644000Y-59653789D01*
X75851820Y-60445969D01*
X75210814Y-60445969D01*
X75295423Y-60410923D01*
X75516909Y-60189437D01*
X75634031Y-60228180D01*
X76426211Y-59436000D01*
X75634031Y-58643820D01*
X75516909Y-58682563D01*
X75295423Y-58461077D01*
X75210815Y-58426031D01*
X75851820Y-58426031D01*
X76644000Y-59218211D01*
X77436180Y-58426031D01*
X77358357Y-58190771D01*
X76827452Y-58012185D01*
X76268618Y-58050363D01*
X75929643Y-58190771D01*
X75851820Y-58426031D01*
X75210815Y-58426031D01*
X74872749Y-58286000D01*
X74415251Y-58286000D01*
X73992577Y-58461077D01*
X73669077Y-58784577D01*
X73644000Y-58845118D01*
X73618923Y-58784577D01*
X73295423Y-58461077D01*
X72872749Y-58286000D01*
X72415251Y-58286000D01*
X71992577Y-58461077D01*
X71669077Y-58784577D01*
X71644000Y-58845118D01*
X71618923Y-58784577D01*
X71295423Y-58461077D01*
X70872749Y-58286000D01*
X70415251Y-58286000D01*
X69992577Y-58461077D01*
X69669077Y-58784577D01*
X69494000Y-59207251D01*
X67275000Y-59207251D01*
X67275000Y-58668527D01*
X68320528Y-57623000D01*
X77983473Y-57623000D01*
X78044001Y-57683528D01*
X78044000Y-58439777D01*
X77992577Y-58461077D01*
X77771091Y-58682563D01*
X77653969Y-58643820D01*
X76861789Y-59436000D01*
X77653969Y-60228180D01*
X77771091Y-60189437D01*
X77992577Y-60410923D01*
X78415251Y-60586000D01*
X78872749Y-60586000D01*
X79295423Y-60410923D01*
X79618923Y-60087423D01*
X79644000Y-60026882D01*
X79669077Y-60087423D01*
X79992577Y-60410923D01*
X80415251Y-60586000D01*
X80872749Y-60586000D01*
X81295423Y-60410923D01*
X81516909Y-60189437D01*
X81634031Y-60228180D01*
X82426211Y-59436000D01*
X82861789Y-59436000D01*
X83653969Y-60228180D01*
X83771091Y-60189437D01*
X83992577Y-60410923D01*
X84415251Y-60586000D01*
X84872749Y-60586000D01*
X85295423Y-60410923D01*
X85618923Y-60087423D01*
X85644000Y-60026882D01*
X85669077Y-60087423D01*
X85992577Y-60410923D01*
X86415251Y-60586000D01*
X86872749Y-60586000D01*
X87295423Y-60410923D01*
X87618923Y-60087423D01*
X87644000Y-60026882D01*
X87669077Y-60087423D01*
X87992577Y-60410923D01*
X88415251Y-60586000D01*
X88872749Y-60586000D01*
X89295423Y-60410923D01*
X89618923Y-60087423D01*
X89794000Y-59664749D01*
X89794000Y-59207251D01*
X89618923Y-58784577D01*
X89295423Y-58461077D01*
X88872749Y-58286000D01*
X88415251Y-58286000D01*
X87992577Y-58461077D01*
X87669077Y-58784577D01*
X87644000Y-58845118D01*
X87618923Y-58784577D01*
X87295423Y-58461077D01*
X86872749Y-58286000D01*
X86415251Y-58286000D01*
X85992577Y-58461077D01*
X85669077Y-58784577D01*
X85644000Y-58845118D01*
X85618923Y-58784577D01*
X85295423Y-58461077D01*
X84872749Y-58286000D01*
X84415251Y-58286000D01*
X83992577Y-58461077D01*
X83771091Y-58682563D01*
X83653969Y-58643820D01*
X82861789Y-59436000D01*
X82426211Y-59436000D01*
X81634031Y-58643820D01*
X81516909Y-58682563D01*
X81295423Y-58461077D01*
X81210815Y-58426031D01*
X81851820Y-58426031D01*
X82644000Y-59218211D01*
X83436180Y-58426031D01*
X83358357Y-58190771D01*
X82827452Y-58012185D01*
X82268618Y-58050363D01*
X81929643Y-58190771D01*
X81851820Y-58426031D01*
X81210815Y-58426031D01*
X80872749Y-58286000D01*
X80415251Y-58286000D01*
X79992577Y-58461077D01*
X79669077Y-58784577D01*
X79644000Y-58845118D01*
X79618923Y-58784577D01*
X79295423Y-58461077D01*
X79244000Y-58439777D01*
X79244000Y-57494086D01*
X79255753Y-57435000D01*
X79244000Y-57375913D01*
X79244000Y-57375909D01*
X79209187Y-57200892D01*
X79076575Y-57002425D01*
X79026481Y-56968953D01*
X78698048Y-56640521D01*
X78664575Y-56590425D01*
X78466108Y-56457813D01*
X78291091Y-56423000D01*
X78291086Y-56423000D01*
X78232000Y-56411247D01*
X78172914Y-56423000D01*
X68131085Y-56423000D01*
X68071999Y-56411247D01*
X68012913Y-56423000D01*
X68012909Y-56423000D01*
X67837892Y-56457813D01*
X67639425Y-56590425D01*
X67605953Y-56640519D01*
X66292522Y-57953951D01*
X66242425Y-57987425D01*
X66109813Y-58185893D01*
X66075000Y-58360910D01*
X66075000Y-58360914D01*
X66063247Y-58420000D01*
X66075000Y-58479086D01*
X66075001Y-65579339D01*
X66039181Y-65615159D01*
X65925000Y-65890816D01*
X65925000Y-65941473D01*
X65892522Y-65973951D01*
X65842426Y-66007424D01*
X65709814Y-66205892D01*
X65675001Y-66380909D01*
X65675001Y-66380913D01*
X65663248Y-66439999D01*
X65675001Y-66499085D01*
X65675002Y-74851910D01*
X65663248Y-74911001D01*
X65709815Y-75145109D01*
X65792597Y-75269000D01*
X65842427Y-75343576D01*
X65892521Y-75377048D01*
X70647001Y-80131529D01*
X70647000Y-84338224D01*
X70647000Y-84502340D01*
X70611181Y-84538159D01*
X70497000Y-84813816D01*
X70497000Y-85112184D01*
X70611181Y-85387841D01*
X70822159Y-85598819D01*
X71097816Y-85713000D01*
X71148473Y-85713000D01*
X71917001Y-86481529D01*
X71917000Y-89074340D01*
X71881181Y-89110159D01*
X71767000Y-89385816D01*
X71767000Y-89684184D01*
X71881181Y-89959841D01*
X72058840Y-90137500D01*
X72053277Y-90137500D01*
X68012185Y-86096409D01*
X67989116Y-86061884D01*
X67852339Y-85970492D01*
X67731722Y-85946500D01*
X67731717Y-85946500D01*
X67691000Y-85938401D01*
X67650283Y-85946500D01*
X64302717Y-85946500D01*
X64262000Y-85938401D01*
X64221283Y-85946500D01*
X64221278Y-85946500D01*
X64100661Y-85970492D01*
X63963884Y-86061884D01*
X63940817Y-86096406D01*
X62719109Y-87318114D01*
X62567715Y-87288000D01*
X62400285Y-87288000D01*
X62152347Y-87337318D01*
X61871184Y-87525184D01*
X61849000Y-87558385D01*
X61826816Y-87525184D01*
X61545653Y-87337318D01*
X61297715Y-87288000D01*
X61130285Y-87288000D01*
X60882347Y-87337318D01*
X60771883Y-87411128D01*
X60464366Y-87159779D01*
X60267751Y-87078354D01*
X60098000Y-87194485D01*
X60098000Y-87984000D01*
X60118000Y-87984000D01*
X60118000Y-88292000D01*
X60098000Y-88292000D01*
X60098000Y-89081515D01*
X60267751Y-89197646D01*
X60464366Y-89116221D01*
X60771883Y-88864872D01*
X60882347Y-88938682D01*
X61130285Y-88988000D01*
X61297715Y-88988000D01*
X61545653Y-88938682D01*
X61826816Y-88750816D01*
X61849000Y-88717615D01*
X61871184Y-88750816D01*
X62152347Y-88938682D01*
X62400285Y-88988000D01*
X62567715Y-88988000D01*
X62815653Y-88938682D01*
X63096816Y-88750816D01*
X63119000Y-88717615D01*
X63141184Y-88750816D01*
X63422347Y-88938682D01*
X63670285Y-88988000D01*
X63837715Y-88988000D01*
X64085653Y-88938682D01*
X64236584Y-88837834D01*
X64271665Y-88890335D01*
X64387437Y-88967692D01*
X64524000Y-88994856D01*
X65296080Y-88994856D01*
X66071224Y-89770000D01*
X57296000Y-89770000D01*
X57296000Y-88138000D01*
X57807348Y-88138000D01*
X57873318Y-88469653D01*
X58061184Y-88750816D01*
X58342347Y-88938682D01*
X58590285Y-88988000D01*
X58757715Y-88988000D01*
X59005653Y-88938682D01*
X59116117Y-88864872D01*
X59423634Y-89116221D01*
X59620249Y-89197646D01*
X59790000Y-89081515D01*
X59790000Y-88292000D01*
X59770000Y-88292000D01*
X59770000Y-87984000D01*
X59790000Y-87984000D01*
X59790000Y-87194485D01*
X59620249Y-87078354D01*
X59423634Y-87159779D01*
X59116117Y-87411128D01*
X59005653Y-87337318D01*
X58757715Y-87288000D01*
X58590285Y-87288000D01*
X58342347Y-87337318D01*
X58061184Y-87525184D01*
X57873318Y-87806347D01*
X57807348Y-88138000D01*
X57296000Y-88138000D01*
X57296000Y-83458000D01*
X59523664Y-83458000D01*
X59524174Y-83458341D01*
X59690000Y-83491326D01*
X59855827Y-83458341D01*
X59996408Y-83364408D01*
X60090341Y-83223827D01*
X60115000Y-83099858D01*
X60115000Y-80603142D01*
X60090341Y-80479173D01*
X59996408Y-80338592D01*
X59855826Y-80244659D01*
X59690000Y-80211674D01*
X59524173Y-80244659D01*
X59523663Y-80245000D01*
X57296000Y-80245000D01*
X57296000Y-66821000D01*
X64095664Y-66821000D01*
X64096174Y-66821341D01*
X64262000Y-66854326D01*
X64427827Y-66821341D01*
X64568408Y-66727408D01*
X64662341Y-66586827D01*
X64687000Y-66462858D01*
X64687000Y-51098000D01*
X71317795Y-51098000D01*
X71258482Y-51122568D01*
G36*
X106266501Y-83229279D02*
X106266500Y-84081449D01*
X106258401Y-84122166D01*
X106266500Y-84162883D01*
X106266500Y-84162887D01*
X106290492Y-84283504D01*
X106381884Y-84420282D01*
X106416408Y-84443351D01*
X106828502Y-84855445D01*
X106828501Y-85738284D01*
X106820402Y-85779001D01*
X106828501Y-85819718D01*
X106828501Y-85819722D01*
X106841205Y-85883588D01*
X106826154Y-85873531D01*
X105252027Y-84299406D01*
X105228958Y-84264881D01*
X105092181Y-84173489D01*
X105022436Y-84159616D01*
X104959550Y-84096730D01*
X104757402Y-84012997D01*
X104538598Y-84012997D01*
X104336450Y-84096730D01*
X104181733Y-84251447D01*
X104098000Y-84453595D01*
X104098000Y-84672399D01*
X104161831Y-84826498D01*
X104098000Y-84980598D01*
X104098000Y-85199402D01*
X104181733Y-85401550D01*
X104244619Y-85464436D01*
X104258492Y-85534181D01*
X104349885Y-85670958D01*
X104384407Y-85694025D01*
X105895047Y-87204666D01*
X105895048Y-87657271D01*
X105198000Y-86960224D01*
X105198000Y-86885598D01*
X105114267Y-86683450D01*
X104959550Y-86528733D01*
X104757402Y-86445000D01*
X104538598Y-86445000D01*
X104336450Y-86528733D01*
X104181733Y-86683450D01*
X104098000Y-86885598D01*
X104098000Y-87104402D01*
X104181733Y-87306550D01*
X104187683Y-87312500D01*
X104181733Y-87318450D01*
X104098000Y-87520598D01*
X104098000Y-87739402D01*
X104181733Y-87941550D01*
X104336450Y-88096267D01*
X104464877Y-88149463D01*
X104441340Y-88173000D01*
X98927528Y-88173000D01*
X97905000Y-87150473D01*
X97905000Y-87099816D01*
X97790819Y-86824159D01*
X97579841Y-86613181D01*
X97308951Y-86500975D01*
X101417052Y-82392875D01*
X101417056Y-82392869D01*
X101471904Y-82338021D01*
X105375245Y-82338021D01*
X106266501Y-83229279D01*
X106266501Y-83229279D01*
G37*
X106266501Y-83229279D02*
X106266500Y-84081449D01*
X106258401Y-84122166D01*
X106266500Y-84162883D01*
X106266500Y-84162887D01*
X106290492Y-84283504D01*
X106381884Y-84420282D01*
X106416408Y-84443351D01*
X106828502Y-84855445D01*
X106828501Y-85738284D01*
X106820402Y-85779001D01*
X106828501Y-85819718D01*
X106828501Y-85819722D01*
X106841205Y-85883588D01*
X106826154Y-85873531D01*
X105252027Y-84299406D01*
X105228958Y-84264881D01*
X105092181Y-84173489D01*
X105022436Y-84159616D01*
X104959550Y-84096730D01*
X104757402Y-84012997D01*
X104538598Y-84012997D01*
X104336450Y-84096730D01*
X104181733Y-84251447D01*
X104098000Y-84453595D01*
X104098000Y-84672399D01*
X104161831Y-84826498D01*
X104098000Y-84980598D01*
X104098000Y-85199402D01*
X104181733Y-85401550D01*
X104244619Y-85464436D01*
X104258492Y-85534181D01*
X104349885Y-85670958D01*
X104384407Y-85694025D01*
X105895047Y-87204666D01*
X105895048Y-87657271D01*
X105198000Y-86960224D01*
X105198000Y-86885598D01*
X105114267Y-86683450D01*
X104959550Y-86528733D01*
X104757402Y-86445000D01*
X104538598Y-86445000D01*
X104336450Y-86528733D01*
X104181733Y-86683450D01*
X104098000Y-86885598D01*
X104098000Y-87104402D01*
X104181733Y-87306550D01*
X104187683Y-87312500D01*
X104181733Y-87318450D01*
X104098000Y-87520598D01*
X104098000Y-87739402D01*
X104181733Y-87941550D01*
X104336450Y-88096267D01*
X104464877Y-88149463D01*
X104441340Y-88173000D01*
X98927528Y-88173000D01*
X97905000Y-87150473D01*
X97905000Y-87099816D01*
X97790819Y-86824159D01*
X97579841Y-86613181D01*
X97308951Y-86500975D01*
X101417052Y-82392875D01*
X101417056Y-82392869D01*
X101471904Y-82338021D01*
X105375245Y-82338021D01*
X106266501Y-83229279D01*
G36*
X88720219Y-79662746D02*
X88713914Y-79664000D01*
X86820660Y-79664000D01*
X86784841Y-79628181D01*
X86509184Y-79514000D01*
X86210816Y-79514000D01*
X85935159Y-79628181D01*
X85724181Y-79839159D01*
X85610000Y-80114816D01*
X85610000Y-80413184D01*
X85724181Y-80688841D01*
X85935159Y-80899819D01*
X86210816Y-81014000D01*
X86509184Y-81014000D01*
X86784841Y-80899819D01*
X86820660Y-80864000D01*
X88524473Y-80864000D01*
X89152473Y-81492000D01*
X89044598Y-81492000D01*
X88842450Y-81575733D01*
X88687733Y-81730450D01*
X88604000Y-81932598D01*
X88604000Y-82007223D01*
X84918724Y-85692500D01*
X84278160Y-85692500D01*
X84328819Y-85641841D01*
X84443000Y-85366184D01*
X84443000Y-85067816D01*
X84328819Y-84792159D01*
X84293000Y-84756340D01*
X84293000Y-78353527D01*
X85852000Y-76794527D01*
X88720219Y-79662746D01*
X88720219Y-79662746D01*
G37*
X88720219Y-79662746D02*
X88713914Y-79664000D01*
X86820660Y-79664000D01*
X86784841Y-79628181D01*
X86509184Y-79514000D01*
X86210816Y-79514000D01*
X85935159Y-79628181D01*
X85724181Y-79839159D01*
X85610000Y-80114816D01*
X85610000Y-80413184D01*
X85724181Y-80688841D01*
X85935159Y-80899819D01*
X86210816Y-81014000D01*
X86509184Y-81014000D01*
X86784841Y-80899819D01*
X86820660Y-80864000D01*
X88524473Y-80864000D01*
X89152473Y-81492000D01*
X89044598Y-81492000D01*
X88842450Y-81575733D01*
X88687733Y-81730450D01*
X88604000Y-81932598D01*
X88604000Y-82007223D01*
X84918724Y-85692500D01*
X84278160Y-85692500D01*
X84328819Y-85641841D01*
X84443000Y-85366184D01*
X84443000Y-85067816D01*
X84328819Y-84792159D01*
X84293000Y-84756340D01*
X84293000Y-78353527D01*
X85852000Y-76794527D01*
X88720219Y-79662746D01*
G36*
X93936000Y-77892857D02*
X93947171Y-77949016D01*
X93776447Y-78019733D01*
X93621730Y-78174450D01*
X93537997Y-78376598D01*
X93537997Y-78595402D01*
X93621730Y-78797550D01*
X93776447Y-78952267D01*
X93978595Y-79036000D01*
X94002282Y-79036000D01*
X96900385Y-81934104D01*
X96923453Y-81968627D01*
X97060230Y-82060019D01*
X97180847Y-82084011D01*
X97180851Y-82084011D01*
X97221568Y-82092110D01*
X97262285Y-82084011D01*
X99478689Y-82084011D01*
X96212961Y-85349739D01*
X96139819Y-85173159D01*
X95928841Y-84962181D01*
X95653184Y-84848000D01*
X95602528Y-84848000D01*
X87252527Y-76498000D01*
X93936001Y-76498000D01*
X93936000Y-77892857D01*
X93936000Y-77892857D01*
G37*
X93936000Y-77892857D02*
X93947171Y-77949016D01*
X93776447Y-78019733D01*
X93621730Y-78174450D01*
X93537997Y-78376598D01*
X93537997Y-78595402D01*
X93621730Y-78797550D01*
X93776447Y-78952267D01*
X93978595Y-79036000D01*
X94002282Y-79036000D01*
X96900385Y-81934104D01*
X96923453Y-81968627D01*
X97060230Y-82060019D01*
X97180847Y-82084011D01*
X97180851Y-82084011D01*
X97221568Y-82092110D01*
X97262285Y-82084011D01*
X99478689Y-82084011D01*
X96212961Y-85349739D01*
X96139819Y-85173159D01*
X95928841Y-84962181D01*
X95653184Y-84848000D01*
X95602528Y-84848000D01*
X87252527Y-76498000D01*
X93936001Y-76498000D01*
X93936000Y-77892857D01*
G04 #@! TD*
M02*
