M48
;DRILL file {KiCad (5.0.1)-4} date 22.04.2019 09:16:28
;FORMAT={-:-/ absolute / inch / decimal}
FMAT,2
INCH,TZ
T1C0.0118
T2C0.0157
T3C0.0236
T4C0.0256
T5C0.0433
T6C0.0630
T7C0.0709
%
G90
G05
M72
T1
X2.755Y-3.58
X2.805Y-3.675
X2.95Y-3.39
X2.95Y-3.6254
X3.345Y-3.645
X3.415Y-3.645
X3.51Y-3.23
X3.51Y-3.545
X3.51Y-3.6
X3.53Y-3.7
X3.545Y-3.6
X3.57Y-3.58
X3.57Y-3.7
X3.595Y-3.5604
X3.7043Y-3.09
X3.725Y-3.09
X3.7643Y-3.09
X3.785Y-3.09
X3.8243Y-3.09
X3.845Y-3.09
X3.875Y-3.595
X3.885Y-3.09
X3.925Y-3.19
X4.01Y-3.41
X4.01Y-3.46
X4.1Y-3.96
X4.1Y-3.995
X4.1Y-4.0157
X4.1Y-4.055
X4.1Y-4.0757
X4.1Y-4.115
X4.1Y-4.1357
X4.1Y-4.175
X4.1Y-4.1957
X4.12Y-3.3293
X4.12Y-3.35
X4.12Y-3.425
X4.12Y-3.45
X4.12Y-3.5243
X4.12Y-3.545
X4.12Y-3.6393
X4.12Y-3.66
X4.125Y-3.19
X4.23Y-2.985
X4.23Y-3.065
X4.23Y-3.145
X4.23Y-3.225
X4.23Y-3.305
X4.23Y-3.385
X4.31Y-2.945
X4.31Y-3.025
X4.31Y-3.105
X4.31Y-3.265
X4.31Y-3.345
T2
X2.56Y-3.32
X2.625Y-2.6
X2.68Y-3.63
X2.72Y-2.92
X2.805Y-3.345
X2.855Y-3.525
X2.87Y-3.3
X3.13Y-2.78
X3.21Y-3.66
X3.23Y-2.78
X3.255Y-3.31
X3.28Y-3.03
X3.295Y-3.355
X3.305Y-3.44
X3.35Y-2.205
X3.35Y-3.11
X3.365Y-3.495
X3.38Y-2.99
X3.4Y-3.16
X3.4Y-3.71
X3.54Y-3.05
X3.57Y-3.375
X3.685Y-3.44
X3.72Y-3.21
X3.73Y-3.62
X3.75Y-3.51
X3.76Y-3.37
X3.77Y-3.3
X3.825Y-3.435
X3.825Y-3.815
X3.87Y-3.63
X3.89Y-3.24
X3.89Y-3.82
X3.9Y-3.4
X3.925Y-4.165
X3.925Y-4.26
X3.955Y-3.675
X3.97Y-3.3
X3.97Y-3.535
X4.Y-3.82
X4.005Y-3.625
X4.13Y-3.495
X4.19Y-3.35
X4.31Y-3.46
X4.31Y-3.565
X4.31Y-3.655
T3
X2.8211Y-2.0361
X2.9805Y-2.0361
T4
X2.31Y-3.47
X2.36Y-3.47
X2.41Y-3.47
X2.46Y-3.47
X2.51Y-3.47
X2.56Y-3.47
T5
X2.7813Y-2.34
X2.86Y-2.34
X2.86Y-2.4384
X2.9387Y-2.34
X2.9387Y-2.4384
X3.0175Y-2.34
X3.0175Y-2.4384
X3.0962Y-2.34
X3.0962Y-2.4384
X3.175Y-2.34
X3.175Y-2.4384
X3.2537Y-2.34
X3.2537Y-2.4384
X3.3324Y-2.34
X3.3324Y-2.4384
X3.4112Y-2.34
X3.4112Y-2.4384
X3.4899Y-2.34
T6
X2.8984Y-2.5565
X3.3709Y-2.5565
T7
X2.7025Y-2.4202G85X2.7025Y-2.499
G05
X3.5687Y-2.4202G85X3.5687Y-2.499
G05
T0
M30
