G04 #@! TF.GenerationSoftware,KiCad,Pcbnew,(5.0.1)-4*
G04 #@! TF.CreationDate,2019-03-10T19:06:40+01:00*
G04 #@! TF.ProjectId,wiihdmi_wmi,77696968646D695F776D692E6B696361,rev?*
G04 #@! TF.SameCoordinates,Original*
G04 #@! TF.FileFunction,Soldermask,Top*
G04 #@! TF.FilePolarity,Negative*
%FSLAX46Y46*%
G04 Gerber Fmt 4.6, Leading zero omitted, Abs format (unit mm)*
G04 Created by KiCad (PCBNEW (5.0.1)-4) date 10.03.2019 19:06:40*
%MOMM*%
%LPD*%
G01*
G04 APERTURE LIST*
%ADD10C,0.100000*%
G04 APERTURE END LIST*
D10*
G36*
X58384677Y-166131465D02*
X58422364Y-166142898D01*
X58457103Y-166161466D01*
X58487548Y-166186452D01*
X58512534Y-166216897D01*
X58531102Y-166251636D01*
X58542535Y-166289323D01*
X58547000Y-166334661D01*
X58547000Y-167421339D01*
X58542535Y-167466677D01*
X58531102Y-167504364D01*
X58512534Y-167539103D01*
X58487548Y-167569548D01*
X58457103Y-167594534D01*
X58422364Y-167613102D01*
X58384677Y-167624535D01*
X58339339Y-167629000D01*
X57502661Y-167629000D01*
X57457323Y-167624535D01*
X57419636Y-167613102D01*
X57384897Y-167594534D01*
X57354452Y-167569548D01*
X57329466Y-167539103D01*
X57310898Y-167504364D01*
X57299465Y-167466677D01*
X57295000Y-167421339D01*
X57295000Y-166334661D01*
X57299465Y-166289323D01*
X57310898Y-166251636D01*
X57329466Y-166216897D01*
X57354452Y-166186452D01*
X57384897Y-166161466D01*
X57419636Y-166142898D01*
X57457323Y-166131465D01*
X57502661Y-166127000D01*
X58339339Y-166127000D01*
X58384677Y-166131465D01*
X58384677Y-166131465D01*
G37*
G36*
X56334677Y-166131465D02*
X56372364Y-166142898D01*
X56407103Y-166161466D01*
X56437548Y-166186452D01*
X56462534Y-166216897D01*
X56481102Y-166251636D01*
X56492535Y-166289323D01*
X56497000Y-166334661D01*
X56497000Y-167421339D01*
X56492535Y-167466677D01*
X56481102Y-167504364D01*
X56462534Y-167539103D01*
X56437548Y-167569548D01*
X56407103Y-167594534D01*
X56372364Y-167613102D01*
X56334677Y-167624535D01*
X56289339Y-167629000D01*
X55452661Y-167629000D01*
X55407323Y-167624535D01*
X55369636Y-167613102D01*
X55334897Y-167594534D01*
X55304452Y-167569548D01*
X55279466Y-167539103D01*
X55260898Y-167504364D01*
X55249465Y-167466677D01*
X55245000Y-167421339D01*
X55245000Y-166334661D01*
X55249465Y-166289323D01*
X55260898Y-166251636D01*
X55279466Y-166216897D01*
X55304452Y-166186452D01*
X55334897Y-166161466D01*
X55369636Y-166142898D01*
X55407323Y-166131465D01*
X55452661Y-166127000D01*
X56289339Y-166127000D01*
X56334677Y-166131465D01*
X56334677Y-166131465D01*
G37*
G36*
X64940000Y-167175000D02*
X63838000Y-167175000D01*
X63838000Y-166073000D01*
X64940000Y-166073000D01*
X64940000Y-167175000D01*
X64940000Y-167175000D01*
G37*
G36*
X68789677Y-165369465D02*
X68827364Y-165380898D01*
X68862103Y-165399466D01*
X68892548Y-165424452D01*
X68917534Y-165454897D01*
X68936102Y-165489636D01*
X68947535Y-165527323D01*
X68952000Y-165572661D01*
X68952000Y-166659339D01*
X68947535Y-166704677D01*
X68936102Y-166742364D01*
X68917534Y-166777103D01*
X68892548Y-166807548D01*
X68862103Y-166832534D01*
X68827364Y-166851102D01*
X68789677Y-166862535D01*
X68744339Y-166867000D01*
X67907661Y-166867000D01*
X67862323Y-166862535D01*
X67824636Y-166851102D01*
X67789897Y-166832534D01*
X67759452Y-166807548D01*
X67734466Y-166777103D01*
X67715898Y-166742364D01*
X67704465Y-166704677D01*
X67700000Y-166659339D01*
X67700000Y-165572661D01*
X67704465Y-165527323D01*
X67715898Y-165489636D01*
X67734466Y-165454897D01*
X67759452Y-165424452D01*
X67789897Y-165399466D01*
X67824636Y-165380898D01*
X67862323Y-165369465D01*
X67907661Y-165365000D01*
X68744339Y-165365000D01*
X68789677Y-165369465D01*
X68789677Y-165369465D01*
G37*
G36*
X66739677Y-165369465D02*
X66777364Y-165380898D01*
X66812103Y-165399466D01*
X66842548Y-165424452D01*
X66867534Y-165454897D01*
X66886102Y-165489636D01*
X66897535Y-165527323D01*
X66902000Y-165572661D01*
X66902000Y-166659339D01*
X66897535Y-166704677D01*
X66886102Y-166742364D01*
X66867534Y-166777103D01*
X66842548Y-166807548D01*
X66812103Y-166832534D01*
X66777364Y-166851102D01*
X66739677Y-166862535D01*
X66694339Y-166867000D01*
X65857661Y-166867000D01*
X65812323Y-166862535D01*
X65774636Y-166851102D01*
X65739897Y-166832534D01*
X65709452Y-166807548D01*
X65684466Y-166777103D01*
X65665898Y-166742364D01*
X65654465Y-166704677D01*
X65650000Y-166659339D01*
X65650000Y-165572661D01*
X65654465Y-165527323D01*
X65665898Y-165489636D01*
X65684466Y-165454897D01*
X65709452Y-165424452D01*
X65739897Y-165399466D01*
X65774636Y-165380898D01*
X65812323Y-165369465D01*
X65857661Y-165365000D01*
X66694339Y-165365000D01*
X66739677Y-165369465D01*
X66739677Y-165369465D01*
G37*
G36*
X62965677Y-165369465D02*
X63003364Y-165380898D01*
X63038103Y-165399466D01*
X63068548Y-165424452D01*
X63093534Y-165454897D01*
X63112102Y-165489636D01*
X63123535Y-165527323D01*
X63128000Y-165572661D01*
X63128000Y-166659339D01*
X63123535Y-166704677D01*
X63112102Y-166742364D01*
X63093534Y-166777103D01*
X63068548Y-166807548D01*
X63038103Y-166832534D01*
X63003364Y-166851102D01*
X62965677Y-166862535D01*
X62920339Y-166867000D01*
X62083661Y-166867000D01*
X62038323Y-166862535D01*
X62000636Y-166851102D01*
X61965897Y-166832534D01*
X61935452Y-166807548D01*
X61910466Y-166777103D01*
X61891898Y-166742364D01*
X61880465Y-166704677D01*
X61876000Y-166659339D01*
X61876000Y-165572661D01*
X61880465Y-165527323D01*
X61891898Y-165489636D01*
X61910466Y-165454897D01*
X61935452Y-165424452D01*
X61965897Y-165399466D01*
X62000636Y-165380898D01*
X62038323Y-165369465D01*
X62083661Y-165365000D01*
X62920339Y-165365000D01*
X62965677Y-165369465D01*
X62965677Y-165369465D01*
G37*
G36*
X60915677Y-165369465D02*
X60953364Y-165380898D01*
X60988103Y-165399466D01*
X61018548Y-165424452D01*
X61043534Y-165454897D01*
X61062102Y-165489636D01*
X61073535Y-165527323D01*
X61078000Y-165572661D01*
X61078000Y-166659339D01*
X61073535Y-166704677D01*
X61062102Y-166742364D01*
X61043534Y-166777103D01*
X61018548Y-166807548D01*
X60988103Y-166832534D01*
X60953364Y-166851102D01*
X60915677Y-166862535D01*
X60870339Y-166867000D01*
X60033661Y-166867000D01*
X59988323Y-166862535D01*
X59950636Y-166851102D01*
X59915897Y-166832534D01*
X59885452Y-166807548D01*
X59860466Y-166777103D01*
X59841898Y-166742364D01*
X59830465Y-166704677D01*
X59826000Y-166659339D01*
X59826000Y-165572661D01*
X59830465Y-165527323D01*
X59841898Y-165489636D01*
X59860466Y-165454897D01*
X59885452Y-165424452D01*
X59915897Y-165399466D01*
X59950636Y-165380898D01*
X59988323Y-165369465D01*
X60033661Y-165365000D01*
X60870339Y-165365000D01*
X60915677Y-165369465D01*
X60915677Y-165369465D01*
G37*
G36*
X58393677Y-163845465D02*
X58431364Y-163856898D01*
X58466103Y-163875466D01*
X58496548Y-163900452D01*
X58521534Y-163930897D01*
X58540102Y-163965636D01*
X58551535Y-164003323D01*
X58556000Y-164048661D01*
X58556000Y-165135339D01*
X58551535Y-165180677D01*
X58540102Y-165218364D01*
X58521534Y-165253103D01*
X58496548Y-165283548D01*
X58466103Y-165308534D01*
X58431364Y-165327102D01*
X58393677Y-165338535D01*
X58348339Y-165343000D01*
X57511661Y-165343000D01*
X57466323Y-165338535D01*
X57428636Y-165327102D01*
X57393897Y-165308534D01*
X57363452Y-165283548D01*
X57338466Y-165253103D01*
X57319898Y-165218364D01*
X57308465Y-165180677D01*
X57304000Y-165135339D01*
X57304000Y-164048661D01*
X57308465Y-164003323D01*
X57319898Y-163965636D01*
X57338466Y-163930897D01*
X57363452Y-163900452D01*
X57393897Y-163875466D01*
X57428636Y-163856898D01*
X57466323Y-163845465D01*
X57511661Y-163841000D01*
X58348339Y-163841000D01*
X58393677Y-163845465D01*
X58393677Y-163845465D01*
G37*
G36*
X56343677Y-163845465D02*
X56381364Y-163856898D01*
X56416103Y-163875466D01*
X56446548Y-163900452D01*
X56471534Y-163930897D01*
X56490102Y-163965636D01*
X56501535Y-164003323D01*
X56506000Y-164048661D01*
X56506000Y-165135339D01*
X56501535Y-165180677D01*
X56490102Y-165218364D01*
X56471534Y-165253103D01*
X56446548Y-165283548D01*
X56416103Y-165308534D01*
X56381364Y-165327102D01*
X56343677Y-165338535D01*
X56298339Y-165343000D01*
X55461661Y-165343000D01*
X55416323Y-165338535D01*
X55378636Y-165327102D01*
X55343897Y-165308534D01*
X55313452Y-165283548D01*
X55288466Y-165253103D01*
X55269898Y-165218364D01*
X55258465Y-165180677D01*
X55254000Y-165135339D01*
X55254000Y-164048661D01*
X55258465Y-164003323D01*
X55269898Y-163965636D01*
X55288466Y-163930897D01*
X55313452Y-163900452D01*
X55343897Y-163875466D01*
X55378636Y-163856898D01*
X55416323Y-163845465D01*
X55461661Y-163841000D01*
X56298339Y-163841000D01*
X56343677Y-163845465D01*
X56343677Y-163845465D01*
G37*
G36*
X57638874Y-155716694D02*
X57638879Y-155716700D01*
X59653002Y-157730823D01*
X59653008Y-157730828D01*
X62233173Y-160310993D01*
X62233178Y-160310999D01*
X64247301Y-162325122D01*
X64247307Y-162325127D01*
X65327393Y-163405213D01*
X64125551Y-164607055D01*
X63152473Y-163633977D01*
X63152467Y-163633972D01*
X60924328Y-161405833D01*
X60924323Y-161405827D01*
X58558174Y-159039678D01*
X58558168Y-159039673D01*
X56330029Y-156811534D01*
X56330024Y-156811528D01*
X55356945Y-155838449D01*
X56558787Y-154636607D01*
X57638874Y-155716694D01*
X57638874Y-155716694D01*
G37*
G36*
X76215055Y-155838449D02*
X73013826Y-159039678D01*
X72678629Y-159374874D01*
X70894485Y-161159018D01*
X70647677Y-161405827D01*
X68419527Y-163633977D01*
X68084330Y-163969173D01*
X67800271Y-164253232D01*
X67446449Y-164607055D01*
X66244607Y-163405213D01*
X67324689Y-162325131D01*
X67324700Y-162325122D01*
X67678522Y-161971299D01*
X69092014Y-160557807D01*
X69338823Y-160310999D01*
X69338832Y-160310988D01*
X71918988Y-157730832D01*
X71918999Y-157730823D01*
X72272821Y-157377000D01*
X73686313Y-155963508D01*
X73933122Y-155716700D01*
X73933131Y-155716689D01*
X75013213Y-154636607D01*
X76215055Y-155838449D01*
X76215055Y-155838449D01*
G37*
G36*
X70637242Y-162615820D02*
X70674929Y-162627253D01*
X70709668Y-162645821D01*
X70744884Y-162674722D01*
X71513278Y-163443116D01*
X71542179Y-163478332D01*
X71560747Y-163513071D01*
X71572180Y-163550758D01*
X71576040Y-163589956D01*
X71572180Y-163629154D01*
X71560747Y-163666841D01*
X71542179Y-163701580D01*
X71513278Y-163736796D01*
X70921660Y-164328414D01*
X70886444Y-164357315D01*
X70851705Y-164375883D01*
X70814018Y-164387316D01*
X70774820Y-164391176D01*
X70735622Y-164387316D01*
X70697935Y-164375883D01*
X70663196Y-164357315D01*
X70627980Y-164328414D01*
X69859586Y-163560020D01*
X69830685Y-163524804D01*
X69812117Y-163490065D01*
X69800684Y-163452378D01*
X69796824Y-163413180D01*
X69800684Y-163373982D01*
X69812117Y-163336295D01*
X69830685Y-163301556D01*
X69859586Y-163266340D01*
X70451204Y-162674722D01*
X70486420Y-162645821D01*
X70521159Y-162627253D01*
X70558846Y-162615820D01*
X70598044Y-162611960D01*
X70637242Y-162615820D01*
X70637242Y-162615820D01*
G37*
G36*
X72086810Y-161166252D02*
X72124497Y-161177685D01*
X72159236Y-161196253D01*
X72194452Y-161225154D01*
X72962846Y-161993548D01*
X72991747Y-162028764D01*
X73010315Y-162063503D01*
X73021748Y-162101190D01*
X73025608Y-162140388D01*
X73021748Y-162179586D01*
X73010315Y-162217273D01*
X72991747Y-162252012D01*
X72962846Y-162287228D01*
X72371228Y-162878846D01*
X72336012Y-162907747D01*
X72301273Y-162926315D01*
X72263586Y-162937748D01*
X72224388Y-162941608D01*
X72185190Y-162937748D01*
X72147503Y-162926315D01*
X72112764Y-162907747D01*
X72077548Y-162878846D01*
X71309154Y-162110452D01*
X71280253Y-162075236D01*
X71261685Y-162040497D01*
X71250252Y-162002810D01*
X71246392Y-161963612D01*
X71250252Y-161924414D01*
X71261685Y-161886727D01*
X71280253Y-161851988D01*
X71309154Y-161816772D01*
X71900772Y-161225154D01*
X71935988Y-161196253D01*
X71970727Y-161177685D01*
X72008414Y-161166252D01*
X72047612Y-161162392D01*
X72086810Y-161166252D01*
X72086810Y-161166252D01*
G37*
G36*
X57240370Y-158589036D02*
X57278057Y-158600469D01*
X57312796Y-158619037D01*
X57348012Y-158647938D01*
X57939630Y-159239556D01*
X57968531Y-159274772D01*
X57987099Y-159309511D01*
X57998532Y-159347198D01*
X58002392Y-159386396D01*
X57998532Y-159425594D01*
X57987099Y-159463281D01*
X57968531Y-159498020D01*
X57939630Y-159533236D01*
X57171236Y-160301630D01*
X57136020Y-160330531D01*
X57101281Y-160349099D01*
X57063594Y-160360532D01*
X57024396Y-160364392D01*
X56985198Y-160360532D01*
X56947511Y-160349099D01*
X56912772Y-160330531D01*
X56877556Y-160301630D01*
X56285938Y-159710012D01*
X56257037Y-159674796D01*
X56238469Y-159640057D01*
X56227036Y-159602370D01*
X56223176Y-159563172D01*
X56227036Y-159523974D01*
X56238469Y-159486287D01*
X56257037Y-159451548D01*
X56285938Y-159416332D01*
X57054332Y-158647938D01*
X57089548Y-158619037D01*
X57124287Y-158600469D01*
X57161974Y-158589036D01*
X57201172Y-158585176D01*
X57240370Y-158589036D01*
X57240370Y-158589036D01*
G37*
G36*
X79799000Y-160313000D02*
X77397000Y-160313000D01*
X77397000Y-158711000D01*
X79799000Y-158711000D01*
X79799000Y-160313000D01*
X79799000Y-160313000D01*
G37*
G36*
X55790802Y-157139468D02*
X55828489Y-157150901D01*
X55863228Y-157169469D01*
X55898444Y-157198370D01*
X56490062Y-157789988D01*
X56518963Y-157825204D01*
X56537531Y-157859943D01*
X56548964Y-157897630D01*
X56552824Y-157936828D01*
X56548964Y-157976026D01*
X56537531Y-158013713D01*
X56518963Y-158048452D01*
X56490062Y-158083668D01*
X55721668Y-158852062D01*
X55686452Y-158880963D01*
X55651713Y-158899531D01*
X55614026Y-158910964D01*
X55574828Y-158914824D01*
X55535630Y-158910964D01*
X55497943Y-158899531D01*
X55463204Y-158880963D01*
X55427988Y-158852062D01*
X54836370Y-158260444D01*
X54807469Y-158225228D01*
X54788901Y-158190489D01*
X54777468Y-158152802D01*
X54773608Y-158113604D01*
X54777468Y-158074406D01*
X54788901Y-158036719D01*
X54807469Y-158001980D01*
X54836370Y-157966764D01*
X55604764Y-157198370D01*
X55639980Y-157169469D01*
X55674719Y-157150901D01*
X55712406Y-157139468D01*
X55751604Y-157135608D01*
X55790802Y-157139468D01*
X55790802Y-157139468D01*
G37*
G36*
X79711677Y-156733465D02*
X79749364Y-156744898D01*
X79784103Y-156763466D01*
X79814548Y-156788452D01*
X79839534Y-156818897D01*
X79858102Y-156853636D01*
X79869535Y-156891323D01*
X79874000Y-156936661D01*
X79874000Y-158023339D01*
X79869535Y-158068677D01*
X79858102Y-158106364D01*
X79839534Y-158141103D01*
X79814548Y-158171548D01*
X79784103Y-158196534D01*
X79749364Y-158215102D01*
X79711677Y-158226535D01*
X79666339Y-158231000D01*
X78829661Y-158231000D01*
X78784323Y-158226535D01*
X78746636Y-158215102D01*
X78711897Y-158196534D01*
X78681452Y-158171548D01*
X78656466Y-158141103D01*
X78637898Y-158106364D01*
X78626465Y-158068677D01*
X78622000Y-158023339D01*
X78622000Y-156936661D01*
X78626465Y-156891323D01*
X78637898Y-156853636D01*
X78656466Y-156818897D01*
X78681452Y-156788452D01*
X78711897Y-156763466D01*
X78746636Y-156744898D01*
X78784323Y-156733465D01*
X78829661Y-156729000D01*
X79666339Y-156729000D01*
X79711677Y-156733465D01*
X79711677Y-156733465D01*
G37*
G36*
X77661677Y-156733465D02*
X77699364Y-156744898D01*
X77734103Y-156763466D01*
X77764548Y-156788452D01*
X77789534Y-156818897D01*
X77808102Y-156853636D01*
X77819535Y-156891323D01*
X77824000Y-156936661D01*
X77824000Y-158023339D01*
X77819535Y-158068677D01*
X77808102Y-158106364D01*
X77789534Y-158141103D01*
X77764548Y-158171548D01*
X77734103Y-158196534D01*
X77699364Y-158215102D01*
X77661677Y-158226535D01*
X77616339Y-158231000D01*
X76779661Y-158231000D01*
X76734323Y-158226535D01*
X76696636Y-158215102D01*
X76661897Y-158196534D01*
X76631452Y-158171548D01*
X76606466Y-158141103D01*
X76587898Y-158106364D01*
X76576465Y-158068677D01*
X76572000Y-158023339D01*
X76572000Y-156936661D01*
X76576465Y-156891323D01*
X76587898Y-156853636D01*
X76606466Y-156818897D01*
X76631452Y-156788452D01*
X76661897Y-156763466D01*
X76696636Y-156744898D01*
X76734323Y-156733465D01*
X76779661Y-156729000D01*
X77616339Y-156729000D01*
X77661677Y-156733465D01*
X77661677Y-156733465D01*
G37*
G36*
X68419528Y-144722024D02*
X68419534Y-144722029D01*
X70647673Y-146950168D01*
X70647678Y-146950174D01*
X73013827Y-149316323D01*
X73013833Y-149316328D01*
X75241972Y-151544467D01*
X75241977Y-151544473D01*
X76215055Y-152517551D01*
X75013213Y-153719393D01*
X73933127Y-152639307D01*
X73933122Y-152639301D01*
X71918999Y-150625178D01*
X71918993Y-150625173D01*
X69338828Y-148045008D01*
X69338823Y-148045002D01*
X67324700Y-146030879D01*
X67324694Y-146030874D01*
X66244607Y-144950787D01*
X67446449Y-143748945D01*
X68419528Y-144722024D01*
X68419528Y-144722024D01*
G37*
G36*
X65327393Y-144950787D02*
X64247301Y-146030879D01*
X63893478Y-146384701D01*
X62479986Y-147798193D01*
X62233178Y-148045002D01*
X59653002Y-150625178D01*
X59299179Y-150979000D01*
X57885687Y-152392492D01*
X57638879Y-152639301D01*
X56558787Y-153719393D01*
X55356945Y-152517551D01*
X56083215Y-151791281D01*
X56330024Y-151544473D01*
X56330033Y-151544462D01*
X58558163Y-149316332D01*
X58558174Y-149316323D01*
X58911996Y-148962500D01*
X60677514Y-147196982D01*
X60924323Y-146950174D01*
X60924332Y-146950163D01*
X63152462Y-144722033D01*
X63152473Y-144722024D01*
X63506295Y-144368201D01*
X64125551Y-143748945D01*
X65327393Y-144950787D01*
X65327393Y-144950787D01*
G37*
G36*
X56468677Y-147977465D02*
X56506364Y-147988898D01*
X56541103Y-148007466D01*
X56571548Y-148032452D01*
X56596534Y-148062897D01*
X56615102Y-148097636D01*
X56626535Y-148135323D01*
X56631000Y-148180661D01*
X56631000Y-149017339D01*
X56626535Y-149062677D01*
X56615102Y-149100364D01*
X56596534Y-149135103D01*
X56571548Y-149165548D01*
X56541103Y-149190534D01*
X56506364Y-149209102D01*
X56468677Y-149220535D01*
X56423339Y-149225000D01*
X55336661Y-149225000D01*
X55291323Y-149220535D01*
X55253636Y-149209102D01*
X55218897Y-149190534D01*
X55188452Y-149165548D01*
X55163466Y-149135103D01*
X55144898Y-149100364D01*
X55133465Y-149062677D01*
X55129000Y-149017339D01*
X55129000Y-148180661D01*
X55133465Y-148135323D01*
X55144898Y-148097636D01*
X55163466Y-148062897D01*
X55188452Y-148032452D01*
X55218897Y-148007466D01*
X55253636Y-147988898D01*
X55291323Y-147977465D01*
X55336661Y-147973000D01*
X56423339Y-147973000D01*
X56468677Y-147977465D01*
X56468677Y-147977465D01*
G37*
G36*
X58699242Y-146105820D02*
X58736929Y-146117253D01*
X58771668Y-146135821D01*
X58806884Y-146164722D01*
X59575278Y-146933116D01*
X59604179Y-146968332D01*
X59622747Y-147003071D01*
X59634180Y-147040758D01*
X59638040Y-147079956D01*
X59634180Y-147119154D01*
X59622747Y-147156841D01*
X59604179Y-147191580D01*
X59575278Y-147226796D01*
X58983660Y-147818414D01*
X58948444Y-147847315D01*
X58913705Y-147865883D01*
X58876018Y-147877316D01*
X58836820Y-147881176D01*
X58797622Y-147877316D01*
X58759935Y-147865883D01*
X58725196Y-147847315D01*
X58689980Y-147818414D01*
X57921586Y-147050020D01*
X57892685Y-147014804D01*
X57874117Y-146980065D01*
X57862684Y-146942378D01*
X57858824Y-146903180D01*
X57862684Y-146863982D01*
X57874117Y-146826295D01*
X57892685Y-146791556D01*
X57921586Y-146756340D01*
X58513204Y-146164722D01*
X58548420Y-146135821D01*
X58583159Y-146117253D01*
X58620846Y-146105820D01*
X58660044Y-146101960D01*
X58699242Y-146105820D01*
X58699242Y-146105820D01*
G37*
G36*
X56468677Y-145927465D02*
X56506364Y-145938898D01*
X56541103Y-145957466D01*
X56571548Y-145982452D01*
X56596534Y-146012897D01*
X56615102Y-146047636D01*
X56626535Y-146085323D01*
X56631000Y-146130661D01*
X56631000Y-146967339D01*
X56626535Y-147012677D01*
X56615102Y-147050364D01*
X56596534Y-147085103D01*
X56571548Y-147115548D01*
X56541103Y-147140534D01*
X56506364Y-147159102D01*
X56468677Y-147170535D01*
X56423339Y-147175000D01*
X55336661Y-147175000D01*
X55291323Y-147170535D01*
X55253636Y-147159102D01*
X55218897Y-147140534D01*
X55188452Y-147115548D01*
X55163466Y-147085103D01*
X55144898Y-147050364D01*
X55133465Y-147012677D01*
X55129000Y-146967339D01*
X55129000Y-146130661D01*
X55133465Y-146085323D01*
X55144898Y-146047636D01*
X55163466Y-146012897D01*
X55188452Y-145982452D01*
X55218897Y-145957466D01*
X55253636Y-145938898D01*
X55291323Y-145927465D01*
X55336661Y-145923000D01*
X56423339Y-145923000D01*
X56468677Y-145927465D01*
X56468677Y-145927465D01*
G37*
G36*
X60148810Y-144656252D02*
X60186497Y-144667685D01*
X60221236Y-144686253D01*
X60256452Y-144715154D01*
X61024846Y-145483548D01*
X61053747Y-145518764D01*
X61072315Y-145553503D01*
X61083748Y-145591190D01*
X61087608Y-145630388D01*
X61083748Y-145669586D01*
X61072315Y-145707273D01*
X61053747Y-145742012D01*
X61024846Y-145777228D01*
X60433228Y-146368846D01*
X60398012Y-146397747D01*
X60363273Y-146416315D01*
X60325586Y-146427748D01*
X60286388Y-146431608D01*
X60247190Y-146427748D01*
X60209503Y-146416315D01*
X60174764Y-146397747D01*
X60139548Y-146368846D01*
X59371154Y-145600452D01*
X59342253Y-145565236D01*
X59323685Y-145530497D01*
X59312252Y-145492810D01*
X59308392Y-145453612D01*
X59312252Y-145414414D01*
X59323685Y-145376727D01*
X59342253Y-145341988D01*
X59371154Y-145306772D01*
X59962772Y-144715154D01*
X59997988Y-144686253D01*
X60032727Y-144667685D01*
X60070414Y-144656252D01*
X60109612Y-144652392D01*
X60148810Y-144656252D01*
X60148810Y-144656252D01*
G37*
G36*
X56177000Y-138727000D02*
X55948738Y-138727000D01*
X55924352Y-138729402D01*
X55900903Y-138736515D01*
X55879292Y-138748066D01*
X55860350Y-138763612D01*
X55844804Y-138782554D01*
X55833253Y-138804165D01*
X55826140Y-138827614D01*
X55823738Y-138852000D01*
X55826140Y-138876386D01*
X55833253Y-138899835D01*
X55844804Y-138921446D01*
X55860350Y-138940388D01*
X55889808Y-138962236D01*
X55933600Y-138985644D01*
X56017501Y-139054499D01*
X56086356Y-139138400D01*
X56137521Y-139234121D01*
X56169027Y-139337985D01*
X56179666Y-139446000D01*
X56169027Y-139554015D01*
X56137521Y-139657879D01*
X56086356Y-139753600D01*
X56017501Y-139837501D01*
X55933600Y-139906356D01*
X55837879Y-139957521D01*
X55825142Y-139961385D01*
X55802507Y-139970760D01*
X55782133Y-139984374D01*
X55764806Y-140001701D01*
X55751192Y-140022076D01*
X55741814Y-140044715D01*
X55737034Y-140068748D01*
X55737034Y-140093252D01*
X55741815Y-140117286D01*
X55751192Y-140139925D01*
X55764806Y-140160299D01*
X55782133Y-140177626D01*
X55802508Y-140191240D01*
X55825142Y-140200615D01*
X55837879Y-140204479D01*
X55933600Y-140255644D01*
X56017501Y-140324499D01*
X56086356Y-140408400D01*
X56137521Y-140504121D01*
X56169027Y-140607985D01*
X56179666Y-140716000D01*
X56169027Y-140824015D01*
X56137521Y-140927879D01*
X56086356Y-141023600D01*
X56017501Y-141107501D01*
X55933600Y-141176356D01*
X55837879Y-141227521D01*
X55825142Y-141231385D01*
X55802507Y-141240760D01*
X55782133Y-141254374D01*
X55764806Y-141271701D01*
X55751192Y-141292076D01*
X55741814Y-141314715D01*
X55737034Y-141338748D01*
X55737034Y-141363252D01*
X55741815Y-141387286D01*
X55751192Y-141409925D01*
X55764806Y-141430299D01*
X55782133Y-141447626D01*
X55802508Y-141461240D01*
X55825142Y-141470615D01*
X55837879Y-141474479D01*
X55933600Y-141525644D01*
X56017501Y-141594499D01*
X56086356Y-141678400D01*
X56137521Y-141774121D01*
X56169027Y-141877985D01*
X56179666Y-141986000D01*
X56169027Y-142094015D01*
X56137521Y-142197879D01*
X56086356Y-142293600D01*
X56017501Y-142377501D01*
X55933600Y-142446356D01*
X55837879Y-142497521D01*
X55825142Y-142501385D01*
X55802507Y-142510760D01*
X55782133Y-142524374D01*
X55764806Y-142541701D01*
X55751192Y-142562076D01*
X55741814Y-142584715D01*
X55737034Y-142608748D01*
X55737034Y-142633252D01*
X55741815Y-142657286D01*
X55751192Y-142679925D01*
X55764806Y-142700299D01*
X55782133Y-142717626D01*
X55802508Y-142731240D01*
X55825142Y-142740615D01*
X55837879Y-142744479D01*
X55933600Y-142795644D01*
X56017501Y-142864499D01*
X56086356Y-142948400D01*
X56137521Y-143044121D01*
X56169027Y-143147985D01*
X56179666Y-143256000D01*
X56169027Y-143364015D01*
X56137521Y-143467879D01*
X56086356Y-143563600D01*
X56017501Y-143647501D01*
X55933600Y-143716356D01*
X55837879Y-143767521D01*
X55825142Y-143771385D01*
X55802507Y-143780760D01*
X55782133Y-143794374D01*
X55764806Y-143811701D01*
X55751192Y-143832076D01*
X55741814Y-143854715D01*
X55737034Y-143878748D01*
X55737034Y-143903252D01*
X55741815Y-143927286D01*
X55751192Y-143949925D01*
X55764806Y-143970299D01*
X55782133Y-143987626D01*
X55802508Y-144001240D01*
X55825142Y-144010615D01*
X55837879Y-144014479D01*
X55933600Y-144065644D01*
X56017501Y-144134499D01*
X56086356Y-144218400D01*
X56137521Y-144314121D01*
X56169027Y-144417985D01*
X56179666Y-144526000D01*
X56169027Y-144634015D01*
X56137521Y-144737879D01*
X56086356Y-144833600D01*
X56017501Y-144917501D01*
X55933600Y-144986356D01*
X55837879Y-145037521D01*
X55734015Y-145069027D01*
X55653067Y-145077000D01*
X55598933Y-145077000D01*
X55517985Y-145069027D01*
X55414121Y-145037521D01*
X55318400Y-144986356D01*
X55234499Y-144917501D01*
X55165644Y-144833600D01*
X55114479Y-144737879D01*
X55082973Y-144634015D01*
X55072334Y-144526000D01*
X55082973Y-144417985D01*
X55114479Y-144314121D01*
X55165644Y-144218400D01*
X55234499Y-144134499D01*
X55318400Y-144065644D01*
X55414121Y-144014479D01*
X55426858Y-144010615D01*
X55449493Y-144001240D01*
X55469867Y-143987626D01*
X55487194Y-143970299D01*
X55500808Y-143949924D01*
X55510186Y-143927285D01*
X55514966Y-143903252D01*
X55514966Y-143878748D01*
X55510185Y-143854714D01*
X55500808Y-143832075D01*
X55487194Y-143811701D01*
X55469867Y-143794374D01*
X55449492Y-143780760D01*
X55426858Y-143771385D01*
X55414121Y-143767521D01*
X55318400Y-143716356D01*
X55234499Y-143647501D01*
X55165644Y-143563600D01*
X55114479Y-143467879D01*
X55082973Y-143364015D01*
X55072334Y-143256000D01*
X55082973Y-143147985D01*
X55114479Y-143044121D01*
X55165644Y-142948400D01*
X55234499Y-142864499D01*
X55318400Y-142795644D01*
X55414121Y-142744479D01*
X55426858Y-142740615D01*
X55449493Y-142731240D01*
X55469867Y-142717626D01*
X55487194Y-142700299D01*
X55500808Y-142679924D01*
X55510186Y-142657285D01*
X55514966Y-142633252D01*
X55514966Y-142608748D01*
X55510185Y-142584714D01*
X55500808Y-142562075D01*
X55487194Y-142541701D01*
X55469867Y-142524374D01*
X55449492Y-142510760D01*
X55426858Y-142501385D01*
X55414121Y-142497521D01*
X55318400Y-142446356D01*
X55234499Y-142377501D01*
X55165644Y-142293600D01*
X55114479Y-142197879D01*
X55082973Y-142094015D01*
X55072334Y-141986000D01*
X55082973Y-141877985D01*
X55114479Y-141774121D01*
X55165644Y-141678400D01*
X55234499Y-141594499D01*
X55318400Y-141525644D01*
X55414121Y-141474479D01*
X55426858Y-141470615D01*
X55449493Y-141461240D01*
X55469867Y-141447626D01*
X55487194Y-141430299D01*
X55500808Y-141409924D01*
X55510186Y-141387285D01*
X55514966Y-141363252D01*
X55514966Y-141338748D01*
X55510185Y-141314714D01*
X55500808Y-141292075D01*
X55487194Y-141271701D01*
X55469867Y-141254374D01*
X55449492Y-141240760D01*
X55426858Y-141231385D01*
X55414121Y-141227521D01*
X55318400Y-141176356D01*
X55234499Y-141107501D01*
X55165644Y-141023600D01*
X55114479Y-140927879D01*
X55082973Y-140824015D01*
X55072334Y-140716000D01*
X55082973Y-140607985D01*
X55114479Y-140504121D01*
X55165644Y-140408400D01*
X55234499Y-140324499D01*
X55318400Y-140255644D01*
X55414121Y-140204479D01*
X55426858Y-140200615D01*
X55449493Y-140191240D01*
X55469867Y-140177626D01*
X55487194Y-140160299D01*
X55500808Y-140139924D01*
X55510186Y-140117285D01*
X55514966Y-140093252D01*
X55514966Y-140068748D01*
X55510185Y-140044714D01*
X55500808Y-140022075D01*
X55487194Y-140001701D01*
X55469867Y-139984374D01*
X55449492Y-139970760D01*
X55426858Y-139961385D01*
X55414121Y-139957521D01*
X55318400Y-139906356D01*
X55234499Y-139837501D01*
X55165644Y-139753600D01*
X55114479Y-139657879D01*
X55082973Y-139554015D01*
X55072334Y-139446000D01*
X55082973Y-139337985D01*
X55114479Y-139234121D01*
X55165644Y-139138400D01*
X55234499Y-139054499D01*
X55318400Y-138985644D01*
X55362195Y-138962234D01*
X55382561Y-138948626D01*
X55399889Y-138931299D01*
X55413502Y-138910924D01*
X55422880Y-138888285D01*
X55427660Y-138864252D01*
X55427660Y-138839748D01*
X55422879Y-138815714D01*
X55413502Y-138793075D01*
X55399888Y-138772701D01*
X55382561Y-138755373D01*
X55362186Y-138741760D01*
X55339547Y-138732382D01*
X55303262Y-138727000D01*
X55075000Y-138727000D01*
X55075000Y-137625000D01*
X56177000Y-137625000D01*
X56177000Y-138727000D01*
X56177000Y-138727000D01*
G37*
G36*
X59434000Y-142083000D02*
X57782000Y-142083000D01*
X57782000Y-141381000D01*
X59434000Y-141381000D01*
X59434000Y-142083000D01*
X59434000Y-142083000D01*
G37*
G36*
X64834000Y-142083000D02*
X63182000Y-142083000D01*
X63182000Y-141381000D01*
X64834000Y-141381000D01*
X64834000Y-142083000D01*
X64834000Y-142083000D01*
G37*
G36*
X64834000Y-140813000D02*
X63182000Y-140813000D01*
X63182000Y-140111000D01*
X64834000Y-140111000D01*
X64834000Y-140813000D01*
X64834000Y-140813000D01*
G37*
G36*
X59434000Y-140813000D02*
X57782000Y-140813000D01*
X57782000Y-140111000D01*
X59434000Y-140111000D01*
X59434000Y-140813000D01*
X59434000Y-140813000D01*
G37*
G36*
X59434000Y-139543000D02*
X57782000Y-139543000D01*
X57782000Y-138841000D01*
X59434000Y-138841000D01*
X59434000Y-139543000D01*
X59434000Y-139543000D01*
G37*
G36*
X64834000Y-139543000D02*
X63182000Y-139543000D01*
X63182000Y-138841000D01*
X64834000Y-138841000D01*
X64834000Y-139543000D01*
X64834000Y-139543000D01*
G37*
G36*
X71084677Y-137175465D02*
X71122364Y-137186898D01*
X71157103Y-137205466D01*
X71187548Y-137230452D01*
X71212534Y-137260897D01*
X71231102Y-137295636D01*
X71242535Y-137333323D01*
X71247000Y-137378661D01*
X71247000Y-138465339D01*
X71242535Y-138510677D01*
X71231102Y-138548364D01*
X71212534Y-138583103D01*
X71187548Y-138613548D01*
X71157103Y-138638534D01*
X71122364Y-138657102D01*
X71084677Y-138668535D01*
X71039339Y-138673000D01*
X70202661Y-138673000D01*
X70157323Y-138668535D01*
X70119636Y-138657102D01*
X70084897Y-138638534D01*
X70054452Y-138613548D01*
X70029466Y-138583103D01*
X70010898Y-138548364D01*
X69999465Y-138510677D01*
X69995000Y-138465339D01*
X69995000Y-137378661D01*
X69999465Y-137333323D01*
X70010898Y-137295636D01*
X70029466Y-137260897D01*
X70054452Y-137230452D01*
X70084897Y-137205466D01*
X70119636Y-137186898D01*
X70157323Y-137175465D01*
X70202661Y-137171000D01*
X71039339Y-137171000D01*
X71084677Y-137175465D01*
X71084677Y-137175465D01*
G37*
G36*
X69034677Y-137175465D02*
X69072364Y-137186898D01*
X69107103Y-137205466D01*
X69137548Y-137230452D01*
X69162534Y-137260897D01*
X69181102Y-137295636D01*
X69192535Y-137333323D01*
X69197000Y-137378661D01*
X69197000Y-138465339D01*
X69192535Y-138510677D01*
X69181102Y-138548364D01*
X69162534Y-138583103D01*
X69137548Y-138613548D01*
X69107103Y-138638534D01*
X69072364Y-138657102D01*
X69034677Y-138668535D01*
X68989339Y-138673000D01*
X68152661Y-138673000D01*
X68107323Y-138668535D01*
X68069636Y-138657102D01*
X68034897Y-138638534D01*
X68004452Y-138613548D01*
X67979466Y-138583103D01*
X67960898Y-138548364D01*
X67949465Y-138510677D01*
X67945000Y-138465339D01*
X67945000Y-137378661D01*
X67949465Y-137333323D01*
X67960898Y-137295636D01*
X67979466Y-137260897D01*
X68004452Y-137230452D01*
X68034897Y-137205466D01*
X68069636Y-137186898D01*
X68107323Y-137175465D01*
X68152661Y-137171000D01*
X68989339Y-137171000D01*
X69034677Y-137175465D01*
X69034677Y-137175465D01*
G37*
G36*
X79706810Y-136782252D02*
X79744497Y-136793685D01*
X79779236Y-136812253D01*
X79814452Y-136841154D01*
X80582846Y-137609548D01*
X80611747Y-137644764D01*
X80630315Y-137679503D01*
X80641748Y-137717190D01*
X80645608Y-137756388D01*
X80641748Y-137795586D01*
X80630315Y-137833273D01*
X80611747Y-137868012D01*
X80582846Y-137903228D01*
X79991228Y-138494846D01*
X79956012Y-138523747D01*
X79921273Y-138542315D01*
X79883586Y-138553748D01*
X79844388Y-138557608D01*
X79805190Y-138553748D01*
X79767503Y-138542315D01*
X79732764Y-138523747D01*
X79697548Y-138494846D01*
X78929154Y-137726452D01*
X78900253Y-137691236D01*
X78881685Y-137656497D01*
X78870252Y-137618810D01*
X78866392Y-137579612D01*
X78870252Y-137540414D01*
X78881685Y-137502727D01*
X78900253Y-137467988D01*
X78929154Y-137432772D01*
X79520772Y-136841154D01*
X79555988Y-136812253D01*
X79590727Y-136793685D01*
X79628414Y-136782252D01*
X79667612Y-136778392D01*
X79706810Y-136782252D01*
X79706810Y-136782252D01*
G37*
G36*
X64834000Y-138273000D02*
X63182000Y-138273000D01*
X63182000Y-137571000D01*
X64834000Y-137571000D01*
X64834000Y-138273000D01*
X64834000Y-138273000D01*
G37*
G36*
X59434000Y-138273000D02*
X57782000Y-138273000D01*
X57782000Y-137571000D01*
X59434000Y-137571000D01*
X59434000Y-138273000D01*
X59434000Y-138273000D01*
G37*
G36*
X81156378Y-135332684D02*
X81194065Y-135344117D01*
X81228804Y-135362685D01*
X81264020Y-135391586D01*
X82032414Y-136159980D01*
X82061315Y-136195196D01*
X82079883Y-136229935D01*
X82091316Y-136267622D01*
X82095176Y-136306820D01*
X82091316Y-136346018D01*
X82079883Y-136383705D01*
X82061315Y-136418444D01*
X82032414Y-136453660D01*
X81440796Y-137045278D01*
X81405580Y-137074179D01*
X81370841Y-137092747D01*
X81333154Y-137104180D01*
X81293956Y-137108040D01*
X81254758Y-137104180D01*
X81217071Y-137092747D01*
X81182332Y-137074179D01*
X81147116Y-137045278D01*
X80378722Y-136276884D01*
X80349821Y-136241668D01*
X80331253Y-136206929D01*
X80319820Y-136169242D01*
X80315960Y-136130044D01*
X80319820Y-136090846D01*
X80331253Y-136053159D01*
X80349821Y-136018420D01*
X80378722Y-135983204D01*
X80970340Y-135391586D01*
X81005556Y-135362685D01*
X81040295Y-135344117D01*
X81077982Y-135332684D01*
X81117180Y-135328824D01*
X81156378Y-135332684D01*
X81156378Y-135332684D01*
G37*
G36*
X105675000Y-136145000D02*
X103373000Y-136145000D01*
X103373000Y-134243000D01*
X105675000Y-134243000D01*
X105675000Y-136145000D01*
X105675000Y-136145000D01*
G37*
G36*
X101975000Y-133495000D02*
X100573000Y-133495000D01*
X100573000Y-126093000D01*
X101975000Y-126093000D01*
X101975000Y-133495000D01*
X101975000Y-133495000D01*
G37*
G36*
X105675000Y-125345000D02*
X103373000Y-125345000D01*
X103373000Y-123443000D01*
X105675000Y-123443000D01*
X105675000Y-125345000D01*
X105675000Y-125345000D01*
G37*
G36*
X106088000Y-107231000D02*
X104986000Y-107231000D01*
X104986000Y-106129000D01*
X106088000Y-106129000D01*
X106088000Y-107231000D01*
X106088000Y-107231000D01*
G37*
G36*
X102913000Y-103167000D02*
X101811000Y-103167000D01*
X101811000Y-102065000D01*
X102913000Y-102065000D01*
X102913000Y-103167000D01*
X102913000Y-103167000D01*
G37*
G36*
X100881000Y-103167000D02*
X99779000Y-103167000D01*
X99779000Y-102065000D01*
X100881000Y-102065000D01*
X100881000Y-103167000D01*
X100881000Y-103167000D01*
G37*
G36*
X98849000Y-103167000D02*
X97747000Y-103167000D01*
X97747000Y-102065000D01*
X98849000Y-102065000D01*
X98849000Y-103167000D01*
X98849000Y-103167000D01*
G37*
G36*
X94785000Y-103167000D02*
X93683000Y-103167000D01*
X93683000Y-102065000D01*
X94785000Y-102065000D01*
X94785000Y-103167000D01*
X94785000Y-103167000D01*
G37*
G36*
X96817000Y-103167000D02*
X95715000Y-103167000D01*
X95715000Y-102065000D01*
X96817000Y-102065000D01*
X96817000Y-103167000D01*
X96817000Y-103167000D01*
G37*
G36*
X104945000Y-103167000D02*
X103843000Y-103167000D01*
X103843000Y-102065000D01*
X104945000Y-102065000D01*
X104945000Y-103167000D01*
X104945000Y-103167000D01*
G37*
G36*
X101897000Y-101135000D02*
X100795000Y-101135000D01*
X100795000Y-100033000D01*
X101897000Y-100033000D01*
X101897000Y-101135000D01*
X101897000Y-101135000D01*
G37*
G36*
X95801000Y-101135000D02*
X94699000Y-101135000D01*
X94699000Y-100033000D01*
X95801000Y-100033000D01*
X95801000Y-101135000D01*
X95801000Y-101135000D01*
G37*
G36*
X105961000Y-101135000D02*
X104859000Y-101135000D01*
X104859000Y-100033000D01*
X105961000Y-100033000D01*
X105961000Y-101135000D01*
X105961000Y-101135000D01*
G37*
G36*
X103929000Y-101135000D02*
X102827000Y-101135000D01*
X102827000Y-100033000D01*
X103929000Y-100033000D01*
X103929000Y-101135000D01*
X103929000Y-101135000D01*
G37*
G36*
X99865000Y-101135000D02*
X98763000Y-101135000D01*
X98763000Y-100033000D01*
X99865000Y-100033000D01*
X99865000Y-101135000D01*
X99865000Y-101135000D01*
G37*
G36*
X97833000Y-101135000D02*
X96731000Y-101135000D01*
X96731000Y-100033000D01*
X97833000Y-100033000D01*
X97833000Y-101135000D01*
X97833000Y-101135000D01*
G37*
G36*
X70339000Y-100258000D02*
X67837000Y-100258000D01*
X67837000Y-98706000D01*
X70339000Y-98706000D01*
X70339000Y-100258000D01*
X70339000Y-100258000D01*
G37*
G36*
X65612677Y-97422465D02*
X65650364Y-97433898D01*
X65685103Y-97452466D01*
X65715548Y-97477452D01*
X65740534Y-97507897D01*
X65759102Y-97542636D01*
X65770535Y-97580323D01*
X65775000Y-97625661D01*
X65775000Y-98462339D01*
X65770535Y-98507677D01*
X65759102Y-98545364D01*
X65740534Y-98580103D01*
X65715548Y-98610548D01*
X65685103Y-98635534D01*
X65650364Y-98654102D01*
X65612677Y-98665535D01*
X65567339Y-98670000D01*
X64480661Y-98670000D01*
X64435323Y-98665535D01*
X64397636Y-98654102D01*
X64362897Y-98635534D01*
X64332452Y-98610548D01*
X64307466Y-98580103D01*
X64288898Y-98545364D01*
X64277465Y-98507677D01*
X64273000Y-98462339D01*
X64273000Y-97625661D01*
X64277465Y-97580323D01*
X64288898Y-97542636D01*
X64307466Y-97507897D01*
X64332452Y-97477452D01*
X64362897Y-97452466D01*
X64397636Y-97433898D01*
X64435323Y-97422465D01*
X64480661Y-97418000D01*
X65567339Y-97418000D01*
X65612677Y-97422465D01*
X65612677Y-97422465D01*
G37*
G36*
X65612677Y-95372465D02*
X65650364Y-95383898D01*
X65685103Y-95402466D01*
X65715548Y-95427452D01*
X65740534Y-95457897D01*
X65759102Y-95492636D01*
X65770535Y-95530323D01*
X65775000Y-95575661D01*
X65775000Y-96412339D01*
X65770535Y-96457677D01*
X65759102Y-96495364D01*
X65740534Y-96530103D01*
X65715548Y-96560548D01*
X65685103Y-96585534D01*
X65650364Y-96604102D01*
X65612677Y-96615535D01*
X65567339Y-96620000D01*
X64480661Y-96620000D01*
X64435323Y-96615535D01*
X64397636Y-96604102D01*
X64362897Y-96585534D01*
X64332452Y-96560548D01*
X64307466Y-96530103D01*
X64288898Y-96495364D01*
X64277465Y-96457677D01*
X64273000Y-96412339D01*
X64273000Y-95575661D01*
X64277465Y-95530323D01*
X64288898Y-95492636D01*
X64307466Y-95457897D01*
X64332452Y-95427452D01*
X64362897Y-95402466D01*
X64397636Y-95383898D01*
X64435323Y-95372465D01*
X64480661Y-95368000D01*
X65567339Y-95368000D01*
X65612677Y-95372465D01*
X65612677Y-95372465D01*
G37*
G36*
X70339000Y-95858000D02*
X67837000Y-95858000D01*
X67837000Y-94306000D01*
X70339000Y-94306000D01*
X70339000Y-95858000D01*
X70339000Y-95858000D01*
G37*
G36*
X71075677Y-90693465D02*
X71113364Y-90704898D01*
X71148103Y-90723466D01*
X71178548Y-90748452D01*
X71203534Y-90778897D01*
X71222102Y-90813636D01*
X71233535Y-90851323D01*
X71238000Y-90896661D01*
X71238000Y-91983339D01*
X71233535Y-92028677D01*
X71222102Y-92066364D01*
X71203534Y-92101103D01*
X71178548Y-92131548D01*
X71148103Y-92156534D01*
X71113364Y-92175102D01*
X71075677Y-92186535D01*
X71030339Y-92191000D01*
X70193661Y-92191000D01*
X70148323Y-92186535D01*
X70110636Y-92175102D01*
X70075897Y-92156534D01*
X70045452Y-92131548D01*
X70020466Y-92101103D01*
X70001898Y-92066364D01*
X69990465Y-92028677D01*
X69986000Y-91983339D01*
X69986000Y-90896661D01*
X69990465Y-90851323D01*
X70001898Y-90813636D01*
X70020466Y-90778897D01*
X70045452Y-90748452D01*
X70075897Y-90723466D01*
X70110636Y-90704898D01*
X70148323Y-90693465D01*
X70193661Y-90689000D01*
X71030339Y-90689000D01*
X71075677Y-90693465D01*
X71075677Y-90693465D01*
G37*
G36*
X66521677Y-90693465D02*
X66559364Y-90704898D01*
X66594103Y-90723466D01*
X66624548Y-90748452D01*
X66649534Y-90778897D01*
X66668102Y-90813636D01*
X66679535Y-90851323D01*
X66684000Y-90896661D01*
X66684000Y-91983339D01*
X66679535Y-92028677D01*
X66668102Y-92066364D01*
X66649534Y-92101103D01*
X66624548Y-92131548D01*
X66594103Y-92156534D01*
X66559364Y-92175102D01*
X66521677Y-92186535D01*
X66476339Y-92191000D01*
X65639661Y-92191000D01*
X65594323Y-92186535D01*
X65556636Y-92175102D01*
X65521897Y-92156534D01*
X65491452Y-92131548D01*
X65466466Y-92101103D01*
X65447898Y-92066364D01*
X65436465Y-92028677D01*
X65432000Y-91983339D01*
X65432000Y-90896661D01*
X65436465Y-90851323D01*
X65447898Y-90813636D01*
X65466466Y-90778897D01*
X65491452Y-90748452D01*
X65521897Y-90723466D01*
X65556636Y-90704898D01*
X65594323Y-90693465D01*
X65639661Y-90689000D01*
X66476339Y-90689000D01*
X66521677Y-90693465D01*
X66521677Y-90693465D01*
G37*
G36*
X64471677Y-90693465D02*
X64509364Y-90704898D01*
X64544103Y-90723466D01*
X64574548Y-90748452D01*
X64599534Y-90778897D01*
X64618102Y-90813636D01*
X64629535Y-90851323D01*
X64634000Y-90896661D01*
X64634000Y-91983339D01*
X64629535Y-92028677D01*
X64618102Y-92066364D01*
X64599534Y-92101103D01*
X64574548Y-92131548D01*
X64544103Y-92156534D01*
X64509364Y-92175102D01*
X64471677Y-92186535D01*
X64426339Y-92191000D01*
X63589661Y-92191000D01*
X63544323Y-92186535D01*
X63506636Y-92175102D01*
X63471897Y-92156534D01*
X63441452Y-92131548D01*
X63416466Y-92101103D01*
X63397898Y-92066364D01*
X63386465Y-92028677D01*
X63382000Y-91983339D01*
X63382000Y-90896661D01*
X63386465Y-90851323D01*
X63397898Y-90813636D01*
X63416466Y-90778897D01*
X63441452Y-90748452D01*
X63471897Y-90723466D01*
X63506636Y-90704898D01*
X63544323Y-90693465D01*
X63589661Y-90689000D01*
X64426339Y-90689000D01*
X64471677Y-90693465D01*
X64471677Y-90693465D01*
G37*
G36*
X69025677Y-90693465D02*
X69063364Y-90704898D01*
X69098103Y-90723466D01*
X69128548Y-90748452D01*
X69153534Y-90778897D01*
X69172102Y-90813636D01*
X69183535Y-90851323D01*
X69188000Y-90896661D01*
X69188000Y-91983339D01*
X69183535Y-92028677D01*
X69172102Y-92066364D01*
X69153534Y-92101103D01*
X69128548Y-92131548D01*
X69098103Y-92156534D01*
X69063364Y-92175102D01*
X69025677Y-92186535D01*
X68980339Y-92191000D01*
X68143661Y-92191000D01*
X68098323Y-92186535D01*
X68060636Y-92175102D01*
X68025897Y-92156534D01*
X67995452Y-92131548D01*
X67970466Y-92101103D01*
X67951898Y-92066364D01*
X67940465Y-92028677D01*
X67936000Y-91983339D01*
X67936000Y-90896661D01*
X67940465Y-90851323D01*
X67951898Y-90813636D01*
X67970466Y-90778897D01*
X67995452Y-90748452D01*
X68025897Y-90723466D01*
X68060636Y-90704898D01*
X68098323Y-90693465D01*
X68143661Y-90689000D01*
X68980339Y-90689000D01*
X69025677Y-90693465D01*
X69025677Y-90693465D01*
G37*
G36*
X86722565Y-86033389D02*
X86913834Y-86112615D01*
X87085976Y-86227637D01*
X87232363Y-86374024D01*
X87347385Y-86546166D01*
X87426611Y-86737435D01*
X87467000Y-86940484D01*
X87467000Y-87147516D01*
X87426611Y-87350565D01*
X87347385Y-87541834D01*
X87232363Y-87713976D01*
X87085976Y-87860363D01*
X86913834Y-87975385D01*
X86722565Y-88054611D01*
X86519516Y-88095000D01*
X86312484Y-88095000D01*
X86109435Y-88054611D01*
X85918166Y-87975385D01*
X85746024Y-87860363D01*
X85599637Y-87713976D01*
X85484615Y-87541834D01*
X85405389Y-87350565D01*
X85365000Y-87147516D01*
X85365000Y-86940484D01*
X85405389Y-86737435D01*
X85484615Y-86546166D01*
X85599637Y-86374024D01*
X85746024Y-86227637D01*
X85918166Y-86112615D01*
X86109435Y-86033389D01*
X86312484Y-85993000D01*
X86519516Y-85993000D01*
X86722565Y-86033389D01*
X86722565Y-86033389D01*
G37*
G36*
X74722565Y-86033389D02*
X74913834Y-86112615D01*
X75085976Y-86227637D01*
X75232363Y-86374024D01*
X75347385Y-86546166D01*
X75426611Y-86737435D01*
X75467000Y-86940484D01*
X75467000Y-87147516D01*
X75426611Y-87350565D01*
X75347385Y-87541834D01*
X75232363Y-87713976D01*
X75085976Y-87860363D01*
X74913834Y-87975385D01*
X74722565Y-88054611D01*
X74519516Y-88095000D01*
X74312484Y-88095000D01*
X74109435Y-88054611D01*
X73918166Y-87975385D01*
X73746024Y-87860363D01*
X73599637Y-87713976D01*
X73484615Y-87541834D01*
X73405389Y-87350565D01*
X73365000Y-87147516D01*
X73365000Y-86940484D01*
X73405389Y-86737435D01*
X73484615Y-86546166D01*
X73599637Y-86374024D01*
X73746024Y-86227637D01*
X73918166Y-86112615D01*
X74109435Y-86033389D01*
X74312484Y-85993000D01*
X74519516Y-85993000D01*
X74722565Y-86033389D01*
X74722565Y-86033389D01*
G37*
G36*
X91646031Y-82546207D02*
X91844145Y-82606305D01*
X92026729Y-82703897D01*
X92186765Y-82835235D01*
X92186766Y-82835237D01*
X92186768Y-82835238D01*
X92265568Y-82931257D01*
X92318103Y-82995271D01*
X92415695Y-83177854D01*
X92475793Y-83375968D01*
X92491000Y-83530370D01*
X92491000Y-85633630D01*
X92475793Y-85788032D01*
X92415695Y-85986146D01*
X92415694Y-85986148D01*
X92408959Y-85998749D01*
X92318103Y-86168729D01*
X92186765Y-86328765D01*
X92026729Y-86460103D01*
X91844146Y-86557695D01*
X91646032Y-86617793D01*
X91440000Y-86638085D01*
X91233969Y-86617793D01*
X91035855Y-86557695D01*
X90853272Y-86460103D01*
X90693236Y-86328765D01*
X90561898Y-86168729D01*
X90471042Y-85998749D01*
X90464307Y-85986148D01*
X90464306Y-85986146D01*
X90404208Y-85788032D01*
X90389001Y-85633630D01*
X90389000Y-83530371D01*
X90404207Y-83375969D01*
X90464305Y-83177855D01*
X90561897Y-82995271D01*
X90693235Y-82835235D01*
X90693237Y-82835234D01*
X90693238Y-82835232D01*
X90853269Y-82703899D01*
X90853271Y-82703897D01*
X91035854Y-82606305D01*
X91233968Y-82546207D01*
X91440000Y-82525915D01*
X91646031Y-82546207D01*
X91646031Y-82546207D01*
G37*
G36*
X69646031Y-82546207D02*
X69844145Y-82606305D01*
X70026729Y-82703897D01*
X70186765Y-82835235D01*
X70186766Y-82835237D01*
X70186768Y-82835238D01*
X70265568Y-82931257D01*
X70318103Y-82995271D01*
X70415695Y-83177854D01*
X70475793Y-83375968D01*
X70491000Y-83530370D01*
X70491000Y-85633630D01*
X70475793Y-85788032D01*
X70415695Y-85986146D01*
X70415694Y-85986148D01*
X70408959Y-85998749D01*
X70318103Y-86168729D01*
X70186765Y-86328765D01*
X70026729Y-86460103D01*
X69844146Y-86557695D01*
X69646032Y-86617793D01*
X69440000Y-86638085D01*
X69233969Y-86617793D01*
X69035855Y-86557695D01*
X68853272Y-86460103D01*
X68693236Y-86328765D01*
X68561898Y-86168729D01*
X68471042Y-85998749D01*
X68464307Y-85986148D01*
X68464306Y-85986146D01*
X68404208Y-85788032D01*
X68389001Y-85633630D01*
X68389000Y-83530371D01*
X68404207Y-83375969D01*
X68464305Y-83177855D01*
X68561897Y-82995271D01*
X68693235Y-82835235D01*
X68693237Y-82835234D01*
X68693238Y-82835232D01*
X68853269Y-82703899D01*
X68853271Y-82703897D01*
X69035854Y-82606305D01*
X69233968Y-82546207D01*
X69440000Y-82525915D01*
X69646031Y-82546207D01*
X69646031Y-82546207D01*
G37*
G36*
X81688228Y-83225703D02*
X81843100Y-83289853D01*
X81982481Y-83382985D01*
X82101015Y-83501519D01*
X82194147Y-83640900D01*
X82258297Y-83795772D01*
X82291000Y-83960184D01*
X82291000Y-84127816D01*
X82258297Y-84292228D01*
X82194147Y-84447100D01*
X82101015Y-84586481D01*
X81982481Y-84705015D01*
X81843100Y-84798147D01*
X81688228Y-84862297D01*
X81523816Y-84895000D01*
X81356184Y-84895000D01*
X81191772Y-84862297D01*
X81036900Y-84798147D01*
X80897519Y-84705015D01*
X80778985Y-84586481D01*
X80685853Y-84447100D01*
X80621703Y-84292228D01*
X80589000Y-84127816D01*
X80589000Y-83960184D01*
X80621703Y-83795772D01*
X80685853Y-83640900D01*
X80778985Y-83501519D01*
X80897519Y-83382985D01*
X81036900Y-83289853D01*
X81191772Y-83225703D01*
X81356184Y-83193000D01*
X81523816Y-83193000D01*
X81688228Y-83225703D01*
X81688228Y-83225703D01*
G37*
G36*
X83688228Y-83225703D02*
X83843100Y-83289853D01*
X83982481Y-83382985D01*
X84101015Y-83501519D01*
X84194147Y-83640900D01*
X84258297Y-83795772D01*
X84291000Y-83960184D01*
X84291000Y-84127816D01*
X84258297Y-84292228D01*
X84194147Y-84447100D01*
X84101015Y-84586481D01*
X83982481Y-84705015D01*
X83843100Y-84798147D01*
X83688228Y-84862297D01*
X83523816Y-84895000D01*
X83356184Y-84895000D01*
X83191772Y-84862297D01*
X83036900Y-84798147D01*
X82897519Y-84705015D01*
X82778985Y-84586481D01*
X82685853Y-84447100D01*
X82621703Y-84292228D01*
X82589000Y-84127816D01*
X82589000Y-83960184D01*
X82621703Y-83795772D01*
X82685853Y-83640900D01*
X82778985Y-83501519D01*
X82897519Y-83382985D01*
X83036900Y-83289853D01*
X83191772Y-83225703D01*
X83356184Y-83193000D01*
X83523816Y-83193000D01*
X83688228Y-83225703D01*
X83688228Y-83225703D01*
G37*
G36*
X87688228Y-83225703D02*
X87843100Y-83289853D01*
X87982481Y-83382985D01*
X88101015Y-83501519D01*
X88194147Y-83640900D01*
X88258297Y-83795772D01*
X88291000Y-83960184D01*
X88291000Y-84127816D01*
X88258297Y-84292228D01*
X88194147Y-84447100D01*
X88101015Y-84586481D01*
X87982481Y-84705015D01*
X87843100Y-84798147D01*
X87688228Y-84862297D01*
X87523816Y-84895000D01*
X87356184Y-84895000D01*
X87191772Y-84862297D01*
X87036900Y-84798147D01*
X86897519Y-84705015D01*
X86778985Y-84586481D01*
X86685853Y-84447100D01*
X86621703Y-84292228D01*
X86589000Y-84127816D01*
X86589000Y-83960184D01*
X86621703Y-83795772D01*
X86685853Y-83640900D01*
X86778985Y-83501519D01*
X86897519Y-83382985D01*
X87036900Y-83289853D01*
X87191772Y-83225703D01*
X87356184Y-83193000D01*
X87523816Y-83193000D01*
X87688228Y-83225703D01*
X87688228Y-83225703D01*
G37*
G36*
X79688228Y-83225703D02*
X79843100Y-83289853D01*
X79982481Y-83382985D01*
X80101015Y-83501519D01*
X80194147Y-83640900D01*
X80258297Y-83795772D01*
X80291000Y-83960184D01*
X80291000Y-84127816D01*
X80258297Y-84292228D01*
X80194147Y-84447100D01*
X80101015Y-84586481D01*
X79982481Y-84705015D01*
X79843100Y-84798147D01*
X79688228Y-84862297D01*
X79523816Y-84895000D01*
X79356184Y-84895000D01*
X79191772Y-84862297D01*
X79036900Y-84798147D01*
X78897519Y-84705015D01*
X78778985Y-84586481D01*
X78685853Y-84447100D01*
X78621703Y-84292228D01*
X78589000Y-84127816D01*
X78589000Y-83960184D01*
X78621703Y-83795772D01*
X78685853Y-83640900D01*
X78778985Y-83501519D01*
X78897519Y-83382985D01*
X79036900Y-83289853D01*
X79191772Y-83225703D01*
X79356184Y-83193000D01*
X79523816Y-83193000D01*
X79688228Y-83225703D01*
X79688228Y-83225703D01*
G37*
G36*
X75688228Y-83225703D02*
X75843100Y-83289853D01*
X75982481Y-83382985D01*
X76101015Y-83501519D01*
X76194147Y-83640900D01*
X76258297Y-83795772D01*
X76291000Y-83960184D01*
X76291000Y-84127816D01*
X76258297Y-84292228D01*
X76194147Y-84447100D01*
X76101015Y-84586481D01*
X75982481Y-84705015D01*
X75843100Y-84798147D01*
X75688228Y-84862297D01*
X75523816Y-84895000D01*
X75356184Y-84895000D01*
X75191772Y-84862297D01*
X75036900Y-84798147D01*
X74897519Y-84705015D01*
X74778985Y-84586481D01*
X74685853Y-84447100D01*
X74621703Y-84292228D01*
X74589000Y-84127816D01*
X74589000Y-83960184D01*
X74621703Y-83795772D01*
X74685853Y-83640900D01*
X74778985Y-83501519D01*
X74897519Y-83382985D01*
X75036900Y-83289853D01*
X75191772Y-83225703D01*
X75356184Y-83193000D01*
X75523816Y-83193000D01*
X75688228Y-83225703D01*
X75688228Y-83225703D01*
G37*
G36*
X73688228Y-83225703D02*
X73843100Y-83289853D01*
X73982481Y-83382985D01*
X74101015Y-83501519D01*
X74194147Y-83640900D01*
X74258297Y-83795772D01*
X74291000Y-83960184D01*
X74291000Y-84127816D01*
X74258297Y-84292228D01*
X74194147Y-84447100D01*
X74101015Y-84586481D01*
X73982481Y-84705015D01*
X73843100Y-84798147D01*
X73688228Y-84862297D01*
X73523816Y-84895000D01*
X73356184Y-84895000D01*
X73191772Y-84862297D01*
X73036900Y-84798147D01*
X72897519Y-84705015D01*
X72778985Y-84586481D01*
X72685853Y-84447100D01*
X72621703Y-84292228D01*
X72589000Y-84127816D01*
X72589000Y-83960184D01*
X72621703Y-83795772D01*
X72685853Y-83640900D01*
X72778985Y-83501519D01*
X72897519Y-83382985D01*
X73036900Y-83289853D01*
X73191772Y-83225703D01*
X73356184Y-83193000D01*
X73523816Y-83193000D01*
X73688228Y-83225703D01*
X73688228Y-83225703D01*
G37*
G36*
X77688228Y-83225703D02*
X77843100Y-83289853D01*
X77982481Y-83382985D01*
X78101015Y-83501519D01*
X78194147Y-83640900D01*
X78258297Y-83795772D01*
X78291000Y-83960184D01*
X78291000Y-84127816D01*
X78258297Y-84292228D01*
X78194147Y-84447100D01*
X78101015Y-84586481D01*
X77982481Y-84705015D01*
X77843100Y-84798147D01*
X77688228Y-84862297D01*
X77523816Y-84895000D01*
X77356184Y-84895000D01*
X77191772Y-84862297D01*
X77036900Y-84798147D01*
X76897519Y-84705015D01*
X76778985Y-84586481D01*
X76685853Y-84447100D01*
X76621703Y-84292228D01*
X76589000Y-84127816D01*
X76589000Y-83960184D01*
X76621703Y-83795772D01*
X76685853Y-83640900D01*
X76778985Y-83501519D01*
X76897519Y-83382985D01*
X77036900Y-83289853D01*
X77191772Y-83225703D01*
X77356184Y-83193000D01*
X77523816Y-83193000D01*
X77688228Y-83225703D01*
X77688228Y-83225703D01*
G37*
G36*
X85688228Y-83225703D02*
X85843100Y-83289853D01*
X85982481Y-83382985D01*
X86101015Y-83501519D01*
X86194147Y-83640900D01*
X86258297Y-83795772D01*
X86291000Y-83960184D01*
X86291000Y-84127816D01*
X86258297Y-84292228D01*
X86194147Y-84447100D01*
X86101015Y-84586481D01*
X85982481Y-84705015D01*
X85843100Y-84798147D01*
X85688228Y-84862297D01*
X85523816Y-84895000D01*
X85356184Y-84895000D01*
X85191772Y-84862297D01*
X85036900Y-84798147D01*
X84897519Y-84705015D01*
X84778985Y-84586481D01*
X84685853Y-84447100D01*
X84621703Y-84292228D01*
X84589000Y-84127816D01*
X84589000Y-83960184D01*
X84621703Y-83795772D01*
X84685853Y-83640900D01*
X84778985Y-83501519D01*
X84897519Y-83382985D01*
X85036900Y-83289853D01*
X85191772Y-83225703D01*
X85356184Y-83193000D01*
X85523816Y-83193000D01*
X85688228Y-83225703D01*
X85688228Y-83225703D01*
G37*
G36*
X75688228Y-80725703D02*
X75843100Y-80789853D01*
X75982481Y-80882985D01*
X76101015Y-81001519D01*
X76194147Y-81140900D01*
X76258297Y-81295772D01*
X76291000Y-81460184D01*
X76291000Y-81627816D01*
X76258297Y-81792228D01*
X76194147Y-81947100D01*
X76101015Y-82086481D01*
X75982481Y-82205015D01*
X75843100Y-82298147D01*
X75688228Y-82362297D01*
X75523816Y-82395000D01*
X75356184Y-82395000D01*
X75191772Y-82362297D01*
X75036900Y-82298147D01*
X74897519Y-82205015D01*
X74778985Y-82086481D01*
X74685853Y-81947100D01*
X74621703Y-81792228D01*
X74589000Y-81627816D01*
X74589000Y-81460184D01*
X74621703Y-81295772D01*
X74685853Y-81140900D01*
X74778985Y-81001519D01*
X74897519Y-80882985D01*
X75036900Y-80789853D01*
X75191772Y-80725703D01*
X75356184Y-80693000D01*
X75523816Y-80693000D01*
X75688228Y-80725703D01*
X75688228Y-80725703D01*
G37*
G36*
X89688228Y-80725703D02*
X89843100Y-80789853D01*
X89982481Y-80882985D01*
X90101015Y-81001519D01*
X90194147Y-81140900D01*
X90258297Y-81295772D01*
X90291000Y-81460184D01*
X90291000Y-81627816D01*
X90258297Y-81792228D01*
X90194147Y-81947100D01*
X90101015Y-82086481D01*
X89982481Y-82205015D01*
X89843100Y-82298147D01*
X89688228Y-82362297D01*
X89523816Y-82395000D01*
X89356184Y-82395000D01*
X89191772Y-82362297D01*
X89036900Y-82298147D01*
X88897519Y-82205015D01*
X88778985Y-82086481D01*
X88685853Y-81947100D01*
X88621703Y-81792228D01*
X88589000Y-81627816D01*
X88589000Y-81460184D01*
X88621703Y-81295772D01*
X88685853Y-81140900D01*
X88778985Y-81001519D01*
X88897519Y-80882985D01*
X89036900Y-80789853D01*
X89191772Y-80725703D01*
X89356184Y-80693000D01*
X89523816Y-80693000D01*
X89688228Y-80725703D01*
X89688228Y-80725703D01*
G37*
G36*
X73688228Y-80725703D02*
X73843100Y-80789853D01*
X73982481Y-80882985D01*
X74101015Y-81001519D01*
X74194147Y-81140900D01*
X74258297Y-81295772D01*
X74291000Y-81460184D01*
X74291000Y-81627816D01*
X74258297Y-81792228D01*
X74194147Y-81947100D01*
X74101015Y-82086481D01*
X73982481Y-82205015D01*
X73843100Y-82298147D01*
X73688228Y-82362297D01*
X73523816Y-82395000D01*
X73356184Y-82395000D01*
X73191772Y-82362297D01*
X73036900Y-82298147D01*
X72897519Y-82205015D01*
X72778985Y-82086481D01*
X72685853Y-81947100D01*
X72621703Y-81792228D01*
X72589000Y-81627816D01*
X72589000Y-81460184D01*
X72621703Y-81295772D01*
X72685853Y-81140900D01*
X72778985Y-81001519D01*
X72897519Y-80882985D01*
X73036900Y-80789853D01*
X73191772Y-80725703D01*
X73356184Y-80693000D01*
X73523816Y-80693000D01*
X73688228Y-80725703D01*
X73688228Y-80725703D01*
G37*
G36*
X77688228Y-80725703D02*
X77843100Y-80789853D01*
X77982481Y-80882985D01*
X78101015Y-81001519D01*
X78194147Y-81140900D01*
X78258297Y-81295772D01*
X78291000Y-81460184D01*
X78291000Y-81627816D01*
X78258297Y-81792228D01*
X78194147Y-81947100D01*
X78101015Y-82086481D01*
X77982481Y-82205015D01*
X77843100Y-82298147D01*
X77688228Y-82362297D01*
X77523816Y-82395000D01*
X77356184Y-82395000D01*
X77191772Y-82362297D01*
X77036900Y-82298147D01*
X76897519Y-82205015D01*
X76778985Y-82086481D01*
X76685853Y-81947100D01*
X76621703Y-81792228D01*
X76589000Y-81627816D01*
X76589000Y-81460184D01*
X76621703Y-81295772D01*
X76685853Y-81140900D01*
X76778985Y-81001519D01*
X76897519Y-80882985D01*
X77036900Y-80789853D01*
X77191772Y-80725703D01*
X77356184Y-80693000D01*
X77523816Y-80693000D01*
X77688228Y-80725703D01*
X77688228Y-80725703D01*
G37*
G36*
X79688228Y-80725703D02*
X79843100Y-80789853D01*
X79982481Y-80882985D01*
X80101015Y-81001519D01*
X80194147Y-81140900D01*
X80258297Y-81295772D01*
X80291000Y-81460184D01*
X80291000Y-81627816D01*
X80258297Y-81792228D01*
X80194147Y-81947100D01*
X80101015Y-82086481D01*
X79982481Y-82205015D01*
X79843100Y-82298147D01*
X79688228Y-82362297D01*
X79523816Y-82395000D01*
X79356184Y-82395000D01*
X79191772Y-82362297D01*
X79036900Y-82298147D01*
X78897519Y-82205015D01*
X78778985Y-82086481D01*
X78685853Y-81947100D01*
X78621703Y-81792228D01*
X78589000Y-81627816D01*
X78589000Y-81460184D01*
X78621703Y-81295772D01*
X78685853Y-81140900D01*
X78778985Y-81001519D01*
X78897519Y-80882985D01*
X79036900Y-80789853D01*
X79191772Y-80725703D01*
X79356184Y-80693000D01*
X79523816Y-80693000D01*
X79688228Y-80725703D01*
X79688228Y-80725703D01*
G37*
G36*
X81688228Y-80725703D02*
X81843100Y-80789853D01*
X81982481Y-80882985D01*
X82101015Y-81001519D01*
X82194147Y-81140900D01*
X82258297Y-81295772D01*
X82291000Y-81460184D01*
X82291000Y-81627816D01*
X82258297Y-81792228D01*
X82194147Y-81947100D01*
X82101015Y-82086481D01*
X81982481Y-82205015D01*
X81843100Y-82298147D01*
X81688228Y-82362297D01*
X81523816Y-82395000D01*
X81356184Y-82395000D01*
X81191772Y-82362297D01*
X81036900Y-82298147D01*
X80897519Y-82205015D01*
X80778985Y-82086481D01*
X80685853Y-81947100D01*
X80621703Y-81792228D01*
X80589000Y-81627816D01*
X80589000Y-81460184D01*
X80621703Y-81295772D01*
X80685853Y-81140900D01*
X80778985Y-81001519D01*
X80897519Y-80882985D01*
X81036900Y-80789853D01*
X81191772Y-80725703D01*
X81356184Y-80693000D01*
X81523816Y-80693000D01*
X81688228Y-80725703D01*
X81688228Y-80725703D01*
G37*
G36*
X83688228Y-80725703D02*
X83843100Y-80789853D01*
X83982481Y-80882985D01*
X84101015Y-81001519D01*
X84194147Y-81140900D01*
X84258297Y-81295772D01*
X84291000Y-81460184D01*
X84291000Y-81627816D01*
X84258297Y-81792228D01*
X84194147Y-81947100D01*
X84101015Y-82086481D01*
X83982481Y-82205015D01*
X83843100Y-82298147D01*
X83688228Y-82362297D01*
X83523816Y-82395000D01*
X83356184Y-82395000D01*
X83191772Y-82362297D01*
X83036900Y-82298147D01*
X82897519Y-82205015D01*
X82778985Y-82086481D01*
X82685853Y-81947100D01*
X82621703Y-81792228D01*
X82589000Y-81627816D01*
X82589000Y-81460184D01*
X82621703Y-81295772D01*
X82685853Y-81140900D01*
X82778985Y-81001519D01*
X82897519Y-80882985D01*
X83036900Y-80789853D01*
X83191772Y-80725703D01*
X83356184Y-80693000D01*
X83523816Y-80693000D01*
X83688228Y-80725703D01*
X83688228Y-80725703D01*
G37*
G36*
X71688228Y-80725703D02*
X71843100Y-80789853D01*
X71982481Y-80882985D01*
X72101015Y-81001519D01*
X72194147Y-81140900D01*
X72258297Y-81295772D01*
X72291000Y-81460184D01*
X72291000Y-81627816D01*
X72258297Y-81792228D01*
X72194147Y-81947100D01*
X72101015Y-82086481D01*
X71982481Y-82205015D01*
X71843100Y-82298147D01*
X71688228Y-82362297D01*
X71523816Y-82395000D01*
X71356184Y-82395000D01*
X71191772Y-82362297D01*
X71036900Y-82298147D01*
X70897519Y-82205015D01*
X70778985Y-82086481D01*
X70685853Y-81947100D01*
X70621703Y-81792228D01*
X70589000Y-81627816D01*
X70589000Y-81460184D01*
X70621703Y-81295772D01*
X70685853Y-81140900D01*
X70778985Y-81001519D01*
X70897519Y-80882985D01*
X71036900Y-80789853D01*
X71191772Y-80725703D01*
X71356184Y-80693000D01*
X71523816Y-80693000D01*
X71688228Y-80725703D01*
X71688228Y-80725703D01*
G37*
G36*
X85688228Y-80725703D02*
X85843100Y-80789853D01*
X85982481Y-80882985D01*
X86101015Y-81001519D01*
X86194147Y-81140900D01*
X86258297Y-81295772D01*
X86291000Y-81460184D01*
X86291000Y-81627816D01*
X86258297Y-81792228D01*
X86194147Y-81947100D01*
X86101015Y-82086481D01*
X85982481Y-82205015D01*
X85843100Y-82298147D01*
X85688228Y-82362297D01*
X85523816Y-82395000D01*
X85356184Y-82395000D01*
X85191772Y-82362297D01*
X85036900Y-82298147D01*
X84897519Y-82205015D01*
X84778985Y-82086481D01*
X84685853Y-81947100D01*
X84621703Y-81792228D01*
X84589000Y-81627816D01*
X84589000Y-81460184D01*
X84621703Y-81295772D01*
X84685853Y-81140900D01*
X84778985Y-81001519D01*
X84897519Y-80882985D01*
X85036900Y-80789853D01*
X85191772Y-80725703D01*
X85356184Y-80693000D01*
X85523816Y-80693000D01*
X85688228Y-80725703D01*
X85688228Y-80725703D01*
G37*
G36*
X87688228Y-80725703D02*
X87843100Y-80789853D01*
X87982481Y-80882985D01*
X88101015Y-81001519D01*
X88194147Y-81140900D01*
X88258297Y-81295772D01*
X88291000Y-81460184D01*
X88291000Y-81627816D01*
X88258297Y-81792228D01*
X88194147Y-81947100D01*
X88101015Y-82086481D01*
X87982481Y-82205015D01*
X87843100Y-82298147D01*
X87688228Y-82362297D01*
X87523816Y-82395000D01*
X87356184Y-82395000D01*
X87191772Y-82362297D01*
X87036900Y-82298147D01*
X86897519Y-82205015D01*
X86778985Y-82086481D01*
X86685853Y-81947100D01*
X86621703Y-81792228D01*
X86589000Y-81627816D01*
X86589000Y-81460184D01*
X86621703Y-81295772D01*
X86685853Y-81140900D01*
X86778985Y-81001519D01*
X86897519Y-80882985D01*
X87036900Y-80789853D01*
X87191772Y-80725703D01*
X87356184Y-80693000D01*
X87523816Y-80693000D01*
X87688228Y-80725703D01*
X87688228Y-80725703D01*
G37*
G36*
X73615677Y-77993465D02*
X73653364Y-78004898D01*
X73688103Y-78023466D01*
X73718548Y-78048452D01*
X73743534Y-78078897D01*
X73762102Y-78113636D01*
X73773535Y-78151323D01*
X73778000Y-78196661D01*
X73778000Y-79283339D01*
X73773535Y-79328677D01*
X73762102Y-79366364D01*
X73743534Y-79401103D01*
X73718548Y-79431548D01*
X73688103Y-79456534D01*
X73653364Y-79475102D01*
X73615677Y-79486535D01*
X73570339Y-79491000D01*
X72733661Y-79491000D01*
X72688323Y-79486535D01*
X72650636Y-79475102D01*
X72615897Y-79456534D01*
X72585452Y-79431548D01*
X72560466Y-79401103D01*
X72541898Y-79366364D01*
X72530465Y-79328677D01*
X72526000Y-79283339D01*
X72526000Y-78196661D01*
X72530465Y-78151323D01*
X72541898Y-78113636D01*
X72560466Y-78078897D01*
X72585452Y-78048452D01*
X72615897Y-78023466D01*
X72650636Y-78004898D01*
X72688323Y-77993465D01*
X72733661Y-77989000D01*
X73570339Y-77989000D01*
X73615677Y-77993465D01*
X73615677Y-77993465D01*
G37*
G36*
X75665677Y-77993465D02*
X75703364Y-78004898D01*
X75738103Y-78023466D01*
X75768548Y-78048452D01*
X75793534Y-78078897D01*
X75812102Y-78113636D01*
X75823535Y-78151323D01*
X75828000Y-78196661D01*
X75828000Y-79283339D01*
X75823535Y-79328677D01*
X75812102Y-79366364D01*
X75793534Y-79401103D01*
X75768548Y-79431548D01*
X75738103Y-79456534D01*
X75703364Y-79475102D01*
X75665677Y-79486535D01*
X75620339Y-79491000D01*
X74783661Y-79491000D01*
X74738323Y-79486535D01*
X74700636Y-79475102D01*
X74665897Y-79456534D01*
X74635452Y-79431548D01*
X74610466Y-79401103D01*
X74591898Y-79366364D01*
X74580465Y-79328677D01*
X74576000Y-79283339D01*
X74576000Y-78196661D01*
X74580465Y-78151323D01*
X74591898Y-78113636D01*
X74610466Y-78078897D01*
X74635452Y-78048452D01*
X74665897Y-78023466D01*
X74700636Y-78004898D01*
X74738323Y-77993465D01*
X74783661Y-77989000D01*
X75620339Y-77989000D01*
X75665677Y-77993465D01*
X75665677Y-77993465D01*
G37*
G36*
X85491000Y-77319000D02*
X84689000Y-77319000D01*
X84689000Y-76017000D01*
X85491000Y-76017000D01*
X85491000Y-77319000D01*
X85491000Y-77319000D01*
G37*
G36*
X83741000Y-77319000D02*
X82939000Y-77319000D01*
X82939000Y-76017000D01*
X83741000Y-76017000D01*
X83741000Y-77319000D01*
X83741000Y-77319000D01*
G37*
G36*
X81991000Y-77319000D02*
X81189000Y-77319000D01*
X81189000Y-76017000D01*
X81991000Y-76017000D01*
X81991000Y-77319000D01*
X81991000Y-77319000D01*
G37*
G36*
X78854000Y-75940000D02*
X77102000Y-75940000D01*
X77102000Y-74788000D01*
X78854000Y-74788000D01*
X78854000Y-75940000D01*
X78854000Y-75940000D01*
G37*
G36*
X75004000Y-75940000D02*
X73252000Y-75940000D01*
X73252000Y-74788000D01*
X75004000Y-74788000D01*
X75004000Y-75940000D01*
X75004000Y-75940000D01*
G37*
G36*
X86641000Y-74919000D02*
X83539000Y-74919000D01*
X83539000Y-73417000D01*
X86641000Y-73417000D01*
X86641000Y-74919000D01*
X86641000Y-74919000D01*
G37*
G36*
X78854000Y-74490000D02*
X77102000Y-74490000D01*
X77102000Y-73338000D01*
X78854000Y-73338000D01*
X78854000Y-74490000D01*
X78854000Y-74490000D01*
G37*
G36*
X75004000Y-74490000D02*
X73252000Y-74490000D01*
X73252000Y-73338000D01*
X75004000Y-73338000D01*
X75004000Y-74490000D01*
X75004000Y-74490000D01*
G37*
M02*
