G04 #@! TF.GenerationSoftware,KiCad,Pcbnew,(5.0.1)-4*
G04 #@! TF.CreationDate,2019-03-10T19:06:40+01:00*
G04 #@! TF.ProjectId,wiihdmi_wmi,77696968646D695F776D692E6B696361,rev?*
G04 #@! TF.SameCoordinates,Original*
G04 #@! TF.FileFunction,Legend,Top*
G04 #@! TF.FilePolarity,Positive*
%FSLAX46Y46*%
G04 Gerber Fmt 4.6, Leading zero omitted, Abs format (unit mm)*
G04 Created by KiCad (PCBNEW (5.0.1)-4) date 10.03.2019 19:06:40*
%MOMM*%
%LPD*%
G01*
G04 APERTURE LIST*
%ADD10C,0.300000*%
%ADD11C,0.250000*%
%ADD12C,0.500000*%
%ADD13C,0.150000*%
%ADD14C,0.075000*%
%ADD15C,0.120000*%
%ADD16C,0.066040*%
%ADD17C,0.099060*%
%ADD18C,0.198120*%
%ADD19C,0.048260*%
G04 APERTURE END LIST*
D10*
X91738142Y-130467571D02*
X91738142Y-128967571D01*
X92309571Y-128967571D01*
X92452428Y-129039000D01*
X92523857Y-129110428D01*
X92595285Y-129253285D01*
X92595285Y-129467571D01*
X92523857Y-129610428D01*
X92452428Y-129681857D01*
X92309571Y-129753285D01*
X91738142Y-129753285D01*
X94095285Y-130324714D02*
X94023857Y-130396142D01*
X93809571Y-130467571D01*
X93666714Y-130467571D01*
X93452428Y-130396142D01*
X93309571Y-130253285D01*
X93238142Y-130110428D01*
X93166714Y-129824714D01*
X93166714Y-129610428D01*
X93238142Y-129324714D01*
X93309571Y-129181857D01*
X93452428Y-129039000D01*
X93666714Y-128967571D01*
X93809571Y-128967571D01*
X94023857Y-129039000D01*
X94095285Y-129110428D01*
X95238142Y-129681857D02*
X95452428Y-129753285D01*
X95523857Y-129824714D01*
X95595285Y-129967571D01*
X95595285Y-130181857D01*
X95523857Y-130324714D01*
X95452428Y-130396142D01*
X95309571Y-130467571D01*
X94738142Y-130467571D01*
X94738142Y-128967571D01*
X95238142Y-128967571D01*
X95381000Y-129039000D01*
X95452428Y-129110428D01*
X95523857Y-129253285D01*
X95523857Y-129396142D01*
X95452428Y-129539000D01*
X95381000Y-129610428D01*
X95238142Y-129681857D01*
X94738142Y-129681857D01*
X96238142Y-130324714D02*
X96309571Y-130396142D01*
X96238142Y-130467571D01*
X96166714Y-130396142D01*
X96238142Y-130324714D01*
X96238142Y-130467571D01*
X96238142Y-129539000D02*
X96309571Y-129610428D01*
X96238142Y-129681857D01*
X96166714Y-129610428D01*
X96238142Y-129539000D01*
X96238142Y-129681857D01*
X91595285Y-132017571D02*
X91881000Y-133017571D01*
X92166714Y-132303285D01*
X92452428Y-133017571D01*
X92738142Y-132017571D01*
X93309571Y-133017571D02*
X93309571Y-132017571D01*
X93309571Y-132160428D02*
X93381000Y-132089000D01*
X93523857Y-132017571D01*
X93738142Y-132017571D01*
X93881000Y-132089000D01*
X93952428Y-132231857D01*
X93952428Y-133017571D01*
X93952428Y-132231857D02*
X94023857Y-132089000D01*
X94166714Y-132017571D01*
X94381000Y-132017571D01*
X94523857Y-132089000D01*
X94595285Y-132231857D01*
X94595285Y-133017571D01*
X95309571Y-133017571D02*
X95309571Y-132017571D01*
X95309571Y-131517571D02*
X95238142Y-131589000D01*
X95309571Y-131660428D01*
X95381000Y-131589000D01*
X95309571Y-131517571D01*
X95309571Y-131660428D01*
D11*
X105124285Y-107783380D02*
X104552857Y-107783380D01*
X104495714Y-108259571D01*
X104552857Y-108211952D01*
X104667142Y-108164333D01*
X104952857Y-108164333D01*
X105067142Y-108211952D01*
X105124285Y-108259571D01*
X105181428Y-108354809D01*
X105181428Y-108592904D01*
X105124285Y-108688142D01*
X105067142Y-108735761D01*
X104952857Y-108783380D01*
X104667142Y-108783380D01*
X104552857Y-108735761D01*
X104495714Y-108688142D01*
X106210000Y-108116714D02*
X106210000Y-108783380D01*
X105924285Y-107735761D02*
X105638571Y-108450047D01*
X106381428Y-108450047D01*
X94469571Y-105211571D02*
X94641000Y-105259190D01*
X94698142Y-105306809D01*
X94755285Y-105402047D01*
X94755285Y-105544904D01*
X94698142Y-105640142D01*
X94641000Y-105687761D01*
X94526714Y-105735380D01*
X94069571Y-105735380D01*
X94069571Y-104735380D01*
X94469571Y-104735380D01*
X94583857Y-104783000D01*
X94641000Y-104830619D01*
X94698142Y-104925857D01*
X94698142Y-105021095D01*
X94641000Y-105116333D01*
X94583857Y-105163952D01*
X94469571Y-105211571D01*
X94069571Y-105211571D01*
X96755285Y-105735380D02*
X96183857Y-105735380D01*
X96183857Y-104735380D01*
X98583857Y-104735380D02*
X98355285Y-104735380D01*
X98241000Y-104783000D01*
X98183857Y-104830619D01*
X98069571Y-104973476D01*
X98012428Y-105163952D01*
X98012428Y-105544904D01*
X98069571Y-105640142D01*
X98126714Y-105687761D01*
X98241000Y-105735380D01*
X98469571Y-105735380D01*
X98583857Y-105687761D01*
X98641000Y-105640142D01*
X98698142Y-105544904D01*
X98698142Y-105306809D01*
X98641000Y-105211571D01*
X98583857Y-105163952D01*
X98469571Y-105116333D01*
X98241000Y-105116333D01*
X98126714Y-105163952D01*
X98069571Y-105211571D01*
X98012428Y-105306809D01*
X100698142Y-104735380D02*
X100126714Y-104735380D01*
X100069571Y-105211571D01*
X100126714Y-105163952D01*
X100241000Y-105116333D01*
X100526714Y-105116333D01*
X100641000Y-105163952D01*
X100698142Y-105211571D01*
X100755285Y-105306809D01*
X100755285Y-105544904D01*
X100698142Y-105640142D01*
X100641000Y-105687761D01*
X100526714Y-105735380D01*
X100241000Y-105735380D01*
X100126714Y-105687761D01*
X100069571Y-105640142D01*
X102069571Y-104735380D02*
X102812428Y-104735380D01*
X102412428Y-105116333D01*
X102583857Y-105116333D01*
X102698142Y-105163952D01*
X102755285Y-105211571D01*
X102812428Y-105306809D01*
X102812428Y-105544904D01*
X102755285Y-105640142D01*
X102698142Y-105687761D01*
X102583857Y-105735380D01*
X102241000Y-105735380D01*
X102126714Y-105687761D01*
X102069571Y-105640142D01*
X104869571Y-105735380D02*
X104183857Y-105735380D01*
X104526714Y-105735380D02*
X104526714Y-104735380D01*
X104412428Y-104878238D01*
X104298142Y-104973476D01*
X104183857Y-105021095D01*
X94999857Y-104306666D02*
X95571285Y-104306666D01*
X94885571Y-104592380D02*
X95285571Y-103592380D01*
X95685571Y-104592380D01*
X96885571Y-103592380D02*
X97685571Y-103592380D01*
X97171285Y-104592380D01*
X99742714Y-104497142D02*
X99685571Y-104544761D01*
X99514142Y-104592380D01*
X99399857Y-104592380D01*
X99228428Y-104544761D01*
X99114142Y-104449523D01*
X99057000Y-104354285D01*
X98999857Y-104163809D01*
X98999857Y-104020952D01*
X99057000Y-103830476D01*
X99114142Y-103735238D01*
X99228428Y-103640000D01*
X99399857Y-103592380D01*
X99514142Y-103592380D01*
X99685571Y-103640000D01*
X99742714Y-103687619D01*
X101685571Y-103925714D02*
X101685571Y-104592380D01*
X101399857Y-103544761D02*
X101114142Y-104259047D01*
X101857000Y-104259047D01*
X103171285Y-103687619D02*
X103228428Y-103640000D01*
X103342714Y-103592380D01*
X103628428Y-103592380D01*
X103742714Y-103640000D01*
X103799857Y-103687619D01*
X103857000Y-103782857D01*
X103857000Y-103878095D01*
X103799857Y-104020952D01*
X103114142Y-104592380D01*
X103857000Y-104592380D01*
X105514142Y-103592380D02*
X105628428Y-103592380D01*
X105742714Y-103640000D01*
X105799857Y-103687619D01*
X105857000Y-103782857D01*
X105914142Y-103973333D01*
X105914142Y-104211428D01*
X105857000Y-104401904D01*
X105799857Y-104497142D01*
X105742714Y-104544761D01*
X105628428Y-104592380D01*
X105514142Y-104592380D01*
X105399857Y-104544761D01*
X105342714Y-104497142D01*
X105285571Y-104401904D01*
X105228428Y-104211428D01*
X105228428Y-103973333D01*
X105285571Y-103782857D01*
X105342714Y-103687619D01*
X105399857Y-103640000D01*
X105514142Y-103592380D01*
D12*
X82717857Y-108974142D02*
X83432142Y-111974142D01*
X84003571Y-109831285D01*
X84575000Y-111974142D01*
X85289285Y-108974142D01*
X86432142Y-111974142D02*
X86432142Y-109974142D01*
X86432142Y-108974142D02*
X86289285Y-109117000D01*
X86432142Y-109259857D01*
X86575000Y-109117000D01*
X86432142Y-108974142D01*
X86432142Y-109259857D01*
X87860714Y-111974142D02*
X87860714Y-109974142D01*
X87860714Y-108974142D02*
X87717857Y-109117000D01*
X87860714Y-109259857D01*
X88003571Y-109117000D01*
X87860714Y-108974142D01*
X87860714Y-109259857D01*
X91575000Y-111974142D02*
X91575000Y-108974142D01*
X91575000Y-110402714D02*
X93289285Y-110402714D01*
X93289285Y-111974142D02*
X93289285Y-108974142D01*
X94717857Y-111974142D02*
X94717857Y-108974142D01*
X95432142Y-108974142D01*
X95860714Y-109117000D01*
X96146428Y-109402714D01*
X96289285Y-109688428D01*
X96432142Y-110259857D01*
X96432142Y-110688428D01*
X96289285Y-111259857D01*
X96146428Y-111545571D01*
X95860714Y-111831285D01*
X95432142Y-111974142D01*
X94717857Y-111974142D01*
X97717857Y-111974142D02*
X97717857Y-108974142D01*
X98717857Y-111117000D01*
X99717857Y-108974142D01*
X99717857Y-111974142D01*
X101146428Y-111974142D02*
X101146428Y-108974142D01*
D10*
X77156857Y-129039000D02*
X77014000Y-128967571D01*
X76799714Y-128967571D01*
X76585428Y-129039000D01*
X76442571Y-129181857D01*
X76371142Y-129324714D01*
X76299714Y-129610428D01*
X76299714Y-129824714D01*
X76371142Y-130110428D01*
X76442571Y-130253285D01*
X76585428Y-130396142D01*
X76799714Y-130467571D01*
X76942571Y-130467571D01*
X77156857Y-130396142D01*
X77228285Y-130324714D01*
X77228285Y-129824714D01*
X76942571Y-129824714D01*
X78728285Y-130324714D02*
X78656857Y-130396142D01*
X78442571Y-130467571D01*
X78299714Y-130467571D01*
X78085428Y-130396142D01*
X77942571Y-130253285D01*
X77871142Y-130110428D01*
X77799714Y-129824714D01*
X77799714Y-129610428D01*
X77871142Y-129324714D01*
X77942571Y-129181857D01*
X78085428Y-129039000D01*
X78299714Y-128967571D01*
X78442571Y-128967571D01*
X78656857Y-129039000D01*
X78728285Y-129110428D01*
X79156857Y-128967571D02*
X79656857Y-130467571D01*
X80156857Y-128967571D01*
X80656857Y-130467571D02*
X80656857Y-129467571D01*
X80656857Y-128967571D02*
X80585428Y-129039000D01*
X80656857Y-129110428D01*
X80728285Y-129039000D01*
X80656857Y-128967571D01*
X80656857Y-129110428D01*
X82014000Y-130467571D02*
X82014000Y-128967571D01*
X82014000Y-130396142D02*
X81871142Y-130467571D01*
X81585428Y-130467571D01*
X81442571Y-130396142D01*
X81371142Y-130324714D01*
X81299714Y-130181857D01*
X81299714Y-129753285D01*
X81371142Y-129610428D01*
X81442571Y-129539000D01*
X81585428Y-129467571D01*
X81871142Y-129467571D01*
X82014000Y-129539000D01*
X83299714Y-130396142D02*
X83156857Y-130467571D01*
X82871142Y-130467571D01*
X82728285Y-130396142D01*
X82656857Y-130253285D01*
X82656857Y-129681857D01*
X82728285Y-129539000D01*
X82871142Y-129467571D01*
X83156857Y-129467571D01*
X83299714Y-129539000D01*
X83371142Y-129681857D01*
X83371142Y-129824714D01*
X82656857Y-129967571D01*
X84228285Y-130467571D02*
X84085428Y-130396142D01*
X84014000Y-130324714D01*
X83942571Y-130181857D01*
X83942571Y-129753285D01*
X84014000Y-129610428D01*
X84085428Y-129539000D01*
X84228285Y-129467571D01*
X84442571Y-129467571D01*
X84585428Y-129539000D01*
X84656857Y-129610428D01*
X84728285Y-129753285D01*
X84728285Y-130181857D01*
X84656857Y-130324714D01*
X84585428Y-130396142D01*
X84442571Y-130467571D01*
X84228285Y-130467571D01*
X85371142Y-130324714D02*
X85442571Y-130396142D01*
X85371142Y-130467571D01*
X85299714Y-130396142D01*
X85371142Y-130324714D01*
X85371142Y-130467571D01*
X85371142Y-129539000D02*
X85442571Y-129610428D01*
X85371142Y-129681857D01*
X85299714Y-129610428D01*
X85371142Y-129539000D01*
X85371142Y-129681857D01*
X76371142Y-133017571D02*
X76371142Y-131517571D01*
X77085428Y-132017571D02*
X77085428Y-133017571D01*
X77085428Y-132160428D02*
X77156857Y-132089000D01*
X77299714Y-132017571D01*
X77514000Y-132017571D01*
X77656857Y-132089000D01*
X77728285Y-132231857D01*
X77728285Y-133017571D01*
X79085428Y-132017571D02*
X79085428Y-133231857D01*
X79014000Y-133374714D01*
X78942571Y-133446142D01*
X78799714Y-133517571D01*
X78585428Y-133517571D01*
X78442571Y-133446142D01*
X79085428Y-132946142D02*
X78942571Y-133017571D01*
X78656857Y-133017571D01*
X78514000Y-132946142D01*
X78442571Y-132874714D01*
X78371142Y-132731857D01*
X78371142Y-132303285D01*
X78442571Y-132160428D01*
X78514000Y-132089000D01*
X78656857Y-132017571D01*
X78942571Y-132017571D01*
X79085428Y-132089000D01*
X80014000Y-133017571D02*
X79871142Y-132946142D01*
X79799714Y-132874714D01*
X79728285Y-132731857D01*
X79728285Y-132303285D01*
X79799714Y-132160428D01*
X79871142Y-132089000D01*
X80014000Y-132017571D01*
X80228285Y-132017571D01*
X80371142Y-132089000D01*
X80442571Y-132160428D01*
X80514000Y-132303285D01*
X80514000Y-132731857D01*
X80442571Y-132874714D01*
X80371142Y-132946142D01*
X80228285Y-133017571D01*
X80014000Y-133017571D01*
X82299714Y-133017571D02*
X82299714Y-131517571D01*
X83156857Y-133017571D02*
X82514000Y-132160428D01*
X83156857Y-131517571D02*
X82299714Y-132374714D01*
X84014000Y-133017571D02*
X83871142Y-132946142D01*
X83799714Y-132874714D01*
X83728285Y-132731857D01*
X83728285Y-132303285D01*
X83799714Y-132160428D01*
X83871142Y-132089000D01*
X84014000Y-132017571D01*
X84228285Y-132017571D01*
X84371142Y-132089000D01*
X84442571Y-132160428D01*
X84514000Y-132303285D01*
X84514000Y-132731857D01*
X84442571Y-132874714D01*
X84371142Y-132946142D01*
X84228285Y-133017571D01*
X84014000Y-133017571D01*
X85156857Y-133017571D02*
X85156857Y-132017571D01*
X85156857Y-132303285D02*
X85228285Y-132160428D01*
X85299714Y-132089000D01*
X85442571Y-132017571D01*
X85585428Y-132017571D01*
X86085428Y-133017571D02*
X86085428Y-131517571D01*
X86085428Y-132089000D02*
X86228285Y-132017571D01*
X86514000Y-132017571D01*
X86656857Y-132089000D01*
X86728285Y-132160428D01*
X86799714Y-132303285D01*
X86799714Y-132731857D01*
X86728285Y-132874714D01*
X86656857Y-132946142D01*
X86514000Y-133017571D01*
X86228285Y-133017571D01*
X86085428Y-132946142D01*
D13*
X56521428Y-144197428D02*
X56892857Y-144197428D01*
X56692857Y-144426000D01*
X56778571Y-144426000D01*
X56835714Y-144454571D01*
X56864285Y-144483142D01*
X56892857Y-144540285D01*
X56892857Y-144683142D01*
X56864285Y-144740285D01*
X56835714Y-144768857D01*
X56778571Y-144797428D01*
X56607142Y-144797428D01*
X56550000Y-144768857D01*
X56521428Y-144740285D01*
X57150000Y-144740285D02*
X57178571Y-144768857D01*
X57150000Y-144797428D01*
X57121428Y-144768857D01*
X57150000Y-144740285D01*
X57150000Y-144797428D01*
X57378571Y-144197428D02*
X57750000Y-144197428D01*
X57550000Y-144426000D01*
X57635714Y-144426000D01*
X57692857Y-144454571D01*
X57721428Y-144483142D01*
X57750000Y-144540285D01*
X57750000Y-144683142D01*
X57721428Y-144740285D01*
X57692857Y-144768857D01*
X57635714Y-144797428D01*
X57464285Y-144797428D01*
X57407142Y-144768857D01*
X57378571Y-144740285D01*
X56692857Y-142956000D02*
X56635714Y-142927428D01*
X56550000Y-142927428D01*
X56464285Y-142956000D01*
X56407142Y-143013142D01*
X56378571Y-143070285D01*
X56350000Y-143184571D01*
X56350000Y-143270285D01*
X56378571Y-143384571D01*
X56407142Y-143441714D01*
X56464285Y-143498857D01*
X56550000Y-143527428D01*
X56607142Y-143527428D01*
X56692857Y-143498857D01*
X56721428Y-143470285D01*
X56721428Y-143270285D01*
X56607142Y-143270285D01*
X56978571Y-143527428D02*
X56978571Y-142927428D01*
X57321428Y-143527428D01*
X57321428Y-142927428D01*
X57607142Y-143527428D02*
X57607142Y-142927428D01*
X57750000Y-142927428D01*
X57835714Y-142956000D01*
X57892857Y-143013142D01*
X57921428Y-143070285D01*
X57950000Y-143184571D01*
X57950000Y-143270285D01*
X57921428Y-143384571D01*
X57892857Y-143441714D01*
X57835714Y-143498857D01*
X57750000Y-143527428D01*
X57607142Y-143527428D01*
D14*
X56657904Y-142128857D02*
X56638857Y-142147904D01*
X56581714Y-142166952D01*
X56543619Y-142166952D01*
X56486476Y-142147904D01*
X56448380Y-142109809D01*
X56429333Y-142071714D01*
X56410285Y-141995523D01*
X56410285Y-141938380D01*
X56429333Y-141862190D01*
X56448380Y-141824095D01*
X56486476Y-141786000D01*
X56543619Y-141766952D01*
X56581714Y-141766952D01*
X56638857Y-141786000D01*
X56657904Y-141805047D01*
X57019809Y-142166952D02*
X56829333Y-142166952D01*
X56829333Y-141766952D01*
X57153142Y-142166952D02*
X57153142Y-141766952D01*
X57381714Y-142166952D02*
X57210285Y-141938380D01*
X57381714Y-141766952D02*
X57153142Y-141995523D01*
D13*
X56796000Y-140930285D02*
X56767428Y-140958857D01*
X56681714Y-140987428D01*
X56624571Y-140987428D01*
X56538857Y-140958857D01*
X56481714Y-140901714D01*
X56453142Y-140844571D01*
X56424571Y-140730285D01*
X56424571Y-140644571D01*
X56453142Y-140530285D01*
X56481714Y-140473142D01*
X56538857Y-140416000D01*
X56624571Y-140387428D01*
X56681714Y-140387428D01*
X56767428Y-140416000D01*
X56796000Y-140444571D01*
X57024571Y-140958857D02*
X57110285Y-140987428D01*
X57253142Y-140987428D01*
X57310285Y-140958857D01*
X57338857Y-140930285D01*
X57367428Y-140873142D01*
X57367428Y-140816000D01*
X57338857Y-140758857D01*
X57310285Y-140730285D01*
X57253142Y-140701714D01*
X57138857Y-140673142D01*
X57081714Y-140644571D01*
X57053142Y-140616000D01*
X57024571Y-140558857D01*
X57024571Y-140501714D01*
X57053142Y-140444571D01*
X57081714Y-140416000D01*
X57138857Y-140387428D01*
X57281714Y-140387428D01*
X57367428Y-140416000D01*
X56410285Y-139688857D02*
X56496000Y-139717428D01*
X56638857Y-139717428D01*
X56696000Y-139688857D01*
X56724571Y-139660285D01*
X56753142Y-139603142D01*
X56753142Y-139546000D01*
X56724571Y-139488857D01*
X56696000Y-139460285D01*
X56638857Y-139431714D01*
X56524571Y-139403142D01*
X56467428Y-139374571D01*
X56438857Y-139346000D01*
X56410285Y-139288857D01*
X56410285Y-139231714D01*
X56438857Y-139174571D01*
X56467428Y-139146000D01*
X56524571Y-139117428D01*
X56667428Y-139117428D01*
X56753142Y-139146000D01*
X57124571Y-139117428D02*
X57238857Y-139117428D01*
X57296000Y-139146000D01*
X57353142Y-139203142D01*
X57381714Y-139317428D01*
X57381714Y-139517428D01*
X57353142Y-139631714D01*
X57296000Y-139688857D01*
X57238857Y-139717428D01*
X57124571Y-139717428D01*
X57067428Y-139688857D01*
X57010285Y-139631714D01*
X56981714Y-139517428D01*
X56981714Y-139317428D01*
X57010285Y-139203142D01*
X57067428Y-139146000D01*
X57124571Y-139117428D01*
X56581714Y-138418857D02*
X56667428Y-138447428D01*
X56810285Y-138447428D01*
X56867428Y-138418857D01*
X56896000Y-138390285D01*
X56924571Y-138333142D01*
X56924571Y-138276000D01*
X56896000Y-138218857D01*
X56867428Y-138190285D01*
X56810285Y-138161714D01*
X56696000Y-138133142D01*
X56638857Y-138104571D01*
X56610285Y-138076000D01*
X56581714Y-138018857D01*
X56581714Y-137961714D01*
X56610285Y-137904571D01*
X56638857Y-137876000D01*
X56696000Y-137847428D01*
X56838857Y-137847428D01*
X56924571Y-137876000D01*
X57181714Y-138447428D02*
X57181714Y-137847428D01*
D15*
G04 #@! TO.C,J5*
X63689000Y-167324000D02*
X63689000Y-165924000D01*
X65089000Y-167324000D02*
X63689000Y-167324000D01*
X65089000Y-165924000D02*
X65089000Y-167324000D01*
X63689000Y-165924000D02*
X65089000Y-165924000D01*
G04 #@! TO.C,C10*
X57166252Y-163882000D02*
X56643748Y-163882000D01*
X57166252Y-165302000D02*
X56643748Y-165302000D01*
G04 #@! TO.C,C12*
X57157252Y-166168000D02*
X56634748Y-166168000D01*
X57157252Y-167588000D02*
X56634748Y-167588000D01*
G04 #@! TO.C,C11*
X59790529Y-146953563D02*
X60159995Y-146584097D01*
X58786437Y-145949471D02*
X59155903Y-145580005D01*
G04 #@! TO.C,C9*
X80798097Y-137629995D02*
X81167563Y-137260529D01*
X79794005Y-136625903D02*
X80163471Y-136256437D01*
G04 #@! TO.C,C8*
X69334748Y-138632000D02*
X69857252Y-138632000D01*
X69334748Y-137212000D02*
X69857252Y-137212000D01*
G04 #@! TO.C,C7*
X74438252Y-78030000D02*
X73915748Y-78030000D01*
X74438252Y-79450000D02*
X73915748Y-79450000D01*
G04 #@! TO.C,C6*
X71728529Y-163463563D02*
X72097995Y-163094097D01*
X70724437Y-162459471D02*
X71093903Y-162090005D01*
G04 #@! TO.C,C5*
X61215748Y-166826000D02*
X61738252Y-166826000D01*
X61215748Y-165406000D02*
X61738252Y-165406000D01*
G04 #@! TO.C,C4*
X67562252Y-165406000D02*
X67039748Y-165406000D01*
X67562252Y-166826000D02*
X67039748Y-166826000D01*
D13*
G04 #@! TO.C,U2*
X59233000Y-137302000D02*
X57833000Y-137302000D01*
X59233000Y-142402000D02*
X63383000Y-142402000D01*
X59233000Y-137252000D02*
X63383000Y-137252000D01*
X59233000Y-142402000D02*
X59233000Y-142257000D01*
X63383000Y-142402000D02*
X63383000Y-142257000D01*
X63383000Y-137252000D02*
X63383000Y-137397000D01*
X59233000Y-137252000D02*
X59233000Y-137302000D01*
D15*
G04 #@! TO.C,R3*
X78484252Y-156770000D02*
X77961748Y-156770000D01*
X78484252Y-158190000D02*
X77961748Y-158190000D01*
G04 #@! TO.C,R2*
X55701221Y-159067313D02*
X56070687Y-159436779D01*
X56705313Y-158063221D02*
X57074779Y-158432687D01*
G04 #@! TO.C,JP1*
X79998000Y-160512000D02*
X77198000Y-160512000D01*
X77198000Y-160512000D02*
X77198000Y-158512000D01*
X77198000Y-158512000D02*
X79998000Y-158512000D01*
X79998000Y-158512000D02*
X79998000Y-160512000D01*
G04 #@! TO.C,J3*
X101824000Y-133704000D02*
X100624000Y-133704000D01*
X107624000Y-124394000D02*
X105884000Y-124394000D01*
X107624000Y-135194000D02*
X107624000Y-124394000D01*
X105884000Y-135194000D02*
X107624000Y-135194000D01*
X101824000Y-124394000D02*
X103164000Y-124394000D01*
X101824000Y-125884000D02*
X101824000Y-124394000D01*
X101824000Y-135194000D02*
X103164000Y-135194000D01*
X101824000Y-133704000D02*
X101824000Y-135194000D01*
G04 #@! TO.C,C3*
X64314000Y-96757748D02*
X64314000Y-97280252D01*
X65734000Y-96757748D02*
X65734000Y-97280252D01*
G04 #@! TO.C,C2*
X69325748Y-92150000D02*
X69848252Y-92150000D01*
X69325748Y-90730000D02*
X69848252Y-90730000D01*
G04 #@! TO.C,C1*
X65294252Y-90730000D02*
X64771748Y-90730000D01*
X65294252Y-92150000D02*
X64771748Y-92150000D01*
D16*
G04 #@! TO.C,U1*
X75578071Y-152658541D02*
X74870427Y-153366185D01*
X74870427Y-153366185D02*
X75082361Y-153578119D01*
X75790005Y-152870475D02*
X75082361Y-153578119D01*
X75578071Y-152658541D02*
X75790005Y-152870475D01*
X75224249Y-152304719D02*
X74516605Y-153012363D01*
X74516605Y-153012363D02*
X74728539Y-153224297D01*
X75436183Y-152516653D02*
X74728539Y-153224297D01*
X75224249Y-152304719D02*
X75436183Y-152516653D01*
X74870427Y-151950896D02*
X74162783Y-152658541D01*
X74162783Y-152658541D02*
X74374717Y-152870475D01*
X75082361Y-152162831D02*
X74374717Y-152870475D01*
X74870427Y-151950896D02*
X75082361Y-152162831D01*
X74516605Y-151597074D02*
X73808961Y-152304719D01*
X73808961Y-152304719D02*
X74020895Y-152516653D01*
X74728539Y-151809008D02*
X74020895Y-152516653D01*
X74516605Y-151597074D02*
X74728539Y-151809008D01*
X74162783Y-151243252D02*
X73455139Y-151950896D01*
X73455139Y-151950896D02*
X73667073Y-152162831D01*
X74374717Y-151455186D02*
X73667073Y-152162831D01*
X74162783Y-151243252D02*
X74374717Y-151455186D01*
X73808961Y-150889430D02*
X73101317Y-151597074D01*
X73101317Y-151597074D02*
X73315047Y-151810804D01*
X74022691Y-151103160D02*
X73315047Y-151810804D01*
X73808961Y-150889430D02*
X74022691Y-151103160D01*
X73456935Y-150537404D02*
X72749291Y-151245048D01*
X72749291Y-151245048D02*
X72961225Y-151456982D01*
X73668869Y-150749338D02*
X72961225Y-151456982D01*
X73456935Y-150537404D02*
X73668869Y-150749338D01*
X73103113Y-150183582D02*
X72395469Y-150891226D01*
X72395469Y-150891226D02*
X72607403Y-151103160D01*
X73315047Y-150395516D02*
X72607403Y-151103160D01*
X73103113Y-150183582D02*
X73315047Y-150395516D01*
X72749291Y-149829760D02*
X72041646Y-150537404D01*
X72041646Y-150537404D02*
X72253580Y-150749338D01*
X72961225Y-150041694D02*
X72253580Y-150749338D01*
X72749291Y-149829760D02*
X72961225Y-150041694D01*
X72395469Y-149475938D02*
X71687824Y-150183582D01*
X71687824Y-150183582D02*
X71899758Y-150395516D01*
X72607403Y-149687872D02*
X71899758Y-150395516D01*
X72395469Y-149475938D02*
X72607403Y-149687872D01*
X72041646Y-149122116D02*
X71334002Y-149829760D01*
X71334002Y-149829760D02*
X71545936Y-150041694D01*
X72253580Y-149334050D02*
X71545936Y-150041694D01*
X72041646Y-149122116D02*
X72253580Y-149334050D01*
X71687824Y-148768294D02*
X70980180Y-149475938D01*
X70980180Y-149475938D02*
X71192114Y-149687872D01*
X71899758Y-148980228D02*
X71192114Y-149687872D01*
X71687824Y-148768294D02*
X71899758Y-148980228D01*
X71335798Y-148416268D02*
X70628154Y-149123912D01*
X70628154Y-149123912D02*
X70840088Y-149335846D01*
X71547732Y-148628202D02*
X70840088Y-149335846D01*
X71335798Y-148416268D02*
X71547732Y-148628202D01*
X70983772Y-148064242D02*
X70276128Y-148771886D01*
X70276128Y-148771886D02*
X70488062Y-148983820D01*
X71195706Y-148276176D02*
X70488062Y-148983820D01*
X70983772Y-148064242D02*
X71195706Y-148276176D01*
X70629950Y-147710420D02*
X69922306Y-148418064D01*
X69922306Y-148418064D02*
X70134240Y-148629998D01*
X70841884Y-147922354D02*
X70134240Y-148629998D01*
X70629950Y-147710420D02*
X70841884Y-147922354D01*
X70276128Y-147356597D02*
X69568484Y-148064242D01*
X69568484Y-148064242D02*
X69780418Y-148276176D01*
X70488062Y-147568531D02*
X69780418Y-148276176D01*
X70276128Y-147356597D02*
X70488062Y-147568531D01*
X69922306Y-147002775D02*
X69214662Y-147710420D01*
X69214662Y-147710420D02*
X69426596Y-147922354D01*
X70134240Y-147214709D02*
X69426596Y-147922354D01*
X69922306Y-147002775D02*
X70134240Y-147214709D01*
X69568484Y-146648953D02*
X68860840Y-147356597D01*
X68860840Y-147356597D02*
X69072774Y-147568531D01*
X69780418Y-146860887D02*
X69072774Y-147568531D01*
X69568484Y-146648953D02*
X69780418Y-146860887D01*
X69214662Y-146295131D02*
X68507018Y-147002775D01*
X68507018Y-147002775D02*
X68718952Y-147214709D01*
X69426596Y-146507065D02*
X68718952Y-147214709D01*
X69214662Y-146295131D02*
X69426596Y-146507065D01*
X68860840Y-145941309D02*
X68153196Y-146648953D01*
X68153196Y-146648953D02*
X68366926Y-146862683D01*
X69074570Y-146155039D02*
X68366926Y-146862683D01*
X68860840Y-145941309D02*
X69074570Y-146155039D01*
X68508814Y-145589283D02*
X67801169Y-146296927D01*
X67801169Y-146296927D02*
X68013104Y-146508861D01*
X68720748Y-145801217D02*
X68013104Y-146508861D01*
X68508814Y-145589283D02*
X68720748Y-145801217D01*
X68154992Y-145235461D02*
X67447347Y-145943105D01*
X67447347Y-145943105D02*
X67659281Y-146155039D01*
X68366926Y-145447395D02*
X67659281Y-146155039D01*
X68154992Y-145235461D02*
X68366926Y-145447395D01*
X67801169Y-144881639D02*
X67093525Y-145589283D01*
X67093525Y-145589283D02*
X67305459Y-145801217D01*
X68013104Y-145093573D02*
X67305459Y-145801217D01*
X67801169Y-144881639D02*
X68013104Y-145093573D01*
X67447347Y-144527817D02*
X66739703Y-145235461D01*
X66739703Y-145235461D02*
X66951637Y-145447395D01*
X67659281Y-144739751D02*
X66951637Y-145447395D01*
X67447347Y-144527817D02*
X67659281Y-144739751D01*
X67093525Y-144173995D02*
X66385881Y-144881639D01*
X66385881Y-144881639D02*
X66597815Y-145093573D01*
X67305459Y-144385929D02*
X66597815Y-145093573D01*
X67093525Y-144173995D02*
X67305459Y-144385929D01*
X64478475Y-144173995D02*
X64266541Y-144385929D01*
X64266541Y-144385929D02*
X64974185Y-145093573D01*
X65186119Y-144881639D02*
X64974185Y-145093573D01*
X64478475Y-144173995D02*
X65186119Y-144881639D01*
X64124653Y-144527817D02*
X63912719Y-144739751D01*
X63912719Y-144739751D02*
X64620363Y-145447395D01*
X64832297Y-145235461D02*
X64620363Y-145447395D01*
X64124653Y-144527817D02*
X64832297Y-145235461D01*
X63770831Y-144881639D02*
X63558896Y-145093573D01*
X63558896Y-145093573D02*
X64266541Y-145801217D01*
X64478475Y-145589283D02*
X64266541Y-145801217D01*
X63770831Y-144881639D02*
X64478475Y-145589283D01*
X63417008Y-145235461D02*
X63205074Y-145447395D01*
X63205074Y-145447395D02*
X63912719Y-146155039D01*
X64124653Y-145943105D02*
X63912719Y-146155039D01*
X63417008Y-145235461D02*
X64124653Y-145943105D01*
X63063186Y-145589283D02*
X62851252Y-145801217D01*
X62851252Y-145801217D02*
X63558896Y-146508861D01*
X63770831Y-146296927D02*
X63558896Y-146508861D01*
X63063186Y-145589283D02*
X63770831Y-146296927D01*
X62711160Y-145941309D02*
X62497430Y-146155039D01*
X62497430Y-146155039D02*
X63205074Y-146862683D01*
X63418804Y-146648953D02*
X63205074Y-146862683D01*
X62711160Y-145941309D02*
X63418804Y-146648953D01*
X62357338Y-146295131D02*
X62145404Y-146507065D01*
X62145404Y-146507065D02*
X62853048Y-147214709D01*
X63064982Y-147002775D02*
X62853048Y-147214709D01*
X62357338Y-146295131D02*
X63064982Y-147002775D01*
X62003516Y-146648953D02*
X61791582Y-146860887D01*
X61791582Y-146860887D02*
X62499226Y-147568531D01*
X62711160Y-147356597D02*
X62499226Y-147568531D01*
X62003516Y-146648953D02*
X62711160Y-147356597D01*
X61649694Y-147002775D02*
X61437760Y-147214709D01*
X61437760Y-147214709D02*
X62145404Y-147922354D01*
X62357338Y-147710420D02*
X62145404Y-147922354D01*
X61649694Y-147002775D02*
X62357338Y-147710420D01*
X61295872Y-147356597D02*
X61083938Y-147568531D01*
X61083938Y-147568531D02*
X61791582Y-148276176D01*
X62003516Y-148064242D02*
X61791582Y-148276176D01*
X61295872Y-147356597D02*
X62003516Y-148064242D01*
X60942050Y-147710420D02*
X60730116Y-147922354D01*
X60730116Y-147922354D02*
X61437760Y-148629998D01*
X61649694Y-148418064D02*
X61437760Y-148629998D01*
X60942050Y-147710420D02*
X61649694Y-148418064D01*
X60588228Y-148064242D02*
X60376294Y-148276176D01*
X60376294Y-148276176D02*
X61083938Y-148983820D01*
X61295872Y-148771886D02*
X61083938Y-148983820D01*
X60588228Y-148064242D02*
X61295872Y-148771886D01*
X60236202Y-148416268D02*
X60024268Y-148628202D01*
X60024268Y-148628202D02*
X60731912Y-149335846D01*
X60943846Y-149123912D02*
X60731912Y-149335846D01*
X60236202Y-148416268D02*
X60943846Y-149123912D01*
X59884176Y-148768294D02*
X59672242Y-148980228D01*
X59672242Y-148980228D02*
X60379886Y-149687872D01*
X60591820Y-149475938D02*
X60379886Y-149687872D01*
X59884176Y-148768294D02*
X60591820Y-149475938D01*
X59530354Y-149122116D02*
X59318420Y-149334050D01*
X59318420Y-149334050D02*
X60026064Y-150041694D01*
X60237998Y-149829760D02*
X60026064Y-150041694D01*
X59530354Y-149122116D02*
X60237998Y-149829760D01*
X59176531Y-149475938D02*
X58964597Y-149687872D01*
X58964597Y-149687872D02*
X59672242Y-150395516D01*
X59884176Y-150183582D02*
X59672242Y-150395516D01*
X59176531Y-149475938D02*
X59884176Y-150183582D01*
X58822709Y-149829760D02*
X58610775Y-150041694D01*
X58610775Y-150041694D02*
X59318420Y-150749338D01*
X59530354Y-150537404D02*
X59318420Y-150749338D01*
X58822709Y-149829760D02*
X59530354Y-150537404D01*
X58468887Y-150183582D02*
X58256953Y-150395516D01*
X58256953Y-150395516D02*
X58964597Y-151103160D01*
X59176531Y-150891226D02*
X58964597Y-151103160D01*
X58468887Y-150183582D02*
X59176531Y-150891226D01*
X58115065Y-150537404D02*
X57903131Y-150749338D01*
X57903131Y-150749338D02*
X58610775Y-151456982D01*
X58822709Y-151245048D02*
X58610775Y-151456982D01*
X58115065Y-150537404D02*
X58822709Y-151245048D01*
X57763039Y-150889430D02*
X57549309Y-151103160D01*
X57549309Y-151103160D02*
X58256953Y-151810804D01*
X58470683Y-151597074D02*
X58256953Y-151810804D01*
X57763039Y-150889430D02*
X58470683Y-151597074D01*
X57409217Y-151243252D02*
X57197283Y-151455186D01*
X57197283Y-151455186D02*
X57904927Y-152162831D01*
X58116861Y-151950896D02*
X57904927Y-152162831D01*
X57409217Y-151243252D02*
X58116861Y-151950896D01*
X57055395Y-151597074D02*
X56843461Y-151809008D01*
X56843461Y-151809008D02*
X57551105Y-152516653D01*
X57763039Y-152304719D02*
X57551105Y-152516653D01*
X57055395Y-151597074D02*
X57763039Y-152304719D01*
X56701573Y-151950896D02*
X56489639Y-152162831D01*
X56489639Y-152162831D02*
X57197283Y-152870475D01*
X57409217Y-152658541D02*
X57197283Y-152870475D01*
X56701573Y-151950896D02*
X57409217Y-152658541D01*
X56347751Y-152304719D02*
X56135817Y-152516653D01*
X56135817Y-152516653D02*
X56843461Y-153224297D01*
X57055395Y-153012363D02*
X56843461Y-153224297D01*
X56347751Y-152304719D02*
X57055395Y-153012363D01*
X55993929Y-152658541D02*
X55781995Y-152870475D01*
X55781995Y-152870475D02*
X56489639Y-153578119D01*
X56701573Y-153366185D02*
X56489639Y-153578119D01*
X55993929Y-152658541D02*
X56701573Y-153366185D01*
X56489639Y-154777881D02*
X55781995Y-155485525D01*
X55781995Y-155485525D02*
X55993929Y-155697459D01*
X56701573Y-154989815D02*
X55993929Y-155697459D01*
X56489639Y-154777881D02*
X56701573Y-154989815D01*
X56843461Y-155131703D02*
X56135817Y-155839347D01*
X56135817Y-155839347D02*
X56347751Y-156051281D01*
X57055395Y-155343637D02*
X56347751Y-156051281D01*
X56843461Y-155131703D02*
X57055395Y-155343637D01*
X57197283Y-155485525D02*
X56489639Y-156193169D01*
X56489639Y-156193169D02*
X56701573Y-156405104D01*
X57409217Y-155697459D02*
X56701573Y-156405104D01*
X57197283Y-155485525D02*
X57409217Y-155697459D01*
X57551105Y-155839347D02*
X56843461Y-156546992D01*
X56843461Y-156546992D02*
X57055395Y-156758926D01*
X57763039Y-156051281D02*
X57055395Y-156758926D01*
X57551105Y-155839347D02*
X57763039Y-156051281D01*
X57904927Y-156193169D02*
X57197283Y-156900814D01*
X57197283Y-156900814D02*
X57409217Y-157112748D01*
X58116861Y-156405104D02*
X57409217Y-157112748D01*
X57904927Y-156193169D02*
X58116861Y-156405104D01*
X58256953Y-156545196D02*
X57549309Y-157252840D01*
X57549309Y-157252840D02*
X57763039Y-157466570D01*
X58470683Y-156758926D02*
X57763039Y-157466570D01*
X58256953Y-156545196D02*
X58470683Y-156758926D01*
X58610775Y-156899018D02*
X57903131Y-157606662D01*
X57903131Y-157606662D02*
X58115065Y-157818596D01*
X58822709Y-157110952D02*
X58115065Y-157818596D01*
X58610775Y-156899018D02*
X58822709Y-157110952D01*
X58964597Y-157252840D02*
X58256953Y-157960484D01*
X58256953Y-157960484D02*
X58468887Y-158172418D01*
X59176531Y-157464774D02*
X58468887Y-158172418D01*
X58964597Y-157252840D02*
X59176531Y-157464774D01*
X59318420Y-157606662D02*
X58610775Y-158314306D01*
X58610775Y-158314306D02*
X58822709Y-158526240D01*
X59530354Y-157818596D02*
X58822709Y-158526240D01*
X59318420Y-157606662D02*
X59530354Y-157818596D01*
X59672242Y-157960484D02*
X58964597Y-158668128D01*
X58964597Y-158668128D02*
X59176531Y-158880062D01*
X59884176Y-158172418D02*
X59176531Y-158880062D01*
X59672242Y-157960484D02*
X59884176Y-158172418D01*
X60026064Y-158314306D02*
X59318420Y-159021950D01*
X59318420Y-159021950D02*
X59530354Y-159233884D01*
X60237998Y-158526240D02*
X59530354Y-159233884D01*
X60026064Y-158314306D02*
X60237998Y-158526240D01*
X60379886Y-158668128D02*
X59672242Y-159375772D01*
X59672242Y-159375772D02*
X59884176Y-159587706D01*
X60591820Y-158880062D02*
X59884176Y-159587706D01*
X60379886Y-158668128D02*
X60591820Y-158880062D01*
X60731912Y-159020154D02*
X60024268Y-159727798D01*
X60024268Y-159727798D02*
X60236202Y-159939732D01*
X60943846Y-159232088D02*
X60236202Y-159939732D01*
X60731912Y-159020154D02*
X60943846Y-159232088D01*
X61083938Y-159372180D02*
X60376294Y-160079824D01*
X60376294Y-160079824D02*
X60588228Y-160291758D01*
X61295872Y-159584114D02*
X60588228Y-160291758D01*
X61083938Y-159372180D02*
X61295872Y-159584114D01*
X61437760Y-159726002D02*
X60730116Y-160433646D01*
X60730116Y-160433646D02*
X60942050Y-160645580D01*
X61649694Y-159937936D02*
X60942050Y-160645580D01*
X61437760Y-159726002D02*
X61649694Y-159937936D01*
X61791582Y-160079824D02*
X61083938Y-160787469D01*
X61083938Y-160787469D02*
X61295872Y-160999403D01*
X62003516Y-160291758D02*
X61295872Y-160999403D01*
X61791582Y-160079824D02*
X62003516Y-160291758D01*
X62145404Y-160433646D02*
X61437760Y-161141291D01*
X61437760Y-161141291D02*
X61649694Y-161353225D01*
X62357338Y-160645580D02*
X61649694Y-161353225D01*
X62145404Y-160433646D02*
X62357338Y-160645580D01*
X62499226Y-160787469D02*
X61791582Y-161495113D01*
X61791582Y-161495113D02*
X62003516Y-161707047D01*
X62711160Y-160999403D02*
X62003516Y-161707047D01*
X62499226Y-160787469D02*
X62711160Y-160999403D01*
X62853048Y-161141291D02*
X62145404Y-161848935D01*
X62145404Y-161848935D02*
X62357338Y-162060869D01*
X63064982Y-161353225D02*
X62357338Y-162060869D01*
X62853048Y-161141291D02*
X63064982Y-161353225D01*
X63205074Y-161493317D02*
X62497430Y-162200961D01*
X62497430Y-162200961D02*
X62711160Y-162414691D01*
X63418804Y-161707047D02*
X62711160Y-162414691D01*
X63205074Y-161493317D02*
X63418804Y-161707047D01*
X63558896Y-161847139D02*
X62851252Y-162554783D01*
X62851252Y-162554783D02*
X63063186Y-162766717D01*
X63770831Y-162059073D02*
X63063186Y-162766717D01*
X63558896Y-161847139D02*
X63770831Y-162059073D01*
X63912719Y-162200961D02*
X63205074Y-162908605D01*
X63205074Y-162908605D02*
X63417008Y-163120539D01*
X64124653Y-162412895D02*
X63417008Y-163120539D01*
X63912719Y-162200961D02*
X64124653Y-162412895D01*
X64266541Y-162554783D02*
X63558896Y-163262427D01*
X63558896Y-163262427D02*
X63770831Y-163474361D01*
X64478475Y-162766717D02*
X63770831Y-163474361D01*
X64266541Y-162554783D02*
X64478475Y-162766717D01*
X64620363Y-162908605D02*
X63912719Y-163616249D01*
X63912719Y-163616249D02*
X64124653Y-163828183D01*
X64832297Y-163120539D02*
X64124653Y-163828183D01*
X64620363Y-162908605D02*
X64832297Y-163120539D01*
X64974185Y-163262427D02*
X64266541Y-163970071D01*
X64266541Y-163970071D02*
X64478475Y-164182005D01*
X65186119Y-163474361D02*
X64478475Y-164182005D01*
X64974185Y-163262427D02*
X65186119Y-163474361D01*
X66597815Y-163262427D02*
X66385881Y-163474361D01*
X66385881Y-163474361D02*
X67093525Y-164182005D01*
X67305459Y-163970071D02*
X67093525Y-164182005D01*
X66597815Y-163262427D02*
X67305459Y-163970071D01*
X66951637Y-162908605D02*
X66739703Y-163120539D01*
X66739703Y-163120539D02*
X67447347Y-163828183D01*
X67659281Y-163616249D02*
X67447347Y-163828183D01*
X66951637Y-162908605D02*
X67659281Y-163616249D01*
X67305459Y-162554783D02*
X67093525Y-162766717D01*
X67093525Y-162766717D02*
X67801169Y-163474361D01*
X68013104Y-163262427D02*
X67801169Y-163474361D01*
X67305459Y-162554783D02*
X68013104Y-163262427D01*
X67659281Y-162200961D02*
X67447347Y-162412895D01*
X67447347Y-162412895D02*
X68154992Y-163120539D01*
X68366926Y-162908605D02*
X68154992Y-163120539D01*
X67659281Y-162200961D02*
X68366926Y-162908605D01*
X68013104Y-161847139D02*
X67801169Y-162059073D01*
X67801169Y-162059073D02*
X68508814Y-162766717D01*
X68720748Y-162554783D02*
X68508814Y-162766717D01*
X68013104Y-161847139D02*
X68720748Y-162554783D01*
X68366926Y-161493317D02*
X68153196Y-161707047D01*
X68153196Y-161707047D02*
X68860840Y-162414691D01*
X69074570Y-162200961D02*
X68860840Y-162414691D01*
X68366926Y-161493317D02*
X69074570Y-162200961D01*
X68718952Y-161141291D02*
X68507018Y-161353225D01*
X68507018Y-161353225D02*
X69214662Y-162060869D01*
X69426596Y-161848935D02*
X69214662Y-162060869D01*
X68718952Y-161141291D02*
X69426596Y-161848935D01*
X69072774Y-160787469D02*
X68860840Y-160999403D01*
X68860840Y-160999403D02*
X69568484Y-161707047D01*
X69780418Y-161495113D02*
X69568484Y-161707047D01*
X69072774Y-160787469D02*
X69780418Y-161495113D01*
X69426596Y-160433646D02*
X69214662Y-160645580D01*
X69214662Y-160645580D02*
X69922306Y-161353225D01*
X70134240Y-161141291D02*
X69922306Y-161353225D01*
X69426596Y-160433646D02*
X70134240Y-161141291D01*
X69780418Y-160079824D02*
X69568484Y-160291758D01*
X69568484Y-160291758D02*
X70276128Y-160999403D01*
X70488062Y-160787469D02*
X70276128Y-160999403D01*
X69780418Y-160079824D02*
X70488062Y-160787469D01*
X70134240Y-159726002D02*
X69922306Y-159937936D01*
X69922306Y-159937936D02*
X70629950Y-160645580D01*
X70841884Y-160433646D02*
X70629950Y-160645580D01*
X70134240Y-159726002D02*
X70841884Y-160433646D01*
X70488062Y-159372180D02*
X70276128Y-159584114D01*
X70276128Y-159584114D02*
X70983772Y-160291758D01*
X71195706Y-160079824D02*
X70983772Y-160291758D01*
X70488062Y-159372180D02*
X71195706Y-160079824D01*
X70840088Y-159020154D02*
X70628154Y-159232088D01*
X70628154Y-159232088D02*
X71335798Y-159939732D01*
X71547732Y-159727798D02*
X71335798Y-159939732D01*
X70840088Y-159020154D02*
X71547732Y-159727798D01*
X71192114Y-158668128D02*
X70980180Y-158880062D01*
X70980180Y-158880062D02*
X71687824Y-159587706D01*
X71899758Y-159375772D02*
X71687824Y-159587706D01*
X71192114Y-158668128D02*
X71899758Y-159375772D01*
X71545936Y-158314306D02*
X71334002Y-158526240D01*
X71334002Y-158526240D02*
X72041646Y-159233884D01*
X72253580Y-159021950D02*
X72041646Y-159233884D01*
X71545936Y-158314306D02*
X72253580Y-159021950D01*
X71899758Y-157960484D02*
X71687824Y-158172418D01*
X71687824Y-158172418D02*
X72395469Y-158880062D01*
X72607403Y-158668128D02*
X72395469Y-158880062D01*
X71899758Y-157960484D02*
X72607403Y-158668128D01*
X72253580Y-157606662D02*
X72041646Y-157818596D01*
X72041646Y-157818596D02*
X72749291Y-158526240D01*
X72961225Y-158314306D02*
X72749291Y-158526240D01*
X72253580Y-157606662D02*
X72961225Y-158314306D01*
X72607403Y-157252840D02*
X72395469Y-157464774D01*
X72395469Y-157464774D02*
X73103113Y-158172418D01*
X73315047Y-157960484D02*
X73103113Y-158172418D01*
X72607403Y-157252840D02*
X73315047Y-157960484D01*
X72961225Y-156899018D02*
X72749291Y-157110952D01*
X72749291Y-157110952D02*
X73456935Y-157818596D01*
X73668869Y-157606662D02*
X73456935Y-157818596D01*
X72961225Y-156899018D02*
X73668869Y-157606662D01*
X73315047Y-156545196D02*
X73101317Y-156758926D01*
X73101317Y-156758926D02*
X73808961Y-157466570D01*
X74022691Y-157252840D02*
X73808961Y-157466570D01*
X73315047Y-156545196D02*
X74022691Y-157252840D01*
X73667073Y-156193169D02*
X73455139Y-156405104D01*
X73455139Y-156405104D02*
X74162783Y-157112748D01*
X74374717Y-156900814D02*
X74162783Y-157112748D01*
X73667073Y-156193169D02*
X74374717Y-156900814D01*
X74020895Y-155839347D02*
X73808961Y-156051281D01*
X73808961Y-156051281D02*
X74516605Y-156758926D01*
X74728539Y-156546992D02*
X74516605Y-156758926D01*
X74020895Y-155839347D02*
X74728539Y-156546992D01*
X74374717Y-155485525D02*
X74162783Y-155697459D01*
X74162783Y-155697459D02*
X74870427Y-156405104D01*
X75082361Y-156193169D02*
X74870427Y-156405104D01*
X74374717Y-155485525D02*
X75082361Y-156193169D01*
X74728539Y-155131703D02*
X74516605Y-155343637D01*
X74516605Y-155343637D02*
X75224249Y-156051281D01*
X75436183Y-155839347D02*
X75224249Y-156051281D01*
X74728539Y-155131703D02*
X75436183Y-155839347D01*
X75082361Y-154777881D02*
X74870427Y-154989815D01*
X74870427Y-154989815D02*
X75578071Y-155697459D01*
X75790005Y-155485525D02*
X75578071Y-155697459D01*
X75082361Y-154777881D02*
X75790005Y-155485525D01*
D17*
X75082361Y-153930145D02*
X66033855Y-144881639D01*
X66033855Y-144881639D02*
X65538145Y-144881639D01*
X65538145Y-144881639D02*
X56489639Y-153930145D01*
X56489639Y-153930145D02*
X56489639Y-154425855D01*
X56489639Y-154425855D02*
X65538145Y-163474361D01*
X65538145Y-163474361D02*
X66033855Y-163474361D01*
X66033855Y-163474361D02*
X75082361Y-154425855D01*
X75082361Y-154425855D02*
X75082361Y-153930145D01*
D18*
X75330216Y-153825974D02*
X66138026Y-144633784D01*
X66138026Y-144633784D02*
X65433974Y-144633784D01*
X65433974Y-144633784D02*
X56241784Y-153825974D01*
X56241784Y-153825974D02*
X56241784Y-154530026D01*
X56241784Y-154530026D02*
X65433974Y-163722216D01*
X65433974Y-163722216D02*
X66138026Y-163722216D01*
X66138026Y-163722216D02*
X75330216Y-154530026D01*
X75330216Y-154530026D02*
X75330216Y-153825974D01*
D19*
X74622572Y-154178000D02*
G75*
G03X74622572Y-154178000I-352026J0D01*
G01*
D13*
G04 #@! TO.C,U3*
X70588000Y-95607000D02*
X70588000Y-94357000D01*
X67413000Y-95607000D02*
X67413000Y-98957000D01*
X70763000Y-95607000D02*
X70763000Y-98957000D01*
X67413000Y-95607000D02*
X67663000Y-95607000D01*
X67413000Y-98957000D02*
X67663000Y-98957000D01*
X70763000Y-98957000D02*
X70513000Y-98957000D01*
X70763000Y-95607000D02*
X70588000Y-95607000D01*
D15*
G04 #@! TO.C,R1*
X55170000Y-147312748D02*
X55170000Y-147835252D01*
X56590000Y-147312748D02*
X56590000Y-147835252D01*
G04 #@! TO.C,J4*
X94550000Y-101284000D02*
X94550000Y-99884000D01*
X95950000Y-101284000D02*
X94550000Y-101284000D01*
X95950000Y-99884000D02*
X95950000Y-101284000D01*
X94550000Y-99884000D02*
X95950000Y-99884000D01*
X96582000Y-99884000D02*
X97982000Y-99884000D01*
X96582000Y-101284000D02*
X96582000Y-99884000D01*
X97982000Y-101284000D02*
X96582000Y-101284000D01*
X97982000Y-99884000D02*
X97982000Y-101284000D01*
X98614000Y-99884000D02*
X100014000Y-99884000D01*
X98614000Y-101284000D02*
X98614000Y-99884000D01*
X100014000Y-101284000D02*
X98614000Y-101284000D01*
X100014000Y-99884000D02*
X100014000Y-101284000D01*
X100646000Y-99884000D02*
X102046000Y-99884000D01*
X100646000Y-101284000D02*
X100646000Y-99884000D01*
X102046000Y-99884000D02*
X102046000Y-101284000D01*
X102046000Y-101284000D02*
X100646000Y-101284000D01*
X102678000Y-99884000D02*
X104078000Y-99884000D01*
X104078000Y-101284000D02*
X102678000Y-101284000D01*
X102678000Y-101284000D02*
X102678000Y-99884000D01*
X104078000Y-99884000D02*
X104078000Y-101284000D01*
X106110000Y-101284000D02*
X104710000Y-101284000D01*
X104710000Y-101284000D02*
X104710000Y-99884000D01*
X104710000Y-99884000D02*
X106110000Y-99884000D01*
X106110000Y-99884000D02*
X106110000Y-101284000D01*
X93534000Y-103316000D02*
X93534000Y-101916000D01*
X94934000Y-103316000D02*
X93534000Y-103316000D01*
X94934000Y-101916000D02*
X94934000Y-103316000D01*
X93534000Y-101916000D02*
X94934000Y-101916000D01*
X95566000Y-101916000D02*
X96966000Y-101916000D01*
X96966000Y-101916000D02*
X96966000Y-103316000D01*
X96966000Y-103316000D02*
X95566000Y-103316000D01*
X95566000Y-103316000D02*
X95566000Y-101916000D01*
X98998000Y-101916000D02*
X98998000Y-103316000D01*
X97598000Y-103316000D02*
X97598000Y-101916000D01*
X97598000Y-101916000D02*
X98998000Y-101916000D01*
X98998000Y-103316000D02*
X97598000Y-103316000D01*
X101030000Y-101916000D02*
X101030000Y-103316000D01*
X99630000Y-103316000D02*
X99630000Y-101916000D01*
X101030000Y-103316000D02*
X99630000Y-103316000D01*
X99630000Y-101916000D02*
X101030000Y-101916000D01*
X103062000Y-101916000D02*
X103062000Y-103316000D01*
X103062000Y-103316000D02*
X101662000Y-103316000D01*
X101662000Y-101916000D02*
X103062000Y-101916000D01*
X101662000Y-103316000D02*
X101662000Y-101916000D01*
X103694000Y-103316000D02*
X103694000Y-101916000D01*
X105094000Y-101916000D02*
X105094000Y-103316000D01*
X103694000Y-101916000D02*
X105094000Y-101916000D01*
X105094000Y-103316000D02*
X103694000Y-103316000D01*
G04 #@! TO.C,J6*
X104837000Y-105980000D02*
X106237000Y-105980000D01*
X106237000Y-105980000D02*
X106237000Y-107380000D01*
X106237000Y-107380000D02*
X104837000Y-107380000D01*
X104837000Y-107380000D02*
X104837000Y-105980000D01*
G04 #@! TO.C,J5*
D13*
X64055666Y-164628380D02*
X64055666Y-165342666D01*
X64008047Y-165485523D01*
X63912809Y-165580761D01*
X63769952Y-165628380D01*
X63674714Y-165628380D01*
X65008047Y-164628380D02*
X64531857Y-164628380D01*
X64484238Y-165104571D01*
X64531857Y-165056952D01*
X64627095Y-165009333D01*
X64865190Y-165009333D01*
X64960428Y-165056952D01*
X65008047Y-165104571D01*
X65055666Y-165199809D01*
X65055666Y-165437904D01*
X65008047Y-165533142D01*
X64960428Y-165580761D01*
X64865190Y-165628380D01*
X64627095Y-165628380D01*
X64531857Y-165580761D01*
X64484238Y-165533142D01*
G04 #@! TO.C,C10*
X56262142Y-166599142D02*
X56214523Y-166646761D01*
X56071666Y-166694380D01*
X55976428Y-166694380D01*
X55833571Y-166646761D01*
X55738333Y-166551523D01*
X55690714Y-166456285D01*
X55643095Y-166265809D01*
X55643095Y-166122952D01*
X55690714Y-165932476D01*
X55738333Y-165837238D01*
X55833571Y-165742000D01*
X55976428Y-165694380D01*
X56071666Y-165694380D01*
X56214523Y-165742000D01*
X56262142Y-165789619D01*
X57214523Y-166694380D02*
X56643095Y-166694380D01*
X56928809Y-166694380D02*
X56928809Y-165694380D01*
X56833571Y-165837238D01*
X56738333Y-165932476D01*
X56643095Y-165980095D01*
X57833571Y-165694380D02*
X57928809Y-165694380D01*
X58024047Y-165742000D01*
X58071666Y-165789619D01*
X58119285Y-165884857D01*
X58166904Y-166075333D01*
X58166904Y-166313428D01*
X58119285Y-166503904D01*
X58071666Y-166599142D01*
X58024047Y-166646761D01*
X57928809Y-166694380D01*
X57833571Y-166694380D01*
X57738333Y-166646761D01*
X57690714Y-166599142D01*
X57643095Y-166503904D01*
X57595476Y-166313428D01*
X57595476Y-166075333D01*
X57643095Y-165884857D01*
X57690714Y-165789619D01*
X57738333Y-165742000D01*
X57833571Y-165694380D01*
G04 #@! TO.C,C12*
X59539142Y-167520857D02*
X59586761Y-167568476D01*
X59634380Y-167711333D01*
X59634380Y-167806571D01*
X59586761Y-167949428D01*
X59491523Y-168044666D01*
X59396285Y-168092285D01*
X59205809Y-168139904D01*
X59062952Y-168139904D01*
X58872476Y-168092285D01*
X58777238Y-168044666D01*
X58682000Y-167949428D01*
X58634380Y-167806571D01*
X58634380Y-167711333D01*
X58682000Y-167568476D01*
X58729619Y-167520857D01*
X59634380Y-166568476D02*
X59634380Y-167139904D01*
X59634380Y-166854190D02*
X58634380Y-166854190D01*
X58777238Y-166949428D01*
X58872476Y-167044666D01*
X58920095Y-167139904D01*
X58729619Y-166187523D02*
X58682000Y-166139904D01*
X58634380Y-166044666D01*
X58634380Y-165806571D01*
X58682000Y-165711333D01*
X58729619Y-165663714D01*
X58824857Y-165616095D01*
X58920095Y-165616095D01*
X59062952Y-165663714D01*
X59634380Y-166235142D01*
X59634380Y-165616095D01*
G04 #@! TO.C,C11*
X61519969Y-144725106D02*
X61519969Y-144792450D01*
X61452625Y-144927137D01*
X61385282Y-144994480D01*
X61250595Y-145061824D01*
X61115908Y-145061824D01*
X61014893Y-145028152D01*
X60846534Y-144927137D01*
X60745519Y-144826122D01*
X60644503Y-144657763D01*
X60610832Y-144556748D01*
X60610832Y-144422061D01*
X60678175Y-144287374D01*
X60745519Y-144220030D01*
X60880206Y-144152687D01*
X60947549Y-144152687D01*
X62260748Y-144119015D02*
X61856687Y-144523076D01*
X62058717Y-144321045D02*
X61351610Y-143613938D01*
X61385282Y-143782297D01*
X61385282Y-143916984D01*
X61351610Y-144018000D01*
X62934183Y-143445580D02*
X62530122Y-143849641D01*
X62732152Y-143647610D02*
X62025045Y-142940503D01*
X62058717Y-143108862D01*
X62058717Y-143243549D01*
X62025045Y-143344564D01*
G04 #@! TO.C,C9*
X79448745Y-136146879D02*
X79448745Y-136214222D01*
X79381401Y-136348909D01*
X79314058Y-136416253D01*
X79179370Y-136483596D01*
X79044683Y-136483596D01*
X78943668Y-136449925D01*
X78775309Y-136348909D01*
X78674294Y-136247894D01*
X78573279Y-136079535D01*
X78539607Y-135978520D01*
X78539607Y-135843833D01*
X78606951Y-135709146D01*
X78674294Y-135641802D01*
X78808981Y-135574459D01*
X78876325Y-135574459D01*
X79852806Y-135877505D02*
X79987493Y-135742818D01*
X80021164Y-135641802D01*
X80021164Y-135574459D01*
X79987493Y-135406100D01*
X79886477Y-135237741D01*
X79617103Y-134968367D01*
X79516088Y-134934696D01*
X79448745Y-134934696D01*
X79347729Y-134968367D01*
X79213042Y-135103054D01*
X79179370Y-135204070D01*
X79179370Y-135271413D01*
X79213042Y-135372428D01*
X79381401Y-135540787D01*
X79482416Y-135574459D01*
X79549760Y-135574459D01*
X79650775Y-135540787D01*
X79785462Y-135406100D01*
X79819134Y-135305085D01*
X79819134Y-135237741D01*
X79785462Y-135136726D01*
G04 #@! TO.C,C8*
X69937333Y-136629142D02*
X69889714Y-136676761D01*
X69746857Y-136724380D01*
X69651619Y-136724380D01*
X69508761Y-136676761D01*
X69413523Y-136581523D01*
X69365904Y-136486285D01*
X69318285Y-136295809D01*
X69318285Y-136152952D01*
X69365904Y-135962476D01*
X69413523Y-135867238D01*
X69508761Y-135772000D01*
X69651619Y-135724380D01*
X69746857Y-135724380D01*
X69889714Y-135772000D01*
X69937333Y-135819619D01*
X70508761Y-136152952D02*
X70413523Y-136105333D01*
X70365904Y-136057714D01*
X70318285Y-135962476D01*
X70318285Y-135914857D01*
X70365904Y-135819619D01*
X70413523Y-135772000D01*
X70508761Y-135724380D01*
X70699238Y-135724380D01*
X70794476Y-135772000D01*
X70842095Y-135819619D01*
X70889714Y-135914857D01*
X70889714Y-135962476D01*
X70842095Y-136057714D01*
X70794476Y-136105333D01*
X70699238Y-136152952D01*
X70508761Y-136152952D01*
X70413523Y-136200571D01*
X70365904Y-136248190D01*
X70318285Y-136343428D01*
X70318285Y-136533904D01*
X70365904Y-136629142D01*
X70413523Y-136676761D01*
X70508761Y-136724380D01*
X70699238Y-136724380D01*
X70794476Y-136676761D01*
X70842095Y-136629142D01*
X70889714Y-136533904D01*
X70889714Y-136343428D01*
X70842095Y-136248190D01*
X70794476Y-136200571D01*
X70699238Y-136152952D01*
G04 #@! TO.C,C7*
X71207333Y-79097142D02*
X71159714Y-79144761D01*
X71016857Y-79192380D01*
X70921619Y-79192380D01*
X70778761Y-79144761D01*
X70683523Y-79049523D01*
X70635904Y-78954285D01*
X70588285Y-78763809D01*
X70588285Y-78620952D01*
X70635904Y-78430476D01*
X70683523Y-78335238D01*
X70778761Y-78240000D01*
X70921619Y-78192380D01*
X71016857Y-78192380D01*
X71159714Y-78240000D01*
X71207333Y-78287619D01*
X71540666Y-78192380D02*
X72207333Y-78192380D01*
X71778761Y-79192380D01*
G04 #@! TO.C,C6*
X73032687Y-160898390D02*
X73032687Y-160965733D01*
X72965343Y-161100420D01*
X72898000Y-161167764D01*
X72763312Y-161235107D01*
X72628625Y-161235107D01*
X72527610Y-161201436D01*
X72359251Y-161100420D01*
X72258236Y-160999405D01*
X72157221Y-160831046D01*
X72123549Y-160730031D01*
X72123549Y-160595344D01*
X72190893Y-160460657D01*
X72258236Y-160393313D01*
X72392923Y-160325970D01*
X72460267Y-160325970D01*
X72999015Y-159652535D02*
X72864328Y-159787222D01*
X72830656Y-159888237D01*
X72830656Y-159955581D01*
X72864328Y-160123939D01*
X72965343Y-160292298D01*
X73234717Y-160561672D01*
X73335732Y-160595344D01*
X73403076Y-160595344D01*
X73504091Y-160561672D01*
X73638778Y-160426985D01*
X73672450Y-160325970D01*
X73672450Y-160258626D01*
X73638778Y-160157611D01*
X73470419Y-159989252D01*
X73369404Y-159955581D01*
X73302061Y-159955581D01*
X73201045Y-159989252D01*
X73066358Y-160123939D01*
X73032687Y-160224955D01*
X73032687Y-160292298D01*
X73066358Y-160393313D01*
G04 #@! TO.C,C5*
X61310333Y-164823142D02*
X61262714Y-164870761D01*
X61119857Y-164918380D01*
X61024619Y-164918380D01*
X60881761Y-164870761D01*
X60786523Y-164775523D01*
X60738904Y-164680285D01*
X60691285Y-164489809D01*
X60691285Y-164346952D01*
X60738904Y-164156476D01*
X60786523Y-164061238D01*
X60881761Y-163966000D01*
X61024619Y-163918380D01*
X61119857Y-163918380D01*
X61262714Y-163966000D01*
X61310333Y-164013619D01*
X62215095Y-163918380D02*
X61738904Y-163918380D01*
X61691285Y-164394571D01*
X61738904Y-164346952D01*
X61834142Y-164299333D01*
X62072238Y-164299333D01*
X62167476Y-164346952D01*
X62215095Y-164394571D01*
X62262714Y-164489809D01*
X62262714Y-164727904D01*
X62215095Y-164823142D01*
X62167476Y-164870761D01*
X62072238Y-164918380D01*
X61834142Y-164918380D01*
X61738904Y-164870761D01*
X61691285Y-164823142D01*
G04 #@! TO.C,C4*
X67143333Y-167997142D02*
X67095714Y-168044761D01*
X66952857Y-168092380D01*
X66857619Y-168092380D01*
X66714761Y-168044761D01*
X66619523Y-167949523D01*
X66571904Y-167854285D01*
X66524285Y-167663809D01*
X66524285Y-167520952D01*
X66571904Y-167330476D01*
X66619523Y-167235238D01*
X66714761Y-167140000D01*
X66857619Y-167092380D01*
X66952857Y-167092380D01*
X67095714Y-167140000D01*
X67143333Y-167187619D01*
X68000476Y-167425714D02*
X68000476Y-168092380D01*
X67762380Y-167044761D02*
X67524285Y-167759047D01*
X68143333Y-167759047D01*
G04 #@! TO.C,U4*
X82550095Y-77938380D02*
X82550095Y-78747904D01*
X82597714Y-78843142D01*
X82645333Y-78890761D01*
X82740571Y-78938380D01*
X82931047Y-78938380D01*
X83026285Y-78890761D01*
X83073904Y-78843142D01*
X83121523Y-78747904D01*
X83121523Y-77938380D01*
X84026285Y-78271714D02*
X84026285Y-78938380D01*
X83788190Y-77890761D02*
X83550095Y-78605047D01*
X84169142Y-78605047D01*
G04 #@! TO.C,SW1*
X74612666Y-77366761D02*
X74755523Y-77414380D01*
X74993619Y-77414380D01*
X75088857Y-77366761D01*
X75136476Y-77319142D01*
X75184095Y-77223904D01*
X75184095Y-77128666D01*
X75136476Y-77033428D01*
X75088857Y-76985809D01*
X74993619Y-76938190D01*
X74803142Y-76890571D01*
X74707904Y-76842952D01*
X74660285Y-76795333D01*
X74612666Y-76700095D01*
X74612666Y-76604857D01*
X74660285Y-76509619D01*
X74707904Y-76462000D01*
X74803142Y-76414380D01*
X75041238Y-76414380D01*
X75184095Y-76462000D01*
X75517428Y-76414380D02*
X75755523Y-77414380D01*
X75946000Y-76700095D01*
X76136476Y-77414380D01*
X76374571Y-76414380D01*
X77279333Y-77414380D02*
X76707904Y-77414380D01*
X76993619Y-77414380D02*
X76993619Y-76414380D01*
X76898380Y-76557238D01*
X76803142Y-76652476D01*
X76707904Y-76700095D01*
G04 #@! TO.C,U2*
X65492380Y-140715904D02*
X66301904Y-140715904D01*
X66397142Y-140668285D01*
X66444761Y-140620666D01*
X66492380Y-140525428D01*
X66492380Y-140334952D01*
X66444761Y-140239714D01*
X66397142Y-140192095D01*
X66301904Y-140144476D01*
X65492380Y-140144476D01*
X65587619Y-139715904D02*
X65540000Y-139668285D01*
X65492380Y-139573047D01*
X65492380Y-139334952D01*
X65540000Y-139239714D01*
X65587619Y-139192095D01*
X65682857Y-139144476D01*
X65778095Y-139144476D01*
X65920952Y-139192095D01*
X66492380Y-139763523D01*
X66492380Y-139144476D01*
G04 #@! TO.C,R3*
X78056333Y-156408380D02*
X77723000Y-155932190D01*
X77484904Y-156408380D02*
X77484904Y-155408380D01*
X77865857Y-155408380D01*
X77961095Y-155456000D01*
X78008714Y-155503619D01*
X78056333Y-155598857D01*
X78056333Y-155741714D01*
X78008714Y-155836952D01*
X77961095Y-155884571D01*
X77865857Y-155932190D01*
X77484904Y-155932190D01*
X78389666Y-155408380D02*
X79008714Y-155408380D01*
X78675380Y-155789333D01*
X78818238Y-155789333D01*
X78913476Y-155836952D01*
X78961095Y-155884571D01*
X79008714Y-155979809D01*
X79008714Y-156217904D01*
X78961095Y-156313142D01*
X78913476Y-156360761D01*
X78818238Y-156408380D01*
X78532523Y-156408380D01*
X78437285Y-156360761D01*
X78389666Y-156313142D01*
G04 #@! TO.C,R2*
X54934267Y-159968030D02*
X55035282Y-159395610D01*
X54530206Y-159563969D02*
X55237312Y-158856862D01*
X55506687Y-159126236D01*
X55540358Y-159227251D01*
X55540358Y-159294595D01*
X55506687Y-159395610D01*
X55405671Y-159496625D01*
X55304656Y-159530297D01*
X55237312Y-159530297D01*
X55136297Y-159496625D01*
X54866923Y-159227251D01*
X55843404Y-159597641D02*
X55910748Y-159597641D01*
X56011763Y-159631312D01*
X56180122Y-159799671D01*
X56213793Y-159900687D01*
X56213793Y-159968030D01*
X56180122Y-160069045D01*
X56112778Y-160136389D01*
X55978091Y-160203732D01*
X55169969Y-160203732D01*
X55607702Y-160641465D01*
G04 #@! TO.C,JP1*
X75112666Y-159472380D02*
X75112666Y-160186666D01*
X75065047Y-160329523D01*
X74969809Y-160424761D01*
X74826952Y-160472380D01*
X74731714Y-160472380D01*
X75588857Y-160472380D02*
X75588857Y-159472380D01*
X75969809Y-159472380D01*
X76065047Y-159520000D01*
X76112666Y-159567619D01*
X76160285Y-159662857D01*
X76160285Y-159805714D01*
X76112666Y-159900952D01*
X76065047Y-159948571D01*
X75969809Y-159996190D01*
X75588857Y-159996190D01*
X77112666Y-160472380D02*
X76541238Y-160472380D01*
X76826952Y-160472380D02*
X76826952Y-159472380D01*
X76731714Y-159615238D01*
X76636476Y-159710476D01*
X76541238Y-159758095D01*
G04 #@! TO.C,J3*
X98876380Y-130127333D02*
X99590666Y-130127333D01*
X99733523Y-130174952D01*
X99828761Y-130270190D01*
X99876380Y-130413047D01*
X99876380Y-130508285D01*
X98876380Y-129746380D02*
X98876380Y-129127333D01*
X99257333Y-129460666D01*
X99257333Y-129317809D01*
X99304952Y-129222571D01*
X99352571Y-129174952D01*
X99447809Y-129127333D01*
X99685904Y-129127333D01*
X99781142Y-129174952D01*
X99828761Y-129222571D01*
X99876380Y-129317809D01*
X99876380Y-129603523D01*
X99828761Y-129698761D01*
X99781142Y-129746380D01*
G04 #@! TO.C,C3*
X64857333Y-100179142D02*
X64809714Y-100226761D01*
X64666857Y-100274380D01*
X64571619Y-100274380D01*
X64428761Y-100226761D01*
X64333523Y-100131523D01*
X64285904Y-100036285D01*
X64238285Y-99845809D01*
X64238285Y-99702952D01*
X64285904Y-99512476D01*
X64333523Y-99417238D01*
X64428761Y-99322000D01*
X64571619Y-99274380D01*
X64666857Y-99274380D01*
X64809714Y-99322000D01*
X64857333Y-99369619D01*
X65190666Y-99274380D02*
X65809714Y-99274380D01*
X65476380Y-99655333D01*
X65619238Y-99655333D01*
X65714476Y-99702952D01*
X65762095Y-99750571D01*
X65809714Y-99845809D01*
X65809714Y-100083904D01*
X65762095Y-100179142D01*
X65714476Y-100226761D01*
X65619238Y-100274380D01*
X65333523Y-100274380D01*
X65238285Y-100226761D01*
X65190666Y-100179142D01*
G04 #@! TO.C,C2*
X69420333Y-90147142D02*
X69372714Y-90194761D01*
X69229857Y-90242380D01*
X69134619Y-90242380D01*
X68991761Y-90194761D01*
X68896523Y-90099523D01*
X68848904Y-90004285D01*
X68801285Y-89813809D01*
X68801285Y-89670952D01*
X68848904Y-89480476D01*
X68896523Y-89385238D01*
X68991761Y-89290000D01*
X69134619Y-89242380D01*
X69229857Y-89242380D01*
X69372714Y-89290000D01*
X69420333Y-89337619D01*
X69801285Y-89337619D02*
X69848904Y-89290000D01*
X69944142Y-89242380D01*
X70182238Y-89242380D01*
X70277476Y-89290000D01*
X70325095Y-89337619D01*
X70372714Y-89432857D01*
X70372714Y-89528095D01*
X70325095Y-89670952D01*
X69753666Y-90242380D01*
X70372714Y-90242380D01*
G04 #@! TO.C,C1*
X64857333Y-90273142D02*
X64809714Y-90320761D01*
X64666857Y-90368380D01*
X64571619Y-90368380D01*
X64428761Y-90320761D01*
X64333523Y-90225523D01*
X64285904Y-90130285D01*
X64238285Y-89939809D01*
X64238285Y-89796952D01*
X64285904Y-89606476D01*
X64333523Y-89511238D01*
X64428761Y-89416000D01*
X64571619Y-89368380D01*
X64666857Y-89368380D01*
X64809714Y-89416000D01*
X64857333Y-89463619D01*
X65809714Y-90368380D02*
X65238285Y-90368380D01*
X65524000Y-90368380D02*
X65524000Y-89368380D01*
X65428761Y-89511238D01*
X65333523Y-89606476D01*
X65238285Y-89654095D01*
G04 #@! TO.C,U3*
X66254380Y-98043904D02*
X67063904Y-98043904D01*
X67159142Y-97996285D01*
X67206761Y-97948666D01*
X67254380Y-97853428D01*
X67254380Y-97662952D01*
X67206761Y-97567714D01*
X67159142Y-97520095D01*
X67063904Y-97472476D01*
X66254380Y-97472476D01*
X66254380Y-97091523D02*
X66254380Y-96472476D01*
X66635333Y-96805809D01*
X66635333Y-96662952D01*
X66682952Y-96567714D01*
X66730571Y-96520095D01*
X66825809Y-96472476D01*
X67063904Y-96472476D01*
X67159142Y-96520095D01*
X67206761Y-96567714D01*
X67254380Y-96662952D01*
X67254380Y-96948666D01*
X67206761Y-97043904D01*
X67159142Y-97091523D01*
G04 #@! TO.C,R1*
X57982380Y-148502666D02*
X57506190Y-148836000D01*
X57982380Y-149074095D02*
X56982380Y-149074095D01*
X56982380Y-148693142D01*
X57030000Y-148597904D01*
X57077619Y-148550285D01*
X57172857Y-148502666D01*
X57315714Y-148502666D01*
X57410952Y-148550285D01*
X57458571Y-148597904D01*
X57506190Y-148693142D01*
X57506190Y-149074095D01*
X57982380Y-147550285D02*
X57982380Y-148121714D01*
X57982380Y-147836000D02*
X56982380Y-147836000D01*
X57125238Y-147931238D01*
X57220476Y-148026476D01*
X57268095Y-148121714D01*
G04 #@! TO.C,J4*
X99996666Y-97877380D02*
X99996666Y-98591666D01*
X99949047Y-98734523D01*
X99853809Y-98829761D01*
X99710952Y-98877380D01*
X99615714Y-98877380D01*
X100901428Y-98210714D02*
X100901428Y-98877380D01*
X100663333Y-97829761D02*
X100425238Y-98544047D01*
X101044285Y-98544047D01*
G04 #@! TO.C,J6*
X107362666Y-106005380D02*
X107362666Y-106719666D01*
X107315047Y-106862523D01*
X107219809Y-106957761D01*
X107076952Y-107005380D01*
X106981714Y-107005380D01*
X108267428Y-106005380D02*
X108076952Y-106005380D01*
X107981714Y-106053000D01*
X107934095Y-106100619D01*
X107838857Y-106243476D01*
X107791238Y-106433952D01*
X107791238Y-106814904D01*
X107838857Y-106910142D01*
X107886476Y-106957761D01*
X107981714Y-107005380D01*
X108172190Y-107005380D01*
X108267428Y-106957761D01*
X108315047Y-106910142D01*
X108362666Y-106814904D01*
X108362666Y-106576809D01*
X108315047Y-106481571D01*
X108267428Y-106433952D01*
X108172190Y-106386333D01*
X107981714Y-106386333D01*
X107886476Y-106433952D01*
X107838857Y-106481571D01*
X107791238Y-106576809D01*
G04 #@! TD*
M02*
