M48
;DRILL file {KiCad (5.0.1)-4} date 10.03.2019 19:07:49
;FORMAT={-:-/ absolute / inch / decimal}
FMAT,2
INCH,TZ
T1C0.0157
T2C0.0236
T3C0.0256
T4C0.0433
T5C0.0630
T6C0.0709
%
G90
G05
M72
T1
X2.19Y-6.29
X2.21Y-5.92
X2.24Y-6.52
X2.25Y-5.48
X2.2809Y-6.0977
X2.32Y-6.02
X2.34Y-5.68
X2.34Y-6.06
X2.35Y-5.99
X2.37Y-5.42
X2.38Y-5.96
X2.3915Y-6.39
X2.41Y-5.57
X2.41Y-6.03
X2.41Y-6.43
X2.41Y-6.47
X2.42Y-5.42
X2.42Y-5.9498
X2.42Y-6.12
X2.45Y-5.92
X2.46Y-5.53
X2.46Y-5.58
X2.4615Y-6.1
X2.48Y-5.6685
X2.54Y-5.91
X2.55Y-6.33
X2.56Y-3.68
X2.56Y-3.93
X2.58Y-5.62
X2.5842Y-5.9242
X2.59Y-3.33
X2.59Y-6.48
X2.6Y-3.68
X2.6Y-6.4
X2.61Y-6.
X2.61Y-6.19
X2.62Y-5.81
X2.63Y-5.43
X2.63Y-6.37
X2.65Y-3.51
X2.65Y-5.94
X2.67Y-5.49
X2.68Y-6.32
X2.6828Y-5.8182
X2.71Y-3.81
X2.71Y-5.9
X2.71Y-6.29
X2.73Y-5.55
X2.73Y-6.04
X2.73Y-6.45
X2.7328Y-3.665
X2.76Y-6.24
X2.77Y-5.35
X2.78Y-5.55
X2.79Y-5.97
X2.81Y-5.35
X2.81Y-5.62
X2.83Y-5.58
X2.83Y-6.
X2.83Y-6.04
X2.84Y-5.782
X2.85Y-5.35
X2.85Y-6.45
X2.8783Y-5.8244
X2.88Y-6.04
X2.88Y-6.3
X2.8815Y-5.7808
X2.89Y-5.35
X2.9392Y-6.28
X2.9902Y-6.2602
X3.02Y-5.91
X3.04Y-5.94
X3.07Y-3.05
X3.14Y-3.05
X3.14Y-6.06
X3.1663Y-6.12
X3.17Y-6.08
X3.19Y-5.24
X3.21Y-4.87
X3.22Y-4.31
X3.24Y-2.93
X3.26Y-5.47
X3.27Y-4.26
X3.285Y-5.315
X3.285Y-3.125
X3.3004Y-5.47
X3.31Y-3.85
X3.32Y-4.22
X3.33Y-5.04
X3.33Y-6.0215
X3.34Y-4.18
X3.35Y-5.8615
X3.37Y-4.34
X3.38Y-6.
X3.3886Y-5.828
X3.39Y-5.04
X3.4115Y-5.86
X3.42Y-3.96
X3.42Y-5.97
X3.43Y-5.89
X3.43Y-5.93
X3.45Y-4.
X3.48Y-3.89
X3.52Y-3.45
X3.65Y-4.05
X3.68Y-4.89
X3.71Y-4.105
X3.71Y-4.275
X3.75Y-4.125
X3.75Y-4.315
X3.75Y-4.89
X3.78Y-5.31
X3.79Y-4.105
X3.79Y-4.35
X3.83Y-4.125
X3.83Y-4.385
X3.87Y-4.095
X3.87Y-4.42
X3.9Y-4.53
X3.9367Y-4.0967
X3.94Y-5.31
X3.9844Y-4.0894
X3.9973Y-4.1692
X4.0321Y-4.0821
X4.0385Y-4.1685
X4.075Y-4.15
X4.08Y-5.04
X4.08Y-5.22
X4.11Y-4.82
X4.15Y-4.99
T2
X2.9145Y-2.9061
X3.0739Y-2.9061
T3
X2.19Y-5.44
X2.19Y-5.49
X2.19Y-5.54
X2.19Y-5.59
X2.19Y-5.64
X2.19Y-5.69
T4
X2.8126Y-3.2104
X2.8913Y-3.2104
X2.8913Y-3.3088
X2.9701Y-3.2104
X2.9701Y-3.3088
X3.0488Y-3.2104
X3.0488Y-3.3088
X3.1276Y-3.2104
X3.1276Y-3.3088
X3.2063Y-3.2104
X3.2063Y-3.3088
X3.285Y-3.2104
X3.285Y-3.3088
X3.3638Y-3.2104
X3.3638Y-3.3088
X3.4425Y-3.2104
X3.4425Y-3.3088
X3.5213Y-3.2104
T5
X2.9298Y-3.4269
X3.4022Y-3.4269
T6
X2.7339Y-3.2906G85X2.7339Y-3.3694
G05
X3.6Y-3.2906G85X3.6Y-3.3694
G05
T0
M30
