G04 #@! TF.GenerationSoftware,KiCad,Pcbnew,(5.0.1)-4*
G04 #@! TF.CreationDate,2019-03-10T19:06:40+01:00*
G04 #@! TF.ProjectId,wiihdmi_wmi,77696968646D695F776D692E6B696361,rev?*
G04 #@! TF.SameCoordinates,Original*
G04 #@! TF.FileFunction,Soldermask,Bot*
G04 #@! TF.FilePolarity,Negative*
%FSLAX46Y46*%
G04 Gerber Fmt 4.6, Leading zero omitted, Abs format (unit mm)*
G04 Created by KiCad (PCBNEW (5.0.1)-4) date 10.03.2019 19:06:40*
%MOMM*%
%LPD*%
G01*
G04 APERTURE LIST*
%ADD10C,0.100000*%
G04 APERTURE END LIST*
D10*
G36*
X56177000Y-138727000D02*
X55948738Y-138727000D01*
X55924352Y-138729402D01*
X55900903Y-138736515D01*
X55879292Y-138748066D01*
X55860350Y-138763612D01*
X55844804Y-138782554D01*
X55833253Y-138804165D01*
X55826140Y-138827614D01*
X55823738Y-138852000D01*
X55826140Y-138876386D01*
X55833253Y-138899835D01*
X55844804Y-138921446D01*
X55860350Y-138940388D01*
X55889808Y-138962236D01*
X55933600Y-138985644D01*
X56017501Y-139054499D01*
X56086356Y-139138400D01*
X56137521Y-139234121D01*
X56169027Y-139337985D01*
X56179666Y-139446000D01*
X56169027Y-139554015D01*
X56137521Y-139657879D01*
X56086356Y-139753600D01*
X56017501Y-139837501D01*
X55933600Y-139906356D01*
X55837879Y-139957521D01*
X55825142Y-139961385D01*
X55802507Y-139970760D01*
X55782133Y-139984374D01*
X55764806Y-140001701D01*
X55751192Y-140022076D01*
X55741814Y-140044715D01*
X55737034Y-140068748D01*
X55737034Y-140093252D01*
X55741815Y-140117286D01*
X55751192Y-140139925D01*
X55764806Y-140160299D01*
X55782133Y-140177626D01*
X55802508Y-140191240D01*
X55825142Y-140200615D01*
X55837879Y-140204479D01*
X55933600Y-140255644D01*
X56017501Y-140324499D01*
X56086356Y-140408400D01*
X56137521Y-140504121D01*
X56169027Y-140607985D01*
X56179666Y-140716000D01*
X56169027Y-140824015D01*
X56137521Y-140927879D01*
X56086356Y-141023600D01*
X56017501Y-141107501D01*
X55933600Y-141176356D01*
X55837879Y-141227521D01*
X55825142Y-141231385D01*
X55802507Y-141240760D01*
X55782133Y-141254374D01*
X55764806Y-141271701D01*
X55751192Y-141292076D01*
X55741814Y-141314715D01*
X55737034Y-141338748D01*
X55737034Y-141363252D01*
X55741815Y-141387286D01*
X55751192Y-141409925D01*
X55764806Y-141430299D01*
X55782133Y-141447626D01*
X55802508Y-141461240D01*
X55825142Y-141470615D01*
X55837879Y-141474479D01*
X55933600Y-141525644D01*
X56017501Y-141594499D01*
X56086356Y-141678400D01*
X56137521Y-141774121D01*
X56169027Y-141877985D01*
X56179666Y-141986000D01*
X56169027Y-142094015D01*
X56137521Y-142197879D01*
X56086356Y-142293600D01*
X56017501Y-142377501D01*
X55933600Y-142446356D01*
X55837879Y-142497521D01*
X55825142Y-142501385D01*
X55802507Y-142510760D01*
X55782133Y-142524374D01*
X55764806Y-142541701D01*
X55751192Y-142562076D01*
X55741814Y-142584715D01*
X55737034Y-142608748D01*
X55737034Y-142633252D01*
X55741815Y-142657286D01*
X55751192Y-142679925D01*
X55764806Y-142700299D01*
X55782133Y-142717626D01*
X55802508Y-142731240D01*
X55825142Y-142740615D01*
X55837879Y-142744479D01*
X55933600Y-142795644D01*
X56017501Y-142864499D01*
X56086356Y-142948400D01*
X56137521Y-143044121D01*
X56169027Y-143147985D01*
X56179666Y-143256000D01*
X56169027Y-143364015D01*
X56137521Y-143467879D01*
X56086356Y-143563600D01*
X56017501Y-143647501D01*
X55933600Y-143716356D01*
X55837879Y-143767521D01*
X55825142Y-143771385D01*
X55802507Y-143780760D01*
X55782133Y-143794374D01*
X55764806Y-143811701D01*
X55751192Y-143832076D01*
X55741814Y-143854715D01*
X55737034Y-143878748D01*
X55737034Y-143903252D01*
X55741815Y-143927286D01*
X55751192Y-143949925D01*
X55764806Y-143970299D01*
X55782133Y-143987626D01*
X55802508Y-144001240D01*
X55825142Y-144010615D01*
X55837879Y-144014479D01*
X55933600Y-144065644D01*
X56017501Y-144134499D01*
X56086356Y-144218400D01*
X56137521Y-144314121D01*
X56169027Y-144417985D01*
X56179666Y-144526000D01*
X56169027Y-144634015D01*
X56137521Y-144737879D01*
X56086356Y-144833600D01*
X56017501Y-144917501D01*
X55933600Y-144986356D01*
X55837879Y-145037521D01*
X55734015Y-145069027D01*
X55653067Y-145077000D01*
X55598933Y-145077000D01*
X55517985Y-145069027D01*
X55414121Y-145037521D01*
X55318400Y-144986356D01*
X55234499Y-144917501D01*
X55165644Y-144833600D01*
X55114479Y-144737879D01*
X55082973Y-144634015D01*
X55072334Y-144526000D01*
X55082973Y-144417985D01*
X55114479Y-144314121D01*
X55165644Y-144218400D01*
X55234499Y-144134499D01*
X55318400Y-144065644D01*
X55414121Y-144014479D01*
X55426858Y-144010615D01*
X55449493Y-144001240D01*
X55469867Y-143987626D01*
X55487194Y-143970299D01*
X55500808Y-143949924D01*
X55510186Y-143927285D01*
X55514966Y-143903252D01*
X55514966Y-143878748D01*
X55510185Y-143854714D01*
X55500808Y-143832075D01*
X55487194Y-143811701D01*
X55469867Y-143794374D01*
X55449492Y-143780760D01*
X55426858Y-143771385D01*
X55414121Y-143767521D01*
X55318400Y-143716356D01*
X55234499Y-143647501D01*
X55165644Y-143563600D01*
X55114479Y-143467879D01*
X55082973Y-143364015D01*
X55072334Y-143256000D01*
X55082973Y-143147985D01*
X55114479Y-143044121D01*
X55165644Y-142948400D01*
X55234499Y-142864499D01*
X55318400Y-142795644D01*
X55414121Y-142744479D01*
X55426858Y-142740615D01*
X55449493Y-142731240D01*
X55469867Y-142717626D01*
X55487194Y-142700299D01*
X55500808Y-142679924D01*
X55510186Y-142657285D01*
X55514966Y-142633252D01*
X55514966Y-142608748D01*
X55510185Y-142584714D01*
X55500808Y-142562075D01*
X55487194Y-142541701D01*
X55469867Y-142524374D01*
X55449492Y-142510760D01*
X55426858Y-142501385D01*
X55414121Y-142497521D01*
X55318400Y-142446356D01*
X55234499Y-142377501D01*
X55165644Y-142293600D01*
X55114479Y-142197879D01*
X55082973Y-142094015D01*
X55072334Y-141986000D01*
X55082973Y-141877985D01*
X55114479Y-141774121D01*
X55165644Y-141678400D01*
X55234499Y-141594499D01*
X55318400Y-141525644D01*
X55414121Y-141474479D01*
X55426858Y-141470615D01*
X55449493Y-141461240D01*
X55469867Y-141447626D01*
X55487194Y-141430299D01*
X55500808Y-141409924D01*
X55510186Y-141387285D01*
X55514966Y-141363252D01*
X55514966Y-141338748D01*
X55510185Y-141314714D01*
X55500808Y-141292075D01*
X55487194Y-141271701D01*
X55469867Y-141254374D01*
X55449492Y-141240760D01*
X55426858Y-141231385D01*
X55414121Y-141227521D01*
X55318400Y-141176356D01*
X55234499Y-141107501D01*
X55165644Y-141023600D01*
X55114479Y-140927879D01*
X55082973Y-140824015D01*
X55072334Y-140716000D01*
X55082973Y-140607985D01*
X55114479Y-140504121D01*
X55165644Y-140408400D01*
X55234499Y-140324499D01*
X55318400Y-140255644D01*
X55414121Y-140204479D01*
X55426858Y-140200615D01*
X55449493Y-140191240D01*
X55469867Y-140177626D01*
X55487194Y-140160299D01*
X55500808Y-140139924D01*
X55510186Y-140117285D01*
X55514966Y-140093252D01*
X55514966Y-140068748D01*
X55510185Y-140044714D01*
X55500808Y-140022075D01*
X55487194Y-140001701D01*
X55469867Y-139984374D01*
X55449492Y-139970760D01*
X55426858Y-139961385D01*
X55414121Y-139957521D01*
X55318400Y-139906356D01*
X55234499Y-139837501D01*
X55165644Y-139753600D01*
X55114479Y-139657879D01*
X55082973Y-139554015D01*
X55072334Y-139446000D01*
X55082973Y-139337985D01*
X55114479Y-139234121D01*
X55165644Y-139138400D01*
X55234499Y-139054499D01*
X55318400Y-138985644D01*
X55362195Y-138962234D01*
X55382561Y-138948626D01*
X55399889Y-138931299D01*
X55413502Y-138910924D01*
X55422880Y-138888285D01*
X55427660Y-138864252D01*
X55427660Y-138839748D01*
X55422879Y-138815714D01*
X55413502Y-138793075D01*
X55399888Y-138772701D01*
X55382561Y-138755373D01*
X55362186Y-138741760D01*
X55339547Y-138732382D01*
X55303262Y-138727000D01*
X55075000Y-138727000D01*
X55075000Y-137625000D01*
X56177000Y-137625000D01*
X56177000Y-138727000D01*
X56177000Y-138727000D01*
G37*
G36*
X86722565Y-86033389D02*
X86913834Y-86112615D01*
X87085976Y-86227637D01*
X87232363Y-86374024D01*
X87347385Y-86546166D01*
X87426611Y-86737435D01*
X87467000Y-86940484D01*
X87467000Y-87147516D01*
X87426611Y-87350565D01*
X87347385Y-87541834D01*
X87232363Y-87713976D01*
X87085976Y-87860363D01*
X86913834Y-87975385D01*
X86722565Y-88054611D01*
X86519516Y-88095000D01*
X86312484Y-88095000D01*
X86109435Y-88054611D01*
X85918166Y-87975385D01*
X85746024Y-87860363D01*
X85599637Y-87713976D01*
X85484615Y-87541834D01*
X85405389Y-87350565D01*
X85365000Y-87147516D01*
X85365000Y-86940484D01*
X85405389Y-86737435D01*
X85484615Y-86546166D01*
X85599637Y-86374024D01*
X85746024Y-86227637D01*
X85918166Y-86112615D01*
X86109435Y-86033389D01*
X86312484Y-85993000D01*
X86519516Y-85993000D01*
X86722565Y-86033389D01*
X86722565Y-86033389D01*
G37*
G36*
X74722565Y-86033389D02*
X74913834Y-86112615D01*
X75085976Y-86227637D01*
X75232363Y-86374024D01*
X75347385Y-86546166D01*
X75426611Y-86737435D01*
X75467000Y-86940484D01*
X75467000Y-87147516D01*
X75426611Y-87350565D01*
X75347385Y-87541834D01*
X75232363Y-87713976D01*
X75085976Y-87860363D01*
X74913834Y-87975385D01*
X74722565Y-88054611D01*
X74519516Y-88095000D01*
X74312484Y-88095000D01*
X74109435Y-88054611D01*
X73918166Y-87975385D01*
X73746024Y-87860363D01*
X73599637Y-87713976D01*
X73484615Y-87541834D01*
X73405389Y-87350565D01*
X73365000Y-87147516D01*
X73365000Y-86940484D01*
X73405389Y-86737435D01*
X73484615Y-86546166D01*
X73599637Y-86374024D01*
X73746024Y-86227637D01*
X73918166Y-86112615D01*
X74109435Y-86033389D01*
X74312484Y-85993000D01*
X74519516Y-85993000D01*
X74722565Y-86033389D01*
X74722565Y-86033389D01*
G37*
G36*
X69646031Y-82546207D02*
X69844145Y-82606305D01*
X70026729Y-82703897D01*
X70186765Y-82835235D01*
X70186766Y-82835237D01*
X70186768Y-82835238D01*
X70265568Y-82931257D01*
X70318103Y-82995271D01*
X70415695Y-83177854D01*
X70475793Y-83375968D01*
X70491000Y-83530370D01*
X70491000Y-85633630D01*
X70475793Y-85788032D01*
X70415695Y-85986146D01*
X70415694Y-85986148D01*
X70408959Y-85998749D01*
X70318103Y-86168729D01*
X70186765Y-86328765D01*
X70026729Y-86460103D01*
X69844146Y-86557695D01*
X69646032Y-86617793D01*
X69440000Y-86638085D01*
X69233969Y-86617793D01*
X69035855Y-86557695D01*
X68853272Y-86460103D01*
X68693236Y-86328765D01*
X68561898Y-86168729D01*
X68471042Y-85998749D01*
X68464307Y-85986148D01*
X68464306Y-85986146D01*
X68404208Y-85788032D01*
X68389001Y-85633630D01*
X68389000Y-83530371D01*
X68404207Y-83375969D01*
X68464305Y-83177855D01*
X68561897Y-82995271D01*
X68693235Y-82835235D01*
X68693237Y-82835234D01*
X68693238Y-82835232D01*
X68853269Y-82703899D01*
X68853271Y-82703897D01*
X69035854Y-82606305D01*
X69233968Y-82546207D01*
X69440000Y-82525915D01*
X69646031Y-82546207D01*
X69646031Y-82546207D01*
G37*
G36*
X91646031Y-82546207D02*
X91844145Y-82606305D01*
X92026729Y-82703897D01*
X92186765Y-82835235D01*
X92186766Y-82835237D01*
X92186768Y-82835238D01*
X92265568Y-82931257D01*
X92318103Y-82995271D01*
X92415695Y-83177854D01*
X92475793Y-83375968D01*
X92491000Y-83530370D01*
X92491000Y-85633630D01*
X92475793Y-85788032D01*
X92415695Y-85986146D01*
X92415694Y-85986148D01*
X92408959Y-85998749D01*
X92318103Y-86168729D01*
X92186765Y-86328765D01*
X92026729Y-86460103D01*
X91844146Y-86557695D01*
X91646032Y-86617793D01*
X91440000Y-86638085D01*
X91233969Y-86617793D01*
X91035855Y-86557695D01*
X90853272Y-86460103D01*
X90693236Y-86328765D01*
X90561898Y-86168729D01*
X90471042Y-85998749D01*
X90464307Y-85986148D01*
X90464306Y-85986146D01*
X90404208Y-85788032D01*
X90389001Y-85633630D01*
X90389000Y-83530371D01*
X90404207Y-83375969D01*
X90464305Y-83177855D01*
X90561897Y-82995271D01*
X90693235Y-82835235D01*
X90693237Y-82835234D01*
X90693238Y-82835232D01*
X90853269Y-82703899D01*
X90853271Y-82703897D01*
X91035854Y-82606305D01*
X91233968Y-82546207D01*
X91440000Y-82525915D01*
X91646031Y-82546207D01*
X91646031Y-82546207D01*
G37*
G36*
X81688228Y-83225703D02*
X81843100Y-83289853D01*
X81982481Y-83382985D01*
X82101015Y-83501519D01*
X82194147Y-83640900D01*
X82258297Y-83795772D01*
X82291000Y-83960184D01*
X82291000Y-84127816D01*
X82258297Y-84292228D01*
X82194147Y-84447100D01*
X82101015Y-84586481D01*
X81982481Y-84705015D01*
X81843100Y-84798147D01*
X81688228Y-84862297D01*
X81523816Y-84895000D01*
X81356184Y-84895000D01*
X81191772Y-84862297D01*
X81036900Y-84798147D01*
X80897519Y-84705015D01*
X80778985Y-84586481D01*
X80685853Y-84447100D01*
X80621703Y-84292228D01*
X80589000Y-84127816D01*
X80589000Y-83960184D01*
X80621703Y-83795772D01*
X80685853Y-83640900D01*
X80778985Y-83501519D01*
X80897519Y-83382985D01*
X81036900Y-83289853D01*
X81191772Y-83225703D01*
X81356184Y-83193000D01*
X81523816Y-83193000D01*
X81688228Y-83225703D01*
X81688228Y-83225703D01*
G37*
G36*
X87688228Y-83225703D02*
X87843100Y-83289853D01*
X87982481Y-83382985D01*
X88101015Y-83501519D01*
X88194147Y-83640900D01*
X88258297Y-83795772D01*
X88291000Y-83960184D01*
X88291000Y-84127816D01*
X88258297Y-84292228D01*
X88194147Y-84447100D01*
X88101015Y-84586481D01*
X87982481Y-84705015D01*
X87843100Y-84798147D01*
X87688228Y-84862297D01*
X87523816Y-84895000D01*
X87356184Y-84895000D01*
X87191772Y-84862297D01*
X87036900Y-84798147D01*
X86897519Y-84705015D01*
X86778985Y-84586481D01*
X86685853Y-84447100D01*
X86621703Y-84292228D01*
X86589000Y-84127816D01*
X86589000Y-83960184D01*
X86621703Y-83795772D01*
X86685853Y-83640900D01*
X86778985Y-83501519D01*
X86897519Y-83382985D01*
X87036900Y-83289853D01*
X87191772Y-83225703D01*
X87356184Y-83193000D01*
X87523816Y-83193000D01*
X87688228Y-83225703D01*
X87688228Y-83225703D01*
G37*
G36*
X77688228Y-83225703D02*
X77843100Y-83289853D01*
X77982481Y-83382985D01*
X78101015Y-83501519D01*
X78194147Y-83640900D01*
X78258297Y-83795772D01*
X78291000Y-83960184D01*
X78291000Y-84127816D01*
X78258297Y-84292228D01*
X78194147Y-84447100D01*
X78101015Y-84586481D01*
X77982481Y-84705015D01*
X77843100Y-84798147D01*
X77688228Y-84862297D01*
X77523816Y-84895000D01*
X77356184Y-84895000D01*
X77191772Y-84862297D01*
X77036900Y-84798147D01*
X76897519Y-84705015D01*
X76778985Y-84586481D01*
X76685853Y-84447100D01*
X76621703Y-84292228D01*
X76589000Y-84127816D01*
X76589000Y-83960184D01*
X76621703Y-83795772D01*
X76685853Y-83640900D01*
X76778985Y-83501519D01*
X76897519Y-83382985D01*
X77036900Y-83289853D01*
X77191772Y-83225703D01*
X77356184Y-83193000D01*
X77523816Y-83193000D01*
X77688228Y-83225703D01*
X77688228Y-83225703D01*
G37*
G36*
X85688228Y-83225703D02*
X85843100Y-83289853D01*
X85982481Y-83382985D01*
X86101015Y-83501519D01*
X86194147Y-83640900D01*
X86258297Y-83795772D01*
X86291000Y-83960184D01*
X86291000Y-84127816D01*
X86258297Y-84292228D01*
X86194147Y-84447100D01*
X86101015Y-84586481D01*
X85982481Y-84705015D01*
X85843100Y-84798147D01*
X85688228Y-84862297D01*
X85523816Y-84895000D01*
X85356184Y-84895000D01*
X85191772Y-84862297D01*
X85036900Y-84798147D01*
X84897519Y-84705015D01*
X84778985Y-84586481D01*
X84685853Y-84447100D01*
X84621703Y-84292228D01*
X84589000Y-84127816D01*
X84589000Y-83960184D01*
X84621703Y-83795772D01*
X84685853Y-83640900D01*
X84778985Y-83501519D01*
X84897519Y-83382985D01*
X85036900Y-83289853D01*
X85191772Y-83225703D01*
X85356184Y-83193000D01*
X85523816Y-83193000D01*
X85688228Y-83225703D01*
X85688228Y-83225703D01*
G37*
G36*
X83688228Y-83225703D02*
X83843100Y-83289853D01*
X83982481Y-83382985D01*
X84101015Y-83501519D01*
X84194147Y-83640900D01*
X84258297Y-83795772D01*
X84291000Y-83960184D01*
X84291000Y-84127816D01*
X84258297Y-84292228D01*
X84194147Y-84447100D01*
X84101015Y-84586481D01*
X83982481Y-84705015D01*
X83843100Y-84798147D01*
X83688228Y-84862297D01*
X83523816Y-84895000D01*
X83356184Y-84895000D01*
X83191772Y-84862297D01*
X83036900Y-84798147D01*
X82897519Y-84705015D01*
X82778985Y-84586481D01*
X82685853Y-84447100D01*
X82621703Y-84292228D01*
X82589000Y-84127816D01*
X82589000Y-83960184D01*
X82621703Y-83795772D01*
X82685853Y-83640900D01*
X82778985Y-83501519D01*
X82897519Y-83382985D01*
X83036900Y-83289853D01*
X83191772Y-83225703D01*
X83356184Y-83193000D01*
X83523816Y-83193000D01*
X83688228Y-83225703D01*
X83688228Y-83225703D01*
G37*
G36*
X73688228Y-83225703D02*
X73843100Y-83289853D01*
X73982481Y-83382985D01*
X74101015Y-83501519D01*
X74194147Y-83640900D01*
X74258297Y-83795772D01*
X74291000Y-83960184D01*
X74291000Y-84127816D01*
X74258297Y-84292228D01*
X74194147Y-84447100D01*
X74101015Y-84586481D01*
X73982481Y-84705015D01*
X73843100Y-84798147D01*
X73688228Y-84862297D01*
X73523816Y-84895000D01*
X73356184Y-84895000D01*
X73191772Y-84862297D01*
X73036900Y-84798147D01*
X72897519Y-84705015D01*
X72778985Y-84586481D01*
X72685853Y-84447100D01*
X72621703Y-84292228D01*
X72589000Y-84127816D01*
X72589000Y-83960184D01*
X72621703Y-83795772D01*
X72685853Y-83640900D01*
X72778985Y-83501519D01*
X72897519Y-83382985D01*
X73036900Y-83289853D01*
X73191772Y-83225703D01*
X73356184Y-83193000D01*
X73523816Y-83193000D01*
X73688228Y-83225703D01*
X73688228Y-83225703D01*
G37*
G36*
X75688228Y-83225703D02*
X75843100Y-83289853D01*
X75982481Y-83382985D01*
X76101015Y-83501519D01*
X76194147Y-83640900D01*
X76258297Y-83795772D01*
X76291000Y-83960184D01*
X76291000Y-84127816D01*
X76258297Y-84292228D01*
X76194147Y-84447100D01*
X76101015Y-84586481D01*
X75982481Y-84705015D01*
X75843100Y-84798147D01*
X75688228Y-84862297D01*
X75523816Y-84895000D01*
X75356184Y-84895000D01*
X75191772Y-84862297D01*
X75036900Y-84798147D01*
X74897519Y-84705015D01*
X74778985Y-84586481D01*
X74685853Y-84447100D01*
X74621703Y-84292228D01*
X74589000Y-84127816D01*
X74589000Y-83960184D01*
X74621703Y-83795772D01*
X74685853Y-83640900D01*
X74778985Y-83501519D01*
X74897519Y-83382985D01*
X75036900Y-83289853D01*
X75191772Y-83225703D01*
X75356184Y-83193000D01*
X75523816Y-83193000D01*
X75688228Y-83225703D01*
X75688228Y-83225703D01*
G37*
G36*
X79688228Y-83225703D02*
X79843100Y-83289853D01*
X79982481Y-83382985D01*
X80101015Y-83501519D01*
X80194147Y-83640900D01*
X80258297Y-83795772D01*
X80291000Y-83960184D01*
X80291000Y-84127816D01*
X80258297Y-84292228D01*
X80194147Y-84447100D01*
X80101015Y-84586481D01*
X79982481Y-84705015D01*
X79843100Y-84798147D01*
X79688228Y-84862297D01*
X79523816Y-84895000D01*
X79356184Y-84895000D01*
X79191772Y-84862297D01*
X79036900Y-84798147D01*
X78897519Y-84705015D01*
X78778985Y-84586481D01*
X78685853Y-84447100D01*
X78621703Y-84292228D01*
X78589000Y-84127816D01*
X78589000Y-83960184D01*
X78621703Y-83795772D01*
X78685853Y-83640900D01*
X78778985Y-83501519D01*
X78897519Y-83382985D01*
X79036900Y-83289853D01*
X79191772Y-83225703D01*
X79356184Y-83193000D01*
X79523816Y-83193000D01*
X79688228Y-83225703D01*
X79688228Y-83225703D01*
G37*
G36*
X89688228Y-80725703D02*
X89843100Y-80789853D01*
X89982481Y-80882985D01*
X90101015Y-81001519D01*
X90194147Y-81140900D01*
X90258297Y-81295772D01*
X90291000Y-81460184D01*
X90291000Y-81627816D01*
X90258297Y-81792228D01*
X90194147Y-81947100D01*
X90101015Y-82086481D01*
X89982481Y-82205015D01*
X89843100Y-82298147D01*
X89688228Y-82362297D01*
X89523816Y-82395000D01*
X89356184Y-82395000D01*
X89191772Y-82362297D01*
X89036900Y-82298147D01*
X88897519Y-82205015D01*
X88778985Y-82086481D01*
X88685853Y-81947100D01*
X88621703Y-81792228D01*
X88589000Y-81627816D01*
X88589000Y-81460184D01*
X88621703Y-81295772D01*
X88685853Y-81140900D01*
X88778985Y-81001519D01*
X88897519Y-80882985D01*
X89036900Y-80789853D01*
X89191772Y-80725703D01*
X89356184Y-80693000D01*
X89523816Y-80693000D01*
X89688228Y-80725703D01*
X89688228Y-80725703D01*
G37*
G36*
X71688228Y-80725703D02*
X71843100Y-80789853D01*
X71982481Y-80882985D01*
X72101015Y-81001519D01*
X72194147Y-81140900D01*
X72258297Y-81295772D01*
X72291000Y-81460184D01*
X72291000Y-81627816D01*
X72258297Y-81792228D01*
X72194147Y-81947100D01*
X72101015Y-82086481D01*
X71982481Y-82205015D01*
X71843100Y-82298147D01*
X71688228Y-82362297D01*
X71523816Y-82395000D01*
X71356184Y-82395000D01*
X71191772Y-82362297D01*
X71036900Y-82298147D01*
X70897519Y-82205015D01*
X70778985Y-82086481D01*
X70685853Y-81947100D01*
X70621703Y-81792228D01*
X70589000Y-81627816D01*
X70589000Y-81460184D01*
X70621703Y-81295772D01*
X70685853Y-81140900D01*
X70778985Y-81001519D01*
X70897519Y-80882985D01*
X71036900Y-80789853D01*
X71191772Y-80725703D01*
X71356184Y-80693000D01*
X71523816Y-80693000D01*
X71688228Y-80725703D01*
X71688228Y-80725703D01*
G37*
G36*
X73688228Y-80725703D02*
X73843100Y-80789853D01*
X73982481Y-80882985D01*
X74101015Y-81001519D01*
X74194147Y-81140900D01*
X74258297Y-81295772D01*
X74291000Y-81460184D01*
X74291000Y-81627816D01*
X74258297Y-81792228D01*
X74194147Y-81947100D01*
X74101015Y-82086481D01*
X73982481Y-82205015D01*
X73843100Y-82298147D01*
X73688228Y-82362297D01*
X73523816Y-82395000D01*
X73356184Y-82395000D01*
X73191772Y-82362297D01*
X73036900Y-82298147D01*
X72897519Y-82205015D01*
X72778985Y-82086481D01*
X72685853Y-81947100D01*
X72621703Y-81792228D01*
X72589000Y-81627816D01*
X72589000Y-81460184D01*
X72621703Y-81295772D01*
X72685853Y-81140900D01*
X72778985Y-81001519D01*
X72897519Y-80882985D01*
X73036900Y-80789853D01*
X73191772Y-80725703D01*
X73356184Y-80693000D01*
X73523816Y-80693000D01*
X73688228Y-80725703D01*
X73688228Y-80725703D01*
G37*
G36*
X75688228Y-80725703D02*
X75843100Y-80789853D01*
X75982481Y-80882985D01*
X76101015Y-81001519D01*
X76194147Y-81140900D01*
X76258297Y-81295772D01*
X76291000Y-81460184D01*
X76291000Y-81627816D01*
X76258297Y-81792228D01*
X76194147Y-81947100D01*
X76101015Y-82086481D01*
X75982481Y-82205015D01*
X75843100Y-82298147D01*
X75688228Y-82362297D01*
X75523816Y-82395000D01*
X75356184Y-82395000D01*
X75191772Y-82362297D01*
X75036900Y-82298147D01*
X74897519Y-82205015D01*
X74778985Y-82086481D01*
X74685853Y-81947100D01*
X74621703Y-81792228D01*
X74589000Y-81627816D01*
X74589000Y-81460184D01*
X74621703Y-81295772D01*
X74685853Y-81140900D01*
X74778985Y-81001519D01*
X74897519Y-80882985D01*
X75036900Y-80789853D01*
X75191772Y-80725703D01*
X75356184Y-80693000D01*
X75523816Y-80693000D01*
X75688228Y-80725703D01*
X75688228Y-80725703D01*
G37*
G36*
X77688228Y-80725703D02*
X77843100Y-80789853D01*
X77982481Y-80882985D01*
X78101015Y-81001519D01*
X78194147Y-81140900D01*
X78258297Y-81295772D01*
X78291000Y-81460184D01*
X78291000Y-81627816D01*
X78258297Y-81792228D01*
X78194147Y-81947100D01*
X78101015Y-82086481D01*
X77982481Y-82205015D01*
X77843100Y-82298147D01*
X77688228Y-82362297D01*
X77523816Y-82395000D01*
X77356184Y-82395000D01*
X77191772Y-82362297D01*
X77036900Y-82298147D01*
X76897519Y-82205015D01*
X76778985Y-82086481D01*
X76685853Y-81947100D01*
X76621703Y-81792228D01*
X76589000Y-81627816D01*
X76589000Y-81460184D01*
X76621703Y-81295772D01*
X76685853Y-81140900D01*
X76778985Y-81001519D01*
X76897519Y-80882985D01*
X77036900Y-80789853D01*
X77191772Y-80725703D01*
X77356184Y-80693000D01*
X77523816Y-80693000D01*
X77688228Y-80725703D01*
X77688228Y-80725703D01*
G37*
G36*
X79688228Y-80725703D02*
X79843100Y-80789853D01*
X79982481Y-80882985D01*
X80101015Y-81001519D01*
X80194147Y-81140900D01*
X80258297Y-81295772D01*
X80291000Y-81460184D01*
X80291000Y-81627816D01*
X80258297Y-81792228D01*
X80194147Y-81947100D01*
X80101015Y-82086481D01*
X79982481Y-82205015D01*
X79843100Y-82298147D01*
X79688228Y-82362297D01*
X79523816Y-82395000D01*
X79356184Y-82395000D01*
X79191772Y-82362297D01*
X79036900Y-82298147D01*
X78897519Y-82205015D01*
X78778985Y-82086481D01*
X78685853Y-81947100D01*
X78621703Y-81792228D01*
X78589000Y-81627816D01*
X78589000Y-81460184D01*
X78621703Y-81295772D01*
X78685853Y-81140900D01*
X78778985Y-81001519D01*
X78897519Y-80882985D01*
X79036900Y-80789853D01*
X79191772Y-80725703D01*
X79356184Y-80693000D01*
X79523816Y-80693000D01*
X79688228Y-80725703D01*
X79688228Y-80725703D01*
G37*
G36*
X81688228Y-80725703D02*
X81843100Y-80789853D01*
X81982481Y-80882985D01*
X82101015Y-81001519D01*
X82194147Y-81140900D01*
X82258297Y-81295772D01*
X82291000Y-81460184D01*
X82291000Y-81627816D01*
X82258297Y-81792228D01*
X82194147Y-81947100D01*
X82101015Y-82086481D01*
X81982481Y-82205015D01*
X81843100Y-82298147D01*
X81688228Y-82362297D01*
X81523816Y-82395000D01*
X81356184Y-82395000D01*
X81191772Y-82362297D01*
X81036900Y-82298147D01*
X80897519Y-82205015D01*
X80778985Y-82086481D01*
X80685853Y-81947100D01*
X80621703Y-81792228D01*
X80589000Y-81627816D01*
X80589000Y-81460184D01*
X80621703Y-81295772D01*
X80685853Y-81140900D01*
X80778985Y-81001519D01*
X80897519Y-80882985D01*
X81036900Y-80789853D01*
X81191772Y-80725703D01*
X81356184Y-80693000D01*
X81523816Y-80693000D01*
X81688228Y-80725703D01*
X81688228Y-80725703D01*
G37*
G36*
X83688228Y-80725703D02*
X83843100Y-80789853D01*
X83982481Y-80882985D01*
X84101015Y-81001519D01*
X84194147Y-81140900D01*
X84258297Y-81295772D01*
X84291000Y-81460184D01*
X84291000Y-81627816D01*
X84258297Y-81792228D01*
X84194147Y-81947100D01*
X84101015Y-82086481D01*
X83982481Y-82205015D01*
X83843100Y-82298147D01*
X83688228Y-82362297D01*
X83523816Y-82395000D01*
X83356184Y-82395000D01*
X83191772Y-82362297D01*
X83036900Y-82298147D01*
X82897519Y-82205015D01*
X82778985Y-82086481D01*
X82685853Y-81947100D01*
X82621703Y-81792228D01*
X82589000Y-81627816D01*
X82589000Y-81460184D01*
X82621703Y-81295772D01*
X82685853Y-81140900D01*
X82778985Y-81001519D01*
X82897519Y-80882985D01*
X83036900Y-80789853D01*
X83191772Y-80725703D01*
X83356184Y-80693000D01*
X83523816Y-80693000D01*
X83688228Y-80725703D01*
X83688228Y-80725703D01*
G37*
G36*
X85688228Y-80725703D02*
X85843100Y-80789853D01*
X85982481Y-80882985D01*
X86101015Y-81001519D01*
X86194147Y-81140900D01*
X86258297Y-81295772D01*
X86291000Y-81460184D01*
X86291000Y-81627816D01*
X86258297Y-81792228D01*
X86194147Y-81947100D01*
X86101015Y-82086481D01*
X85982481Y-82205015D01*
X85843100Y-82298147D01*
X85688228Y-82362297D01*
X85523816Y-82395000D01*
X85356184Y-82395000D01*
X85191772Y-82362297D01*
X85036900Y-82298147D01*
X84897519Y-82205015D01*
X84778985Y-82086481D01*
X84685853Y-81947100D01*
X84621703Y-81792228D01*
X84589000Y-81627816D01*
X84589000Y-81460184D01*
X84621703Y-81295772D01*
X84685853Y-81140900D01*
X84778985Y-81001519D01*
X84897519Y-80882985D01*
X85036900Y-80789853D01*
X85191772Y-80725703D01*
X85356184Y-80693000D01*
X85523816Y-80693000D01*
X85688228Y-80725703D01*
X85688228Y-80725703D01*
G37*
G36*
X87688228Y-80725703D02*
X87843100Y-80789853D01*
X87982481Y-80882985D01*
X88101015Y-81001519D01*
X88194147Y-81140900D01*
X88258297Y-81295772D01*
X88291000Y-81460184D01*
X88291000Y-81627816D01*
X88258297Y-81792228D01*
X88194147Y-81947100D01*
X88101015Y-82086481D01*
X87982481Y-82205015D01*
X87843100Y-82298147D01*
X87688228Y-82362297D01*
X87523816Y-82395000D01*
X87356184Y-82395000D01*
X87191772Y-82362297D01*
X87036900Y-82298147D01*
X86897519Y-82205015D01*
X86778985Y-82086481D01*
X86685853Y-81947100D01*
X86621703Y-81792228D01*
X86589000Y-81627816D01*
X86589000Y-81460184D01*
X86621703Y-81295772D01*
X86685853Y-81140900D01*
X86778985Y-81001519D01*
X86897519Y-80882985D01*
X87036900Y-80789853D01*
X87191772Y-80725703D01*
X87356184Y-80693000D01*
X87523816Y-80693000D01*
X87688228Y-80725703D01*
X87688228Y-80725703D01*
G37*
G36*
X78143319Y-73418137D02*
X78194967Y-73428410D01*
X78267945Y-73458639D01*
X78333625Y-73502525D01*
X78389475Y-73558375D01*
X78389477Y-73558378D01*
X78433361Y-73624055D01*
X78463590Y-73697033D01*
X78479000Y-73774505D01*
X78479000Y-73853495D01*
X78463590Y-73930967D01*
X78433361Y-74003945D01*
X78389475Y-74069625D01*
X78333625Y-74125475D01*
X78333622Y-74125477D01*
X78267945Y-74169361D01*
X78194967Y-74199590D01*
X78143319Y-74209863D01*
X78117496Y-74215000D01*
X78038504Y-74215000D01*
X78012681Y-74209863D01*
X77961033Y-74199590D01*
X77888055Y-74169361D01*
X77822378Y-74125477D01*
X77822375Y-74125475D01*
X77766525Y-74069625D01*
X77722639Y-74003945D01*
X77692410Y-73930967D01*
X77677000Y-73853495D01*
X77677000Y-73774505D01*
X77692410Y-73697033D01*
X77722639Y-73624055D01*
X77766523Y-73558378D01*
X77766525Y-73558375D01*
X77822375Y-73502525D01*
X77888055Y-73458639D01*
X77961033Y-73428410D01*
X78012681Y-73418137D01*
X78038504Y-73413000D01*
X78117496Y-73413000D01*
X78143319Y-73418137D01*
X78143319Y-73418137D01*
G37*
G36*
X74093319Y-73418137D02*
X74144967Y-73428410D01*
X74217945Y-73458639D01*
X74283625Y-73502525D01*
X74339475Y-73558375D01*
X74339477Y-73558378D01*
X74383361Y-73624055D01*
X74413590Y-73697033D01*
X74429000Y-73774505D01*
X74429000Y-73853495D01*
X74413590Y-73930967D01*
X74383361Y-74003945D01*
X74339475Y-74069625D01*
X74283625Y-74125475D01*
X74283622Y-74125477D01*
X74217945Y-74169361D01*
X74144967Y-74199590D01*
X74093319Y-74209863D01*
X74067496Y-74215000D01*
X73988504Y-74215000D01*
X73962681Y-74209863D01*
X73911033Y-74199590D01*
X73838055Y-74169361D01*
X73772378Y-74125477D01*
X73772375Y-74125475D01*
X73716525Y-74069625D01*
X73672639Y-74003945D01*
X73642410Y-73930967D01*
X73627000Y-73853495D01*
X73627000Y-73774505D01*
X73642410Y-73697033D01*
X73672639Y-73624055D01*
X73716523Y-73558378D01*
X73716525Y-73558375D01*
X73772375Y-73502525D01*
X73838055Y-73458639D01*
X73911033Y-73428410D01*
X73962681Y-73418137D01*
X73988504Y-73413000D01*
X74067496Y-73413000D01*
X74093319Y-73418137D01*
X74093319Y-73418137D01*
G37*
M02*
