G04 #@! TF.GenerationSoftware,KiCad,Pcbnew,(5.0.1)-4*
G04 #@! TF.CreationDate,2019-03-10T19:06:40+01:00*
G04 #@! TF.ProjectId,wiihdmi_wmi,77696968646D695F776D692E6B696361,rev?*
G04 #@! TF.SameCoordinates,Original*
G04 #@! TF.FileFunction,Paste,Top*
G04 #@! TF.FilePolarity,Positive*
%FSLAX46Y46*%
G04 Gerber Fmt 4.6, Leading zero omitted, Abs format (unit mm)*
G04 Created by KiCad (PCBNEW (5.0.1)-4) date 10.03.2019 19:06:40*
%MOMM*%
%LPD*%
G01*
G04 APERTURE LIST*
%ADD10C,0.100000*%
%ADD11C,1.150000*%
%ADD12R,3.000000X1.400000*%
%ADD13R,0.700000X1.200000*%
%ADD14R,1.650000X1.050000*%
%ADD15R,1.550000X0.600000*%
%ADD16R,1.300000X0.300000*%
%ADD17R,2.200000X1.800000*%
%ADD18C,0.299720*%
%ADD19R,0.450000X1.450000*%
G04 APERTURE END LIST*
D10*
G04 #@! TO.C,C10*
G36*
X56229505Y-163893204D02*
X56253773Y-163896804D01*
X56277572Y-163902765D01*
X56300671Y-163911030D01*
X56322850Y-163921520D01*
X56343893Y-163934132D01*
X56363599Y-163948747D01*
X56381777Y-163965223D01*
X56398253Y-163983401D01*
X56412868Y-164003107D01*
X56425480Y-164024150D01*
X56435970Y-164046329D01*
X56444235Y-164069428D01*
X56450196Y-164093227D01*
X56453796Y-164117495D01*
X56455000Y-164141999D01*
X56455000Y-165042001D01*
X56453796Y-165066505D01*
X56450196Y-165090773D01*
X56444235Y-165114572D01*
X56435970Y-165137671D01*
X56425480Y-165159850D01*
X56412868Y-165180893D01*
X56398253Y-165200599D01*
X56381777Y-165218777D01*
X56363599Y-165235253D01*
X56343893Y-165249868D01*
X56322850Y-165262480D01*
X56300671Y-165272970D01*
X56277572Y-165281235D01*
X56253773Y-165287196D01*
X56229505Y-165290796D01*
X56205001Y-165292000D01*
X55554999Y-165292000D01*
X55530495Y-165290796D01*
X55506227Y-165287196D01*
X55482428Y-165281235D01*
X55459329Y-165272970D01*
X55437150Y-165262480D01*
X55416107Y-165249868D01*
X55396401Y-165235253D01*
X55378223Y-165218777D01*
X55361747Y-165200599D01*
X55347132Y-165180893D01*
X55334520Y-165159850D01*
X55324030Y-165137671D01*
X55315765Y-165114572D01*
X55309804Y-165090773D01*
X55306204Y-165066505D01*
X55305000Y-165042001D01*
X55305000Y-164141999D01*
X55306204Y-164117495D01*
X55309804Y-164093227D01*
X55315765Y-164069428D01*
X55324030Y-164046329D01*
X55334520Y-164024150D01*
X55347132Y-164003107D01*
X55361747Y-163983401D01*
X55378223Y-163965223D01*
X55396401Y-163948747D01*
X55416107Y-163934132D01*
X55437150Y-163921520D01*
X55459329Y-163911030D01*
X55482428Y-163902765D01*
X55506227Y-163896804D01*
X55530495Y-163893204D01*
X55554999Y-163892000D01*
X56205001Y-163892000D01*
X56229505Y-163893204D01*
X56229505Y-163893204D01*
G37*
D11*
X55880000Y-164592000D03*
D10*
G36*
X58279505Y-163893204D02*
X58303773Y-163896804D01*
X58327572Y-163902765D01*
X58350671Y-163911030D01*
X58372850Y-163921520D01*
X58393893Y-163934132D01*
X58413599Y-163948747D01*
X58431777Y-163965223D01*
X58448253Y-163983401D01*
X58462868Y-164003107D01*
X58475480Y-164024150D01*
X58485970Y-164046329D01*
X58494235Y-164069428D01*
X58500196Y-164093227D01*
X58503796Y-164117495D01*
X58505000Y-164141999D01*
X58505000Y-165042001D01*
X58503796Y-165066505D01*
X58500196Y-165090773D01*
X58494235Y-165114572D01*
X58485970Y-165137671D01*
X58475480Y-165159850D01*
X58462868Y-165180893D01*
X58448253Y-165200599D01*
X58431777Y-165218777D01*
X58413599Y-165235253D01*
X58393893Y-165249868D01*
X58372850Y-165262480D01*
X58350671Y-165272970D01*
X58327572Y-165281235D01*
X58303773Y-165287196D01*
X58279505Y-165290796D01*
X58255001Y-165292000D01*
X57604999Y-165292000D01*
X57580495Y-165290796D01*
X57556227Y-165287196D01*
X57532428Y-165281235D01*
X57509329Y-165272970D01*
X57487150Y-165262480D01*
X57466107Y-165249868D01*
X57446401Y-165235253D01*
X57428223Y-165218777D01*
X57411747Y-165200599D01*
X57397132Y-165180893D01*
X57384520Y-165159850D01*
X57374030Y-165137671D01*
X57365765Y-165114572D01*
X57359804Y-165090773D01*
X57356204Y-165066505D01*
X57355000Y-165042001D01*
X57355000Y-164141999D01*
X57356204Y-164117495D01*
X57359804Y-164093227D01*
X57365765Y-164069428D01*
X57374030Y-164046329D01*
X57384520Y-164024150D01*
X57397132Y-164003107D01*
X57411747Y-163983401D01*
X57428223Y-163965223D01*
X57446401Y-163948747D01*
X57466107Y-163934132D01*
X57487150Y-163921520D01*
X57509329Y-163911030D01*
X57532428Y-163902765D01*
X57556227Y-163896804D01*
X57580495Y-163893204D01*
X57604999Y-163892000D01*
X58255001Y-163892000D01*
X58279505Y-163893204D01*
X58279505Y-163893204D01*
G37*
D11*
X57930000Y-164592000D03*
G04 #@! TD*
D10*
G04 #@! TO.C,C12*
G36*
X56220505Y-166179204D02*
X56244773Y-166182804D01*
X56268572Y-166188765D01*
X56291671Y-166197030D01*
X56313850Y-166207520D01*
X56334893Y-166220132D01*
X56354599Y-166234747D01*
X56372777Y-166251223D01*
X56389253Y-166269401D01*
X56403868Y-166289107D01*
X56416480Y-166310150D01*
X56426970Y-166332329D01*
X56435235Y-166355428D01*
X56441196Y-166379227D01*
X56444796Y-166403495D01*
X56446000Y-166427999D01*
X56446000Y-167328001D01*
X56444796Y-167352505D01*
X56441196Y-167376773D01*
X56435235Y-167400572D01*
X56426970Y-167423671D01*
X56416480Y-167445850D01*
X56403868Y-167466893D01*
X56389253Y-167486599D01*
X56372777Y-167504777D01*
X56354599Y-167521253D01*
X56334893Y-167535868D01*
X56313850Y-167548480D01*
X56291671Y-167558970D01*
X56268572Y-167567235D01*
X56244773Y-167573196D01*
X56220505Y-167576796D01*
X56196001Y-167578000D01*
X55545999Y-167578000D01*
X55521495Y-167576796D01*
X55497227Y-167573196D01*
X55473428Y-167567235D01*
X55450329Y-167558970D01*
X55428150Y-167548480D01*
X55407107Y-167535868D01*
X55387401Y-167521253D01*
X55369223Y-167504777D01*
X55352747Y-167486599D01*
X55338132Y-167466893D01*
X55325520Y-167445850D01*
X55315030Y-167423671D01*
X55306765Y-167400572D01*
X55300804Y-167376773D01*
X55297204Y-167352505D01*
X55296000Y-167328001D01*
X55296000Y-166427999D01*
X55297204Y-166403495D01*
X55300804Y-166379227D01*
X55306765Y-166355428D01*
X55315030Y-166332329D01*
X55325520Y-166310150D01*
X55338132Y-166289107D01*
X55352747Y-166269401D01*
X55369223Y-166251223D01*
X55387401Y-166234747D01*
X55407107Y-166220132D01*
X55428150Y-166207520D01*
X55450329Y-166197030D01*
X55473428Y-166188765D01*
X55497227Y-166182804D01*
X55521495Y-166179204D01*
X55545999Y-166178000D01*
X56196001Y-166178000D01*
X56220505Y-166179204D01*
X56220505Y-166179204D01*
G37*
D11*
X55871000Y-166878000D03*
D10*
G36*
X58270505Y-166179204D02*
X58294773Y-166182804D01*
X58318572Y-166188765D01*
X58341671Y-166197030D01*
X58363850Y-166207520D01*
X58384893Y-166220132D01*
X58404599Y-166234747D01*
X58422777Y-166251223D01*
X58439253Y-166269401D01*
X58453868Y-166289107D01*
X58466480Y-166310150D01*
X58476970Y-166332329D01*
X58485235Y-166355428D01*
X58491196Y-166379227D01*
X58494796Y-166403495D01*
X58496000Y-166427999D01*
X58496000Y-167328001D01*
X58494796Y-167352505D01*
X58491196Y-167376773D01*
X58485235Y-167400572D01*
X58476970Y-167423671D01*
X58466480Y-167445850D01*
X58453868Y-167466893D01*
X58439253Y-167486599D01*
X58422777Y-167504777D01*
X58404599Y-167521253D01*
X58384893Y-167535868D01*
X58363850Y-167548480D01*
X58341671Y-167558970D01*
X58318572Y-167567235D01*
X58294773Y-167573196D01*
X58270505Y-167576796D01*
X58246001Y-167578000D01*
X57595999Y-167578000D01*
X57571495Y-167576796D01*
X57547227Y-167573196D01*
X57523428Y-167567235D01*
X57500329Y-167558970D01*
X57478150Y-167548480D01*
X57457107Y-167535868D01*
X57437401Y-167521253D01*
X57419223Y-167504777D01*
X57402747Y-167486599D01*
X57388132Y-167466893D01*
X57375520Y-167445850D01*
X57365030Y-167423671D01*
X57356765Y-167400572D01*
X57350804Y-167376773D01*
X57347204Y-167352505D01*
X57346000Y-167328001D01*
X57346000Y-166427999D01*
X57347204Y-166403495D01*
X57350804Y-166379227D01*
X57356765Y-166355428D01*
X57365030Y-166332329D01*
X57375520Y-166310150D01*
X57388132Y-166289107D01*
X57402747Y-166269401D01*
X57419223Y-166251223D01*
X57437401Y-166234747D01*
X57457107Y-166220132D01*
X57478150Y-166207520D01*
X57500329Y-166197030D01*
X57523428Y-166188765D01*
X57547227Y-166182804D01*
X57571495Y-166179204D01*
X57595999Y-166178000D01*
X58246001Y-166178000D01*
X58270505Y-166179204D01*
X58270505Y-166179204D01*
G37*
D11*
X57921000Y-166878000D03*
G04 #@! TD*
D10*
G04 #@! TO.C,C11*
G36*
X60134116Y-144745196D02*
X60158384Y-144748796D01*
X60182183Y-144754757D01*
X60205282Y-144763022D01*
X60227461Y-144773512D01*
X60248504Y-144786124D01*
X60268210Y-144800739D01*
X60286388Y-144817215D01*
X60922785Y-145453612D01*
X60939261Y-145471790D01*
X60953876Y-145491496D01*
X60966488Y-145512539D01*
X60976978Y-145534718D01*
X60985243Y-145557817D01*
X60991204Y-145581616D01*
X60994804Y-145605884D01*
X60996008Y-145630388D01*
X60994804Y-145654892D01*
X60991204Y-145679160D01*
X60985243Y-145702959D01*
X60976978Y-145726058D01*
X60966488Y-145748237D01*
X60953876Y-145769280D01*
X60939261Y-145788986D01*
X60922785Y-145807164D01*
X60463164Y-146266785D01*
X60444986Y-146283261D01*
X60425280Y-146297876D01*
X60404237Y-146310488D01*
X60382058Y-146320978D01*
X60358959Y-146329243D01*
X60335160Y-146335204D01*
X60310892Y-146338804D01*
X60286388Y-146340008D01*
X60261884Y-146338804D01*
X60237616Y-146335204D01*
X60213817Y-146329243D01*
X60190718Y-146320978D01*
X60168539Y-146310488D01*
X60147496Y-146297876D01*
X60127790Y-146283261D01*
X60109612Y-146266785D01*
X59473215Y-145630388D01*
X59456739Y-145612210D01*
X59442124Y-145592504D01*
X59429512Y-145571461D01*
X59419022Y-145549282D01*
X59410757Y-145526183D01*
X59404796Y-145502384D01*
X59401196Y-145478116D01*
X59399992Y-145453612D01*
X59401196Y-145429108D01*
X59404796Y-145404840D01*
X59410757Y-145381041D01*
X59419022Y-145357942D01*
X59429512Y-145335763D01*
X59442124Y-145314720D01*
X59456739Y-145295014D01*
X59473215Y-145276836D01*
X59932836Y-144817215D01*
X59951014Y-144800739D01*
X59970720Y-144786124D01*
X59991763Y-144773512D01*
X60013942Y-144763022D01*
X60037041Y-144754757D01*
X60060840Y-144748796D01*
X60085108Y-144745196D01*
X60109612Y-144743992D01*
X60134116Y-144745196D01*
X60134116Y-144745196D01*
G37*
D11*
X60198000Y-145542000D03*
D10*
G36*
X58684548Y-146194764D02*
X58708816Y-146198364D01*
X58732615Y-146204325D01*
X58755714Y-146212590D01*
X58777893Y-146223080D01*
X58798936Y-146235692D01*
X58818642Y-146250307D01*
X58836820Y-146266783D01*
X59473217Y-146903180D01*
X59489693Y-146921358D01*
X59504308Y-146941064D01*
X59516920Y-146962107D01*
X59527410Y-146984286D01*
X59535675Y-147007385D01*
X59541636Y-147031184D01*
X59545236Y-147055452D01*
X59546440Y-147079956D01*
X59545236Y-147104460D01*
X59541636Y-147128728D01*
X59535675Y-147152527D01*
X59527410Y-147175626D01*
X59516920Y-147197805D01*
X59504308Y-147218848D01*
X59489693Y-147238554D01*
X59473217Y-147256732D01*
X59013596Y-147716353D01*
X58995418Y-147732829D01*
X58975712Y-147747444D01*
X58954669Y-147760056D01*
X58932490Y-147770546D01*
X58909391Y-147778811D01*
X58885592Y-147784772D01*
X58861324Y-147788372D01*
X58836820Y-147789576D01*
X58812316Y-147788372D01*
X58788048Y-147784772D01*
X58764249Y-147778811D01*
X58741150Y-147770546D01*
X58718971Y-147760056D01*
X58697928Y-147747444D01*
X58678222Y-147732829D01*
X58660044Y-147716353D01*
X58023647Y-147079956D01*
X58007171Y-147061778D01*
X57992556Y-147042072D01*
X57979944Y-147021029D01*
X57969454Y-146998850D01*
X57961189Y-146975751D01*
X57955228Y-146951952D01*
X57951628Y-146927684D01*
X57950424Y-146903180D01*
X57951628Y-146878676D01*
X57955228Y-146854408D01*
X57961189Y-146830609D01*
X57969454Y-146807510D01*
X57979944Y-146785331D01*
X57992556Y-146764288D01*
X58007171Y-146744582D01*
X58023647Y-146726404D01*
X58483268Y-146266783D01*
X58501446Y-146250307D01*
X58521152Y-146235692D01*
X58542195Y-146223080D01*
X58564374Y-146212590D01*
X58587473Y-146204325D01*
X58611272Y-146198364D01*
X58635540Y-146194764D01*
X58660044Y-146193560D01*
X58684548Y-146194764D01*
X58684548Y-146194764D01*
G37*
D11*
X58748432Y-146991568D03*
G04 #@! TD*
D10*
G04 #@! TO.C,C9*
G36*
X81141684Y-135421628D02*
X81165952Y-135425228D01*
X81189751Y-135431189D01*
X81212850Y-135439454D01*
X81235029Y-135449944D01*
X81256072Y-135462556D01*
X81275778Y-135477171D01*
X81293956Y-135493647D01*
X81930353Y-136130044D01*
X81946829Y-136148222D01*
X81961444Y-136167928D01*
X81974056Y-136188971D01*
X81984546Y-136211150D01*
X81992811Y-136234249D01*
X81998772Y-136258048D01*
X82002372Y-136282316D01*
X82003576Y-136306820D01*
X82002372Y-136331324D01*
X81998772Y-136355592D01*
X81992811Y-136379391D01*
X81984546Y-136402490D01*
X81974056Y-136424669D01*
X81961444Y-136445712D01*
X81946829Y-136465418D01*
X81930353Y-136483596D01*
X81470732Y-136943217D01*
X81452554Y-136959693D01*
X81432848Y-136974308D01*
X81411805Y-136986920D01*
X81389626Y-136997410D01*
X81366527Y-137005675D01*
X81342728Y-137011636D01*
X81318460Y-137015236D01*
X81293956Y-137016440D01*
X81269452Y-137015236D01*
X81245184Y-137011636D01*
X81221385Y-137005675D01*
X81198286Y-136997410D01*
X81176107Y-136986920D01*
X81155064Y-136974308D01*
X81135358Y-136959693D01*
X81117180Y-136943217D01*
X80480783Y-136306820D01*
X80464307Y-136288642D01*
X80449692Y-136268936D01*
X80437080Y-136247893D01*
X80426590Y-136225714D01*
X80418325Y-136202615D01*
X80412364Y-136178816D01*
X80408764Y-136154548D01*
X80407560Y-136130044D01*
X80408764Y-136105540D01*
X80412364Y-136081272D01*
X80418325Y-136057473D01*
X80426590Y-136034374D01*
X80437080Y-136012195D01*
X80449692Y-135991152D01*
X80464307Y-135971446D01*
X80480783Y-135953268D01*
X80940404Y-135493647D01*
X80958582Y-135477171D01*
X80978288Y-135462556D01*
X80999331Y-135449944D01*
X81021510Y-135439454D01*
X81044609Y-135431189D01*
X81068408Y-135425228D01*
X81092676Y-135421628D01*
X81117180Y-135420424D01*
X81141684Y-135421628D01*
X81141684Y-135421628D01*
G37*
D11*
X81205568Y-136218432D03*
D10*
G36*
X79692116Y-136871196D02*
X79716384Y-136874796D01*
X79740183Y-136880757D01*
X79763282Y-136889022D01*
X79785461Y-136899512D01*
X79806504Y-136912124D01*
X79826210Y-136926739D01*
X79844388Y-136943215D01*
X80480785Y-137579612D01*
X80497261Y-137597790D01*
X80511876Y-137617496D01*
X80524488Y-137638539D01*
X80534978Y-137660718D01*
X80543243Y-137683817D01*
X80549204Y-137707616D01*
X80552804Y-137731884D01*
X80554008Y-137756388D01*
X80552804Y-137780892D01*
X80549204Y-137805160D01*
X80543243Y-137828959D01*
X80534978Y-137852058D01*
X80524488Y-137874237D01*
X80511876Y-137895280D01*
X80497261Y-137914986D01*
X80480785Y-137933164D01*
X80021164Y-138392785D01*
X80002986Y-138409261D01*
X79983280Y-138423876D01*
X79962237Y-138436488D01*
X79940058Y-138446978D01*
X79916959Y-138455243D01*
X79893160Y-138461204D01*
X79868892Y-138464804D01*
X79844388Y-138466008D01*
X79819884Y-138464804D01*
X79795616Y-138461204D01*
X79771817Y-138455243D01*
X79748718Y-138446978D01*
X79726539Y-138436488D01*
X79705496Y-138423876D01*
X79685790Y-138409261D01*
X79667612Y-138392785D01*
X79031215Y-137756388D01*
X79014739Y-137738210D01*
X79000124Y-137718504D01*
X78987512Y-137697461D01*
X78977022Y-137675282D01*
X78968757Y-137652183D01*
X78962796Y-137628384D01*
X78959196Y-137604116D01*
X78957992Y-137579612D01*
X78959196Y-137555108D01*
X78962796Y-137530840D01*
X78968757Y-137507041D01*
X78977022Y-137483942D01*
X78987512Y-137461763D01*
X79000124Y-137440720D01*
X79014739Y-137421014D01*
X79031215Y-137402836D01*
X79490836Y-136943215D01*
X79509014Y-136926739D01*
X79528720Y-136912124D01*
X79549763Y-136899512D01*
X79571942Y-136889022D01*
X79595041Y-136880757D01*
X79618840Y-136874796D01*
X79643108Y-136871196D01*
X79667612Y-136869992D01*
X79692116Y-136871196D01*
X79692116Y-136871196D01*
G37*
D11*
X79756000Y-137668000D03*
G04 #@! TD*
D10*
G04 #@! TO.C,C8*
G36*
X70970505Y-137223204D02*
X70994773Y-137226804D01*
X71018572Y-137232765D01*
X71041671Y-137241030D01*
X71063850Y-137251520D01*
X71084893Y-137264132D01*
X71104599Y-137278747D01*
X71122777Y-137295223D01*
X71139253Y-137313401D01*
X71153868Y-137333107D01*
X71166480Y-137354150D01*
X71176970Y-137376329D01*
X71185235Y-137399428D01*
X71191196Y-137423227D01*
X71194796Y-137447495D01*
X71196000Y-137471999D01*
X71196000Y-138372001D01*
X71194796Y-138396505D01*
X71191196Y-138420773D01*
X71185235Y-138444572D01*
X71176970Y-138467671D01*
X71166480Y-138489850D01*
X71153868Y-138510893D01*
X71139253Y-138530599D01*
X71122777Y-138548777D01*
X71104599Y-138565253D01*
X71084893Y-138579868D01*
X71063850Y-138592480D01*
X71041671Y-138602970D01*
X71018572Y-138611235D01*
X70994773Y-138617196D01*
X70970505Y-138620796D01*
X70946001Y-138622000D01*
X70295999Y-138622000D01*
X70271495Y-138620796D01*
X70247227Y-138617196D01*
X70223428Y-138611235D01*
X70200329Y-138602970D01*
X70178150Y-138592480D01*
X70157107Y-138579868D01*
X70137401Y-138565253D01*
X70119223Y-138548777D01*
X70102747Y-138530599D01*
X70088132Y-138510893D01*
X70075520Y-138489850D01*
X70065030Y-138467671D01*
X70056765Y-138444572D01*
X70050804Y-138420773D01*
X70047204Y-138396505D01*
X70046000Y-138372001D01*
X70046000Y-137471999D01*
X70047204Y-137447495D01*
X70050804Y-137423227D01*
X70056765Y-137399428D01*
X70065030Y-137376329D01*
X70075520Y-137354150D01*
X70088132Y-137333107D01*
X70102747Y-137313401D01*
X70119223Y-137295223D01*
X70137401Y-137278747D01*
X70157107Y-137264132D01*
X70178150Y-137251520D01*
X70200329Y-137241030D01*
X70223428Y-137232765D01*
X70247227Y-137226804D01*
X70271495Y-137223204D01*
X70295999Y-137222000D01*
X70946001Y-137222000D01*
X70970505Y-137223204D01*
X70970505Y-137223204D01*
G37*
D11*
X70621000Y-137922000D03*
D10*
G36*
X68920505Y-137223204D02*
X68944773Y-137226804D01*
X68968572Y-137232765D01*
X68991671Y-137241030D01*
X69013850Y-137251520D01*
X69034893Y-137264132D01*
X69054599Y-137278747D01*
X69072777Y-137295223D01*
X69089253Y-137313401D01*
X69103868Y-137333107D01*
X69116480Y-137354150D01*
X69126970Y-137376329D01*
X69135235Y-137399428D01*
X69141196Y-137423227D01*
X69144796Y-137447495D01*
X69146000Y-137471999D01*
X69146000Y-138372001D01*
X69144796Y-138396505D01*
X69141196Y-138420773D01*
X69135235Y-138444572D01*
X69126970Y-138467671D01*
X69116480Y-138489850D01*
X69103868Y-138510893D01*
X69089253Y-138530599D01*
X69072777Y-138548777D01*
X69054599Y-138565253D01*
X69034893Y-138579868D01*
X69013850Y-138592480D01*
X68991671Y-138602970D01*
X68968572Y-138611235D01*
X68944773Y-138617196D01*
X68920505Y-138620796D01*
X68896001Y-138622000D01*
X68245999Y-138622000D01*
X68221495Y-138620796D01*
X68197227Y-138617196D01*
X68173428Y-138611235D01*
X68150329Y-138602970D01*
X68128150Y-138592480D01*
X68107107Y-138579868D01*
X68087401Y-138565253D01*
X68069223Y-138548777D01*
X68052747Y-138530599D01*
X68038132Y-138510893D01*
X68025520Y-138489850D01*
X68015030Y-138467671D01*
X68006765Y-138444572D01*
X68000804Y-138420773D01*
X67997204Y-138396505D01*
X67996000Y-138372001D01*
X67996000Y-137471999D01*
X67997204Y-137447495D01*
X68000804Y-137423227D01*
X68006765Y-137399428D01*
X68015030Y-137376329D01*
X68025520Y-137354150D01*
X68038132Y-137333107D01*
X68052747Y-137313401D01*
X68069223Y-137295223D01*
X68087401Y-137278747D01*
X68107107Y-137264132D01*
X68128150Y-137251520D01*
X68150329Y-137241030D01*
X68173428Y-137232765D01*
X68197227Y-137226804D01*
X68221495Y-137223204D01*
X68245999Y-137222000D01*
X68896001Y-137222000D01*
X68920505Y-137223204D01*
X68920505Y-137223204D01*
G37*
D11*
X68571000Y-137922000D03*
G04 #@! TD*
D10*
G04 #@! TO.C,C7*
G36*
X73501505Y-78041204D02*
X73525773Y-78044804D01*
X73549572Y-78050765D01*
X73572671Y-78059030D01*
X73594850Y-78069520D01*
X73615893Y-78082132D01*
X73635599Y-78096747D01*
X73653777Y-78113223D01*
X73670253Y-78131401D01*
X73684868Y-78151107D01*
X73697480Y-78172150D01*
X73707970Y-78194329D01*
X73716235Y-78217428D01*
X73722196Y-78241227D01*
X73725796Y-78265495D01*
X73727000Y-78289999D01*
X73727000Y-79190001D01*
X73725796Y-79214505D01*
X73722196Y-79238773D01*
X73716235Y-79262572D01*
X73707970Y-79285671D01*
X73697480Y-79307850D01*
X73684868Y-79328893D01*
X73670253Y-79348599D01*
X73653777Y-79366777D01*
X73635599Y-79383253D01*
X73615893Y-79397868D01*
X73594850Y-79410480D01*
X73572671Y-79420970D01*
X73549572Y-79429235D01*
X73525773Y-79435196D01*
X73501505Y-79438796D01*
X73477001Y-79440000D01*
X72826999Y-79440000D01*
X72802495Y-79438796D01*
X72778227Y-79435196D01*
X72754428Y-79429235D01*
X72731329Y-79420970D01*
X72709150Y-79410480D01*
X72688107Y-79397868D01*
X72668401Y-79383253D01*
X72650223Y-79366777D01*
X72633747Y-79348599D01*
X72619132Y-79328893D01*
X72606520Y-79307850D01*
X72596030Y-79285671D01*
X72587765Y-79262572D01*
X72581804Y-79238773D01*
X72578204Y-79214505D01*
X72577000Y-79190001D01*
X72577000Y-78289999D01*
X72578204Y-78265495D01*
X72581804Y-78241227D01*
X72587765Y-78217428D01*
X72596030Y-78194329D01*
X72606520Y-78172150D01*
X72619132Y-78151107D01*
X72633747Y-78131401D01*
X72650223Y-78113223D01*
X72668401Y-78096747D01*
X72688107Y-78082132D01*
X72709150Y-78069520D01*
X72731329Y-78059030D01*
X72754428Y-78050765D01*
X72778227Y-78044804D01*
X72802495Y-78041204D01*
X72826999Y-78040000D01*
X73477001Y-78040000D01*
X73501505Y-78041204D01*
X73501505Y-78041204D01*
G37*
D11*
X73152000Y-78740000D03*
D10*
G36*
X75551505Y-78041204D02*
X75575773Y-78044804D01*
X75599572Y-78050765D01*
X75622671Y-78059030D01*
X75644850Y-78069520D01*
X75665893Y-78082132D01*
X75685599Y-78096747D01*
X75703777Y-78113223D01*
X75720253Y-78131401D01*
X75734868Y-78151107D01*
X75747480Y-78172150D01*
X75757970Y-78194329D01*
X75766235Y-78217428D01*
X75772196Y-78241227D01*
X75775796Y-78265495D01*
X75777000Y-78289999D01*
X75777000Y-79190001D01*
X75775796Y-79214505D01*
X75772196Y-79238773D01*
X75766235Y-79262572D01*
X75757970Y-79285671D01*
X75747480Y-79307850D01*
X75734868Y-79328893D01*
X75720253Y-79348599D01*
X75703777Y-79366777D01*
X75685599Y-79383253D01*
X75665893Y-79397868D01*
X75644850Y-79410480D01*
X75622671Y-79420970D01*
X75599572Y-79429235D01*
X75575773Y-79435196D01*
X75551505Y-79438796D01*
X75527001Y-79440000D01*
X74876999Y-79440000D01*
X74852495Y-79438796D01*
X74828227Y-79435196D01*
X74804428Y-79429235D01*
X74781329Y-79420970D01*
X74759150Y-79410480D01*
X74738107Y-79397868D01*
X74718401Y-79383253D01*
X74700223Y-79366777D01*
X74683747Y-79348599D01*
X74669132Y-79328893D01*
X74656520Y-79307850D01*
X74646030Y-79285671D01*
X74637765Y-79262572D01*
X74631804Y-79238773D01*
X74628204Y-79214505D01*
X74627000Y-79190001D01*
X74627000Y-78289999D01*
X74628204Y-78265495D01*
X74631804Y-78241227D01*
X74637765Y-78217428D01*
X74646030Y-78194329D01*
X74656520Y-78172150D01*
X74669132Y-78151107D01*
X74683747Y-78131401D01*
X74700223Y-78113223D01*
X74718401Y-78096747D01*
X74738107Y-78082132D01*
X74759150Y-78069520D01*
X74781329Y-78059030D01*
X74804428Y-78050765D01*
X74828227Y-78044804D01*
X74852495Y-78041204D01*
X74876999Y-78040000D01*
X75527001Y-78040000D01*
X75551505Y-78041204D01*
X75551505Y-78041204D01*
G37*
D11*
X75202000Y-78740000D03*
G04 #@! TD*
D10*
G04 #@! TO.C,C6*
G36*
X72072116Y-161255196D02*
X72096384Y-161258796D01*
X72120183Y-161264757D01*
X72143282Y-161273022D01*
X72165461Y-161283512D01*
X72186504Y-161296124D01*
X72206210Y-161310739D01*
X72224388Y-161327215D01*
X72860785Y-161963612D01*
X72877261Y-161981790D01*
X72891876Y-162001496D01*
X72904488Y-162022539D01*
X72914978Y-162044718D01*
X72923243Y-162067817D01*
X72929204Y-162091616D01*
X72932804Y-162115884D01*
X72934008Y-162140388D01*
X72932804Y-162164892D01*
X72929204Y-162189160D01*
X72923243Y-162212959D01*
X72914978Y-162236058D01*
X72904488Y-162258237D01*
X72891876Y-162279280D01*
X72877261Y-162298986D01*
X72860785Y-162317164D01*
X72401164Y-162776785D01*
X72382986Y-162793261D01*
X72363280Y-162807876D01*
X72342237Y-162820488D01*
X72320058Y-162830978D01*
X72296959Y-162839243D01*
X72273160Y-162845204D01*
X72248892Y-162848804D01*
X72224388Y-162850008D01*
X72199884Y-162848804D01*
X72175616Y-162845204D01*
X72151817Y-162839243D01*
X72128718Y-162830978D01*
X72106539Y-162820488D01*
X72085496Y-162807876D01*
X72065790Y-162793261D01*
X72047612Y-162776785D01*
X71411215Y-162140388D01*
X71394739Y-162122210D01*
X71380124Y-162102504D01*
X71367512Y-162081461D01*
X71357022Y-162059282D01*
X71348757Y-162036183D01*
X71342796Y-162012384D01*
X71339196Y-161988116D01*
X71337992Y-161963612D01*
X71339196Y-161939108D01*
X71342796Y-161914840D01*
X71348757Y-161891041D01*
X71357022Y-161867942D01*
X71367512Y-161845763D01*
X71380124Y-161824720D01*
X71394739Y-161805014D01*
X71411215Y-161786836D01*
X71870836Y-161327215D01*
X71889014Y-161310739D01*
X71908720Y-161296124D01*
X71929763Y-161283512D01*
X71951942Y-161273022D01*
X71975041Y-161264757D01*
X71998840Y-161258796D01*
X72023108Y-161255196D01*
X72047612Y-161253992D01*
X72072116Y-161255196D01*
X72072116Y-161255196D01*
G37*
D11*
X72136000Y-162052000D03*
D10*
G36*
X70622548Y-162704764D02*
X70646816Y-162708364D01*
X70670615Y-162714325D01*
X70693714Y-162722590D01*
X70715893Y-162733080D01*
X70736936Y-162745692D01*
X70756642Y-162760307D01*
X70774820Y-162776783D01*
X71411217Y-163413180D01*
X71427693Y-163431358D01*
X71442308Y-163451064D01*
X71454920Y-163472107D01*
X71465410Y-163494286D01*
X71473675Y-163517385D01*
X71479636Y-163541184D01*
X71483236Y-163565452D01*
X71484440Y-163589956D01*
X71483236Y-163614460D01*
X71479636Y-163638728D01*
X71473675Y-163662527D01*
X71465410Y-163685626D01*
X71454920Y-163707805D01*
X71442308Y-163728848D01*
X71427693Y-163748554D01*
X71411217Y-163766732D01*
X70951596Y-164226353D01*
X70933418Y-164242829D01*
X70913712Y-164257444D01*
X70892669Y-164270056D01*
X70870490Y-164280546D01*
X70847391Y-164288811D01*
X70823592Y-164294772D01*
X70799324Y-164298372D01*
X70774820Y-164299576D01*
X70750316Y-164298372D01*
X70726048Y-164294772D01*
X70702249Y-164288811D01*
X70679150Y-164280546D01*
X70656971Y-164270056D01*
X70635928Y-164257444D01*
X70616222Y-164242829D01*
X70598044Y-164226353D01*
X69961647Y-163589956D01*
X69945171Y-163571778D01*
X69930556Y-163552072D01*
X69917944Y-163531029D01*
X69907454Y-163508850D01*
X69899189Y-163485751D01*
X69893228Y-163461952D01*
X69889628Y-163437684D01*
X69888424Y-163413180D01*
X69889628Y-163388676D01*
X69893228Y-163364408D01*
X69899189Y-163340609D01*
X69907454Y-163317510D01*
X69917944Y-163295331D01*
X69930556Y-163274288D01*
X69945171Y-163254582D01*
X69961647Y-163236404D01*
X70421268Y-162776783D01*
X70439446Y-162760307D01*
X70459152Y-162745692D01*
X70480195Y-162733080D01*
X70502374Y-162722590D01*
X70525473Y-162714325D01*
X70549272Y-162708364D01*
X70573540Y-162704764D01*
X70598044Y-162703560D01*
X70622548Y-162704764D01*
X70622548Y-162704764D01*
G37*
D11*
X70686432Y-163501568D03*
G04 #@! TD*
D10*
G04 #@! TO.C,C5*
G36*
X62851505Y-165417204D02*
X62875773Y-165420804D01*
X62899572Y-165426765D01*
X62922671Y-165435030D01*
X62944850Y-165445520D01*
X62965893Y-165458132D01*
X62985599Y-165472747D01*
X63003777Y-165489223D01*
X63020253Y-165507401D01*
X63034868Y-165527107D01*
X63047480Y-165548150D01*
X63057970Y-165570329D01*
X63066235Y-165593428D01*
X63072196Y-165617227D01*
X63075796Y-165641495D01*
X63077000Y-165665999D01*
X63077000Y-166566001D01*
X63075796Y-166590505D01*
X63072196Y-166614773D01*
X63066235Y-166638572D01*
X63057970Y-166661671D01*
X63047480Y-166683850D01*
X63034868Y-166704893D01*
X63020253Y-166724599D01*
X63003777Y-166742777D01*
X62985599Y-166759253D01*
X62965893Y-166773868D01*
X62944850Y-166786480D01*
X62922671Y-166796970D01*
X62899572Y-166805235D01*
X62875773Y-166811196D01*
X62851505Y-166814796D01*
X62827001Y-166816000D01*
X62176999Y-166816000D01*
X62152495Y-166814796D01*
X62128227Y-166811196D01*
X62104428Y-166805235D01*
X62081329Y-166796970D01*
X62059150Y-166786480D01*
X62038107Y-166773868D01*
X62018401Y-166759253D01*
X62000223Y-166742777D01*
X61983747Y-166724599D01*
X61969132Y-166704893D01*
X61956520Y-166683850D01*
X61946030Y-166661671D01*
X61937765Y-166638572D01*
X61931804Y-166614773D01*
X61928204Y-166590505D01*
X61927000Y-166566001D01*
X61927000Y-165665999D01*
X61928204Y-165641495D01*
X61931804Y-165617227D01*
X61937765Y-165593428D01*
X61946030Y-165570329D01*
X61956520Y-165548150D01*
X61969132Y-165527107D01*
X61983747Y-165507401D01*
X62000223Y-165489223D01*
X62018401Y-165472747D01*
X62038107Y-165458132D01*
X62059150Y-165445520D01*
X62081329Y-165435030D01*
X62104428Y-165426765D01*
X62128227Y-165420804D01*
X62152495Y-165417204D01*
X62176999Y-165416000D01*
X62827001Y-165416000D01*
X62851505Y-165417204D01*
X62851505Y-165417204D01*
G37*
D11*
X62502000Y-166116000D03*
D10*
G36*
X60801505Y-165417204D02*
X60825773Y-165420804D01*
X60849572Y-165426765D01*
X60872671Y-165435030D01*
X60894850Y-165445520D01*
X60915893Y-165458132D01*
X60935599Y-165472747D01*
X60953777Y-165489223D01*
X60970253Y-165507401D01*
X60984868Y-165527107D01*
X60997480Y-165548150D01*
X61007970Y-165570329D01*
X61016235Y-165593428D01*
X61022196Y-165617227D01*
X61025796Y-165641495D01*
X61027000Y-165665999D01*
X61027000Y-166566001D01*
X61025796Y-166590505D01*
X61022196Y-166614773D01*
X61016235Y-166638572D01*
X61007970Y-166661671D01*
X60997480Y-166683850D01*
X60984868Y-166704893D01*
X60970253Y-166724599D01*
X60953777Y-166742777D01*
X60935599Y-166759253D01*
X60915893Y-166773868D01*
X60894850Y-166786480D01*
X60872671Y-166796970D01*
X60849572Y-166805235D01*
X60825773Y-166811196D01*
X60801505Y-166814796D01*
X60777001Y-166816000D01*
X60126999Y-166816000D01*
X60102495Y-166814796D01*
X60078227Y-166811196D01*
X60054428Y-166805235D01*
X60031329Y-166796970D01*
X60009150Y-166786480D01*
X59988107Y-166773868D01*
X59968401Y-166759253D01*
X59950223Y-166742777D01*
X59933747Y-166724599D01*
X59919132Y-166704893D01*
X59906520Y-166683850D01*
X59896030Y-166661671D01*
X59887765Y-166638572D01*
X59881804Y-166614773D01*
X59878204Y-166590505D01*
X59877000Y-166566001D01*
X59877000Y-165665999D01*
X59878204Y-165641495D01*
X59881804Y-165617227D01*
X59887765Y-165593428D01*
X59896030Y-165570329D01*
X59906520Y-165548150D01*
X59919132Y-165527107D01*
X59933747Y-165507401D01*
X59950223Y-165489223D01*
X59968401Y-165472747D01*
X59988107Y-165458132D01*
X60009150Y-165445520D01*
X60031329Y-165435030D01*
X60054428Y-165426765D01*
X60078227Y-165420804D01*
X60102495Y-165417204D01*
X60126999Y-165416000D01*
X60777001Y-165416000D01*
X60801505Y-165417204D01*
X60801505Y-165417204D01*
G37*
D11*
X60452000Y-166116000D03*
G04 #@! TD*
D10*
G04 #@! TO.C,C4*
G36*
X66625505Y-165417204D02*
X66649773Y-165420804D01*
X66673572Y-165426765D01*
X66696671Y-165435030D01*
X66718850Y-165445520D01*
X66739893Y-165458132D01*
X66759599Y-165472747D01*
X66777777Y-165489223D01*
X66794253Y-165507401D01*
X66808868Y-165527107D01*
X66821480Y-165548150D01*
X66831970Y-165570329D01*
X66840235Y-165593428D01*
X66846196Y-165617227D01*
X66849796Y-165641495D01*
X66851000Y-165665999D01*
X66851000Y-166566001D01*
X66849796Y-166590505D01*
X66846196Y-166614773D01*
X66840235Y-166638572D01*
X66831970Y-166661671D01*
X66821480Y-166683850D01*
X66808868Y-166704893D01*
X66794253Y-166724599D01*
X66777777Y-166742777D01*
X66759599Y-166759253D01*
X66739893Y-166773868D01*
X66718850Y-166786480D01*
X66696671Y-166796970D01*
X66673572Y-166805235D01*
X66649773Y-166811196D01*
X66625505Y-166814796D01*
X66601001Y-166816000D01*
X65950999Y-166816000D01*
X65926495Y-166814796D01*
X65902227Y-166811196D01*
X65878428Y-166805235D01*
X65855329Y-166796970D01*
X65833150Y-166786480D01*
X65812107Y-166773868D01*
X65792401Y-166759253D01*
X65774223Y-166742777D01*
X65757747Y-166724599D01*
X65743132Y-166704893D01*
X65730520Y-166683850D01*
X65720030Y-166661671D01*
X65711765Y-166638572D01*
X65705804Y-166614773D01*
X65702204Y-166590505D01*
X65701000Y-166566001D01*
X65701000Y-165665999D01*
X65702204Y-165641495D01*
X65705804Y-165617227D01*
X65711765Y-165593428D01*
X65720030Y-165570329D01*
X65730520Y-165548150D01*
X65743132Y-165527107D01*
X65757747Y-165507401D01*
X65774223Y-165489223D01*
X65792401Y-165472747D01*
X65812107Y-165458132D01*
X65833150Y-165445520D01*
X65855329Y-165435030D01*
X65878428Y-165426765D01*
X65902227Y-165420804D01*
X65926495Y-165417204D01*
X65950999Y-165416000D01*
X66601001Y-165416000D01*
X66625505Y-165417204D01*
X66625505Y-165417204D01*
G37*
D11*
X66276000Y-166116000D03*
D10*
G36*
X68675505Y-165417204D02*
X68699773Y-165420804D01*
X68723572Y-165426765D01*
X68746671Y-165435030D01*
X68768850Y-165445520D01*
X68789893Y-165458132D01*
X68809599Y-165472747D01*
X68827777Y-165489223D01*
X68844253Y-165507401D01*
X68858868Y-165527107D01*
X68871480Y-165548150D01*
X68881970Y-165570329D01*
X68890235Y-165593428D01*
X68896196Y-165617227D01*
X68899796Y-165641495D01*
X68901000Y-165665999D01*
X68901000Y-166566001D01*
X68899796Y-166590505D01*
X68896196Y-166614773D01*
X68890235Y-166638572D01*
X68881970Y-166661671D01*
X68871480Y-166683850D01*
X68858868Y-166704893D01*
X68844253Y-166724599D01*
X68827777Y-166742777D01*
X68809599Y-166759253D01*
X68789893Y-166773868D01*
X68768850Y-166786480D01*
X68746671Y-166796970D01*
X68723572Y-166805235D01*
X68699773Y-166811196D01*
X68675505Y-166814796D01*
X68651001Y-166816000D01*
X68000999Y-166816000D01*
X67976495Y-166814796D01*
X67952227Y-166811196D01*
X67928428Y-166805235D01*
X67905329Y-166796970D01*
X67883150Y-166786480D01*
X67862107Y-166773868D01*
X67842401Y-166759253D01*
X67824223Y-166742777D01*
X67807747Y-166724599D01*
X67793132Y-166704893D01*
X67780520Y-166683850D01*
X67770030Y-166661671D01*
X67761765Y-166638572D01*
X67755804Y-166614773D01*
X67752204Y-166590505D01*
X67751000Y-166566001D01*
X67751000Y-165665999D01*
X67752204Y-165641495D01*
X67755804Y-165617227D01*
X67761765Y-165593428D01*
X67770030Y-165570329D01*
X67780520Y-165548150D01*
X67793132Y-165527107D01*
X67807747Y-165507401D01*
X67824223Y-165489223D01*
X67842401Y-165472747D01*
X67862107Y-165458132D01*
X67883150Y-165445520D01*
X67905329Y-165435030D01*
X67928428Y-165426765D01*
X67952227Y-165420804D01*
X67976495Y-165417204D01*
X68000999Y-165416000D01*
X68651001Y-165416000D01*
X68675505Y-165417204D01*
X68675505Y-165417204D01*
G37*
D11*
X68326000Y-166116000D03*
G04 #@! TD*
D12*
G04 #@! TO.C,U4*
X85090000Y-74168000D03*
D13*
X85090000Y-76668000D03*
X83340000Y-76668000D03*
X81590000Y-76668000D03*
G04 #@! TD*
D14*
G04 #@! TO.C,SW1*
X74128000Y-73914000D03*
X77978000Y-73914000D03*
X74128000Y-75364000D03*
X77978000Y-75364000D03*
G04 #@! TD*
D15*
G04 #@! TO.C,U2*
X64008000Y-137922000D03*
X64008000Y-139192000D03*
X64008000Y-140462000D03*
X64008000Y-141732000D03*
X58608000Y-141732000D03*
X58608000Y-140462000D03*
X58608000Y-139192000D03*
X58608000Y-137922000D03*
G04 #@! TD*
D10*
G04 #@! TO.C,R3*
G36*
X77547505Y-156781204D02*
X77571773Y-156784804D01*
X77595572Y-156790765D01*
X77618671Y-156799030D01*
X77640850Y-156809520D01*
X77661893Y-156822132D01*
X77681599Y-156836747D01*
X77699777Y-156853223D01*
X77716253Y-156871401D01*
X77730868Y-156891107D01*
X77743480Y-156912150D01*
X77753970Y-156934329D01*
X77762235Y-156957428D01*
X77768196Y-156981227D01*
X77771796Y-157005495D01*
X77773000Y-157029999D01*
X77773000Y-157930001D01*
X77771796Y-157954505D01*
X77768196Y-157978773D01*
X77762235Y-158002572D01*
X77753970Y-158025671D01*
X77743480Y-158047850D01*
X77730868Y-158068893D01*
X77716253Y-158088599D01*
X77699777Y-158106777D01*
X77681599Y-158123253D01*
X77661893Y-158137868D01*
X77640850Y-158150480D01*
X77618671Y-158160970D01*
X77595572Y-158169235D01*
X77571773Y-158175196D01*
X77547505Y-158178796D01*
X77523001Y-158180000D01*
X76872999Y-158180000D01*
X76848495Y-158178796D01*
X76824227Y-158175196D01*
X76800428Y-158169235D01*
X76777329Y-158160970D01*
X76755150Y-158150480D01*
X76734107Y-158137868D01*
X76714401Y-158123253D01*
X76696223Y-158106777D01*
X76679747Y-158088599D01*
X76665132Y-158068893D01*
X76652520Y-158047850D01*
X76642030Y-158025671D01*
X76633765Y-158002572D01*
X76627804Y-157978773D01*
X76624204Y-157954505D01*
X76623000Y-157930001D01*
X76623000Y-157029999D01*
X76624204Y-157005495D01*
X76627804Y-156981227D01*
X76633765Y-156957428D01*
X76642030Y-156934329D01*
X76652520Y-156912150D01*
X76665132Y-156891107D01*
X76679747Y-156871401D01*
X76696223Y-156853223D01*
X76714401Y-156836747D01*
X76734107Y-156822132D01*
X76755150Y-156809520D01*
X76777329Y-156799030D01*
X76800428Y-156790765D01*
X76824227Y-156784804D01*
X76848495Y-156781204D01*
X76872999Y-156780000D01*
X77523001Y-156780000D01*
X77547505Y-156781204D01*
X77547505Y-156781204D01*
G37*
D11*
X77198000Y-157480000D03*
D10*
G36*
X79597505Y-156781204D02*
X79621773Y-156784804D01*
X79645572Y-156790765D01*
X79668671Y-156799030D01*
X79690850Y-156809520D01*
X79711893Y-156822132D01*
X79731599Y-156836747D01*
X79749777Y-156853223D01*
X79766253Y-156871401D01*
X79780868Y-156891107D01*
X79793480Y-156912150D01*
X79803970Y-156934329D01*
X79812235Y-156957428D01*
X79818196Y-156981227D01*
X79821796Y-157005495D01*
X79823000Y-157029999D01*
X79823000Y-157930001D01*
X79821796Y-157954505D01*
X79818196Y-157978773D01*
X79812235Y-158002572D01*
X79803970Y-158025671D01*
X79793480Y-158047850D01*
X79780868Y-158068893D01*
X79766253Y-158088599D01*
X79749777Y-158106777D01*
X79731599Y-158123253D01*
X79711893Y-158137868D01*
X79690850Y-158150480D01*
X79668671Y-158160970D01*
X79645572Y-158169235D01*
X79621773Y-158175196D01*
X79597505Y-158178796D01*
X79573001Y-158180000D01*
X78922999Y-158180000D01*
X78898495Y-158178796D01*
X78874227Y-158175196D01*
X78850428Y-158169235D01*
X78827329Y-158160970D01*
X78805150Y-158150480D01*
X78784107Y-158137868D01*
X78764401Y-158123253D01*
X78746223Y-158106777D01*
X78729747Y-158088599D01*
X78715132Y-158068893D01*
X78702520Y-158047850D01*
X78692030Y-158025671D01*
X78683765Y-158002572D01*
X78677804Y-157978773D01*
X78674204Y-157954505D01*
X78673000Y-157930001D01*
X78673000Y-157029999D01*
X78674204Y-157005495D01*
X78677804Y-156981227D01*
X78683765Y-156957428D01*
X78692030Y-156934329D01*
X78702520Y-156912150D01*
X78715132Y-156891107D01*
X78729747Y-156871401D01*
X78746223Y-156853223D01*
X78764401Y-156836747D01*
X78784107Y-156822132D01*
X78805150Y-156809520D01*
X78827329Y-156799030D01*
X78850428Y-156790765D01*
X78874227Y-156784804D01*
X78898495Y-156781204D01*
X78922999Y-156780000D01*
X79573001Y-156780000D01*
X79597505Y-156781204D01*
X79597505Y-156781204D01*
G37*
D11*
X79248000Y-157480000D03*
G04 #@! TD*
D10*
G04 #@! TO.C,R2*
G36*
X57225676Y-158677980D02*
X57249944Y-158681580D01*
X57273743Y-158687541D01*
X57296842Y-158695806D01*
X57319021Y-158706296D01*
X57340064Y-158718908D01*
X57359770Y-158733523D01*
X57377948Y-158749999D01*
X57837569Y-159209620D01*
X57854045Y-159227798D01*
X57868660Y-159247504D01*
X57881272Y-159268547D01*
X57891762Y-159290726D01*
X57900027Y-159313825D01*
X57905988Y-159337624D01*
X57909588Y-159361892D01*
X57910792Y-159386396D01*
X57909588Y-159410900D01*
X57905988Y-159435168D01*
X57900027Y-159458967D01*
X57891762Y-159482066D01*
X57881272Y-159504245D01*
X57868660Y-159525288D01*
X57854045Y-159544994D01*
X57837569Y-159563172D01*
X57201172Y-160199569D01*
X57182994Y-160216045D01*
X57163288Y-160230660D01*
X57142245Y-160243272D01*
X57120066Y-160253762D01*
X57096967Y-160262027D01*
X57073168Y-160267988D01*
X57048900Y-160271588D01*
X57024396Y-160272792D01*
X56999892Y-160271588D01*
X56975624Y-160267988D01*
X56951825Y-160262027D01*
X56928726Y-160253762D01*
X56906547Y-160243272D01*
X56885504Y-160230660D01*
X56865798Y-160216045D01*
X56847620Y-160199569D01*
X56387999Y-159739948D01*
X56371523Y-159721770D01*
X56356908Y-159702064D01*
X56344296Y-159681021D01*
X56333806Y-159658842D01*
X56325541Y-159635743D01*
X56319580Y-159611944D01*
X56315980Y-159587676D01*
X56314776Y-159563172D01*
X56315980Y-159538668D01*
X56319580Y-159514400D01*
X56325541Y-159490601D01*
X56333806Y-159467502D01*
X56344296Y-159445323D01*
X56356908Y-159424280D01*
X56371523Y-159404574D01*
X56387999Y-159386396D01*
X57024396Y-158749999D01*
X57042574Y-158733523D01*
X57062280Y-158718908D01*
X57083323Y-158706296D01*
X57105502Y-158695806D01*
X57128601Y-158687541D01*
X57152400Y-158681580D01*
X57176668Y-158677980D01*
X57201172Y-158676776D01*
X57225676Y-158677980D01*
X57225676Y-158677980D01*
G37*
D11*
X57112784Y-159474784D03*
D10*
G36*
X55776108Y-157228412D02*
X55800376Y-157232012D01*
X55824175Y-157237973D01*
X55847274Y-157246238D01*
X55869453Y-157256728D01*
X55890496Y-157269340D01*
X55910202Y-157283955D01*
X55928380Y-157300431D01*
X56388001Y-157760052D01*
X56404477Y-157778230D01*
X56419092Y-157797936D01*
X56431704Y-157818979D01*
X56442194Y-157841158D01*
X56450459Y-157864257D01*
X56456420Y-157888056D01*
X56460020Y-157912324D01*
X56461224Y-157936828D01*
X56460020Y-157961332D01*
X56456420Y-157985600D01*
X56450459Y-158009399D01*
X56442194Y-158032498D01*
X56431704Y-158054677D01*
X56419092Y-158075720D01*
X56404477Y-158095426D01*
X56388001Y-158113604D01*
X55751604Y-158750001D01*
X55733426Y-158766477D01*
X55713720Y-158781092D01*
X55692677Y-158793704D01*
X55670498Y-158804194D01*
X55647399Y-158812459D01*
X55623600Y-158818420D01*
X55599332Y-158822020D01*
X55574828Y-158823224D01*
X55550324Y-158822020D01*
X55526056Y-158818420D01*
X55502257Y-158812459D01*
X55479158Y-158804194D01*
X55456979Y-158793704D01*
X55435936Y-158781092D01*
X55416230Y-158766477D01*
X55398052Y-158750001D01*
X54938431Y-158290380D01*
X54921955Y-158272202D01*
X54907340Y-158252496D01*
X54894728Y-158231453D01*
X54884238Y-158209274D01*
X54875973Y-158186175D01*
X54870012Y-158162376D01*
X54866412Y-158138108D01*
X54865208Y-158113604D01*
X54866412Y-158089100D01*
X54870012Y-158064832D01*
X54875973Y-158041033D01*
X54884238Y-158017934D01*
X54894728Y-157995755D01*
X54907340Y-157974712D01*
X54921955Y-157955006D01*
X54938431Y-157936828D01*
X55574828Y-157300431D01*
X55593006Y-157283955D01*
X55612712Y-157269340D01*
X55633755Y-157256728D01*
X55655934Y-157246238D01*
X55679033Y-157237973D01*
X55702832Y-157232012D01*
X55727100Y-157228412D01*
X55751604Y-157227208D01*
X55776108Y-157228412D01*
X55776108Y-157228412D01*
G37*
D11*
X55663216Y-158025216D03*
G04 #@! TD*
D16*
G04 #@! TO.C,J3*
X101274000Y-126294000D03*
X101274000Y-126794000D03*
X101274000Y-127294000D03*
X101274000Y-127794000D03*
X101274000Y-128294000D03*
X101274000Y-128794000D03*
X101274000Y-129294000D03*
X101274000Y-129794000D03*
X101274000Y-130294000D03*
X101274000Y-130794000D03*
X101274000Y-131294000D03*
X101274000Y-131794000D03*
X101274000Y-132294000D03*
X101274000Y-132794000D03*
X101274000Y-133294000D03*
D17*
X104524000Y-135194000D03*
X104524000Y-124394000D03*
G04 #@! TD*
D10*
G04 #@! TO.C,C3*
G36*
X65498505Y-97470204D02*
X65522773Y-97473804D01*
X65546572Y-97479765D01*
X65569671Y-97488030D01*
X65591850Y-97498520D01*
X65612893Y-97511132D01*
X65632599Y-97525747D01*
X65650777Y-97542223D01*
X65667253Y-97560401D01*
X65681868Y-97580107D01*
X65694480Y-97601150D01*
X65704970Y-97623329D01*
X65713235Y-97646428D01*
X65719196Y-97670227D01*
X65722796Y-97694495D01*
X65724000Y-97718999D01*
X65724000Y-98369001D01*
X65722796Y-98393505D01*
X65719196Y-98417773D01*
X65713235Y-98441572D01*
X65704970Y-98464671D01*
X65694480Y-98486850D01*
X65681868Y-98507893D01*
X65667253Y-98527599D01*
X65650777Y-98545777D01*
X65632599Y-98562253D01*
X65612893Y-98576868D01*
X65591850Y-98589480D01*
X65569671Y-98599970D01*
X65546572Y-98608235D01*
X65522773Y-98614196D01*
X65498505Y-98617796D01*
X65474001Y-98619000D01*
X64573999Y-98619000D01*
X64549495Y-98617796D01*
X64525227Y-98614196D01*
X64501428Y-98608235D01*
X64478329Y-98599970D01*
X64456150Y-98589480D01*
X64435107Y-98576868D01*
X64415401Y-98562253D01*
X64397223Y-98545777D01*
X64380747Y-98527599D01*
X64366132Y-98507893D01*
X64353520Y-98486850D01*
X64343030Y-98464671D01*
X64334765Y-98441572D01*
X64328804Y-98417773D01*
X64325204Y-98393505D01*
X64324000Y-98369001D01*
X64324000Y-97718999D01*
X64325204Y-97694495D01*
X64328804Y-97670227D01*
X64334765Y-97646428D01*
X64343030Y-97623329D01*
X64353520Y-97601150D01*
X64366132Y-97580107D01*
X64380747Y-97560401D01*
X64397223Y-97542223D01*
X64415401Y-97525747D01*
X64435107Y-97511132D01*
X64456150Y-97498520D01*
X64478329Y-97488030D01*
X64501428Y-97479765D01*
X64525227Y-97473804D01*
X64549495Y-97470204D01*
X64573999Y-97469000D01*
X65474001Y-97469000D01*
X65498505Y-97470204D01*
X65498505Y-97470204D01*
G37*
D11*
X65024000Y-98044000D03*
D10*
G36*
X65498505Y-95420204D02*
X65522773Y-95423804D01*
X65546572Y-95429765D01*
X65569671Y-95438030D01*
X65591850Y-95448520D01*
X65612893Y-95461132D01*
X65632599Y-95475747D01*
X65650777Y-95492223D01*
X65667253Y-95510401D01*
X65681868Y-95530107D01*
X65694480Y-95551150D01*
X65704970Y-95573329D01*
X65713235Y-95596428D01*
X65719196Y-95620227D01*
X65722796Y-95644495D01*
X65724000Y-95668999D01*
X65724000Y-96319001D01*
X65722796Y-96343505D01*
X65719196Y-96367773D01*
X65713235Y-96391572D01*
X65704970Y-96414671D01*
X65694480Y-96436850D01*
X65681868Y-96457893D01*
X65667253Y-96477599D01*
X65650777Y-96495777D01*
X65632599Y-96512253D01*
X65612893Y-96526868D01*
X65591850Y-96539480D01*
X65569671Y-96549970D01*
X65546572Y-96558235D01*
X65522773Y-96564196D01*
X65498505Y-96567796D01*
X65474001Y-96569000D01*
X64573999Y-96569000D01*
X64549495Y-96567796D01*
X64525227Y-96564196D01*
X64501428Y-96558235D01*
X64478329Y-96549970D01*
X64456150Y-96539480D01*
X64435107Y-96526868D01*
X64415401Y-96512253D01*
X64397223Y-96495777D01*
X64380747Y-96477599D01*
X64366132Y-96457893D01*
X64353520Y-96436850D01*
X64343030Y-96414671D01*
X64334765Y-96391572D01*
X64328804Y-96367773D01*
X64325204Y-96343505D01*
X64324000Y-96319001D01*
X64324000Y-95668999D01*
X64325204Y-95644495D01*
X64328804Y-95620227D01*
X64334765Y-95596428D01*
X64343030Y-95573329D01*
X64353520Y-95551150D01*
X64366132Y-95530107D01*
X64380747Y-95510401D01*
X64397223Y-95492223D01*
X64415401Y-95475747D01*
X64435107Y-95461132D01*
X64456150Y-95448520D01*
X64478329Y-95438030D01*
X64501428Y-95429765D01*
X64525227Y-95423804D01*
X64549495Y-95420204D01*
X64573999Y-95419000D01*
X65474001Y-95419000D01*
X65498505Y-95420204D01*
X65498505Y-95420204D01*
G37*
D11*
X65024000Y-95994000D03*
G04 #@! TD*
D10*
G04 #@! TO.C,C2*
G36*
X70961505Y-90741204D02*
X70985773Y-90744804D01*
X71009572Y-90750765D01*
X71032671Y-90759030D01*
X71054850Y-90769520D01*
X71075893Y-90782132D01*
X71095599Y-90796747D01*
X71113777Y-90813223D01*
X71130253Y-90831401D01*
X71144868Y-90851107D01*
X71157480Y-90872150D01*
X71167970Y-90894329D01*
X71176235Y-90917428D01*
X71182196Y-90941227D01*
X71185796Y-90965495D01*
X71187000Y-90989999D01*
X71187000Y-91890001D01*
X71185796Y-91914505D01*
X71182196Y-91938773D01*
X71176235Y-91962572D01*
X71167970Y-91985671D01*
X71157480Y-92007850D01*
X71144868Y-92028893D01*
X71130253Y-92048599D01*
X71113777Y-92066777D01*
X71095599Y-92083253D01*
X71075893Y-92097868D01*
X71054850Y-92110480D01*
X71032671Y-92120970D01*
X71009572Y-92129235D01*
X70985773Y-92135196D01*
X70961505Y-92138796D01*
X70937001Y-92140000D01*
X70286999Y-92140000D01*
X70262495Y-92138796D01*
X70238227Y-92135196D01*
X70214428Y-92129235D01*
X70191329Y-92120970D01*
X70169150Y-92110480D01*
X70148107Y-92097868D01*
X70128401Y-92083253D01*
X70110223Y-92066777D01*
X70093747Y-92048599D01*
X70079132Y-92028893D01*
X70066520Y-92007850D01*
X70056030Y-91985671D01*
X70047765Y-91962572D01*
X70041804Y-91938773D01*
X70038204Y-91914505D01*
X70037000Y-91890001D01*
X70037000Y-90989999D01*
X70038204Y-90965495D01*
X70041804Y-90941227D01*
X70047765Y-90917428D01*
X70056030Y-90894329D01*
X70066520Y-90872150D01*
X70079132Y-90851107D01*
X70093747Y-90831401D01*
X70110223Y-90813223D01*
X70128401Y-90796747D01*
X70148107Y-90782132D01*
X70169150Y-90769520D01*
X70191329Y-90759030D01*
X70214428Y-90750765D01*
X70238227Y-90744804D01*
X70262495Y-90741204D01*
X70286999Y-90740000D01*
X70937001Y-90740000D01*
X70961505Y-90741204D01*
X70961505Y-90741204D01*
G37*
D11*
X70612000Y-91440000D03*
D10*
G36*
X68911505Y-90741204D02*
X68935773Y-90744804D01*
X68959572Y-90750765D01*
X68982671Y-90759030D01*
X69004850Y-90769520D01*
X69025893Y-90782132D01*
X69045599Y-90796747D01*
X69063777Y-90813223D01*
X69080253Y-90831401D01*
X69094868Y-90851107D01*
X69107480Y-90872150D01*
X69117970Y-90894329D01*
X69126235Y-90917428D01*
X69132196Y-90941227D01*
X69135796Y-90965495D01*
X69137000Y-90989999D01*
X69137000Y-91890001D01*
X69135796Y-91914505D01*
X69132196Y-91938773D01*
X69126235Y-91962572D01*
X69117970Y-91985671D01*
X69107480Y-92007850D01*
X69094868Y-92028893D01*
X69080253Y-92048599D01*
X69063777Y-92066777D01*
X69045599Y-92083253D01*
X69025893Y-92097868D01*
X69004850Y-92110480D01*
X68982671Y-92120970D01*
X68959572Y-92129235D01*
X68935773Y-92135196D01*
X68911505Y-92138796D01*
X68887001Y-92140000D01*
X68236999Y-92140000D01*
X68212495Y-92138796D01*
X68188227Y-92135196D01*
X68164428Y-92129235D01*
X68141329Y-92120970D01*
X68119150Y-92110480D01*
X68098107Y-92097868D01*
X68078401Y-92083253D01*
X68060223Y-92066777D01*
X68043747Y-92048599D01*
X68029132Y-92028893D01*
X68016520Y-92007850D01*
X68006030Y-91985671D01*
X67997765Y-91962572D01*
X67991804Y-91938773D01*
X67988204Y-91914505D01*
X67987000Y-91890001D01*
X67987000Y-90989999D01*
X67988204Y-90965495D01*
X67991804Y-90941227D01*
X67997765Y-90917428D01*
X68006030Y-90894329D01*
X68016520Y-90872150D01*
X68029132Y-90851107D01*
X68043747Y-90831401D01*
X68060223Y-90813223D01*
X68078401Y-90796747D01*
X68098107Y-90782132D01*
X68119150Y-90769520D01*
X68141329Y-90759030D01*
X68164428Y-90750765D01*
X68188227Y-90744804D01*
X68212495Y-90741204D01*
X68236999Y-90740000D01*
X68887001Y-90740000D01*
X68911505Y-90741204D01*
X68911505Y-90741204D01*
G37*
D11*
X68562000Y-91440000D03*
G04 #@! TD*
D10*
G04 #@! TO.C,C1*
G36*
X64357505Y-90741204D02*
X64381773Y-90744804D01*
X64405572Y-90750765D01*
X64428671Y-90759030D01*
X64450850Y-90769520D01*
X64471893Y-90782132D01*
X64491599Y-90796747D01*
X64509777Y-90813223D01*
X64526253Y-90831401D01*
X64540868Y-90851107D01*
X64553480Y-90872150D01*
X64563970Y-90894329D01*
X64572235Y-90917428D01*
X64578196Y-90941227D01*
X64581796Y-90965495D01*
X64583000Y-90989999D01*
X64583000Y-91890001D01*
X64581796Y-91914505D01*
X64578196Y-91938773D01*
X64572235Y-91962572D01*
X64563970Y-91985671D01*
X64553480Y-92007850D01*
X64540868Y-92028893D01*
X64526253Y-92048599D01*
X64509777Y-92066777D01*
X64491599Y-92083253D01*
X64471893Y-92097868D01*
X64450850Y-92110480D01*
X64428671Y-92120970D01*
X64405572Y-92129235D01*
X64381773Y-92135196D01*
X64357505Y-92138796D01*
X64333001Y-92140000D01*
X63682999Y-92140000D01*
X63658495Y-92138796D01*
X63634227Y-92135196D01*
X63610428Y-92129235D01*
X63587329Y-92120970D01*
X63565150Y-92110480D01*
X63544107Y-92097868D01*
X63524401Y-92083253D01*
X63506223Y-92066777D01*
X63489747Y-92048599D01*
X63475132Y-92028893D01*
X63462520Y-92007850D01*
X63452030Y-91985671D01*
X63443765Y-91962572D01*
X63437804Y-91938773D01*
X63434204Y-91914505D01*
X63433000Y-91890001D01*
X63433000Y-90989999D01*
X63434204Y-90965495D01*
X63437804Y-90941227D01*
X63443765Y-90917428D01*
X63452030Y-90894329D01*
X63462520Y-90872150D01*
X63475132Y-90851107D01*
X63489747Y-90831401D01*
X63506223Y-90813223D01*
X63524401Y-90796747D01*
X63544107Y-90782132D01*
X63565150Y-90769520D01*
X63587329Y-90759030D01*
X63610428Y-90750765D01*
X63634227Y-90744804D01*
X63658495Y-90741204D01*
X63682999Y-90740000D01*
X64333001Y-90740000D01*
X64357505Y-90741204D01*
X64357505Y-90741204D01*
G37*
D11*
X64008000Y-91440000D03*
D10*
G36*
X66407505Y-90741204D02*
X66431773Y-90744804D01*
X66455572Y-90750765D01*
X66478671Y-90759030D01*
X66500850Y-90769520D01*
X66521893Y-90782132D01*
X66541599Y-90796747D01*
X66559777Y-90813223D01*
X66576253Y-90831401D01*
X66590868Y-90851107D01*
X66603480Y-90872150D01*
X66613970Y-90894329D01*
X66622235Y-90917428D01*
X66628196Y-90941227D01*
X66631796Y-90965495D01*
X66633000Y-90989999D01*
X66633000Y-91890001D01*
X66631796Y-91914505D01*
X66628196Y-91938773D01*
X66622235Y-91962572D01*
X66613970Y-91985671D01*
X66603480Y-92007850D01*
X66590868Y-92028893D01*
X66576253Y-92048599D01*
X66559777Y-92066777D01*
X66541599Y-92083253D01*
X66521893Y-92097868D01*
X66500850Y-92110480D01*
X66478671Y-92120970D01*
X66455572Y-92129235D01*
X66431773Y-92135196D01*
X66407505Y-92138796D01*
X66383001Y-92140000D01*
X65732999Y-92140000D01*
X65708495Y-92138796D01*
X65684227Y-92135196D01*
X65660428Y-92129235D01*
X65637329Y-92120970D01*
X65615150Y-92110480D01*
X65594107Y-92097868D01*
X65574401Y-92083253D01*
X65556223Y-92066777D01*
X65539747Y-92048599D01*
X65525132Y-92028893D01*
X65512520Y-92007850D01*
X65502030Y-91985671D01*
X65493765Y-91962572D01*
X65487804Y-91938773D01*
X65484204Y-91914505D01*
X65483000Y-91890001D01*
X65483000Y-90989999D01*
X65484204Y-90965495D01*
X65487804Y-90941227D01*
X65493765Y-90917428D01*
X65502030Y-90894329D01*
X65512520Y-90872150D01*
X65525132Y-90851107D01*
X65539747Y-90831401D01*
X65556223Y-90813223D01*
X65574401Y-90796747D01*
X65594107Y-90782132D01*
X65615150Y-90769520D01*
X65637329Y-90759030D01*
X65660428Y-90750765D01*
X65684227Y-90744804D01*
X65708495Y-90741204D01*
X65732999Y-90740000D01*
X66383001Y-90740000D01*
X66407505Y-90741204D01*
X66407505Y-90741204D01*
G37*
D11*
X66058000Y-91440000D03*
G04 #@! TD*
D18*
G04 #@! TO.C,U1*
X75472104Y-152976442D03*
D10*
G36*
X75930995Y-152305617D02*
X76142929Y-152517551D01*
X75013213Y-153647267D01*
X74801279Y-153435333D01*
X75930995Y-152305617D01*
X75930995Y-152305617D01*
G37*
D18*
X75118282Y-152622620D03*
D10*
G36*
X75577173Y-151951795D02*
X75789107Y-152163729D01*
X74659391Y-153293445D01*
X74447457Y-153081511D01*
X75577173Y-151951795D01*
X75577173Y-151951795D01*
G37*
D18*
X74764460Y-152268798D03*
D10*
G36*
X75223351Y-151597973D02*
X75435285Y-151809907D01*
X74305569Y-152939623D01*
X74093635Y-152727689D01*
X75223351Y-151597973D01*
X75223351Y-151597973D01*
G37*
D18*
X74410638Y-151914975D03*
D10*
G36*
X74869529Y-151244150D02*
X75081463Y-151456084D01*
X73951747Y-152585800D01*
X73739813Y-152373866D01*
X74869529Y-151244150D01*
X74869529Y-151244150D01*
G37*
D18*
X74056816Y-151561153D03*
D10*
G36*
X74515707Y-150890328D02*
X74727641Y-151102262D01*
X73597925Y-152231978D01*
X73385991Y-152020044D01*
X74515707Y-150890328D01*
X74515707Y-150890328D01*
G37*
D18*
X73702994Y-151207331D03*
D10*
G36*
X74161885Y-150536506D02*
X74373819Y-150748440D01*
X73244103Y-151878156D01*
X73032169Y-151666222D01*
X74161885Y-150536506D01*
X74161885Y-150536506D01*
G37*
D18*
X73350968Y-150855305D03*
D10*
G36*
X73809859Y-150184480D02*
X74021793Y-150396414D01*
X72892077Y-151526130D01*
X72680143Y-151314196D01*
X73809859Y-150184480D01*
X73809859Y-150184480D01*
G37*
D18*
X72997146Y-150501483D03*
D10*
G36*
X73456037Y-149830658D02*
X73667971Y-150042592D01*
X72538255Y-151172308D01*
X72326321Y-150960374D01*
X73456037Y-149830658D01*
X73456037Y-149830658D01*
G37*
D18*
X72643324Y-150147661D03*
D10*
G36*
X73102215Y-149476836D02*
X73314149Y-149688770D01*
X72184433Y-150818486D01*
X71972499Y-150606552D01*
X73102215Y-149476836D01*
X73102215Y-149476836D01*
G37*
D18*
X72289501Y-149793839D03*
D10*
G36*
X72748392Y-149123014D02*
X72960326Y-149334948D01*
X71830610Y-150464664D01*
X71618676Y-150252730D01*
X72748392Y-149123014D01*
X72748392Y-149123014D01*
G37*
D18*
X71935679Y-149440017D03*
D10*
G36*
X72394570Y-148769192D02*
X72606504Y-148981126D01*
X71476788Y-150110842D01*
X71264854Y-149898908D01*
X72394570Y-148769192D01*
X72394570Y-148769192D01*
G37*
D18*
X71581857Y-149086195D03*
D10*
G36*
X72040748Y-148415370D02*
X72252682Y-148627304D01*
X71122966Y-149757020D01*
X70911032Y-149545086D01*
X72040748Y-148415370D01*
X72040748Y-148415370D01*
G37*
D18*
X71229831Y-148734169D03*
D10*
G36*
X71688722Y-148063344D02*
X71900656Y-148275278D01*
X70770940Y-149404994D01*
X70559006Y-149193060D01*
X71688722Y-148063344D01*
X71688722Y-148063344D01*
G37*
D18*
X70877805Y-148382143D03*
D10*
G36*
X71336696Y-147711318D02*
X71548630Y-147923252D01*
X70418914Y-149052968D01*
X70206980Y-148841034D01*
X71336696Y-147711318D01*
X71336696Y-147711318D01*
G37*
D18*
X70523983Y-148028321D03*
D10*
G36*
X70982874Y-147357496D02*
X71194808Y-147569430D01*
X70065092Y-148699146D01*
X69853158Y-148487212D01*
X70982874Y-147357496D01*
X70982874Y-147357496D01*
G37*
D18*
X70170161Y-147674499D03*
D10*
G36*
X70629052Y-147003674D02*
X70840986Y-147215608D01*
X69711270Y-148345324D01*
X69499336Y-148133390D01*
X70629052Y-147003674D01*
X70629052Y-147003674D01*
G37*
D18*
X69816339Y-147320676D03*
D10*
G36*
X70275230Y-146649851D02*
X70487164Y-146861785D01*
X69357448Y-147991501D01*
X69145514Y-147779567D01*
X70275230Y-146649851D01*
X70275230Y-146649851D01*
G37*
D18*
X69462517Y-146966854D03*
D10*
G36*
X69921408Y-146296029D02*
X70133342Y-146507963D01*
X69003626Y-147637679D01*
X68791692Y-147425745D01*
X69921408Y-146296029D01*
X69921408Y-146296029D01*
G37*
D18*
X69108695Y-146613032D03*
D10*
G36*
X69567586Y-145942207D02*
X69779520Y-146154141D01*
X68649804Y-147283857D01*
X68437870Y-147071923D01*
X69567586Y-145942207D01*
X69567586Y-145942207D01*
G37*
D18*
X68756669Y-146261006D03*
D10*
G36*
X69215560Y-145590181D02*
X69427494Y-145802115D01*
X68297778Y-146931831D01*
X68085844Y-146719897D01*
X69215560Y-145590181D01*
X69215560Y-145590181D01*
G37*
D18*
X68402847Y-145907184D03*
D10*
G36*
X68861738Y-145236359D02*
X69073672Y-145448293D01*
X67943956Y-146578009D01*
X67732022Y-146366075D01*
X68861738Y-145236359D01*
X68861738Y-145236359D01*
G37*
D18*
X68049025Y-145553362D03*
D10*
G36*
X68507916Y-144882537D02*
X68719850Y-145094471D01*
X67590134Y-146224187D01*
X67378200Y-146012253D01*
X68507916Y-144882537D01*
X68507916Y-144882537D01*
G37*
D18*
X67695202Y-145199540D03*
D10*
G36*
X68154093Y-144528715D02*
X68366027Y-144740649D01*
X67236311Y-145870365D01*
X67024377Y-145658431D01*
X68154093Y-144528715D01*
X68154093Y-144528715D01*
G37*
D18*
X67341380Y-144845718D03*
D10*
G36*
X67800271Y-144174893D02*
X68012205Y-144386827D01*
X66882489Y-145516543D01*
X66670555Y-145304609D01*
X67800271Y-144174893D01*
X67800271Y-144174893D01*
G37*
D18*
X66987558Y-144491896D03*
D10*
G36*
X67446449Y-143821071D02*
X67658383Y-144033005D01*
X66528667Y-145162721D01*
X66316733Y-144950787D01*
X67446449Y-143821071D01*
X67446449Y-143821071D01*
G37*
D18*
X64584442Y-144491896D03*
D10*
G36*
X63913617Y-144033005D02*
X64125551Y-143821071D01*
X65255267Y-144950787D01*
X65043333Y-145162721D01*
X63913617Y-144033005D01*
X63913617Y-144033005D01*
G37*
D18*
X64230620Y-144845718D03*
D10*
G36*
X63559795Y-144386827D02*
X63771729Y-144174893D01*
X64901445Y-145304609D01*
X64689511Y-145516543D01*
X63559795Y-144386827D01*
X63559795Y-144386827D01*
G37*
D18*
X63876798Y-145199540D03*
D10*
G36*
X63205973Y-144740649D02*
X63417907Y-144528715D01*
X64547623Y-145658431D01*
X64335689Y-145870365D01*
X63205973Y-144740649D01*
X63205973Y-144740649D01*
G37*
D18*
X63522975Y-145553362D03*
D10*
G36*
X62852150Y-145094471D02*
X63064084Y-144882537D01*
X64193800Y-146012253D01*
X63981866Y-146224187D01*
X62852150Y-145094471D01*
X62852150Y-145094471D01*
G37*
D18*
X63169153Y-145907184D03*
D10*
G36*
X62498328Y-145448293D02*
X62710262Y-145236359D01*
X63839978Y-146366075D01*
X63628044Y-146578009D01*
X62498328Y-145448293D01*
X62498328Y-145448293D01*
G37*
D18*
X62815331Y-146261006D03*
D10*
G36*
X62144506Y-145802115D02*
X62356440Y-145590181D01*
X63486156Y-146719897D01*
X63274222Y-146931831D01*
X62144506Y-145802115D01*
X62144506Y-145802115D01*
G37*
D18*
X62463305Y-146613032D03*
D10*
G36*
X61792480Y-146154141D02*
X62004414Y-145942207D01*
X63134130Y-147071923D01*
X62922196Y-147283857D01*
X61792480Y-146154141D01*
X61792480Y-146154141D01*
G37*
D18*
X62109483Y-146966854D03*
D10*
G36*
X61438658Y-146507963D02*
X61650592Y-146296029D01*
X62780308Y-147425745D01*
X62568374Y-147637679D01*
X61438658Y-146507963D01*
X61438658Y-146507963D01*
G37*
D18*
X61755661Y-147320676D03*
D10*
G36*
X61084836Y-146861785D02*
X61296770Y-146649851D01*
X62426486Y-147779567D01*
X62214552Y-147991501D01*
X61084836Y-146861785D01*
X61084836Y-146861785D01*
G37*
D18*
X61401839Y-147674499D03*
D10*
G36*
X60731014Y-147215608D02*
X60942948Y-147003674D01*
X62072664Y-148133390D01*
X61860730Y-148345324D01*
X60731014Y-147215608D01*
X60731014Y-147215608D01*
G37*
D18*
X61048017Y-148028321D03*
D10*
G36*
X60377192Y-147569430D02*
X60589126Y-147357496D01*
X61718842Y-148487212D01*
X61506908Y-148699146D01*
X60377192Y-147569430D01*
X60377192Y-147569430D01*
G37*
D18*
X60694195Y-148382143D03*
D10*
G36*
X60023370Y-147923252D02*
X60235304Y-147711318D01*
X61365020Y-148841034D01*
X61153086Y-149052968D01*
X60023370Y-147923252D01*
X60023370Y-147923252D01*
G37*
D18*
X60342169Y-148734169D03*
D10*
G36*
X59671344Y-148275278D02*
X59883278Y-148063344D01*
X61012994Y-149193060D01*
X60801060Y-149404994D01*
X59671344Y-148275278D01*
X59671344Y-148275278D01*
G37*
D18*
X59990143Y-149086195D03*
D10*
G36*
X59319318Y-148627304D02*
X59531252Y-148415370D01*
X60660968Y-149545086D01*
X60449034Y-149757020D01*
X59319318Y-148627304D01*
X59319318Y-148627304D01*
G37*
D18*
X59636321Y-149440017D03*
D10*
G36*
X58965496Y-148981126D02*
X59177430Y-148769192D01*
X60307146Y-149898908D01*
X60095212Y-150110842D01*
X58965496Y-148981126D01*
X58965496Y-148981126D01*
G37*
D18*
X59282499Y-149793839D03*
D10*
G36*
X58611674Y-149334948D02*
X58823608Y-149123014D01*
X59953324Y-150252730D01*
X59741390Y-150464664D01*
X58611674Y-149334948D01*
X58611674Y-149334948D01*
G37*
D18*
X58928676Y-150147661D03*
D10*
G36*
X58257851Y-149688770D02*
X58469785Y-149476836D01*
X59599501Y-150606552D01*
X59387567Y-150818486D01*
X58257851Y-149688770D01*
X58257851Y-149688770D01*
G37*
D18*
X58574854Y-150501483D03*
D10*
G36*
X57904029Y-150042592D02*
X58115963Y-149830658D01*
X59245679Y-150960374D01*
X59033745Y-151172308D01*
X57904029Y-150042592D01*
X57904029Y-150042592D01*
G37*
D18*
X58221032Y-150855305D03*
D10*
G36*
X57550207Y-150396414D02*
X57762141Y-150184480D01*
X58891857Y-151314196D01*
X58679923Y-151526130D01*
X57550207Y-150396414D01*
X57550207Y-150396414D01*
G37*
D18*
X57869006Y-151207331D03*
D10*
G36*
X57198181Y-150748440D02*
X57410115Y-150536506D01*
X58539831Y-151666222D01*
X58327897Y-151878156D01*
X57198181Y-150748440D01*
X57198181Y-150748440D01*
G37*
D18*
X57515184Y-151561153D03*
D10*
G36*
X56844359Y-151102262D02*
X57056293Y-150890328D01*
X58186009Y-152020044D01*
X57974075Y-152231978D01*
X56844359Y-151102262D01*
X56844359Y-151102262D01*
G37*
D18*
X57161362Y-151914975D03*
D10*
G36*
X56490537Y-151456084D02*
X56702471Y-151244150D01*
X57832187Y-152373866D01*
X57620253Y-152585800D01*
X56490537Y-151456084D01*
X56490537Y-151456084D01*
G37*
D18*
X56807540Y-152268798D03*
D10*
G36*
X56136715Y-151809907D02*
X56348649Y-151597973D01*
X57478365Y-152727689D01*
X57266431Y-152939623D01*
X56136715Y-151809907D01*
X56136715Y-151809907D01*
G37*
D18*
X56453718Y-152622620D03*
D10*
G36*
X55782893Y-152163729D02*
X55994827Y-151951795D01*
X57124543Y-153081511D01*
X56912609Y-153293445D01*
X55782893Y-152163729D01*
X55782893Y-152163729D01*
G37*
D18*
X56099896Y-152976442D03*
D10*
G36*
X55429071Y-152517551D02*
X55641005Y-152305617D01*
X56770721Y-153435333D01*
X56558787Y-153647267D01*
X55429071Y-152517551D01*
X55429071Y-152517551D01*
G37*
D18*
X56099896Y-155379558D03*
D10*
G36*
X56558787Y-154708733D02*
X56770721Y-154920667D01*
X55641005Y-156050383D01*
X55429071Y-155838449D01*
X56558787Y-154708733D01*
X56558787Y-154708733D01*
G37*
D18*
X56453718Y-155733380D03*
D10*
G36*
X56912609Y-155062555D02*
X57124543Y-155274489D01*
X55994827Y-156404205D01*
X55782893Y-156192271D01*
X56912609Y-155062555D01*
X56912609Y-155062555D01*
G37*
D18*
X56807540Y-156087202D03*
D10*
G36*
X57266431Y-155416377D02*
X57478365Y-155628311D01*
X56348649Y-156758027D01*
X56136715Y-156546093D01*
X57266431Y-155416377D01*
X57266431Y-155416377D01*
G37*
D18*
X57161362Y-156441025D03*
D10*
G36*
X57620253Y-155770200D02*
X57832187Y-155982134D01*
X56702471Y-157111850D01*
X56490537Y-156899916D01*
X57620253Y-155770200D01*
X57620253Y-155770200D01*
G37*
D18*
X57515184Y-156794847D03*
D10*
G36*
X57974075Y-156124022D02*
X58186009Y-156335956D01*
X57056293Y-157465672D01*
X56844359Y-157253738D01*
X57974075Y-156124022D01*
X57974075Y-156124022D01*
G37*
D18*
X57869006Y-157148669D03*
D10*
G36*
X58327897Y-156477844D02*
X58539831Y-156689778D01*
X57410115Y-157819494D01*
X57198181Y-157607560D01*
X58327897Y-156477844D01*
X58327897Y-156477844D01*
G37*
D18*
X58221032Y-157500695D03*
D10*
G36*
X58679923Y-156829870D02*
X58891857Y-157041804D01*
X57762141Y-158171520D01*
X57550207Y-157959586D01*
X58679923Y-156829870D01*
X58679923Y-156829870D01*
G37*
D18*
X58574854Y-157854517D03*
D10*
G36*
X59033745Y-157183692D02*
X59245679Y-157395626D01*
X58115963Y-158525342D01*
X57904029Y-158313408D01*
X59033745Y-157183692D01*
X59033745Y-157183692D01*
G37*
D18*
X58928676Y-158208339D03*
D10*
G36*
X59387567Y-157537514D02*
X59599501Y-157749448D01*
X58469785Y-158879164D01*
X58257851Y-158667230D01*
X59387567Y-157537514D01*
X59387567Y-157537514D01*
G37*
D18*
X59282499Y-158562161D03*
D10*
G36*
X59741390Y-157891336D02*
X59953324Y-158103270D01*
X58823608Y-159232986D01*
X58611674Y-159021052D01*
X59741390Y-157891336D01*
X59741390Y-157891336D01*
G37*
D18*
X59636321Y-158915983D03*
D10*
G36*
X60095212Y-158245158D02*
X60307146Y-158457092D01*
X59177430Y-159586808D01*
X58965496Y-159374874D01*
X60095212Y-158245158D01*
X60095212Y-158245158D01*
G37*
D18*
X59990143Y-159269805D03*
D10*
G36*
X60449034Y-158598980D02*
X60660968Y-158810914D01*
X59531252Y-159940630D01*
X59319318Y-159728696D01*
X60449034Y-158598980D01*
X60449034Y-158598980D01*
G37*
D18*
X60342169Y-159621831D03*
D10*
G36*
X60801060Y-158951006D02*
X61012994Y-159162940D01*
X59883278Y-160292656D01*
X59671344Y-160080722D01*
X60801060Y-158951006D01*
X60801060Y-158951006D01*
G37*
D18*
X60694195Y-159973857D03*
D10*
G36*
X61153086Y-159303032D02*
X61365020Y-159514966D01*
X60235304Y-160644682D01*
X60023370Y-160432748D01*
X61153086Y-159303032D01*
X61153086Y-159303032D01*
G37*
D18*
X61048017Y-160327679D03*
D10*
G36*
X61506908Y-159656854D02*
X61718842Y-159868788D01*
X60589126Y-160998504D01*
X60377192Y-160786570D01*
X61506908Y-159656854D01*
X61506908Y-159656854D01*
G37*
D18*
X61401839Y-160681501D03*
D10*
G36*
X61860730Y-160010676D02*
X62072664Y-160222610D01*
X60942948Y-161352326D01*
X60731014Y-161140392D01*
X61860730Y-160010676D01*
X61860730Y-160010676D01*
G37*
D18*
X61755661Y-161035324D03*
D10*
G36*
X62214552Y-160364499D02*
X62426486Y-160576433D01*
X61296770Y-161706149D01*
X61084836Y-161494215D01*
X62214552Y-160364499D01*
X62214552Y-160364499D01*
G37*
D18*
X62109483Y-161389146D03*
D10*
G36*
X62568374Y-160718321D02*
X62780308Y-160930255D01*
X61650592Y-162059971D01*
X61438658Y-161848037D01*
X62568374Y-160718321D01*
X62568374Y-160718321D01*
G37*
D18*
X62463305Y-161742968D03*
D10*
G36*
X62922196Y-161072143D02*
X63134130Y-161284077D01*
X62004414Y-162413793D01*
X61792480Y-162201859D01*
X62922196Y-161072143D01*
X62922196Y-161072143D01*
G37*
D18*
X62815331Y-162094994D03*
D10*
G36*
X63274222Y-161424169D02*
X63486156Y-161636103D01*
X62356440Y-162765819D01*
X62144506Y-162553885D01*
X63274222Y-161424169D01*
X63274222Y-161424169D01*
G37*
D18*
X63169153Y-162448816D03*
D10*
G36*
X63628044Y-161777991D02*
X63839978Y-161989925D01*
X62710262Y-163119641D01*
X62498328Y-162907707D01*
X63628044Y-161777991D01*
X63628044Y-161777991D01*
G37*
D18*
X63522975Y-162802638D03*
D10*
G36*
X63981866Y-162131813D02*
X64193800Y-162343747D01*
X63064084Y-163473463D01*
X62852150Y-163261529D01*
X63981866Y-162131813D01*
X63981866Y-162131813D01*
G37*
D18*
X63876798Y-163156460D03*
D10*
G36*
X64335689Y-162485635D02*
X64547623Y-162697569D01*
X63417907Y-163827285D01*
X63205973Y-163615351D01*
X64335689Y-162485635D01*
X64335689Y-162485635D01*
G37*
D18*
X64230620Y-163510282D03*
D10*
G36*
X64689511Y-162839457D02*
X64901445Y-163051391D01*
X63771729Y-164181107D01*
X63559795Y-163969173D01*
X64689511Y-162839457D01*
X64689511Y-162839457D01*
G37*
D18*
X64584442Y-163864104D03*
D10*
G36*
X65043333Y-163193279D02*
X65255267Y-163405213D01*
X64125551Y-164534929D01*
X63913617Y-164322995D01*
X65043333Y-163193279D01*
X65043333Y-163193279D01*
G37*
D18*
X66987558Y-163864104D03*
D10*
G36*
X66316733Y-163405213D02*
X66528667Y-163193279D01*
X67658383Y-164322995D01*
X67446449Y-164534929D01*
X66316733Y-163405213D01*
X66316733Y-163405213D01*
G37*
D18*
X67341380Y-163510282D03*
D10*
G36*
X66670555Y-163051391D02*
X66882489Y-162839457D01*
X68012205Y-163969173D01*
X67800271Y-164181107D01*
X66670555Y-163051391D01*
X66670555Y-163051391D01*
G37*
D18*
X67695202Y-163156460D03*
D10*
G36*
X67024377Y-162697569D02*
X67236311Y-162485635D01*
X68366027Y-163615351D01*
X68154093Y-163827285D01*
X67024377Y-162697569D01*
X67024377Y-162697569D01*
G37*
D18*
X68049025Y-162802638D03*
D10*
G36*
X67378200Y-162343747D02*
X67590134Y-162131813D01*
X68719850Y-163261529D01*
X68507916Y-163473463D01*
X67378200Y-162343747D01*
X67378200Y-162343747D01*
G37*
D18*
X68402847Y-162448816D03*
D10*
G36*
X67732022Y-161989925D02*
X67943956Y-161777991D01*
X69073672Y-162907707D01*
X68861738Y-163119641D01*
X67732022Y-161989925D01*
X67732022Y-161989925D01*
G37*
D18*
X68756669Y-162094994D03*
D10*
G36*
X68085844Y-161636103D02*
X68297778Y-161424169D01*
X69427494Y-162553885D01*
X69215560Y-162765819D01*
X68085844Y-161636103D01*
X68085844Y-161636103D01*
G37*
D18*
X69108695Y-161742968D03*
D10*
G36*
X68437870Y-161284077D02*
X68649804Y-161072143D01*
X69779520Y-162201859D01*
X69567586Y-162413793D01*
X68437870Y-161284077D01*
X68437870Y-161284077D01*
G37*
D18*
X69462517Y-161389146D03*
D10*
G36*
X68791692Y-160930255D02*
X69003626Y-160718321D01*
X70133342Y-161848037D01*
X69921408Y-162059971D01*
X68791692Y-160930255D01*
X68791692Y-160930255D01*
G37*
D18*
X69816339Y-161035324D03*
D10*
G36*
X69145514Y-160576433D02*
X69357448Y-160364499D01*
X70487164Y-161494215D01*
X70275230Y-161706149D01*
X69145514Y-160576433D01*
X69145514Y-160576433D01*
G37*
D18*
X70170161Y-160681501D03*
D10*
G36*
X69499336Y-160222610D02*
X69711270Y-160010676D01*
X70840986Y-161140392D01*
X70629052Y-161352326D01*
X69499336Y-160222610D01*
X69499336Y-160222610D01*
G37*
D18*
X70523983Y-160327679D03*
D10*
G36*
X69853158Y-159868788D02*
X70065092Y-159656854D01*
X71194808Y-160786570D01*
X70982874Y-160998504D01*
X69853158Y-159868788D01*
X69853158Y-159868788D01*
G37*
D18*
X70877805Y-159973857D03*
D10*
G36*
X70206980Y-159514966D02*
X70418914Y-159303032D01*
X71548630Y-160432748D01*
X71336696Y-160644682D01*
X70206980Y-159514966D01*
X70206980Y-159514966D01*
G37*
D18*
X71229831Y-159621831D03*
D10*
G36*
X70559006Y-159162940D02*
X70770940Y-158951006D01*
X71900656Y-160080722D01*
X71688722Y-160292656D01*
X70559006Y-159162940D01*
X70559006Y-159162940D01*
G37*
D18*
X71581857Y-159269805D03*
D10*
G36*
X70911032Y-158810914D02*
X71122966Y-158598980D01*
X72252682Y-159728696D01*
X72040748Y-159940630D01*
X70911032Y-158810914D01*
X70911032Y-158810914D01*
G37*
D18*
X71935679Y-158915983D03*
D10*
G36*
X71264854Y-158457092D02*
X71476788Y-158245158D01*
X72606504Y-159374874D01*
X72394570Y-159586808D01*
X71264854Y-158457092D01*
X71264854Y-158457092D01*
G37*
D18*
X72289501Y-158562161D03*
D10*
G36*
X71618676Y-158103270D02*
X71830610Y-157891336D01*
X72960326Y-159021052D01*
X72748392Y-159232986D01*
X71618676Y-158103270D01*
X71618676Y-158103270D01*
G37*
D18*
X72643324Y-158208339D03*
D10*
G36*
X71972499Y-157749448D02*
X72184433Y-157537514D01*
X73314149Y-158667230D01*
X73102215Y-158879164D01*
X71972499Y-157749448D01*
X71972499Y-157749448D01*
G37*
D18*
X72997146Y-157854517D03*
D10*
G36*
X72326321Y-157395626D02*
X72538255Y-157183692D01*
X73667971Y-158313408D01*
X73456037Y-158525342D01*
X72326321Y-157395626D01*
X72326321Y-157395626D01*
G37*
D18*
X73350968Y-157500695D03*
D10*
G36*
X72680143Y-157041804D02*
X72892077Y-156829870D01*
X74021793Y-157959586D01*
X73809859Y-158171520D01*
X72680143Y-157041804D01*
X72680143Y-157041804D01*
G37*
D18*
X73702994Y-157148669D03*
D10*
G36*
X73032169Y-156689778D02*
X73244103Y-156477844D01*
X74373819Y-157607560D01*
X74161885Y-157819494D01*
X73032169Y-156689778D01*
X73032169Y-156689778D01*
G37*
D18*
X74056816Y-156794847D03*
D10*
G36*
X73385991Y-156335956D02*
X73597925Y-156124022D01*
X74727641Y-157253738D01*
X74515707Y-157465672D01*
X73385991Y-156335956D01*
X73385991Y-156335956D01*
G37*
D18*
X74410638Y-156441025D03*
D10*
G36*
X73739813Y-155982134D02*
X73951747Y-155770200D01*
X75081463Y-156899916D01*
X74869529Y-157111850D01*
X73739813Y-155982134D01*
X73739813Y-155982134D01*
G37*
D18*
X74764460Y-156087202D03*
D10*
G36*
X74093635Y-155628311D02*
X74305569Y-155416377D01*
X75435285Y-156546093D01*
X75223351Y-156758027D01*
X74093635Y-155628311D01*
X74093635Y-155628311D01*
G37*
D18*
X75118282Y-155733380D03*
D10*
G36*
X74447457Y-155274489D02*
X74659391Y-155062555D01*
X75789107Y-156192271D01*
X75577173Y-156404205D01*
X74447457Y-155274489D01*
X74447457Y-155274489D01*
G37*
D18*
X75472104Y-155379558D03*
D10*
G36*
X74801279Y-154920667D02*
X75013213Y-154708733D01*
X76142929Y-155838449D01*
X75930995Y-156050383D01*
X74801279Y-154920667D01*
X74801279Y-154920667D01*
G37*
G04 #@! TD*
D19*
G04 #@! TO.C,U3*
X70063000Y-99482000D03*
X69413000Y-99482000D03*
X68763000Y-99482000D03*
X68113000Y-99482000D03*
X68113000Y-95082000D03*
X68763000Y-95082000D03*
X69413000Y-95082000D03*
X70063000Y-95082000D03*
G04 #@! TD*
D10*
G04 #@! TO.C,R1*
G36*
X56354505Y-148025204D02*
X56378773Y-148028804D01*
X56402572Y-148034765D01*
X56425671Y-148043030D01*
X56447850Y-148053520D01*
X56468893Y-148066132D01*
X56488599Y-148080747D01*
X56506777Y-148097223D01*
X56523253Y-148115401D01*
X56537868Y-148135107D01*
X56550480Y-148156150D01*
X56560970Y-148178329D01*
X56569235Y-148201428D01*
X56575196Y-148225227D01*
X56578796Y-148249495D01*
X56580000Y-148273999D01*
X56580000Y-148924001D01*
X56578796Y-148948505D01*
X56575196Y-148972773D01*
X56569235Y-148996572D01*
X56560970Y-149019671D01*
X56550480Y-149041850D01*
X56537868Y-149062893D01*
X56523253Y-149082599D01*
X56506777Y-149100777D01*
X56488599Y-149117253D01*
X56468893Y-149131868D01*
X56447850Y-149144480D01*
X56425671Y-149154970D01*
X56402572Y-149163235D01*
X56378773Y-149169196D01*
X56354505Y-149172796D01*
X56330001Y-149174000D01*
X55429999Y-149174000D01*
X55405495Y-149172796D01*
X55381227Y-149169196D01*
X55357428Y-149163235D01*
X55334329Y-149154970D01*
X55312150Y-149144480D01*
X55291107Y-149131868D01*
X55271401Y-149117253D01*
X55253223Y-149100777D01*
X55236747Y-149082599D01*
X55222132Y-149062893D01*
X55209520Y-149041850D01*
X55199030Y-149019671D01*
X55190765Y-148996572D01*
X55184804Y-148972773D01*
X55181204Y-148948505D01*
X55180000Y-148924001D01*
X55180000Y-148273999D01*
X55181204Y-148249495D01*
X55184804Y-148225227D01*
X55190765Y-148201428D01*
X55199030Y-148178329D01*
X55209520Y-148156150D01*
X55222132Y-148135107D01*
X55236747Y-148115401D01*
X55253223Y-148097223D01*
X55271401Y-148080747D01*
X55291107Y-148066132D01*
X55312150Y-148053520D01*
X55334329Y-148043030D01*
X55357428Y-148034765D01*
X55381227Y-148028804D01*
X55405495Y-148025204D01*
X55429999Y-148024000D01*
X56330001Y-148024000D01*
X56354505Y-148025204D01*
X56354505Y-148025204D01*
G37*
D11*
X55880000Y-148599000D03*
D10*
G36*
X56354505Y-145975204D02*
X56378773Y-145978804D01*
X56402572Y-145984765D01*
X56425671Y-145993030D01*
X56447850Y-146003520D01*
X56468893Y-146016132D01*
X56488599Y-146030747D01*
X56506777Y-146047223D01*
X56523253Y-146065401D01*
X56537868Y-146085107D01*
X56550480Y-146106150D01*
X56560970Y-146128329D01*
X56569235Y-146151428D01*
X56575196Y-146175227D01*
X56578796Y-146199495D01*
X56580000Y-146223999D01*
X56580000Y-146874001D01*
X56578796Y-146898505D01*
X56575196Y-146922773D01*
X56569235Y-146946572D01*
X56560970Y-146969671D01*
X56550480Y-146991850D01*
X56537868Y-147012893D01*
X56523253Y-147032599D01*
X56506777Y-147050777D01*
X56488599Y-147067253D01*
X56468893Y-147081868D01*
X56447850Y-147094480D01*
X56425671Y-147104970D01*
X56402572Y-147113235D01*
X56378773Y-147119196D01*
X56354505Y-147122796D01*
X56330001Y-147124000D01*
X55429999Y-147124000D01*
X55405495Y-147122796D01*
X55381227Y-147119196D01*
X55357428Y-147113235D01*
X55334329Y-147104970D01*
X55312150Y-147094480D01*
X55291107Y-147081868D01*
X55271401Y-147067253D01*
X55253223Y-147050777D01*
X55236747Y-147032599D01*
X55222132Y-147012893D01*
X55209520Y-146991850D01*
X55199030Y-146969671D01*
X55190765Y-146946572D01*
X55184804Y-146922773D01*
X55181204Y-146898505D01*
X55180000Y-146874001D01*
X55180000Y-146223999D01*
X55181204Y-146199495D01*
X55184804Y-146175227D01*
X55190765Y-146151428D01*
X55199030Y-146128329D01*
X55209520Y-146106150D01*
X55222132Y-146085107D01*
X55236747Y-146065401D01*
X55253223Y-146047223D01*
X55271401Y-146030747D01*
X55291107Y-146016132D01*
X55312150Y-146003520D01*
X55334329Y-145993030D01*
X55357428Y-145984765D01*
X55381227Y-145978804D01*
X55405495Y-145975204D01*
X55429999Y-145974000D01*
X56330001Y-145974000D01*
X56354505Y-145975204D01*
X56354505Y-145975204D01*
G37*
D11*
X55880000Y-146549000D03*
G04 #@! TD*
M02*
